<svg width="18" height="20" viewBox="0 0 25 25" fill="none" xmlns="http://www.w3.org/2000/svg">
<path d="M22.9569 0.756616C21.6779 -0.196688 20.1255 -0.252403 18.8038 0.607932L5.62935 9.18417C4.6304 9.83446 4.00977 11.1051 4.00977 12.5001C4.00977 13.8951 4.6304 15.1658 5.62935 15.8161L18.8038 24.3921C19.4274 24.7979 20.1025 25 20.7757 25C21.5295 25 22.2813 24.7469 22.9567 24.2434C24.2357 23.2901 24.9993 21.6194 24.9993 19.774V5.2261C24.9994 3.38086 24.2358 1.71009 22.9569 0.756616ZM22.5761 19.774C22.5761 20.5728 22.2587 21.2676 21.7049 21.6802C21.1514 22.093 20.5057 22.1161 19.9336 21.7436L6.75915 13.1677C6.46485 12.9761 6.43308 12.637 6.43308 12.5001C6.43308 12.3632 6.46485 12.0241 6.75915 11.8325L19.9336 3.25646C20.2038 3.0805 20.4906 2.99285 20.7763 2.99285C21.0952 2.99285 21.4129 3.10212 21.7049 3.31983C22.2587 3.73245 22.5761 4.4273 22.5761 5.2261V19.774V19.774Z" fill="#6646E7"/>
<path d="M1.21166 1.29688C0.542419 1.29688 0 1.96695 0 2.79369V22.2079C0 23.0346 0.542419 23.7047 1.21166 23.7047C1.8809 23.7047 2.42332 23.0346 2.42332 22.2079V2.79369C2.42332 1.96695 1.8809 1.29688 1.21166 1.29688Z" fill="#6646E7"/>
</svg>
