<svg width="23" height="23" viewBox="0 0 26 26" fill="none" xmlns="http://www.w3.org/2000/svg">
<path d="M4.87778 0.955886C4.41554 1.14851 4.11656 1.40484 3.70865 1.92903C2.86017 3.01956 2.49589 4.84848 2.77318 6.64479C3.40405 10.7084 6.51478 12.6437 8.40713 10.1521C8.85305 9.56424 8.92372 9.5211 9.29362 9.68162C9.53826 9.77793 9.65255 9.89531 9.81556 10.2163L10.0222 10.6227L10.1201 10.1737C10.1745 9.92791 10.3214 9.2753 10.4464 8.7195C10.5661 8.1632 10.6747 7.66108 10.6804 7.58584C10.6913 7.52163 10.5064 7.15795 10.2724 6.79478C9.83188 6.08899 9.40229 5.15848 9.04336 4.13216C8.46683 2.48533 7.55866 1.35167 6.4982 0.945351C6.0033 0.763764 5.31809 0.763764 4.87778 0.955886ZM6.45483 3.3085C6.63417 3.40481 6.91172 3.62954 7.07473 3.82166C7.98825 4.89112 8.16785 6.90162 7.46096 8.099C6.72677 9.32897 5.37804 9.10425 4.64947 7.61794C4.07854 6.4632 4.05125 5.13691 4.5788 4.10006C5.01375 3.24429 5.73161 2.94482 6.45483 3.3085Z" fill="#6646E7"/>
<path d="M22.1992 4.3468C21.8619 4.49628 18.9581 5.86521 15.5918 7.47993C13.7484 8.3673 12.7313 8.8915 12.677 9.00888C12.628 9.10519 12.2037 10.4099 11.7361 11.8962L10.877 14.6015L11.3065 15.5209C11.5405 16.0236 11.8178 16.633 11.9211 16.8683L12.1114 17.2852L17.74 12.0783C20.8344 9.21254 23.5752 6.67834 23.8308 6.44308L24.2931 6.02623L24.1571 5.81254C23.401 4.61416 22.7377 4.11153 22.1992 4.3468ZM14.091 10.6773C14.7055 11.3083 14.477 13.2009 13.7864 13.2009C13.4818 13.2009 13.2535 12.9441 13.1392 12.4736C12.9272 11.5968 13.2479 10.5273 13.7157 10.5273C13.8407 10.5278 14.0094 10.6025 14.091 10.6773Z" fill="#6646E7"/>
<path d="M11.0895 7.92841C10.9535 8.3563 10.4043 11.0079 10.4369 11.0615C10.4913 11.1579 11.1548 11.7031 11.2091 11.7031C11.2581 11.7031 12.15 8.89103 12.15 8.74104C12.15 8.6984 11.9597 8.50578 11.7204 8.31316C11.1821 7.86471 11.1222 7.82157 11.0895 7.92841Z" fill="#6646E7"/>
<path d="M1.15346 12.6982C1.05014 12.7945 1.01213 12.9334 1.00116 13.2224C0.974123 13.8103 1.11545 13.9492 1.72464 13.9492C2.33382 13.9492 2.47515 13.8103 2.44785 13.2219C2.42617 12.6977 2.27387 12.5587 1.72464 12.5587C1.48535 12.5592 1.22974 12.6234 1.15346 12.6982Z" fill="#6646E7"/>
<path d="M3.19232 12.8261C3.01834 13.1577 3.01834 13.4461 3.19768 13.7245C3.32268 13.9171 3.42064 13.9492 3.85023 13.9492C4.2908 13.9492 4.37779 13.9171 4.47013 13.7355C4.62243 13.4361 4.6061 13.0513 4.43748 12.7839C4.31248 12.5913 4.21452 12.5592 3.80661 12.5592C3.3663 12.5587 3.31197 12.5803 3.19232 12.8261Z" fill="#6646E7"/>
<path d="M5.36853 12.6751C5.14557 12.9425 5.11292 13.3915 5.2869 13.7336C5.37924 13.9152 5.46623 13.9473 5.91241 13.9473C6.39634 13.9473 6.44532 13.9257 6.57032 13.6799C6.717 13.391 6.71165 13.092 6.55935 12.771C6.45629 12.5683 5.5318 12.4936 5.36853 12.6751Z" fill="#6646E7"/>
<path d="M7.47254 12.6656C7.31488 12.794 7.22254 13.254 7.29856 13.5213C7.3909 13.8634 7.5432 13.9492 8.05443 13.9492C8.47866 13.9492 8.56565 13.9171 8.658 13.7355C8.783 13.4897 8.79933 13.1155 8.69065 12.8161C8.62535 12.645 8.53836 12.6129 8.10341 12.5913C7.82611 12.5693 7.5432 12.6124 7.47254 12.6656Z" fill="#6646E7"/>
<path d="M9.51841 12.7715C9.33346 13.0494 9.32275 13.4346 9.48576 13.7341C9.67071 14.0657 10.1926 14.0441 10.3722 13.6804C10.5355 13.3704 10.5409 13.1994 10.4049 12.8678C10.258 12.5041 9.72505 12.4399 9.51841 12.7715Z" fill="#6646E7"/>
<path d="M20.3506 12.6973C20.269 12.7721 20.2093 12.9431 20.1983 13.0931C20.182 13.3389 20.22 13.382 20.6063 13.6599C21.1445 14.0342 21.4001 14.0342 21.5741 13.6815C21.6504 13.5426 21.7101 13.3499 21.7101 13.2536C21.7101 13.1573 21.6504 12.9647 21.5741 12.8257C21.4545 12.58 21.4001 12.5584 20.9649 12.5584C20.6879 12.5584 20.4269 12.6226 20.3506 12.6973Z" fill="#6646E7"/>
<path d="M22.5425 12.6661C22.4229 12.7624 22.3086 13.0829 22.3086 13.3076C22.3086 13.3719 22.3683 13.5429 22.4446 13.6819C22.5642 13.9276 22.6185 13.9492 23.0971 13.9492C23.581 13.9492 23.63 13.9276 23.755 13.6819C23.902 13.3929 23.8964 13.094 23.7443 12.7729C23.652 12.5808 22.7384 12.495 22.5425 12.6661Z" fill="#6646E7"/>
<path d="M24.6201 12.8261C24.4461 13.1577 24.4461 13.4461 24.6254 13.7245C24.7507 13.9171 24.8484 13.9492 25.2673 13.9492C25.8818 13.9492 26.0231 13.8103 25.9958 13.2219C25.9741 12.6871 25.8272 12.5587 25.229 12.5587C24.794 12.5587 24.7397 12.5803 24.6201 12.8261Z" fill="#6646E7"/>
<path d="M16.7927 13.9476L15.6562 15.1023L16.82 15.8507C18.5984 17.006 20.5234 18.2033 21.2359 18.6096C22.4323 19.2833 23.0412 19.0586 23.9277 17.6044L24.107 17.3155L21.0999 15.0386C19.4412 13.7981 18.0545 12.7712 18.0111 12.7823C17.9675 12.7928 17.4182 13.317 16.7927 13.9476Z" fill="#6646E7"/>
<path d="M6.67408 14.8575C5.62459 15.3064 4.55315 16.7932 4.00928 18.5359C2.73146 22.6853 4.32484 26.6737 6.85367 25.6474C8.04475 25.1663 9.13761 23.5942 9.69246 21.5627C9.95343 20.5895 10.2743 19.9479 11.1608 18.6432C11.4164 18.269 11.6284 17.9053 11.634 17.8517C11.6504 17.7022 10.6062 15.3496 10.5246 15.3496C10.4866 15.339 10.2907 15.649 10.084 16.0232L9.71414 16.7075L9.43685 16.1406C9.1269 15.5096 8.64832 15.007 8.18072 14.8148C7.79985 14.6653 7.08199 14.6759 6.67408 14.8575ZM7.82715 17.4238C8.08812 17.6375 8.31108 18.0548 8.45266 18.5895C8.59934 19.1458 8.5723 20.2043 8.39832 20.9101C8.22434 21.6053 7.77842 22.45 7.38684 22.8242C6.26668 23.8937 5.10826 23.0379 5.02663 21.0706C4.96668 19.5416 5.70086 17.8411 6.65265 17.3169C7.00061 17.1248 7.52255 17.178 7.82715 17.4238Z" fill="#6646E7"/>
</svg>
