<svg width="24" height="24" viewBox="0 0 24 24" fill="none" xmlns="http://www.w3.org/2000/svg">
<path d="M10 5.99943C10 6.73143 9.80301 7.41843 9.46001 8.00943L12 10.5844L18.728 3.85643C19.1031 3.48149 19.6117 3.27086 20.142 3.27086C20.6723 3.27086 21.181 3.48149 21.556 3.85643L9.44601 15.9664C9.9405 16.8051 10.1121 17.7953 9.92877 18.7515C9.7454 19.7076 9.21959 20.5641 8.44992 21.1603C7.68024 21.7565 6.71954 22.0515 5.74789 21.9901C4.77625 21.9286 3.86037 21.5149 3.17194 20.8265C2.48351 20.1381 2.06979 19.2222 2.00834 18.2505C1.94689 17.2789 2.24192 16.3182 2.83814 15.5485C3.43435 14.7788 4.29081 14.253 5.24697 14.0697C6.20313 13.8863 7.19335 14.0579 8.03201 14.5524L10.586 11.9994L8.03201 9.44543C7.2722 9.89354 6.38559 10.0779 5.51013 9.96989C4.63467 9.86186 3.81947 9.46748 3.1914 8.84811C2.56332 8.22874 2.15759 7.41913 2.03734 6.54527C1.9171 5.6714 2.08909 4.7823 2.52654 4.01631C2.96399 3.25033 3.64237 2.65043 4.45612 2.30996C5.26986 1.96949 6.17333 1.90756 7.02592 2.1338C7.87851 2.36004 8.63241 2.86176 9.17029 3.56089C9.70818 4.26001 9.99988 5.11733 10 5.99943ZM8.00001 5.99943C8.00001 5.469 7.78929 4.96029 7.41422 4.58522C7.03915 4.21014 6.53044 3.99943 6.00001 3.99943C5.46957 3.99943 4.96086 4.21014 4.58579 4.58522C4.21072 4.96029 4.00001 5.469 4.00001 5.99943C4.00001 6.52986 4.21072 7.03857 4.58579 7.41364C4.96086 7.78872 5.46957 7.99943 6.00001 7.99943C6.53044 7.99943 7.03915 7.78872 7.41422 7.41364C7.78929 7.03857 8.00001 6.52986 8.00001 5.99943ZM21.556 20.1414C21.181 20.5164 20.6723 20.727 20.142 20.727C19.6117 20.727 19.1031 20.5164 18.728 20.1414L13.411 14.8254L14.826 13.4104L21.556 20.1414V20.1414ZM16 10.9994H18V12.9994H16V10.9994ZM20 10.9994H22V12.9994H20V10.9994ZM6.00001 10.9994H8.00001V12.9994H6.00001V10.9994ZM2.00001 10.9994H4.00001V12.9994H2.00001V10.9994ZM6.00001 19.9994C6.53044 19.9994 7.03915 19.7887 7.41422 19.4136C7.78929 19.0386 8.00001 18.5299 8.00001 17.9994C8.00001 17.469 7.78929 16.9603 7.41422 16.5852C7.03915 16.2101 6.53044 15.9994 6.00001 15.9994C5.46957 15.9994 4.96086 16.2101 4.58579 16.5852C4.21072 16.9603 4.00001 17.469 4.00001 17.9994C4.00001 18.5299 4.21072 19.0386 4.58579 19.4136C4.96086 19.7887 5.46957 19.9994 6.00001 19.9994V19.9994Z" fill="#6646E7"/>
</svg>
