<svg width="20" height="20" viewBox="0 0 20 20" fill="none" xmlns="http://www.w3.org/2000/svg">
<g clip-path="url(#clip0_308_87)">
<path d="M19.7448 9.55778L10.5116 4.22667C10.3536 4.13538 10.1591 4.13538 10.001 4.22667C9.84291 4.31776 9.74572 4.4864 9.74572 4.66878V9.41151L0.765836 4.22667C0.607807 4.13538 0.413335 4.13538 0.255265 4.22667C0.0972772 4.31776 0 4.4864 0 4.66878V15.3305C0 15.5129 0.097236 15.6815 0.255265 15.7727C0.334259 15.8183 0.422291 15.8411 0.510654 15.8411C0.598851 15.8411 0.686884 15.8183 0.765878 15.7727L9.7458 10.5883V15.3305C9.7458 15.5129 9.84295 15.6815 10.0011 15.7727C10.0801 15.8183 10.1681 15.8411 10.2563 15.8411C10.3446 15.8411 10.4326 15.8183 10.5117 15.7727L19.7448 10.4421C19.9028 10.351 20.0001 10.1823 20.0001 9.99997C20 9.8175 19.9028 9.64899 19.7448 9.55778ZM1.02114 14.4462V5.55319L8.72264 9.99993L1.02114 14.4462ZM10.7669 14.4462V5.55319L18.4683 9.99993L10.7669 14.4462Z" fill="#6646E7"/>
</g>
<defs>
<clipPath id="clip0_308_87">
<rect width="20" height="20" fill="white"/>
</clipPath>
</defs>
</svg>
