<svg width="24" height="36" viewBox="0 0 24 36" fill="none" xmlns="http://www.w3.org/2000/svg">
<path d="M11.9229 2C10.795 2 9.7132 2.44809 8.9156 3.24569C8.11801 4.04329 7.66992 5.12508 7.66992 6.25306V17.5945C7.66992 18.7225 8.11801 19.8043 8.9156 20.6019C9.7132 21.3995 10.795 21.8476 11.9229 21.8476C13.0509 21.8476 14.1327 21.3995 14.9303 20.6019C15.7279 19.8043 16.176 18.7225 16.176 17.5945V6.25306C16.176 5.12508 15.7279 4.04329 14.9303 3.24569C14.1327 2.44809 13.0509 2 11.9229 2V2Z" stroke="#FAFAFA" stroke-width="3" stroke-linecap="round" stroke-linejoin="round"/>
<path d="M21.8476 14.7588V17.5942C21.8476 20.2261 20.8021 22.7503 18.941 24.6113C17.0799 26.4724 14.5558 27.5179 11.9238 27.5179C9.29184 27.5179 6.76769 26.4724 4.90661 24.6113C3.04554 22.7503 2 20.2261 2 17.5942V14.7588" stroke="#FAFAFA" stroke-width="3" stroke-linecap="round" stroke-linejoin="round"/>
<path d="M11.9238 27.8018V33.4724" stroke="#FAFAFA" stroke-width="3" stroke-linecap="round" stroke-linejoin="round"/>
<path d="M6.25195 33.7559H17.5934" stroke="#FAFAFA" stroke-width="3" stroke-linecap="round" stroke-linejoin="round"/>
</svg>
