<svg width="25" height="25" viewBox="0 0 29 22" fill="none" xmlns="http://www.w3.org/2000/svg">
<path d="M17 3C17 1.89543 17.8954 1 19 1H25.5C26.6046 1 27.5 1.89543 27.5 3V19C27.5 20.1046 26.6046 21 25.5 21H19C17.8954 21 17 20.1046 17 19V3Z" fill="#DDD4FE" stroke="#1D1D1D" stroke-width="2" stroke-linecap="round" stroke-linejoin="round"/>
<path d="M1 3C1 1.89543 1.89543 1 3 1H9.5C10.6046 1 11.5 1.89543 11.5 3V19C11.5 20.1046 10.6046 21 9.5 21H3C1.89543 21 1 20.1046 1 19V3Z" fill="#DDD4FE" stroke="#1D1D1D" stroke-width="2" stroke-linecap="round" stroke-linejoin="round"/>
</svg>
