<svg width="20" height="20" viewBox="0 0 24 24" fill="none" xmlns="http://www.w3.org/2000/svg">
<path d="M11.3332 0.900784C11.3332 0.272424 12.0305 -0.162513 12.6843 0.0581124L21.1882 2.92804C22.8795 3.49883 24 4.95396 24 6.57962V10.5021C24 11.1304 23.3026 11.5654 22.6489 11.3448L13.3331 8.20052V18.6002C13.3331 18.6657 13.3254 18.7296 13.3106 18.7911C13.3252 18.9253 13.3331 19.0619 13.3331 19.2002C13.3331 21.9117 10.2988 24 6.66656 24C3.03435 24 0 21.9117 0 19.2002C0 16.4886 3.03435 14.4003 6.66656 14.4003C8.46937 14.4003 10.1249 14.9148 11.3352 15.7646L11.3332 0.900784Z" fill="#6646E7"/>
</svg>
