<svg width="35" height="20" viewBox="0 0 35 20" fill="none" xmlns="http://www.w3.org/2000/svg">
<path d="M12.628 0L11.7753 0.0100501C10.7203 0.0100501 9.84375 0.500883 9.84375 1.10389V18.9211C9.84375 19.5239 10.7938 20 11.8487 20H11.8547L12.6331 19.9971C13.6892 19.9971 14.4926 19.514 14.4926 18.9107V1.094C14.4923 0.490995 13.6892 0 12.628 0Z" fill="#6646E7"/>
<path d="M23.3034 0L22.4458 0.0100501C21.3906 0.0100501 20.5098 0.500883 20.5098 1.10389V18.9211C20.5098 19.5239 21.4819 20 22.5366 20H22.5426L23.3096 19.9971C24.3649 19.9971 25.1572 19.514 25.1572 18.9107V1.094C25.1569 0.490995 24.3646 0 23.3034 0Z" fill="#6646E7"/>
</svg>
