<svg width="20" height="20" viewBox="0 0 25 25" fill="none" xmlns="http://www.w3.org/2000/svg">
<g clip-path="url(#clip0_301_63)">
<path d="M24.2984 0.0866222C23.874 -0.0892859 23.385 0.0079105 23.06 0.332909L13.6364 9.75657V1.13646C13.6364 0.676846 13.3595 0.262454 12.9348 0.0866222C12.5102 -0.0894374 12.0214 0.0079105 11.6964 0.332909L0.332877 11.6964C0.119772 11.9095 0 12.1985 0 12.4999C0 12.8012 0.119696 13.0903 0.332877 13.3034L11.6964 24.6671C11.9139 24.8845 12.2045 25 12.5002 25C12.6466 25 12.7942 24.9716 12.9348 24.9134C13.3595 24.7375 13.6364 24.3232 13.6364 23.8636V15.2434L23.0601 24.6672C23.2774 24.8846 23.5681 25 23.8638 25C24.0102 25 24.1579 24.9717 24.2984 24.9135C24.723 24.7376 24.9999 24.3233 24.9999 23.8637V1.13654C24.9999 0.676846 24.723 0.262454 24.2984 0.0866222ZM11.3636 21.1202L2.74347 12.5L11.3636 3.87986V21.1202ZM22.7272 21.1202L14.107 12.5L22.7272 3.87986V21.1202Z" fill="#6646E7"/>
</g>
<defs>
<clipPath id="clip0_301_63">
<rect width="25" height="25" fill="white"/>
</clipPath>
</defs>
</svg>
