<svg width="20" height="20" viewBox="0 0 20 20" fill="none" xmlns="http://www.w3.org/2000/svg">
<g clip-path="url(#clip0_308_148)">
<path d="M0.255197 9.55778L9.48845 4.22667C9.64639 4.13538 9.84091 4.13538 9.99902 4.22667C10.1571 4.31776 10.2543 4.4864 10.2543 4.66878V9.41151L19.2342 4.22667C19.3922 4.13538 19.5867 4.13538 19.7447 4.22667C19.9027 4.31776 20 4.4864 20 4.66878V15.3305C20 15.5129 19.9028 15.6815 19.7447 15.7727C19.6657 15.8183 19.5777 15.8411 19.4893 15.8411C19.4011 15.8411 19.3131 15.8183 19.2341 15.7727L10.2542 10.5883V15.3305C10.2542 15.5129 10.157 15.6815 9.99893 15.7727C9.91994 15.8183 9.83195 15.8411 9.74367 15.8411C9.65539 15.8411 9.5674 15.8183 9.48832 15.7727L0.255157 10.4421C0.0971693 10.351 -6.7481e-05 10.1823 -6.7481e-05 9.99997C-2.62093e-05 9.8175 0.0972096 9.64899 0.255197 9.55778ZM18.9789 14.4462V5.55319L11.2774 9.99993L18.9789 14.4462ZM9.23314 14.4462V5.55319L1.53169 9.99993L9.23314 14.4462Z" fill="#6646E7"/>
</g>
<defs>
<clipPath id="clip0_308_148">
<rect width="20" height="20" fill="white" transform="matrix(-1 0 0 1 20 0)"/>
</clipPath>
</defs>
</svg>
