<svg width="23" height="23" viewBox="0 0 25 25" fill="none" xmlns="http://www.w3.org/2000/svg">
<path d="M10.562 0.0656205C10.2747 0.200047 10.0834 0.43944 10.0158 0.768226C9.98212 0.932787 9.95941 2.94275 9.95941 5.98443V10.9386H7.79182H5.62422V9.36168V7.7848L5.45534 7.56064C5.30891 7.37373 5.24693 7.33648 5.09514 7.37373C4.95994 7.40353 4.17193 8.12103 2.51658 9.71281C1.21046 10.9833 0.106887 12.0668 0.0676019 12.1338C0.0280612 12.1941 0 12.3658 0 12.508C0 12.6499 0.0280612 12.8219 0.0676019 12.8893C0.106887 12.9492 1.21046 14.0402 2.5278 15.3103C4.67295 17.3802 4.9431 17.6196 5.14004 17.6196C5.30891 17.6196 5.38213 17.5745 5.48902 17.4178C5.62422 17.2085 5.62422 17.1862 5.62422 15.6391V14.0771H7.79182H9.95941V19.0241C9.95941 22.058 9.98186 24.0832 10.0158 24.2478C10.2242 25.2416 11.3783 25.2416 11.5979 24.2403C11.6316 24.0683 11.6487 20.1154 11.6372 12.3434C11.6204 0.73064 11.6204 0.708293 11.502 0.506485C11.2487 0.050384 10.9222 -0.0989414 10.562 0.0656205Z" fill="#6646E7"/>
<path d="M14.3066 0.0272683C14.0757 0.0946506 13.8561 0.356054 13.7548 0.67739C13.6364 1.03597 13.6364 23.9778 13.7548 24.3364C14.0137 25.1511 14.864 25.233 15.2354 24.4857C15.3311 24.2988 15.3367 23.9104 15.3535 19.1801L15.3703 14.0763H17.3635H19.3622V15.6532V17.2301L19.5311 17.4542C19.6775 17.6412 19.7392 17.6784 19.8915 17.6412C20.0208 17.6114 20.8035 16.9013 22.3798 15.3844C23.6466 14.1661 24.7502 13.0751 24.8402 12.9704C25.0542 12.7016 25.0542 12.3129 24.8402 12.0437C24.7502 11.939 23.6466 10.8481 22.38 9.6301C20.815 8.12805 20.0155 7.39565 19.8918 7.3733C19.7397 7.33605 19.6777 7.3733 19.5313 7.56021L19.3624 7.78437V9.36125V10.9378H17.3637H15.3706L15.3538 5.82622C15.3369 0.759671 15.3369 0.707187 15.2188 0.497929C14.9992 0.109549 14.6387 -0.0699113 14.3066 0.0272683Z" fill="#6646E7"/>
</svg>
