<svg width="10" height="14" viewBox="0 0 10 14" fill="none" xmlns="http://www.w3.org/2000/svg">
<path d="M9.08268 3.50033V11.667C9.08268 11.9764 8.95977 12.2732 8.74097 12.492C8.52218 12.7107 8.22544 12.8337 7.91602 12.8337H2.08268C1.77326 12.8337 1.47652 12.7107 1.25772 12.492C1.03893 12.2732 0.916016 11.9764 0.916016 11.667V3.50033H9.08268ZM2.66602 3.50033V2.33366C2.66602 2.02424 2.78893 1.72749 3.00773 1.5087C3.22652 1.28991 3.52326 1.16699 3.83268 1.16699H6.16602C6.47544 1.16699 6.77218 1.28991 6.99097 1.5087C7.20977 1.72749 7.33268 2.02424 7.33268 2.33366V3.50033" fill="#DDD4FE"/>
<path d="M2.66602 3.50033V2.33366C2.66602 2.02424 2.78893 1.72749 3.00773 1.5087C3.22652 1.28991 3.52326 1.16699 3.83268 1.16699H6.16602C6.47544 1.16699 6.77218 1.28991 6.99097 1.5087C7.20977 1.72749 7.33268 2.02424 7.33268 2.33366V3.50033M9.08268 3.50033V11.667C9.08268 11.9764 8.95977 12.2732 8.74097 12.492C8.52218 12.7107 8.22544 12.8337 7.91602 12.8337H2.08268C1.77326 12.8337 1.47652 12.7107 1.25772 12.492C1.03893 12.2732 0.916016 11.9764 0.916016 11.667V3.50033H9.08268Z" stroke="black" stroke-width="1.5" stroke-linecap="round" stroke-linejoin="round"/>
</svg>
