<svg width="25" height="25" viewBox="0 0 25 25" fill="none" xmlns="http://www.w3.org/2000/svg">
<path d="M23.4791 6.68685C23.3554 6.19248 23.1034 5.73953 22.7485 5.37373C22.3937 5.00793 21.9486 4.74225 21.4583 4.60352C19.6666 4.16602 12.4999 4.16602 12.4999 4.16602C12.4999 4.16602 5.33328 4.16602 3.54161 4.64518C3.05124 4.78392 2.60617 5.0496 2.25135 5.4154C1.89652 5.78119 1.64452 6.23415 1.52078 6.72852C1.19288 8.5468 1.03248 10.3913 1.04161 12.2389C1.02992 14.1004 1.19033 15.959 1.52078 17.791C1.65719 18.27 1.91485 18.7057 2.26884 19.0561C2.62284 19.4064 3.06122 19.6596 3.54161 19.791C5.33328 20.2702 12.4999 20.2702 12.4999 20.2702C12.4999 20.2702 19.6666 20.2702 21.4583 19.791C21.9486 19.6523 22.3937 19.3866 22.7485 19.0208C23.1034 18.655 23.3554 18.202 23.4791 17.7077C23.8045 15.9031 23.9649 14.0726 23.9583 12.2389C23.97 10.3774 23.8096 8.51883 23.4791 6.68685V6.68685Z" stroke="#6646E7" stroke-width="2" stroke-linecap="round" stroke-linejoin="round"/>
<path d="M10.1562 15.6465L16.1458 12.2402L10.1562 8.83398V15.6465Z" stroke="#6646E7" stroke-width="2" stroke-linecap="round" stroke-linejoin="round"/>
</svg>
