<svg width="24" height="24" viewBox="0 0 24 24" fill="none" xmlns="http://www.w3.org/2000/svg">
<path fill-rule="evenodd" clip-rule="evenodd" d="M11.5457 4.73972C11.518 4.5659 11.3052 4.47296 11.1545 4.62495L7.98018 7.826C6.92171 8.89337 5.48542 9.49312 3.9877 9.49312C3.73959 9.49312 3.53846 9.69572 3.53846 9.94564V14.0544C3.53846 14.3043 3.7396 14.5069 3.9877 14.5069C5.48542 14.5069 6.92171 15.1066 7.98018 16.174L11.1545 19.3751C11.3052 19.527 11.518 19.4341 11.5457 19.2603C11.8531 17.3313 12.2564 14.3455 12.2564 12C12.2564 9.65454 11.8531 6.66871 11.5457 4.73972ZM10.0661 3.52973C11.0771 2.51017 12.8319 3.03295 13.0647 4.49411C13.3737 6.43286 13.7949 9.52248 13.7949 12C13.7949 14.4775 13.3737 17.5671 13.0647 19.5059C12.8319 20.967 11.0771 21.4898 10.0661 20.4703L6.89173 17.2692C6.12182 16.4928 5.07711 16.0566 3.9877 16.0566C2.88992 16.0566 2 15.1602 2 14.0544V9.94564C2 8.83984 2.88993 7.94341 3.9877 7.94341C5.07711 7.94341 6.12182 7.50717 6.89173 6.73079L10.0661 3.52973Z" fill="#6646E7"/>
<path fill-rule="evenodd" clip-rule="evenodd" d="M18.7444 4.12809C19.0948 3.88606 19.5736 3.97595 19.8139 4.32887C21.1805 6.33618 22 9.04562 22 11.9991C22 14.9526 21.1805 17.662 19.8139 19.6693C19.5736 20.0222 19.0948 20.1121 18.7444 19.8701C18.3941 19.6281 18.3048 19.1458 18.5451 18.7928C19.7163 17.0726 20.4615 14.6768 20.4615 11.9991C20.4615 9.32136 19.7163 6.9256 18.5451 5.20535C18.3048 4.85243 18.3941 4.37012 18.7444 4.12809Z" fill="#6646E7"/>
<path fill-rule="evenodd" clip-rule="evenodd" d="M15.7705 6.1351C16.1534 5.94989 16.613 6.1125 16.7968 6.49829C17.4908 7.95451 17.8982 9.89694 17.8982 11.9993C17.8982 14.1017 17.4908 16.0441 16.7968 17.5003C16.613 17.8861 16.1534 18.0487 15.7705 17.8635C15.3875 17.6783 15.226 17.2155 15.4099 16.8297C15.9848 15.6233 16.3598 13.9192 16.3598 11.9993C16.3598 10.0794 15.9848 8.37529 15.4099 7.16897C15.226 6.78318 15.3875 6.3203 15.7705 6.1351Z" fill="#6646E7"/>
</svg>
