<svg width="24" height="24" viewBox="0 0 24 24" fill="none" xmlns="http://www.w3.org/2000/svg">
<path fill-rule="evenodd" clip-rule="evenodd" d="M15.3422 15.2426C17.6854 12.8995 17.6854 9.1005 15.3422 6.75736C12.9991 4.41421 9.20011 4.41421 6.85696 6.75736C4.51382 9.1005 4.51382 12.8995 6.85696 15.2426C9.20011 17.5858 12.9991 17.5858 15.3422 15.2426ZM16.7565 5.34315C19.6416 8.22833 19.8624 12.769 17.4186 15.9075C17.4339 15.921 17.4489 15.9351 17.4636 15.9497L21.7062 20.1924C22.0967 20.5829 22.0967 21.2161 21.7062 21.6066C21.3157 21.9971 20.6825 21.9971 20.292 21.6066L16.0494 17.364C16.0347 17.3493 16.0206 17.3343 16.0071 17.319C12.8686 19.7628 8.32793 19.542 5.44275 16.6569C2.31856 13.5327 2.31856 8.46734 5.44275 5.34315C8.56695 2.21895 13.6323 2.21895 16.7565 5.34315ZM7.09962 10V12H15.0996V10H7.09962Z" fill="#6646E7"/>
</svg>
