<svg width="970" height="466" viewBox="0 0 970 466" fill="none" xmlns="http://www.w3.org/2000/svg">
<path opacity="0.3" fill-rule="evenodd" clip-rule="evenodd" d="M610 274.107C614.291 281.25 623.511 283.742 630.839 279.65C638.167 275.558 640.882 266.401 637.052 259L631.635 262.025C633.798 266.433 632.154 271.813 627.817 274.236C623.479 276.658 618.036 275.235 615.418 271.081L610 274.107Z" fill="#77AF44"/>
<path opacity="0.3" fill-rule="evenodd" clip-rule="evenodd" d="M86.1957 0.000161951C80.728 6.28871 81.2069 15.8276 87.3631 21.5325C93.5192 27.2374 103.067 26.9903 108.922 21.0605L104.371 16.8431C100.847 20.2629 95.2223 20.3619 91.5782 16.9849C87.934 13.6079 87.6054 7.99181 90.7476 4.21843L86.1957 0.000161951Z" fill="#FF0000"/>
<path opacity="0.3" fill-rule="evenodd" clip-rule="evenodd" d="M226.5 259C231.747 259 236 254.747 236 249.5C236 244.253 231.747 240 226.5 240C221.253 240 217 244.253 217 249.5C217 254.747 221.253 259 226.5 259ZM226.5 255.2C229.648 255.2 232.2 252.648 232.2 249.5C232.2 246.352 229.648 243.8 226.5 243.8C223.352 243.8 220.8 246.352 220.8 249.5C220.8 252.648 223.352 255.2 226.5 255.2Z" fill="#6646E7"/>
<path opacity="0.3" fill-rule="evenodd" clip-rule="evenodd" d="M241 115C243.761 115 246 112.761 246 110C246 107.239 243.761 105 241 105C238.239 105 236 107.239 236 110C236 112.761 238.239 115 241 115ZM241 113C242.657 113 244 111.657 244 110C244 108.344 242.657 107 241 107C239.343 107 238 108.344 238 110C238 111.657 239.343 113 241 113Z" fill="#77AF44"/>
<path opacity="0.3" fill-rule="evenodd" clip-rule="evenodd" d="M822 187C824.761 187 827 184.761 827 182C827 179.239 824.761 177 822 177C819.239 177 817 179.239 817 182C817 184.761 819.239 187 822 187ZM822 185C823.657 185 825 183.657 825 182C825 180.344 823.657 179 822 179C820.343 179 819 180.344 819 182C819 183.657 820.343 185 822 185Z" fill="#FF0000"/>
<path opacity="0.3" fill-rule="evenodd" clip-rule="evenodd" d="M858.5 32C863.747 32 868 27.7467 868 22.5C868 17.2533 863.747 13 858.5 13C853.253 13 849 17.2533 849 22.5C849 27.7467 853.253 32 858.5 32ZM858.5 28.2C861.648 28.2 864.2 25.648 864.2 22.5C864.2 19.352 861.648 16.8 858.5 16.8C855.352 16.8 852.8 19.352 852.8 22.5C852.8 25.648 855.352 28.2 858.5 28.2Z" fill="#6646E7"/>
<path opacity="0.3" fill-rule="evenodd" clip-rule="evenodd" d="M562.5 212C569.404 212 575 206.404 575 199.5C575 192.596 569.404 187 562.5 187C555.596 187 550 192.596 550 199.5C550 206.404 555.596 212 562.5 212ZM562.5 207C566.642 207 570 203.642 570 199.5C570 195.357 566.642 192 562.5 192C558.357 192 555 195.357 555 199.5C555 203.642 558.357 207 562.5 207Z" fill="#FEBE16"/>
<path opacity="0.3" fill-rule="evenodd" clip-rule="evenodd" d="M916.5 308C923.403 308 929 302.404 929 295.5C929 288.596 923.403 283 916.5 283C909.596 283 904 288.596 904 295.5C904 302.404 909.596 308 916.5 308ZM916.499 303C920.641 303 923.999 299.642 923.999 295.5C923.999 291.357 920.641 288 916.499 288C912.357 288 908.999 291.357 908.999 295.5C908.999 299.642 912.357 303 916.499 303Z" fill="#FEBE16"/>
<path opacity="0.3" fill-rule="evenodd" clip-rule="evenodd" d="M947.77 465.727L960.444 436.736L929 440.256L947.77 465.727ZM946.854 458.988L954.398 441.731L935.681 443.826L946.854 458.988Z" fill="#FF0000"/>
<path opacity="0.3" fill-rule="evenodd" clip-rule="evenodd" d="M21.8127 400.491L36.5414 366.8L-4.94887e-05 370.89L21.8127 400.491ZM20.7495 392.659L29.5166 372.605L7.76574 375.039L20.7495 392.659Z" fill="#77AF44"/>
</svg>
