<svg width="1082" height="539" viewBox="0 0 1082 539" fill="none" xmlns="http://www.w3.org/2000/svg">
<path fill-rule="evenodd" clip-rule="evenodd" d="M469.999 15.1066C474.29 22.2499 483.51 24.7418 490.838 20.6497C498.166 16.5575 500.881 7.40067 497.051 0L491.633 3.02517C493.797 7.43316 492.153 12.8133 487.816 15.2357C483.478 17.658 478.035 16.2352 475.417 12.0809L469.999 15.1066Z" fill="#77AF44" fill-opacity="0.4"/>
<path fill-rule="evenodd" clip-rule="evenodd" d="M60.028 529.765L57.5131 493.082L27.0017 513.602L60.028 529.765ZM55.4643 523.312L53.9674 501.476L35.8058 513.69L55.4643 523.312Z" fill="#77AF44" fill-opacity="0.6"/>
<path fill-rule="evenodd" clip-rule="evenodd" d="M820.5 96C827.404 96 833 90.4036 833 83.5C833 76.5964 827.404 71 820.5 71C813.596 71 808 76.5964 808 83.5C808 90.4036 813.596 96 820.5 96ZM820.5 90.9995C824.642 90.9995 828 87.6416 828 83.4995C828 79.3574 824.642 75.9995 820.5 75.9995C816.357 75.9995 813 79.3574 813 83.4995C813 87.6416 816.357 90.9995 820.5 90.9995Z" fill="#FEBE16" fill-opacity="0.55"/>
<path fill-rule="evenodd" clip-rule="evenodd" d="M487.5 539C494.404 539 500 533.404 500 526.5C500 519.596 494.404 514 487.5 514C480.596 514 475 519.596 475 526.5C475 533.404 480.596 539 487.5 539ZM487.5 534C491.642 534 495 530.642 495 526.5C495 522.357 491.642 519 487.5 519C483.357 519 480 522.357 480 526.5C480 530.642 483.357 534 487.5 534Z" fill="#FF7976" fill-opacity="0.44"/>
</svg>
