<svg width="97" height="91" viewBox="0 0 97 91" fill="none" xmlns="http://www.w3.org/2000/svg">
<path d="M80.0754 2.49492C86.6201 9.16713 95.4892 17.396 95.354 27.3574C95.2538 34.7358 94.5462 40.2384 89.9501 46.3947C85.9414 51.7643 79.3797 56.3404 72.6227 57.9867C67.2527 59.2951 58.5247 57.7134 61.2429 50.8445C62.793 46.9275 69.1517 45.5028 72.9579 46.0984C78.2754 46.9304 83.5023 49.6129 86.5435 54.0258C96.9662 69.15 83.1991 81.7083 68.6711 86.2656C52.2995 91.4012 34.7367 88.6338 19.6251 80.3172C13.812 77.118 10.2361 73.5708 6.21522 68.7602C4.58399 66.8087 0.641128 60.3697 2.37211 62.2419C4.51499 64.5596 1.70566 71.0714 2.23211 73.866C2.45489 75.0487 2.4912 67.3964 2.62546 65.5114C2.8353 62.5652 3.21135 63.2251 6.75463 63.765C8.78541 64.0744 10.831 65.167 12.8577 65.7068C15.2347 66.34 12.6998 65.2382 11.9675 64.0467" stroke="#FEBE16" stroke-width="3" stroke-linecap="round" stroke-linejoin="round"/>
</svg>
