<svg width="22" height="22" viewBox="0 0 20 20" fill="none" xmlns="http://www.w3.org/2000/svg">
<g clip-path="url(#clip0_320_2)">
<path d="M19.8129 16.0051L16.6777 11.6533V6.6907C16.6777 3.00937 13.6827 0.0136719 10 0.0136719C6.31805 0.0136719 3.32234 3.00871 3.32234 6.6907V11.6533L0.187138 16.0051C-0.0303828 16.3072 -0.060796 16.7066 0.109121 17.0378C0.278378 17.369 0.619534 17.5766 0.991766 17.5766H7.60862C7.60862 17.5846 7.60664 17.5892 7.60664 17.5945C7.60664 18.9162 8.67904 19.9866 10 19.9866C11.321 19.9866 12.3928 18.9162 12.3928 17.5945C12.3928 17.5872 12.3908 17.5813 12.3908 17.5766H19.0083C19.3799 17.5766 19.7217 17.369 19.8909 17.0378C20.0609 16.7052 20.0304 16.3072 19.8129 16.0051ZM2.92896 15.5925L5.11937 12.5519C5.24102 12.3833 5.30648 12.1803 5.30648 11.972V6.68871C5.30648 4.10094 7.41226 1.99516 10.0007 1.99516C12.5891 1.99516 14.6949 4.10094 14.6949 6.68871V11.972C14.6949 12.179 14.7617 12.3833 14.882 12.5519L17.0718 15.5925H2.92896Z" fill="white"/>
</g>
<defs>
<clipPath id="clip0_320_2">
<rect width="20" height="20" fill="white"/>
</clipPath>
</defs>
</svg>
