<svg width="20" height="20" viewBox="0 0 20 20" fill="none" xmlns="http://www.w3.org/2000/svg">
<path d="M17.0754 2.93327C13.1725 -0.974358 6.84096 -0.978243 2.93328 2.92454C-0.974345 6.82743 -0.978278 13.1591 2.9246 17.0667C6.82739 20.9744 13.1591 20.9783 17.0667 17.0754C20.9743 13.1726 20.9783 6.8409 17.0754 2.93327ZM10.0031 16.0581C9.47414 16.0581 9.04534 15.6293 9.04534 15.1003C9.04534 14.5713 9.47409 14.1425 10.0031 14.1425C10.532 14.1425 10.9608 14.5713 10.9608 15.1003C10.9608 15.6293 10.532 16.0581 10.0031 16.0581ZM11.5602 10.2914C11.0131 10.6113 10.9663 11.0047 10.964 12.1384C10.9639 12.2134 10.9636 12.289 10.9632 12.3651C10.9598 12.901 10.5245 13.333 9.98932 13.333C9.98721 13.333 9.9851 13.333 9.98304 13.333C9.44512 13.3296 9.01186 12.8908 9.01522 12.3528C9.0157 12.2795 9.01584 12.2067 9.01599 12.1345C9.01838 10.9693 9.02131 9.51931 10.5771 8.60991C11.8254 7.88019 11.9827 7.40084 11.8363 6.77183C11.6643 6.033 10.9896 5.84152 10.4631 5.90172C10.2863 5.92201 9.40459 6.06748 9.40459 6.93976C9.40459 7.47758 8.9685 7.91371 8.43058 7.91371C7.89267 7.91371 7.45663 7.47758 7.45663 6.93976C7.45663 5.37738 8.60153 4.15472 10.2408 3.96651C11.9292 3.77284 13.3645 4.74478 13.7334 6.33028C14.2848 8.69879 12.3054 9.85587 11.5602 10.2914Z" fill="white"/>
</svg>
