<svg width="18" height="14" viewBox="0 0 18 14" fill="none" xmlns="http://www.w3.org/2000/svg">
<path d="M17.2984 1.75345C16.6487 0.981074 15.4491 0.666016 13.1581 0.666016H4.84177C2.49834 0.666016 1.27841 1.0014 0.631103 1.82371C0 2.62546 0 3.80679 0 5.44177V8.55803C0 11.7255 0.7488 13.3337 4.84177 13.3337H13.1581C15.1449 13.3337 16.2458 13.0557 16.958 12.3741C17.6884 11.6751 18 10.5339 18 8.55803V5.44177C18 3.71754 17.9512 2.52925 17.2984 1.75345ZM11.5561 7.43013L7.77966 9.4038C7.69523 9.44793 7.60291 9.46982 7.5107 9.46982C7.4063 9.46982 7.30214 9.44172 7.20987 9.38586C7.03614 9.28059 6.93006 9.09229 6.93006 8.88918V4.95449C6.93006 4.75173 7.03585 4.5636 7.20923 4.45827C7.38267 4.35294 7.59838 4.34574 7.77832 4.43922L11.5547 6.40018C11.7469 6.49994 11.8675 6.69828 11.8678 6.91469C11.868 7.13127 11.7479 7.32991 11.5561 7.43013Z" fill="white"/>
</svg>
