<svg width="18" height="14" viewBox="0 0 18 13" fill="none" xmlns="http://www.w3.org/2000/svg">
<rect width="18" height="13" fill="#D7D4D4"/>
<path d="M17.2984 1.00976C16.6487 0.292554 15.4491 0 13.1581 0H4.84177C2.49834 0 1.27841 0.311428 0.631103 1.075C0 1.81948 0 2.91643 0 4.43463V7.3283C0 10.2695 0.7488 11.7628 4.84177 11.7628H13.1581C15.1449 11.7628 16.2458 11.5047 16.958 10.8718C17.6884 10.2227 18 9.16303 18 7.3283V4.43463C18 2.83356 17.9512 1.73015 17.2984 1.00976ZM11.5 6.26367L7.77966 8.11366C7.69523 8.15463 7.60291 8.17496 7.5107 8.17496C7.4063 8.17496 7.30214 8.14887 7.20987 8.097C7.03614 7.99925 6.93006 7.8244 6.93006 7.6358V3.98215C6.93006 3.79388 7.03585 3.61918 7.20923 3.52138C7.38267 3.42357 7.59838 3.41689 7.77832 3.50369L11.5 5.26367C11.5 5.76367 11.4997 5.29905 11.5 5.5C11.5002 5.70111 11.6918 6.17061 11.5 6.26367Z" fill="white"/>
<path d="M8 8L11 5.99998L8 4V8Z" fill="#6646E7" stroke="#6646E7" stroke-width="2" stroke-linecap="round" stroke-linejoin="round"/>
</svg>
