<svg width="146" height="159" viewBox="0 0 146 159" fill="none" xmlns="http://www.w3.org/2000/svg">
<path d="M31.2419 145.155C34.3372 144.458 42.7994 142.321 40.92 136.232C38.8621 129.559 31.412 129.749 27.7235 130.804C24.035 131.86 17.5717 136.616 19.541 141.915C21.6706 147.636 28.304 145.816 31.2419 145.155Z" fill="#FEBE16" stroke="black" stroke-miterlimit="10" stroke-linecap="round" stroke-linejoin="round"/>
<path d="M36.8125 144.363C39.1834 144.363 41.1054 142.32 41.1054 139.799C41.1054 137.279 39.1834 135.236 36.8125 135.236C34.4415 135.236 32.5195 137.279 32.5195 139.799C32.5195 142.32 34.4415 144.363 36.8125 144.363Z" fill="white" stroke="black" stroke-miterlimit="10" stroke-linecap="round" stroke-linejoin="round"/>
<path d="M33.1208 137.477C33.1208 137.477 32.5458 134.17 33.1208 133.943C33.6957 133.718 35.2883 135.535 35.2883 135.535C35.2883 135.535 34.5377 135.814 34.0766 136.286C33.6156 136.758 33.1208 137.477 33.1208 137.477Z" fill="white" stroke="black" stroke-miterlimit="10" stroke-linecap="round" stroke-linejoin="round"/>
<path d="M39.8574 136.579C39.8574 136.579 43.3308 136.055 43.425 136.909C43.5192 137.764 41.0593 139.11 41.0593 139.11C41.0593 139.11 40.8625 138.015 40.5111 137.476C40.1596 136.936 39.8574 136.579 39.8574 136.579Z" fill="white" stroke="black" stroke-miterlimit="10" stroke-linecap="round" stroke-linejoin="round"/>
<path d="M21.4522 134.881C21.4522 134.881 17.5247 138.77 18.5298 143.42C19.6023 148.381 28.2613 151.696 31.9807 146.739C34.9607 142.767 29.9467 140.556 28.4342 143.069C26.3116 146.594 17.1958 146.863 21.4522 134.881Z" fill="black" stroke="black" stroke-miterlimit="10" stroke-linecap="round" stroke-linejoin="round"/>
<path d="M34.0747 139.902C34.0747 139.902 31.4362 139.449 29.8281 140.078" stroke="black" stroke-miterlimit="10" stroke-linecap="round" stroke-linejoin="round"/>
<path d="M39.3359 141.586C39.3359 141.586 41.5808 142.901 41.9842 143.421" stroke="black" stroke-miterlimit="10" stroke-linecap="round" stroke-linejoin="round"/>
<path d="M34.0789 140.706C34.0789 140.706 31.7497 140.655 30.1641 141.46" stroke="black" stroke-miterlimit="10" stroke-linecap="round" stroke-linejoin="round"/>
<path d="M38.875 142.504C38.875 142.504 41.0383 144.351 41.4291 145.746" stroke="black" stroke-miterlimit="10" stroke-linecap="round" stroke-linejoin="round"/>
<path d="M39.3359 92.5441L111.485 91.791" stroke="black" stroke-miterlimit="10" stroke-linecap="round" stroke-linejoin="round"/>
<path d="M90.4824 133.923L106.884 133.715L105.557 138.973L90.4824 139.012V133.923Z" fill="white" stroke="black" stroke-miterlimit="10" stroke-linecap="round" stroke-linejoin="round"/>
<path d="M51.5199 69.3945C51.5199 69.3945 46.5003 76.8609 47.636 82.8943C48.7704 88.9263 55.2928 92.9246 65.3715 92.5466C64.5196 101.595 66.0588 134.176 66.0588 134.176L90.4839 133.925L104.673 133.715V89.9049L84.8864 73.6768C84.885 73.6783 75.4501 69.653 51.5199 69.3945Z" fill="black" stroke="black" stroke-miterlimit="10" stroke-linecap="round" stroke-linejoin="round"/>
<path d="M76.8633 77.3105L89.4905 89.5268L90.4843 133.921" stroke="black" stroke-miterlimit="10" stroke-linecap="round" stroke-linejoin="round"/>
<path d="M64.0957 134.193L93.7962 133.924L92.6619 139.004L65.611 139.112L64.0957 134.193Z" fill="white" stroke="black" stroke-miterlimit="10" stroke-linecap="round" stroke-linejoin="round"/>
<path d="M103.252 139.012V142.502L111.891 149.009L90.4824 149.208V139.012H103.252Z" fill="#FEBE16" stroke="black" stroke-miterlimit="10" stroke-linecap="round" stroke-linejoin="round"/>
<path d="M66.2207 139.11L90.4827 139.012V142.841L99.0685 149.099L66.4386 149.513L66.2207 139.11Z" fill="#FEBE16" stroke="black" stroke-miterlimit="10" stroke-linecap="round" stroke-linejoin="round"/>
<path d="M70.6379 64.1264L71.2606 56.6526L70.7644 48.8097L71.2606 56.6526L76.6528 52.3583C76.6528 52.3583 69.6301 41.9485 66.5081 41.4211C64.7341 42.7778 63.3158 40.5918 63.3158 40.5918C63.3158 40.5918 53.7656 40.9145 51.2129 50.5668C56.747 52.4525 60.7631 53.5985 60.7631 53.5985L61.8974 48.9621L59.415 61.7058L70.6379 64.1264Z" fill="white" stroke="black" stroke-miterlimit="10" stroke-linecap="round" stroke-linejoin="round"/>
<path d="M51.2113 50.5625C51.2113 50.5625 47.825 66.9042 48.4885 68.1115C49.1506 69.3173 67.6015 73.2903 72.4258 73.474C77.25 73.6578 75.8205 66.048 74.3572 65.1695C72.8924 64.2909 59.4148 61.7015 59.4148 61.7015L60.7629 53.5942L51.2113 50.5625Z" fill="white" stroke="black" stroke-miterlimit="10" stroke-linecap="round" stroke-linejoin="round"/>
<path d="M71.4753 56.5389L75.7514 53.0859L79.0659 59.0656L75.7514 65.2484L70.6445 64.074L71.4753 56.5389Z" fill="white" stroke="black" stroke-miterlimit="10" stroke-linecap="round" stroke-linejoin="round"/>
<path d="M71.6514 41.4559C74.7537 40.3428 73.5252 34.0882 71.8637 31.578C68.9202 27.1284 61.6838 27.8829 59.803 33.9164C59.3925 35.2312 56.8707 35.808 57.8519 37.9133C58.5379 39.3835 61.293 38.6185 61.293 38.6185C61.293 38.6185 69.7945 42.1223 71.6514 41.4559Z" fill="black" stroke="black" stroke-miterlimit="10" stroke-linecap="round" stroke-linejoin="round"/>
<path d="M63.3099 40.5897L64.0549 38.3276C64.0549 38.3276 63.2748 37.1965 63.3099 36.5555C63.3451 35.9145 62.139 36.3672 62.4581 35.0479C62.7772 33.7285 64.3375 35.1988 65.119 35.538C65.9006 35.8772 67.3456 35.0688 68.0991 35.0105C68.6121 34.9702 69.1322 35.4976 69.2798 35.8472C69.5778 36.557 69.1632 37.5745 68.383 38.0646C67.6029 38.5547 66.4319 38.6309 66.4319 38.6309L66.3153 41.552C66.3153 41.552 66.1508 42.1676 64.6242 41.7193C63.0963 41.2681 63.3099 40.5897 63.3099 40.5897Z" fill="white" stroke="black" stroke-miterlimit="10" stroke-linecap="round" stroke-linejoin="round"/>
<path d="M3.68359 73.8203H145" stroke="black" stroke-miterlimit="10" stroke-linecap="round" stroke-linejoin="round"/>
<path d="M19.543 154.607L39.3349 73.8203" stroke="black" stroke-miterlimit="10"/>
<path d="M21.6719 73.8203L47.6361 158" stroke="black" stroke-miterlimit="10"/>
<path d="M109.994 73.8203L136.384 158" stroke="black" stroke-miterlimit="10"/>
<path d="M108.291 153.476L128.083 73.8203" stroke="black" stroke-miterlimit="10"/>
<path d="M11.6443 63.8177C11.6443 63.8177 8.99605 56.7547 5.25977 54.9453" stroke="black" stroke-miterlimit="10" stroke-linecap="round" stroke-linejoin="round"/>
<path d="M5.25909 54.9439C5.25909 54.9439 2.40978 50.1298 1.27399 51.5253C-0.276466 53.4319 5.25909 54.9439 5.25909 54.9439Z" fill="#565656" stroke="black" stroke-miterlimit="10" stroke-linecap="round" stroke-linejoin="round"/>
<path d="M8.94784 58.5846C7.93294 56.2507 4.98242 60.6883 4.98242 60.6883C4.98242 60.6883 9.50027 59.8546 8.94784 58.5846Z" fill="#565656" stroke="black" stroke-miterlimit="10" stroke-linecap="round" stroke-linejoin="round"/>
<path d="M13.6875 46.1328C14.2203 53.2585 15.7089 63.9492 15.7089 63.9492L13.6875 46.1328Z" fill="black"/>
<path d="M13.6875 46.1328C14.2203 53.2585 15.7089 63.9492 15.7089 63.9492" stroke="black" stroke-miterlimit="10" stroke-linecap="round" stroke-linejoin="round"/>
<path d="M13.36 39.3679C14.2091 39.2783 16.721 47.2302 13.6088 46.8477C10.8495 46.5086 13.36 39.3679 13.36 39.3679Z" fill="#565656" stroke="black" stroke-miterlimit="10" stroke-linecap="round" stroke-linejoin="round"/>
<path d="M14.0505 50.2212C14.0505 50.2212 12.5872 47.6019 10.175 47.4002C7.76289 47.1985 7.38477 47.4002 7.38477 47.4002" stroke="black" stroke-miterlimit="10" stroke-linecap="round" stroke-linejoin="round"/>
<path d="M7.28927 47.1229C6.85632 44.1091 2.63086 47.7265 2.63086 47.7265C2.63086 47.7265 7.58446 49.1833 7.28927 47.1229Z" fill="#565656" stroke="black" stroke-miterlimit="10" stroke-linecap="round" stroke-linejoin="round"/>
<path d="M14.4238 53.6879C14.4238 53.6879 15.5905 51.1897 18.5256 49.4639C20.748 48.1565 22.0018 47.7695 22.0018 47.7695" stroke="black" stroke-miterlimit="10" stroke-linecap="round" stroke-linejoin="round"/>
<path d="M22.1421 47.7689C21.2186 44.162 29.0468 46.4167 29.0468 46.4167C29.0468 46.4167 22.7986 50.3329 22.1421 47.7689Z" fill="#565656" stroke="black" stroke-miterlimit="10" stroke-linecap="round" stroke-linejoin="round"/>
<path d="M20.0717 63.9486C20.0717 63.9486 19.9298 59.3391 21.4901 58.0332" stroke="black" stroke-miterlimit="10" stroke-linecap="round" stroke-linejoin="round"/>
<path d="M26.9359 53.8027C26.9359 53.8027 19.4211 55.4119 21.3666 58.0312C22.6795 59.7988 26.9359 53.8027 26.9359 53.8027Z" fill="#565656" stroke="black" stroke-miterlimit="10" stroke-linecap="round" stroke-linejoin="round"/>
<path d="M18.2098 55.9177C19.9655 55.0421 20.338 60.4794 20.338 60.4794C20.338 60.4794 16.4907 56.7754 18.2098 55.9177Z" fill="#565656" stroke="black" stroke-miterlimit="10" stroke-linecap="round" stroke-linejoin="round"/>
<path d="M22.4499 63.8164H9.72852V73.8198H22.4499V63.8164Z" fill="#77AF44" stroke="black" stroke-miterlimit="10" stroke-linecap="round" stroke-linejoin="round"/>
<path d="M70.6445 73.8325L83.6766 45.7422H118.769L107.231 73.8325H70.6445Z" fill="#6646E8" stroke="black" stroke-miterlimit="10" stroke-linecap="round" stroke-linejoin="round"/>
<path d="M97.9313 58.4301C97.9313 58.4301 96.5833 58.0401 95.626 58.7573C95.2114 59.0681 93.9027 60.1528 94.5872 61.0568C95.2718 61.9622 96.5481 61.1704 97.0458 60.3785C97.542 59.5866 97.9313 58.4301 97.9313 58.4301Z" fill="white" stroke="black" stroke-miterlimit="10" stroke-linecap="round" stroke-linejoin="round"/>
<path d="M134.566 70.9777L139.2 32.9214L118.189 20.7559" stroke="black" stroke-miterlimit="10" stroke-linecap="round" stroke-linejoin="round"/>
<path d="M118.185 20.7559L108.027 25.3295L118.386 32.1668L118.185 20.7559Z" fill="#DADADA" stroke="black" stroke-miterlimit="10" stroke-linecap="round" stroke-linejoin="round"/>
<path d="M113.075 32.0427C114.558 32.0427 115.761 30.7644 115.761 29.1874C115.761 27.6104 114.558 26.332 113.075 26.332C111.591 26.332 110.389 27.6104 110.389 29.1874C110.389 30.7644 111.591 32.0427 113.075 32.0427Z" fill="#FEBE16" stroke="black" stroke-miterlimit="10" stroke-linecap="round" stroke-linejoin="round"/>
<path d="M141.294 70.5898H127.652V73.6723H141.294V70.5898Z" fill="#DADADA" stroke="black" stroke-miterlimit="10" stroke-linecap="round" stroke-linejoin="round"/>
<path d="M96.0115 26.6697L94.551 25.6133C94.551 25.6133 90.9862 30.1003 92.0855 31.0236C93.2887 32.0352 96.0115 26.6697 96.0115 26.6697Z" fill="white" stroke="black" stroke-miterlimit="10" stroke-linecap="round" stroke-linejoin="round"/>
<path d="M97.0757 26.6906C98.9016 26.6906 100.382 25.1172 100.382 23.1764C100.382 21.2355 98.9016 19.6621 97.0757 19.6621C95.2497 19.6621 93.7695 21.2355 93.7695 23.1764C93.7695 25.1172 95.2497 26.6906 97.0757 26.6906Z" fill="#DADADA" stroke="black" stroke-miterlimit="10" stroke-linecap="round" stroke-linejoin="round"/>
<path d="M97.0728 25.4333C98.155 25.4333 99.0323 24.5008 99.0323 23.3504C99.0323 22.2001 98.155 21.2676 97.0728 21.2676C95.9906 21.2676 95.1133 22.2001 95.1133 23.3504C95.1133 24.5008 95.9906 25.4333 97.0728 25.4333Z" fill="white" stroke="black" stroke-miterlimit="10" stroke-linecap="round" stroke-linejoin="round"/>
<path d="M92.5239 28.5957C92.5239 28.5957 92.4972 29.2397 92.9498 29.7492C93.207 30.0391 93.7356 30.196 93.7356 30.196C93.7356 30.196 92.7193 31.6154 92.0811 30.9938C91.4415 30.3708 92.5239 28.5957 92.5239 28.5957Z" fill="#DADADA" stroke="black" stroke-miterlimit="10" stroke-linecap="round" stroke-linejoin="round"/>
<path d="M63.2901 13.744C65.654 13.744 67.5703 11.707 67.5703 9.19426C67.5703 6.68151 65.654 4.64453 63.2901 4.64453C60.9261 4.64453 59.0098 6.68151 59.0098 9.19426C59.0098 11.707 60.9261 13.744 63.2901 13.744Z" fill="#FF2633" stroke="black" stroke-miterlimit="10" stroke-linecap="round" stroke-linejoin="round"/>
<path d="M66.5995 6.31445C68.3411 6.59834 69.5851 7.39175 69.7735 8.51984C70.0771 10.3382 67.4893 12.0147 64.0439 12.6647C60.5986 13.3146 57.5975 12.6901 57.2939 10.8717C57.1252 9.85712 57.8435 8.78431 59.1114 7.92367" stroke="black" stroke-miterlimit="10" stroke-linecap="round" stroke-linejoin="round"/>
<path d="M69.533 2.90955C70.0291 2.90955 70.4312 2.4821 70.4312 1.95479C70.4312 1.42749 70.0291 1 69.533 1C69.0369 1 68.6348 1.42749 68.6348 1.95479C68.6348 2.4821 69.0369 2.90955 69.533 2.90955Z" fill="white" stroke="black" stroke-miterlimit="10" stroke-linecap="round" stroke-linejoin="round"/>
<path d="M55.5447 15.3158C56.0408 15.3158 56.4429 14.8883 56.4429 14.361C56.4429 13.8337 56.0408 13.4062 55.5447 13.4062C55.0486 13.4062 54.6465 13.8337 54.6465 14.361C54.6465 14.8883 55.0486 15.3158 55.5447 15.3158Z" fill="white" stroke="black" stroke-miterlimit="10" stroke-linecap="round" stroke-linejoin="round"/>
<path d="M30.089 30.3062C32.0733 30.3062 33.6819 28.5963 33.6819 26.4871C33.6819 24.3778 32.0733 22.668 30.089 22.668C28.1047 22.668 26.4961 24.3778 26.4961 26.4871C26.4961 28.5963 28.1047 30.3062 30.089 30.3062Z" fill="white" stroke="black" stroke-miterlimit="10" stroke-linecap="round" stroke-linejoin="round"/>
<path d="M31.0791 27.8199L29.1406 27.3418" stroke="black" stroke-miterlimit="10" stroke-linecap="round" stroke-linejoin="round"/>
<path d="M31.978 26.7396L30.8184 25.2812" stroke="black" stroke-miterlimit="10" stroke-linecap="round" stroke-linejoin="round"/>
<path d="M28.4102 26.741C28.4102 26.741 28.056 26.1374 28.2921 25.7608C28.5283 25.3843 29.144 25.7608 29.144 25.7608C29.144 25.7608 29.144 24.7553 29.4757 24.4789C29.7386 24.2592 30.3739 24.7045 30.3739 24.7045" stroke="black" stroke-miterlimit="10" stroke-linecap="round" stroke-linejoin="round"/>
<path d="M33.802 27.041C33.802 27.041 34.6299 27.3428 34.5822 27.821C34.5344 28.2991 32.5481 30.8123 32.0997 30.8631C31.6499 30.9139 31.2676 30.0996 31.2676 30.0996C31.2676 30.0996 32.4989 29.5811 32.9263 28.834C33.3522 28.0854 33.802 27.041 33.802 27.041Z" fill="white" stroke="black" stroke-miterlimit="10" stroke-linecap="round" stroke-linejoin="round"/>
<path d="M34.4527 28.3848C34.4527 28.3848 35.2216 28.4251 35.15 28.9032C35.0783 29.3814 33.4421 31.3955 32.9262 31.1281C32.5396 30.9264 32.5045 30.6111 32.728 30.375C33.0948 29.988 34.4527 28.3848 34.4527 28.3848Z" fill="white" stroke="black" stroke-miterlimit="10" stroke-linecap="round" stroke-linejoin="round"/>
<path d="M35.0691 29.3125L36.2288 30.4242C36.2288 30.4242 35.398 31.6434 35.1577 31.618C34.9159 31.5926 33.8223 30.7902 33.8223 30.7902L35.0691 29.3125Z" fill="white" stroke="black" stroke-miterlimit="10" stroke-linecap="round" stroke-linejoin="round"/>
<path d="M39.0156 22.6719C39.0156 22.6719 42.4202 17.9309 48.5222 13.9355L39.0156 22.6719Z" fill="white"/>
<path d="M39.0156 22.6719C39.0156 22.6719 42.4202 17.9309 48.5222 13.9355" stroke="black" stroke-miterlimit="10" stroke-linecap="round" stroke-linejoin="round"/>
<path d="M41.2949 23.0448C41.2949 23.0448 43.4948 19.526 47.2775 16.6094L41.2949 23.0448Z" fill="white"/>
<path d="M41.2949 23.0448C41.2949 23.0448 43.4948 19.526 47.2775 16.6094" stroke="black" stroke-miterlimit="10" stroke-linecap="round" stroke-linejoin="round"/>
<path d="M77.3809 10.3008C77.3809 10.3008 83.4815 10.8028 89.5835 16.8363" stroke="black" stroke-miterlimit="10" stroke-linecap="round" stroke-linejoin="round"/>
<path d="M79.7383 13.1016C79.7383 13.1016 84.0664 14.1579 88.393 17.9651" stroke="black" stroke-miterlimit="10" stroke-linecap="round" stroke-linejoin="round"/>
</svg>
