<svg width="25" height="25" viewBox="0 0 20 20" fill="none" xmlns="http://www.w3.org/2000/svg">
<path d="M7.1507 9.26039H2.1507C1.63965 9.25776 1.15027 9.05358 0.78889 8.6922C0.427513 8.33083 0.223331 7.84145 0.220703 7.33039V2.33039C0.223331 1.81933 0.427513 1.32995 0.78889 0.968578C1.15027 0.6072 1.63965 0.403018 2.1507 0.400391H7.1507C7.66176 0.403018 8.15114 0.6072 8.51252 0.968578C8.87389 1.32995 9.07808 1.81933 9.0807 2.33039V7.33039C9.07808 7.84145 8.87389 8.33083 8.51252 8.6922C8.15114 9.05358 7.66176 9.25776 7.1507 9.26039V9.26039ZM2.1507 1.90039C2.03746 1.90294 1.92956 1.94906 1.84946 2.02915C1.76937 2.10925 1.72325 2.21715 1.7207 2.33039V7.33039C1.7207 7.44443 1.76601 7.55381 1.84665 7.63445C1.92729 7.71509 2.03666 7.76039 2.1507 7.76039H7.1507C7.26475 7.76039 7.37412 7.71509 7.45476 7.63445C7.5354 7.55381 7.5807 7.44443 7.5807 7.33039V2.33039C7.5807 2.21635 7.5354 2.10698 7.45476 2.02633C7.37412 1.94569 7.26475 1.90039 7.1507 1.90039H2.1507Z" fill="white"/>
<path d="M17.8499 9.26039H12.8499C12.3389 9.25776 11.8495 9.05358 11.4881 8.6922C11.1267 8.33083 10.9225 7.84145 10.9199 7.33039V2.33039C10.9225 1.81933 11.1267 1.32995 11.4881 0.968578C11.8495 0.6072 12.3389 0.403018 12.8499 0.400391H17.8499C18.361 0.403018 18.8504 0.6072 19.2117 0.968578C19.5731 1.32995 19.7773 1.81933 19.7799 2.33039V7.33039C19.7773 7.84145 19.5731 8.33083 19.2117 8.6922C18.8504 9.05358 18.361 9.25776 17.8499 9.26039V9.26039ZM12.8499 1.90039C12.7359 1.90039 12.6265 1.94569 12.5459 2.02633C12.4652 2.10698 12.4199 2.21635 12.4199 2.33039V7.33039C12.4199 7.44443 12.4652 7.55381 12.5459 7.63445C12.6265 7.71509 12.7359 7.76039 12.8499 7.76039H17.8499C17.964 7.76039 18.0733 7.71509 18.154 7.63445C18.2346 7.55381 18.2799 7.44443 18.2799 7.33039V2.33039C18.2774 2.21715 18.2313 2.10925 18.1512 2.02915C18.0711 1.94906 17.9632 1.90294 17.8499 1.90039H12.8499Z" fill="white"/>
<path d="M7.1507 19.6002H2.1507C1.63965 19.5976 1.15027 19.3934 0.78889 19.032C0.427513 18.6707 0.223331 18.1813 0.220703 17.6702V12.6702C0.223331 12.1592 0.427513 11.6698 0.78889 11.3084C1.15027 10.947 1.63965 10.7429 2.1507 10.7402H7.1507C7.66176 10.7429 8.15114 10.947 8.51252 11.3084C8.87389 11.6698 9.07808 12.1592 9.0807 12.6702V17.6702C9.07808 18.1813 8.87389 18.6707 8.51252 19.032C8.15114 19.3934 7.66176 19.5976 7.1507 19.6002V19.6002ZM2.1507 12.2402C2.03666 12.2402 1.92729 12.2855 1.84665 12.3662C1.76601 12.4468 1.7207 12.5562 1.7207 12.6702V17.6702C1.72325 17.7835 1.76937 17.8914 1.84946 17.9715C1.92956 18.0516 2.03746 18.0977 2.1507 18.1002H7.1507C7.26475 18.1002 7.37412 18.0549 7.45476 17.9743C7.5354 17.8937 7.5807 17.7843 7.5807 17.6702V12.6702C7.5807 12.5562 7.5354 12.4468 7.45476 12.3662C7.37412 12.2855 7.26475 12.2402 7.1507 12.2402H2.1507Z" fill="white"/>
<path d="M17.8499 19.6002H12.8499C12.3389 19.5976 11.8495 19.3934 11.4881 19.032C11.1267 18.6707 10.9225 18.1813 10.9199 17.6702V12.6702C10.9225 12.1592 11.1267 11.6698 11.4881 11.3084C11.8495 10.947 12.3389 10.7429 12.8499 10.7402H17.8499C18.361 10.7429 18.8504 10.947 19.2117 11.3084C19.5731 11.6698 19.7773 12.1592 19.7799 12.6702V17.6702C19.7773 18.1813 19.5731 18.6707 19.2117 19.032C18.8504 19.3934 18.361 19.5976 17.8499 19.6002V19.6002ZM12.8499 12.2402C12.7359 12.2402 12.6265 12.2855 12.5459 12.3662C12.4652 12.4468 12.4199 12.5562 12.4199 12.6702V17.6702C12.4199 17.7843 12.4652 17.8937 12.5459 17.9743C12.6265 18.0549 12.7359 18.1002 12.8499 18.1002H17.8499C17.9632 18.0977 18.0711 18.0516 18.1512 17.9715C18.2313 17.8914 18.2774 17.7835 18.2799 17.6702V12.6702C18.2799 12.5562 18.2346 12.4468 18.154 12.3662C18.0733 12.2855 17.964 12.2402 17.8499 12.2402H12.8499Z" fill="white"/>
</svg>
