<svg width="12" height="15" viewBox="0 0 12 15" fill="none" xmlns="http://www.w3.org/2000/svg">
<path d="M0 13.375C0 14.0996 0.575893 14.6875 1.28571 14.6875H10.7143C11.4241 14.6875 12 14.0996 12 13.375V5.9375H0V13.375ZM8.57143 8.01562C8.57143 7.83516 8.71607 7.6875 8.89286 7.6875H9.96429C10.1411 7.6875 10.2857 7.83516 10.2857 8.01562V9.10938C10.2857 9.28984 10.1411 9.4375 9.96429 9.4375H8.89286C8.71607 9.4375 8.57143 9.28984 8.57143 9.10938V8.01562ZM8.57143 11.5156C8.57143 11.3352 8.71607 11.1875 8.89286 11.1875H9.96429C10.1411 11.1875 10.2857 11.3352 10.2857 11.5156V12.6094C10.2857 12.7898 10.1411 12.9375 9.96429 12.9375H8.89286C8.71607 12.9375 8.57143 12.7898 8.57143 12.6094V11.5156ZM5.14286 8.01562C5.14286 7.83516 5.2875 7.6875 5.46429 7.6875H6.53571C6.7125 7.6875 6.85714 7.83516 6.85714 8.01562V9.10938C6.85714 9.28984 6.7125 9.4375 6.53571 9.4375H5.46429C5.2875 9.4375 5.14286 9.28984 5.14286 9.10938V8.01562ZM5.14286 11.5156C5.14286 11.3352 5.2875 11.1875 5.46429 11.1875H6.53571C6.7125 11.1875 6.85714 11.3352 6.85714 11.5156V12.6094C6.85714 12.7898 6.7125 12.9375 6.53571 12.9375H5.46429C5.2875 12.9375 5.14286 12.7898 5.14286 12.6094V11.5156ZM1.71429 8.01562C1.71429 7.83516 1.85893 7.6875 2.03571 7.6875H3.10714C3.28393 7.6875 3.42857 7.83516 3.42857 8.01562V9.10938C3.42857 9.28984 3.28393 9.4375 3.10714 9.4375H2.03571C1.85893 9.4375 1.71429 9.28984 1.71429 9.10938V8.01562ZM1.71429 11.5156C1.71429 11.3352 1.85893 11.1875 2.03571 11.1875H3.10714C3.28393 11.1875 3.42857 11.3352 3.42857 11.5156V12.6094C3.42857 12.7898 3.28393 12.9375 3.10714 12.9375H2.03571C1.85893 12.9375 1.71429 12.7898 1.71429 12.6094V11.5156ZM10.7143 2.4375H9.42857V1.125C9.42857 0.884375 9.23571 0.6875 9 0.6875H8.14286C7.90714 0.6875 7.71429 0.884375 7.71429 1.125V2.4375H4.28571V1.125C4.28571 0.884375 4.09286 0.6875 3.85714 0.6875H3C2.76429 0.6875 2.57143 0.884375 2.57143 1.125V2.4375H1.28571C0.575893 2.4375 0 3.02539 0 3.75V5.0625H12V3.75C12 3.02539 11.4241 2.4375 10.7143 2.4375Z" fill="#484848"/>
</svg>
