<svg width="25" height="21" viewBox="0 0 25 21" fill="none" xmlns="http://www.w3.org/2000/svg">
<path fill-rule="evenodd" clip-rule="evenodd" d="M24.4766 1.20769C24.1449 0.873323 23.6915 0.685765 23.2189 0.687512H1.78921C1.31523 0.689462 0.861441 0.877605 0.526353 1.21058C0.19127 1.54339 0.00212462 1.99455 1.52536e-05 2.46541V16.6582C-0.00194661 17.1318 0.185409 17.5869 0.520879 17.9232C0.856354 18.2597 1.3127 18.4498 1.78921 18.4518H17.4608L17.7733 16.2701C17.1973 15.5741 16.9096 14.6862 16.9684 13.7868C17.0271 12.8874 17.4281 12.044 18.0898 11.4277C18.7513 10.8114 19.6244 10.4684 20.5311 10.4684C21.4381 10.4684 22.3109 10.8114 22.9726 11.4277C23.6343 12.044 24.0351 12.8874 24.094 13.7868C24.1526 14.6862 23.8648 15.5741 23.2888 16.2701L23.5935 18.4052C23.9929 18.3168 24.3504 18.0954 24.6062 17.7778C24.8618 17.4602 25.0007 17.0652 24.9999 16.6582V2.46541C25.0037 1.9932 24.8151 1.5393 24.4766 1.20769ZM16.0703 7.78353H5.35922V6.02904H16.0703V7.78353ZM12.4999 9.56163V11.3395H5.35922V9.56163H12.4999ZM23.211 8.6765H21.4298V4.23552H3.57052V14.8876H15.1801V16.6655H2.68007C2.44465 16.6636 2.21923 16.5696 2.05268 16.4041C1.88612 16.2386 1.79156 16.0145 1.7896 15.7804V3.35791C1.7896 3.12239 1.88318 2.89662 2.04994 2.72952C2.21669 2.56224 2.44328 2.46729 2.68008 2.46515H22.3208C22.5562 2.46729 22.7817 2.56107 22.9482 2.7266C23.1148 2.89232 23.2093 3.11614 23.2113 3.35029L23.211 8.6765Z" fill="#6646E7"/>
<path fill-rule="evenodd" clip-rule="evenodd" d="M22.1249 20.6882L20.8202 20.2534C20.6352 20.1912 20.4347 20.1912 20.25 20.2534L18.9453 20.6882L19.2657 18.4367L19.4297 17.373H19.4295C20.1475 17.6088 20.9226 17.6088 21.6405 17.373L21.8045 18.4522L22.1249 20.6882Z" fill="#6646E7"/>
<path fill-rule="evenodd" clip-rule="evenodd" d="M22.3202 13.9949C22.3263 14.4683 22.1425 14.9245 21.8091 15.2626C21.4758 15.6007 21.0205 15.7927 20.5443 15.7962C20.068 15.7995 19.6099 15.6141 19.2717 15.2809C18.9335 14.9477 18.7428 14.4942 18.7422 14.0208C18.7414 13.5477 18.9307 13.0936 19.268 12.7592C19.6052 12.4251 20.0625 12.2383 20.5389 12.2403C21.0085 12.2403 21.4593 12.4247 21.7929 12.7534C22.1266 13.0819 22.3161 13.5282 22.3202 13.9949Z" fill="#6646E7"/>
</svg>
