<svg width="25" height="20" viewBox="0 0 25 20" fill="none" xmlns="http://www.w3.org/2000/svg">
<path fill-rule="evenodd" clip-rule="evenodd" d="M24.4766 0.52019C24.1449 0.185823 23.6915 -0.00173481 23.2189 1.20945e-05H1.78921C1.31523 0.00196179 0.861441 0.190105 0.526353 0.523085C0.19127 0.855895 0.00212462 1.30705 1.52536e-05 1.77791V15.9707C-0.00194661 16.4443 0.185409 16.8994 0.520879 17.2357C0.856354 17.5722 1.3127 17.7623 1.78921 17.7643H17.4608L17.7733 15.5826C17.1973 14.8866 16.9096 13.9987 16.9684 13.0993C17.0271 12.1999 17.4281 11.3565 18.0898 10.7402C18.7513 10.1239 19.6244 9.78092 20.5311 9.78092C21.4381 9.78092 22.3109 10.1239 22.9726 10.7402C23.6343 11.3565 24.0351 12.1999 24.094 13.0993C24.1526 13.9987 23.8648 14.8866 23.2888 15.5826L23.5935 17.7177H23.5937C23.9931 17.6293 24.3504 17.4079 24.6062 17.0903C24.8618 16.7727 25.0007 16.3777 24.9999 15.9707V1.77791C25.0037 1.3057 24.8147 0.851802 24.4763 0.52019H24.4766ZM16.0703 7.09603H5.35922V5.34154H16.0703V7.09603ZM12.4999 8.87413V10.652H5.35922V8.87413H12.4999ZM23.211 7.989H21.4298V3.54802H3.57052V14.2001H15.1801V15.978H2.68007C2.44465 15.9761 2.21923 15.8821 2.05268 15.7166C1.88612 15.5511 1.79156 15.327 1.7896 15.0929V2.67041V2.67061C1.7896 2.43509 1.88318 2.20912 2.04994 2.04202C2.21669 1.87474 2.44328 1.77979 2.68008 1.77765H22.3208C22.5562 1.77979 22.7817 1.87357 22.9482 2.0391C23.1148 2.20482 23.2093 2.42864 23.2113 2.66279L23.211 7.989Z" fill="#838383"/>
<path fill-rule="evenodd" clip-rule="evenodd" d="M22.1249 20.0007L20.8202 19.5659C20.6352 19.5037 20.4347 19.5037 20.25 19.5659L18.9453 20.0007L19.2657 17.7492L19.4297 16.6855H19.4295C20.1475 16.9213 20.9226 16.9213 21.6405 16.6855L21.8045 17.7647L22.1249 20.0007Z" fill="#838383"/>
<path fill-rule="evenodd" clip-rule="evenodd" d="M22.3202 13.3074C22.3263 13.7808 22.1425 14.237 21.8091 14.5751C21.4758 14.9132 21.0205 15.1052 20.5443 15.1087C20.068 15.112 19.6099 14.9266 19.2717 14.5934C18.9335 14.2602 18.7428 13.8067 18.7422 13.3333C18.7414 12.8602 18.9307 12.4061 19.268 12.0717C19.6052 11.7376 20.0625 11.5508 20.5389 11.5528C21.0085 11.5528 21.4593 11.7372 21.7929 12.0659C22.1266 12.3944 22.3161 12.8407 22.3202 13.3074Z" fill="#838383"/>
</svg>
