<svg width="24" height="24" viewBox="0 0 24 24" fill="none" xmlns="http://www.w3.org/2000/svg">
<path d="M16.4444 9.77821C16.4444 6.70877 13.2118 4.22266 9.22222 4.22266C5.23264 4.22266 2 6.70877 2 9.77821C2 10.9692 2.48958 12.0664 3.31944 12.9727C2.85417 14.0213 2.08681 14.8546 2.07639 14.865C2 14.9449 1.97917 15.0629 2.02431 15.1671C2.06944 15.2713 2.16667 15.3338 2.27778 15.3338C3.54861 15.3338 4.60069 14.9067 5.35764 14.4657C6.47569 15.0108 7.79861 15.3338 9.22222 15.3338C13.2118 15.3338 16.4444 12.8477 16.4444 9.77821ZM20.6806 17.4171C21.5104 16.5143 22 15.4136 22 14.2227C22 11.8997 20.1424 9.91016 17.5104 9.08029C17.5417 9.30946 17.5556 9.5421 17.5556 9.77821C17.5556 13.4553 13.816 16.4449 9.22222 16.4449C8.84722 16.4449 8.48264 16.4171 8.12153 16.3789C9.21528 18.3754 11.7847 19.7782 14.7778 19.7782C16.2014 19.7782 17.5243 19.4588 18.6424 18.9102C19.3993 19.3511 20.4514 19.7782 21.7222 19.7782C21.8333 19.7782 21.934 19.7122 21.9757 19.6115C22.0208 19.5108 22 19.3928 21.9236 19.3095C21.9132 19.299 21.1458 18.4692 20.6806 17.4171Z" fill="#838383"/>
</svg>
