<svg width="25" height="27" viewBox="0 0 25 27" fill="none" xmlns="http://www.w3.org/2000/svg">
<path d="M25 13.1875C25 20.0911 19.4036 25.6875 12.5 25.6875C5.59644 25.6875 0 20.0911 0 13.1875C0 6.28394 5.59644 0.6875 12.5 0.6875C19.4036 0.6875 25 6.28394 25 13.1875Z" fill="#77AF44"/>
<g filter="url(#filter0_d_184_4404)">
<path fill-rule="evenodd" clip-rule="evenodd" d="M19.1192 9.06722C19.7502 9.76582 19.6954 10.8437 18.9968 11.4747L10.821 18.8597L6.26192 14.3546C5.5923 13.6929 5.58587 12.6137 6.24756 11.944C6.90925 11.2744 7.98849 11.268 8.65811 11.9297L10.9261 14.1708L16.7117 8.94486C17.4103 8.31384 18.4882 8.36862 19.1192 9.06722Z" fill="white"/>
</g>
<defs>
<filter id="filter0_d_184_4404" x="1.75586" y="8.50586" width="21.8027" height="18.3535" filterUnits="userSpaceOnUse" color-interpolation-filters="sRGB">
<feFlood flood-opacity="0" result="BackgroundImageFix"/>
<feColorMatrix in="SourceAlpha" type="matrix" values="0 0 0 0 0 0 0 0 0 0 0 0 0 0 0 0 0 0 127 0" result="hardAlpha"/>
<feOffset dy="4"/>
<feGaussianBlur stdDeviation="2"/>
<feComposite in2="hardAlpha" operator="out"/>
<feColorMatrix type="matrix" values="0 0 0 0 0 0 0 0 0 0 0 0 0 0 0 0 0 0 0.25 0"/>
<feBlend mode="normal" in2="BackgroundImageFix" result="effect1_dropShadow_184_4404"/>
<feBlend mode="normal" in="SourceGraphic" in2="effect1_dropShadow_184_4404" result="shape"/>
</filter>
</defs>
</svg>
