<svg width="25" height="26" viewBox="0 0 25 26" fill="none" xmlns="http://www.w3.org/2000/svg">
<path d="M25 13.1875C25 20.0911 19.4036 25.6875 12.5 25.6875C5.59644 25.6875 0 20.0911 0 13.1875C0 6.28394 5.59644 0.6875 12.5 0.6875C19.4036 0.6875 25 6.28394 25 13.1875Z" fill="#A4A4A4"/>
<path fill-rule="evenodd" clip-rule="evenodd" d="M19.1192 9.06722C19.7502 9.76582 19.6954 10.8437 18.9968 11.4747L10.821 18.8597L6.26192 14.3546C5.5923 13.6929 5.58587 12.6137 6.24756 11.944C6.90925 11.2744 7.98849 11.268 8.65811 11.9297L10.9261 14.1708L16.7117 8.94486C17.4103 8.31384 18.4882 8.36862 19.1192 9.06722Z" fill="white"/>
</svg>
