<svg width="149" height="126" viewBox="0 0 149 126" fill="none" xmlns="http://www.w3.org/2000/svg">
<path d="M0.410178 122.368L6.31272 125.762C6.61907 125.918 6.95772 125.999 7.30121 125.999C7.6447 125.999 7.98336 125.918 8.28971 125.762L54.8332 98.808C54.9554 98.7713 55.0625 98.6962 55.1386 98.5936C55.2148 98.4911 55.2559 98.3667 55.2559 98.2389C55.2559 98.1111 55.2148 97.9867 55.1386 97.8842C55.0625 97.7817 54.9554 97.7065 54.8332 97.6699L48.8631 94.3079C48.5559 94.153 48.2168 94.0723 47.8729 94.0723C47.5289 94.0723 47.1898 94.153 46.8826 94.3079L0.410178 121.224C0.290659 121.264 0.186777 121.341 0.113183 121.444C0.0395901 121.547 0 121.67 0 121.796C0 121.923 0.0395901 122.046 0.113183 122.148C0.186777 122.251 0.290659 122.328 0.410178 122.368Z" fill="#B4B3B3"/>
<path d="M147.58 122.368L141.678 125.762C141.371 125.918 141.033 125.999 140.689 125.999C140.346 125.999 140.007 125.918 139.701 125.762L93.1571 98.8078C93.0349 98.7712 92.9278 98.696 92.8517 98.5935C92.7755 98.491 92.7344 98.3666 92.7344 98.2388C92.7344 98.111 92.7755 97.9866 92.8517 97.8841C92.9278 97.7816 93.0349 97.7064 93.1571 97.6697L99.1272 94.3077C99.4342 94.1529 99.7732 94.0723 100.117 94.0723C100.461 94.0723 100.799 94.1529 101.107 94.3077L147.577 121.214C147.7 121.252 147.808 121.328 147.884 121.432C147.961 121.535 148.003 121.661 148.003 121.79C148.004 121.919 147.963 122.045 147.887 122.149C147.81 122.253 147.703 122.33 147.58 122.368Z" fill="#B4B3B3"/>
<path d="M96.8438 3.94453V96.7811C96.8722 97.3005 97.0221 97.8059 97.2813 98.2566C97.5406 98.7073 97.9018 99.0906 98.336 99.3756L139.41 123.135C140.232 123.611 140.902 123.226 140.902 122.272V29.44C140.873 28.9207 140.723 28.4154 140.463 27.9648C140.204 27.5142 139.843 27.1308 139.41 26.8454L98.336 3.08562C97.5122 2.60092 96.8438 2.99058 96.8438 3.94453ZM98.9938 15.0249C98.9938 14.2088 99.5651 13.8749 100.274 14.2872L137.62 35.8931C137.992 36.1378 138.302 36.4665 138.524 36.853C138.746 37.2395 138.875 37.6728 138.9 38.1182V110.844C138.9 111.665 138.324 111.994 137.62 111.586L100.274 89.9763C99.9206 89.8321 99.6141 89.5927 99.3882 89.2847C99.1623 88.9767 99.0258 88.6121 98.9938 88.2311V15.0249Z" fill="#27DEBF"/>
<path opacity="0.5" d="M96.8438 3.94453V96.7811C96.8722 97.3005 97.0221 97.8059 97.2813 98.2566C97.5406 98.7073 97.9018 99.0906 98.336 99.3756L139.41 123.135C140.232 123.611 140.902 123.226 140.902 122.272V29.44C140.873 28.9207 140.723 28.4154 140.463 27.9648C140.204 27.5142 139.843 27.1308 139.41 26.8454L98.336 3.08562C97.5122 2.60092 96.8438 2.99058 96.8438 3.94453ZM98.9938 15.0249C98.9938 14.2088 99.5651 13.8749 100.274 14.2872L137.62 35.8931C137.992 36.1378 138.302 36.4665 138.524 36.853C138.746 37.2395 138.875 37.6728 138.9 38.1182V110.844C138.9 111.665 138.324 111.994 137.62 111.586L100.274 89.9763C99.9206 89.8321 99.6141 89.5927 99.3882 89.2847C99.1623 88.9767 99.0258 88.6121 98.9938 88.2311V15.0249Z" fill="black"/>
<path d="M139.594 123.241C140.04 123.43 140.521 123.519 141.005 123.503C141.489 123.487 141.964 123.366 142.397 123.148L144.105 122.159C144.541 121.875 144.904 121.493 145.165 121.042C145.425 120.591 145.575 120.084 145.603 119.564V26.7274C145.594 26.3406 145.506 25.9598 145.345 25.6084C145.292 25.4864 145.232 25.3674 145.167 25.252C145.167 25.252 145.167 25.252 145.167 25.252L140.466 27.9724C140.566 28.1488 140.652 28.3322 140.724 28.5213C140.838 28.8172 140.9 29.1308 140.906 29.4479V122.292C140.9 123.162 140.336 123.563 139.594 123.241Z" fill="#27DEBF"/>
<path opacity="0.7" d="M139.594 123.241C140.04 123.43 140.521 123.519 141.005 123.503C141.489 123.487 141.964 123.366 142.397 123.148L144.105 122.159C144.541 121.875 144.904 121.493 145.165 121.042C145.425 120.591 145.575 120.084 145.603 119.564V26.7274C145.594 26.3406 145.506 25.9598 145.345 25.6084C145.292 25.4864 145.232 25.3674 145.167 25.252C145.167 25.252 145.167 25.252 145.167 25.252L140.466 27.9724C140.566 28.1488 140.652 28.3322 140.724 28.5213C140.838 28.8172 140.9 29.1308 140.906 29.4479V122.292C140.9 123.162 140.336 123.563 139.594 123.241Z" fill="black"/>
<path d="M118.514 103.108C117.21 102.355 116.156 102.965 116.156 104.473C116.201 105.293 116.437 106.091 116.847 106.802C117.257 107.513 117.828 108.118 118.514 108.567C119.817 109.32 120.871 108.709 120.871 107.202C120.827 106.382 120.59 105.584 120.18 104.872C119.771 104.161 119.2 103.557 118.514 103.108Z" stroke="#E6E6E6" stroke-miterlimit="10"/>
<path d="M118.877 16.9675C118.324 16.6467 117.875 16.9069 117.875 17.5472C117.894 17.8954 117.995 18.2342 118.169 18.5362C118.343 18.8382 118.585 19.0948 118.877 19.2852C119.43 19.606 119.878 19.3458 119.878 18.7055C119.859 18.3573 119.759 18.0184 119.585 17.7164C119.411 17.4144 119.168 17.1579 118.877 16.9675Z" fill="black"/>
<path d="M122.733 23.0736L115.002 18.5996C114.541 18.3323 114.172 18.5224 114.172 19.0237C114.192 19.3043 114.277 19.5763 114.422 19.8177C114.566 20.0592 114.764 20.2633 115.002 20.4137L122.733 24.8876C123.194 25.1537 123.563 24.9649 123.563 24.4635C123.543 24.1829 123.457 23.9109 123.313 23.6694C123.169 23.428 122.97 23.2239 122.733 23.0736Z" fill="black"/>
<path d="M98.9844 88.231C99.0163 88.612 99.1528 88.9766 99.3787 89.2846C99.6047 89.5926 99.9112 89.832 100.264 89.9762L137.61 111.587C138.316 111.996 138.891 111.665 138.891 110.846V38.1134C138.866 37.668 138.737 37.2346 138.515 36.8482C138.292 36.4617 137.983 36.1329 137.61 35.8883L100.264 14.2823C99.5533 13.8701 98.9844 14.2039 98.9844 15.0201V88.231Z" fill="#27DEBF"/>
<path opacity="0.5" d="M98.9844 88.231C99.0163 88.612 99.1528 88.9766 99.3787 89.2846C99.6047 89.5926 99.9112 89.832 100.264 89.9762L137.61 111.587C138.316 111.996 138.891 111.665 138.891 110.846V38.1134C138.866 37.668 138.737 37.2346 138.515 36.8482C138.292 36.4617 137.983 36.1329 137.61 35.8883L100.264 14.2823C99.5533 13.8701 98.9844 14.2039 98.9844 15.0201V88.231Z" fill="white"/>
<path d="M101.486 20.5267V19.8448C101.486 19.6974 101.544 19.6072 101.616 19.6523L101.651 19.6725C101.696 19.7167 101.731 19.7703 101.754 19.8293C101.776 19.8884 101.785 19.9516 101.781 20.0146V20.6977C101.781 20.845 101.723 20.9353 101.651 20.8902L101.616 20.87C101.57 20.8258 101.535 20.7721 101.513 20.7128C101.49 20.6535 101.481 20.5899 101.486 20.5267Z" fill="#455A64"/>
<path d="M102.079 20.8675V19.6879C102.079 19.5405 102.137 19.4502 102.209 19.4966L102.245 19.5168C102.29 19.561 102.325 19.6144 102.348 19.6735C102.37 19.7326 102.38 19.7958 102.375 19.8589V21.0386C102.375 21.1859 102.317 21.2762 102.245 21.231L102.212 21.2097C102.166 21.1657 102.131 21.1123 102.108 21.0532C102.085 20.9942 102.075 20.9308 102.079 20.8675Z" fill="#455A64"/>
<path d="M102.673 21.2112V19.5362C102.673 19.3889 102.731 19.2986 102.803 19.3437L102.839 19.3651C102.884 19.4092 102.919 19.4627 102.942 19.5218C102.964 19.5809 102.974 19.6441 102.969 19.7072V21.3823C102.969 21.5296 102.911 21.6199 102.839 21.5748L102.803 21.5546C102.758 21.5102 102.723 21.4565 102.701 21.3972C102.678 21.338 102.669 21.2745 102.673 21.2112Z" fill="#455A64"/>
<path d="M103.259 21.5533V18.6605C103.259 18.5132 103.317 18.4229 103.389 18.4692L103.426 18.4906C103.471 18.5349 103.506 18.5884 103.528 18.6475C103.55 18.7066 103.56 18.7698 103.555 18.8328V21.7243C103.555 21.8716 103.497 21.9619 103.425 21.9168L103.389 21.8966C103.344 21.8524 103.309 21.7987 103.286 21.7394C103.264 21.6801 103.254 21.6166 103.259 21.5533Z" fill="#455A64"/>
<path d="M104.868 22.6752C104.855 22.6412 104.849 22.6048 104.851 22.5683V22.143L104.188 21.7605C104.169 21.7474 104.154 21.7295 104.145 21.7086C104.135 21.6877 104.131 21.6646 104.133 21.6417V21.4896C104.133 21.4637 104.135 21.4379 104.139 21.4124C104.145 21.3934 104.153 21.3751 104.163 21.3578L104.867 20.2446C104.875 20.23 104.886 20.2176 104.9 20.209C104.91 20.209 104.925 20.209 104.947 20.2197L105.039 20.2731C105.066 20.2881 105.088 20.312 105.099 20.3408C105.114 20.3787 105.12 20.4192 105.118 20.4596V21.9434L105.265 22.0278C105.291 22.0425 105.312 22.0655 105.323 22.0931C105.336 22.129 105.341 22.1669 105.34 22.2048V22.3058C105.344 22.3357 105.338 22.366 105.323 22.3925C105.313 22.4056 105.293 22.4056 105.265 22.3925L105.118 22.3082V22.7323C105.122 22.7623 105.116 22.7928 105.101 22.819C105.089 22.8321 105.067 22.8297 105.039 22.819L104.928 22.7537C104.899 22.7361 104.877 22.708 104.868 22.6752ZM104.894 21.8068V20.7495L104.413 21.5288L104.894 21.8068Z" fill="#455A64"/>
<path d="M105.663 22.8736C105.525 22.5262 105.458 22.1544 105.468 21.7806C105.437 21.4786 105.506 21.1748 105.664 20.9157C105.794 20.7613 105.977 20.753 106.213 20.8884C106.31 20.945 106.399 21.0145 106.478 21.0951C106.558 21.1744 106.627 21.2643 106.683 21.3624C106.695 21.3802 106.701 21.4007 106.702 21.4218C106.702 21.4353 106.699 21.4486 106.694 21.461L106.633 21.6119C106.625 21.6285 106.617 21.6357 106.608 21.6309C106.598 21.6206 106.589 21.609 106.581 21.5965C106.497 21.458 106.381 21.3421 106.242 21.2591C106.083 21.1676 105.958 21.1747 105.868 21.2816C105.755 21.4785 105.708 21.7059 105.731 21.9315C105.722 22.2065 105.767 22.4806 105.864 22.7381C105.93 22.9226 106.055 23.0801 106.22 23.186C106.271 23.2163 106.326 23.2399 106.383 23.2561C106.425 23.2697 106.47 23.2718 106.514 23.262V22.573L106.237 22.4126C106.211 22.3984 106.19 22.3752 106.179 22.3473C106.167 22.3114 106.161 22.2735 106.163 22.2356V22.1382C106.159 22.1075 106.164 22.0762 106.179 22.0491C106.19 22.0372 106.209 22.0384 106.237 22.0491L106.678 22.3045C106.708 22.3223 106.731 22.35 106.744 22.3829C106.759 22.4256 106.765 22.4707 106.764 22.516V23.4996C106.765 23.5263 106.763 23.553 106.758 23.5792C106.756 23.5868 106.753 23.594 106.748 23.6002C106.743 23.6064 106.737 23.6114 106.73 23.6149C106.643 23.6464 106.549 23.6549 106.458 23.6397C106.366 23.6246 106.28 23.5861 106.208 23.5281C105.96 23.3754 105.768 23.1455 105.663 22.8736Z" fill="#455A64"/>
<path d="M135.866 37.615C135.821 37.4612 135.729 37.3253 135.604 37.2265L133.618 36.0766C133.446 35.9768 133.312 36.1752 133.312 36.5268V38.0094C133.316 38.2172 133.356 38.4227 133.431 38.6165C133.459 38.693 133.495 38.7666 133.538 38.8362C133.576 38.9038 133.629 38.9612 133.694 39.0038L135.679 40.1537C135.851 40.2523 135.985 40.0551 135.985 39.7023V38.2149C135.981 38.0095 135.94 37.8064 135.866 37.615ZM133.495 38.5143C133.466 38.4283 133.451 38.3379 133.452 38.247V36.7596C133.452 36.5007 133.559 36.3438 133.689 36.4163L135.675 37.5663C135.709 37.5876 135.738 37.617 135.759 37.6518C135.772 37.6741 135.784 37.6975 135.793 37.7219C135.823 37.8075 135.837 37.8975 135.836 37.988V39.4754C135.836 39.7356 135.729 39.8924 135.599 39.8187L133.614 38.6688C133.56 38.6318 133.52 38.5778 133.5 38.5155L133.495 38.5143Z" fill="#455A64"/>
<path d="M134.757 37.3005V39.0611L133.691 38.4422C133.678 38.4339 133.667 38.4243 133.656 38.4137C133.658 38.3939 133.658 38.374 133.656 38.3543V37.0178C133.656 36.8289 133.739 36.7101 133.828 36.7624L134.757 37.3005Z" fill="#455A64"/>
<path d="M136.08 38.2889C136.191 38.4783 136.237 38.6982 136.213 38.9162V39.193C136.213 39.4983 136.153 39.7169 136.079 39.6812L135.945 39.6171V38.2129L136.08 38.2889Z" fill="#455A64"/>
<path d="M131.152 36.9917C131.152 37.3196 130.98 37.4859 130.767 37.3624C130.645 37.2651 130.546 37.1409 130.48 36.9994C130.413 36.8578 130.38 36.7027 130.383 36.5462C130.383 36.2184 130.555 36.0521 130.767 36.1756C130.89 36.2727 130.988 36.3968 131.055 36.5384C131.122 36.68 131.155 36.8351 131.152 36.9917Z" fill="#455A64"/>
<path d="M130.77 35.2029C130.694 35.1486 130.607 35.1133 130.515 35.0999C130.424 35.0864 130.33 35.0952 130.242 35.1256C130.155 35.156 130.075 35.207 130.012 35.2744C129.948 35.3418 129.901 35.4236 129.875 35.513C129.86 35.5659 129.856 35.6213 129.863 35.6759C129.87 35.7304 129.888 35.7829 129.916 35.8301C129.99 35.9608 130.098 35.9905 130.14 35.8884C130.158 35.8253 130.191 35.7675 130.236 35.7198C130.281 35.672 130.336 35.6358 130.398 35.6142C130.46 35.5925 130.526 35.586 130.59 35.5953C130.655 35.6046 130.717 35.6293 130.77 35.6674C131.087 35.898 131.31 36.2354 131.399 36.6178C131.442 36.7698 131.551 36.8649 131.623 36.8186C131.68 36.7817 131.698 36.6677 131.663 36.5489C131.536 36.0075 131.219 35.5299 130.77 35.2029Z" fill="#455A64"/>
<path d="M130.765 34.2505C130.655 34.1698 130.528 34.1149 130.394 34.0898C130.26 34.0647 130.122 34.07 129.99 34.1055C129.858 34.1409 129.736 34.2056 129.633 34.2946C129.529 34.3836 129.447 34.4948 129.392 34.62C129.371 34.6741 129.363 34.7322 129.369 34.7898C129.374 34.8475 129.393 34.9031 129.422 34.9526C129.492 35.0797 129.596 35.1094 129.643 35.0191C129.687 34.9165 129.754 34.8251 129.838 34.7518C129.922 34.6786 130.022 34.6253 130.13 34.596C130.237 34.5666 130.35 34.562 130.46 34.5824C130.569 34.6028 130.673 34.6477 130.763 34.7138C131.308 35.1044 131.704 35.6704 131.884 36.3176C131.933 36.4625 132.034 36.5552 132.105 36.5053C132.166 36.4661 132.179 36.3378 132.137 36.2095C131.916 35.419 131.432 34.7279 130.765 34.2505Z" fill="#455A64"/>
<path d="M96.8594 3.70764C96.9672 2.92951 97.5883 2.64677 98.335 3.08157L139.411 26.8413C139.852 27.118 140.215 27.5033 140.465 27.9604L145.165 25.2399C144.914 24.7845 144.55 24.4016 144.108 24.128L103.039 0.358702C102.576 0.122898 102.064 0 101.545 0C101.026 0 100.514 0.122898 100.051 0.358702L98.335 1.34473C97.9345 1.60967 97.5955 1.95776 97.341 2.36543C97.0864 2.77309 96.9221 3.23082 96.8594 3.70764Z" fill="#27DEBF"/>
<path opacity="0.2" d="M96.8594 3.70764C96.9672 2.92951 97.5883 2.64677 98.335 3.08157L139.411 26.8413C139.852 27.118 140.215 27.5033 140.465 27.9604L145.165 25.2399C144.914 24.7845 144.55 24.4016 144.108 24.128L103.039 0.358702C102.576 0.122898 102.064 0 101.545 0C101.026 0 100.514 0.122898 100.051 0.358702L98.335 1.34473C97.9345 1.60967 97.5955 1.95776 97.341 2.36543C97.0864 2.77309 96.9221 3.23082 96.8594 3.70764Z" fill="black"/>
<path d="M127.269 92.9492C127.269 92.9492 123.012 97.2188 117.352 95.5877C117.352 95.5877 119.056 97.2711 123.067 96.1402C124.786 95.5811 126.266 94.4567 127.269 92.9492Z" fill="#27DEBF"/>
<path d="M135.705 66.752C135.705 66.752 137.88 72.3795 134.102 76.9093C134.102 76.9093 136.326 76.0278 136.917 71.8936C137.102 70.0919 136.675 68.2804 135.705 66.752Z" fill="#27DEBF"/>
<path d="M126.805 94.7396C130.465 91.0803 132.535 86.1194 132.563 80.9375C132.563 80.9375 133.722 83.8516 131.911 88.4527C130.969 91.0681 129.169 93.285 126.805 94.7396Z" fill="#27DEBF"/>
<path d="M50.1674 3.08255L9.09378 26.8423C8.66 27.1277 8.29904 27.5112 8.03988 27.9618C7.78073 28.4124 7.6306 28.9176 7.60156 29.4369V122.279C7.60156 123.23 8.27122 123.622 9.09378 123.143L50.1674 99.3832C50.6021 99.0975 50.9637 98.7132 51.2227 98.2614C51.4817 97.8097 51.631 97.3031 51.6584 96.7827V3.94622C51.6584 2.99226 50.99 2.60261 50.1674 3.08255ZM49.5037 88.2292C49.4717 88.6102 49.3352 88.9748 49.1093 89.2828C48.8834 89.5908 48.5768 89.8302 48.2236 89.9744L10.8835 111.589C10.1783 111.997 9.60344 111.667 9.60344 110.847V38.1199C9.62826 37.6745 9.75702 37.2411 9.97934 36.8547C10.2017 36.4682 10.5114 36.1395 10.8835 35.8948L48.2283 14.2888C48.9395 13.8766 49.5084 14.2104 49.5084 15.0266L49.5037 88.2292Z" fill="#27DEBF"/>
<path opacity="0.5" d="M50.1674 3.08255L9.09378 26.8423C8.66 27.1277 8.29904 27.5112 8.03988 27.9618C7.78073 28.4124 7.6306 28.9176 7.60156 29.4369V122.279C7.60156 123.23 8.27122 123.622 9.09378 123.143L50.1674 99.3832C50.6021 99.0975 50.9637 98.7132 51.2227 98.2614C51.4817 97.8097 51.631 97.3031 51.6584 96.7827V3.94622C51.6584 2.99226 50.99 2.60261 50.1674 3.08255ZM49.5037 88.2292C49.4717 88.6102 49.3352 88.9748 49.1093 89.2828C48.8834 89.5908 48.5768 89.8302 48.2236 89.9744L10.8835 111.589C10.1783 111.997 9.60344 111.667 9.60344 110.847V38.1199C9.62826 37.6745 9.75702 37.2411 9.97934 36.8547C10.2017 36.4682 10.5114 36.1395 10.8835 35.8948L48.2283 14.2888C48.9395 13.8766 49.5084 14.2104 49.5084 15.0266L49.5037 88.2292Z" fill="black"/>
<path d="M8.90883 123.241C8.4628 123.43 7.98112 123.519 7.49712 123.503C7.01312 123.487 6.53836 123.366 6.10572 123.148L4.39659 122.159C3.96033 121.875 3.59715 121.492 3.33677 121.041C3.07638 120.591 2.92618 120.084 2.89844 119.564V26.7274C2.90736 26.3406 2.9953 25.9598 3.15682 25.6084C3.2095 25.4864 3.26885 25.3674 3.33461 25.252L8.03531 27.9724C7.93587 28.1488 7.84952 28.3322 7.77693 28.5213C7.6631 28.8172 7.60173 29.1308 7.59558 29.4479V122.292C7.60388 123.162 8.17279 123.563 8.90883 123.241Z" fill="#27DEBF"/>
<path opacity="0.7" d="M8.90883 123.241C8.4628 123.43 7.98112 123.519 7.49712 123.503C7.01312 123.487 6.53836 123.366 6.10572 123.148L4.39659 122.159C3.96033 121.875 3.59715 121.492 3.33677 121.041C3.07638 120.591 2.92618 120.084 2.89844 119.564V26.7274C2.90736 26.3406 2.9953 25.9598 3.15682 25.6084C3.2095 25.4864 3.26885 25.3674 3.33461 25.252L8.03531 27.9724C7.93587 28.1488 7.84952 28.3322 7.77693 28.5213C7.6631 28.8172 7.60173 29.1308 7.59558 29.4479V122.292C7.60388 123.162 8.17279 123.563 8.90883 123.241Z" fill="black"/>
<path d="M29.9746 103.108C31.2784 102.355 32.3321 102.965 32.3321 104.473C32.2876 105.293 32.051 106.091 31.6414 106.802C31.2318 107.513 30.6608 108.118 29.9746 108.567C28.6709 109.32 27.6172 108.709 27.6172 107.202C27.6617 106.382 27.8983 105.584 28.3079 104.872C28.7175 104.161 29.2885 103.557 29.9746 103.108Z" stroke="#E6E6E6" stroke-miterlimit="10"/>
<path d="M29.65 16.9675C30.2023 16.6467 30.6515 16.9069 30.6515 17.5472C30.6326 17.8954 30.532 18.2342 30.358 18.5362C30.184 18.8382 29.9414 19.0948 29.65 19.2852C29.0965 19.606 28.6484 19.3458 28.6484 18.7055C28.6673 18.3573 28.7678 18.0184 28.9419 17.7164C29.1159 17.4144 29.3585 17.1579 29.65 16.9675Z" fill="black"/>
<path d="M25.775 23.0736L33.5064 18.5996C33.9674 18.3323 34.336 18.5224 34.336 19.0237C34.316 19.3043 34.2305 19.5763 34.0864 19.8177C33.9423 20.0592 33.7436 20.2633 33.5064 20.4137L25.775 24.8876C25.3139 25.1537 24.9453 24.9649 24.9453 24.4635C24.9653 24.1829 25.0507 23.9109 25.1949 23.6694C25.339 23.428 25.5377 23.2239 25.775 23.0736Z" fill="black"/>
<path d="M49.5077 88.231C49.4757 88.612 49.3392 88.9766 49.1133 89.2846C48.8874 89.5926 48.5809 89.832 48.2276 89.9762L10.8816 111.587C10.1764 111.996 9.60156 111.665 9.60156 110.846V38.1134C9.62638 37.668 9.75514 37.2346 9.97746 36.8482C10.1998 36.4617 10.5095 36.1329 10.8816 35.8883L48.2264 14.2823C48.9376 13.8701 49.5065 14.2039 49.5065 15.0201L49.5077 88.231Z" fill="#27DEBF"/>
<path opacity="0.9" d="M49.5077 88.231C49.4757 88.612 49.3392 88.9766 49.1133 89.2846C48.8874 89.5926 48.5809 89.832 48.2276 89.9762L10.8816 111.587C10.1764 111.996 9.60156 111.665 9.60156 110.846V38.1134C9.62638 37.668 9.75514 37.2346 9.97746 36.8482C10.1998 36.4617 10.5095 36.1329 10.8816 35.8883L48.2264 14.2823C48.9376 13.8701 49.5065 14.2039 49.5065 15.0201L49.5077 88.231Z" fill="white"/>
<path d="M39.7892 23.8851C39.7892 24.213 39.9623 24.3793 40.1744 24.2569C40.2969 24.1598 40.3954 24.0356 40.4622 23.894C40.529 23.7524 40.5623 23.5973 40.5596 23.4408C40.5596 23.1129 40.3866 22.9466 40.1744 23.0701C40.052 23.1671 39.9536 23.2911 39.8868 23.4325C39.82 23.5738 39.7866 23.7287 39.7892 23.8851Z" fill="#455A64"/>
<path d="M39.2675 23.4454C39.2331 23.5642 39.2509 23.683 39.3078 23.7162C39.3813 23.7626 39.4891 23.6675 39.5318 23.5155C39.6205 23.133 39.844 22.7956 40.1612 22.5651C40.2143 22.5267 40.2758 22.5017 40.3406 22.4923C40.4054 22.4829 40.4715 22.4893 40.5333 22.511C40.5951 22.5327 40.6508 22.569 40.6956 22.6169C40.7403 22.6648 40.7729 22.7228 40.7905 22.786C40.8332 22.887 40.9411 22.8573 41.0145 22.7278C41.0431 22.6806 41.0616 22.6278 41.0687 22.573C41.0759 22.5182 41.0716 22.4625 41.056 22.4094C41.0302 22.3201 40.9834 22.2383 40.9194 22.1709C40.8555 22.1035 40.7764 22.0525 40.6887 22.0221C40.601 21.9917 40.5074 21.9829 40.4156 21.9963C40.3238 22.0098 40.2365 22.0451 40.1612 22.0994C39.7121 22.4264 39.395 22.904 39.2675 23.4454Z" fill="#455A64"/>
<path d="M38.7909 23.1079C38.7482 23.235 38.7601 23.3633 38.8229 23.4025C38.8928 23.4477 38.9959 23.3598 39.0433 23.2149C39.2234 22.5679 39.6191 22.0024 40.1646 21.6123C40.2545 21.5462 40.3582 21.5012 40.4679 21.4808C40.5775 21.4604 40.6904 21.465 40.798 21.4944C40.9056 21.5237 41.0053 21.577 41.0896 21.6503C41.1738 21.7235 41.2405 21.8149 41.2846 21.9176C41.332 22.0067 41.434 21.977 41.5051 21.851C41.5352 21.8016 41.5537 21.746 41.5592 21.6884C41.5648 21.6308 41.5572 21.5727 41.5371 21.5184C41.482 21.3932 41.3997 21.2821 41.2961 21.193C41.1925 21.104 41.0703 21.0394 40.9385 21.0039C40.8067 20.9685 40.6687 20.9631 40.5345 20.9882C40.4004 21.0133 40.2736 21.0682 40.1634 21.1489C39.4964 21.6259 39.0121 22.3171 38.7909 23.1079Z" fill="#455A64"/>
<path d="M11.9688 40.3405V39.7465C11.9677 39.6855 11.9806 39.6251 12.0065 39.5699C12.0324 39.5147 12.0706 39.4662 12.1182 39.4281L12.1596 39.4043C12.2426 39.3568 12.309 39.421 12.309 39.5481V40.1421C12.3102 40.2031 12.2973 40.2636 12.2714 40.3188C12.2455 40.374 12.2073 40.4225 12.1596 40.4605L12.1182 40.4854C12.0304 40.5329 11.9688 40.4688 11.9688 40.3405Z" fill="#455A64"/>
<path d="M12.6563 39.9439V38.9222C12.6554 38.8613 12.6685 38.8011 12.6946 38.746C12.7207 38.691 12.7591 38.6428 12.8068 38.6051L12.8483 38.5801C12.9313 38.5326 12.9976 38.5967 12.9976 38.725V39.7467C12.9989 39.8077 12.986 39.8682 12.9601 39.9234C12.9342 39.9786 12.8959 40.0271 12.8483 40.0651L12.8068 40.0888C12.7238 40.1364 12.6563 40.0722 12.6563 39.9439Z" fill="#455A64"/>
<path d="M13.3282 39.5466V38.0961C13.3271 38.0351 13.34 37.9746 13.3659 37.9194C13.3917 37.8642 13.43 37.8158 13.4775 37.7777L13.519 37.7539C13.602 37.7064 13.6684 37.7706 13.6684 37.8989V39.3494C13.6695 39.4102 13.6566 39.4705 13.6307 39.5255C13.6048 39.5805 13.5666 39.6288 13.519 39.6666L13.4775 39.6903C13.3958 39.7391 13.3282 39.6749 13.3282 39.5466Z" fill="#455A64"/>
<path d="M14.0079 39.1531V36.6476C14.0069 36.5867 14.02 36.5264 14.0461 36.4714C14.0722 36.4164 14.1106 36.3681 14.1584 36.3304L14.1999 36.3067C14.2828 36.2592 14.3504 36.3233 14.3492 36.4516V38.9559C14.3502 39.017 14.3371 39.0775 14.311 39.1327C14.2849 39.1879 14.2465 39.2363 14.1987 39.2743L14.1572 39.298C14.0754 39.3456 14.0079 39.2802 14.0079 39.1531Z" fill="#455A64"/>
<path d="M15.8565 38.2569C15.8435 38.2474 15.8364 38.2236 15.8364 38.1844V37.8162L15.0707 38.2593C15.028 38.283 15.0079 38.27 15.0079 38.2177V38.0858C15.0073 38.0611 15.0097 38.0364 15.015 38.0122C15.0222 37.9866 15.0313 37.9616 15.0423 37.9373L15.8553 36.1554C15.8661 36.1308 15.8792 36.1073 15.8945 36.0853C15.909 36.0671 15.9272 36.0521 15.9478 36.0413L16.0545 35.9807C16.0865 35.9617 16.1102 35.9582 16.1244 35.9688C16.1386 35.9795 16.1457 36.0057 16.1457 36.0472V37.3315L16.314 37.2341C16.3472 37.215 16.3685 37.2115 16.3816 37.2222C16.398 37.2448 16.4048 37.273 16.4005 37.3006V37.3885C16.4021 37.4212 16.3956 37.4539 16.3816 37.4835C16.3658 37.5113 16.3423 37.534 16.314 37.5489L16.1457 37.6463V38.0146C16.1473 38.0478 16.1404 38.081 16.1256 38.1108C16.1083 38.139 16.0837 38.1619 16.0545 38.1773L15.9265 38.251C15.8933 38.2617 15.8707 38.2664 15.8565 38.2569ZM15.8862 37.474V36.5581L15.3315 37.796L15.8862 37.474Z" fill="#455A64"/>
<path d="M16.7725 37.5086C16.6844 37.4141 16.6184 37.3011 16.5795 37.1778C16.5405 37.0544 16.5295 36.924 16.5473 36.7958C16.5413 36.4562 16.6191 36.1204 16.7737 35.8181C16.9167 35.5398 17.1369 35.3088 17.4078 35.1528C17.5036 35.0949 17.6069 35.0505 17.7148 35.021C17.7915 34.9962 17.8736 34.9933 17.9519 35.0127C17.9584 35.0141 17.9643 35.0179 17.9682 35.0234C17.9722 35.0289 17.9739 35.0356 17.9732 35.0424C17.9723 35.0574 17.9691 35.0722 17.9637 35.0863L17.8938 35.2883C17.8887 35.3063 17.8784 35.3225 17.8642 35.3346C17.8536 35.337 17.8427 35.337 17.8322 35.3346C17.6938 35.3229 17.5556 35.3594 17.441 35.438C17.2559 35.5456 17.1057 35.7044 17.0084 35.8953C16.8987 36.1199 16.845 36.3677 16.8519 36.6176C16.8519 36.9016 16.9029 37.0833 17.0037 37.1617C17.1044 37.2401 17.2407 37.2283 17.4209 37.1261C17.487 37.088 17.55 37.0447 17.6093 36.9966C17.6644 36.9532 17.7149 36.9043 17.7599 36.8505V36.2565L17.441 36.4406C17.4078 36.4596 17.3865 36.4632 17.3735 36.4525C17.3604 36.4418 17.3545 36.4169 17.3545 36.3753V36.2909C17.3526 36.2578 17.3592 36.2247 17.3735 36.1947C17.3895 36.1673 17.4129 36.1451 17.441 36.1306L17.9495 35.8359C17.985 35.8157 18.0099 35.8122 18.0253 35.8264C18.0444 35.8529 18.0525 35.8856 18.0479 35.9179V36.7697C18.0488 36.7956 18.0464 36.8216 18.0408 36.8469C18.0346 36.8693 18.0241 36.8903 18.0099 36.9087C17.8504 37.1297 17.6445 37.313 17.4066 37.4457C17.1325 37.5985 16.9211 37.6195 16.7725 37.5086Z" fill="#455A64"/>
<path d="M45.9369 18.3702C45.8979 18.3303 45.8461 18.3054 45.7906 18.3C45.7351 18.2945 45.6795 18.3089 45.6335 18.3405L43.3412 19.6663C43.2277 19.7542 43.1364 19.8677 43.0746 19.9975C43.0129 20.1272 42.9824 20.2698 42.9856 20.4135V21.7013C42.9808 21.7722 42.99 21.8434 43.0128 21.9107C43.0356 21.978 43.0715 22.04 43.1184 22.0933C43.1506 22.1266 43.1918 22.1497 43.2369 22.1599C43.2994 22.1699 43.3635 22.1568 43.4171 22.123L45.7093 20.7972C45.8228 20.7093 45.9141 20.5958 45.9759 20.4661C46.0377 20.3363 46.0682 20.1938 46.0649 20.05V18.761C46.0703 18.6906 46.0618 18.6199 46.0398 18.5528C46.0178 18.4857 45.9829 18.4237 45.9369 18.3702ZM43.2108 21.9163C43.1728 21.8638 43.1555 21.7991 43.1622 21.7346V20.4492C43.1611 20.3401 43.1848 20.2322 43.2314 20.1336C43.278 20.035 43.3464 19.9483 43.4313 19.8801L45.7236 18.5543C45.7516 18.535 45.7858 18.5266 45.8196 18.5306C45.8343 18.5333 45.8479 18.5403 45.8587 18.5508C45.8964 18.6029 45.9137 18.6672 45.9073 18.7313V20.0203C45.9086 20.1295 45.8852 20.2375 45.8388 20.3363C45.7924 20.4351 45.7242 20.522 45.6394 20.5905L43.3471 21.9163C43.2867 21.9448 43.2369 21.946 43.2061 21.9151L43.2108 21.9163Z" fill="#455A64"/>
<path d="M44.6581 19.3965V20.9219L43.4231 21.6347C43.4103 21.6413 43.3968 21.6465 43.3828 21.6501C43.385 21.6327 43.385 21.6152 43.3828 21.5978V20.4407C43.383 20.3599 43.401 20.2801 43.4354 20.207C43.4698 20.134 43.5198 20.0694 43.5819 20.0178L44.6581 19.3965Z" fill="#455A64"/>
<path d="M46.1889 18.7021C46.273 18.6522 46.3418 18.8209 46.3418 19.0906V19.3282C46.3609 19.5338 46.3059 19.7395 46.1865 19.9079L46.0312 20.0089V18.79L46.1889 18.7021Z" fill="#455A64"/>
<path d="M51.6419 3.70764C51.5353 2.92951 50.913 2.64677 50.1663 3.08157L9.09032 26.8413C8.64947 27.118 8.2867 27.5033 8.03664 27.9604L3.33594 25.2399C3.58749 24.7846 3.95154 24.4017 4.39318 24.128L45.462 0.358702C45.9249 0.122898 46.4368 0 46.9561 0C47.4753 0 47.9872 0.122898 48.4501 0.358702L50.1663 1.34473C50.5669 1.60955 50.906 1.95761 51.1606 2.3653C51.4152 2.77299 51.5793 3.23078 51.6419 3.70764Z" fill="#27DEBF"/>
<path opacity="0.2" d="M51.6419 3.70764C51.5353 2.92951 50.913 2.64677 50.1663 3.08157L9.09032 26.8413C8.64947 27.118 8.2867 27.5033 8.03664 27.9604L3.33594 25.2399C3.58749 24.7846 3.95154 24.4017 4.39318 24.128L45.462 0.358702C45.9249 0.122898 46.4368 0 46.9561 0C47.4753 0 47.9872 0.122898 48.4501 0.358702L50.1663 1.34473C50.5669 1.60955 50.906 1.95761 51.1606 2.3653C51.4152 2.77299 51.5793 3.23078 51.6419 3.70764Z" fill="black"/>
<path d="M16.9429 88.8008C16.9429 88.8008 16.8908 94.837 22.0217 97.7368C22.0217 97.7368 19.6299 97.7 17.6197 94.041C16.8119 92.4205 16.5735 90.5741 16.9429 88.8008Z" fill="#27DEBF"/>
<path d="M15.6461 91.2216C14.7541 86.1154 15.9125 80.8629 18.8687 76.6094C18.8687 76.6094 16.247 78.3236 15.0842 83.1291C14.3498 85.8123 14.5479 88.6662 15.6461 91.2216Z" fill="#27DEBF"/>
<path d="M104.866 57.565L106.554 52.5137C102.115 53.2954 100.91 53.9191 99.5963 57.5947L98.7299 60.5278L93.4176 76.9221C92.1565 77.2523 76.4911 81.579 75.9447 81.6467C75.9293 81.6657 75.9186 81.6871 75.9044 81.7073C70.7864 82.034 69.1484 82.2633 69.1484 82.2633C69.7411 83.9773 70.7835 85.4997 72.1661 86.6703C73.5487 87.841 75.2204 88.6167 77.0054 88.916L76.9924 88.8305L77.0054 88.859C84.0583 87.6051 91.0416 85.9861 97.9274 84.0084C99.4066 83.5332 100.042 81.8617 100.654 80.4635C103.201 74.6551 105.207 68.6229 106.645 62.4441C107.184 59.6784 106.344 58.2837 104.866 57.565Z" fill="#B16668"/>
<path d="M106.552 52.5145C105.278 52.3451 103.984 52.5798 102.85 53.1858C101.716 53.7918 100.8 54.7386 100.23 55.8931C98.9407 58.6255 95.0234 70.345 95.0234 70.345C96.1646 71.5596 97.5437 72.525 99.0743 73.1806C100.605 73.8361 102.254 74.1678 103.919 74.1549C103.919 74.1549 109.684 60.8827 109.361 60.4598C109.039 60.0368 106.552 52.5145 106.552 52.5145Z" fill="#77AF44"/>
<path d="M105.759 52.4296C104.692 52.5365 101.966 56.1753 101.915 62.3718C101.839 70.6688 105.892 80.8296 106.917 83.0238C108.424 86.6189 110.591 89.898 113.307 92.6905C114.392 93.711 121.817 96.6108 126.603 91.2174C128.351 89.2012 129.556 86.7703 130.103 84.1557C130.65 81.5412 130.52 78.8299 129.727 76.2796C128.1 72.5018 125.223 68.1074 125.323 63.1357C124.712 59.5717 123.545 54.9481 120.884 53.0141C119.168 52.6462 117.423 52.4343 115.669 52.3809L105.759 52.4296Z" fill="#FEBE16"/>
<path d="M119.766 59.0176L118.406 60.7283C118.822 63.4393 120.855 67.3537 123.241 70.4805C125.101 72.917 128.884 75.432 130.405 79.7408C130.361 78.558 130.128 77.3899 129.714 76.2814C128.086 72.5036 125.21 68.1093 125.309 63.1375C125.208 62.5435 125.091 61.9281 124.954 61.2973L123.677 60.1402L119.766 59.0176Z" fill="#F2AF00"/>
<path d="M120.855 53.0137C123.187 53.5898 124.426 54.823 126.479 57.1562C128.8 59.7947 133.578 65.3331 133.578 65.3331C136.921 71.1388 133.917 77.0443 131.411 76.0702C131.411 76.0702 125.763 70.5436 122.298 66.3512C119.978 63.5452 118.793 61.9426 118.662 58.8812C118.561 56.4624 118.987 54.008 120.855 53.0137Z" fill="#B16668"/>
<path d="M119.63 52.7756C119.63 52.7756 121.645 52.3301 124.259 54.4388C126.874 56.5475 133.267 63.5293 133.267 63.5293C133.267 63.5293 133.458 70.9174 128.763 74.2497C128.763 74.2497 121.835 67.2822 120.124 64.8646C118.936 63.0918 118.261 61.0239 118.174 58.8901C118.087 56.7563 118.59 54.64 119.63 52.7756Z" fill="#77AF44"/>
<path d="M118.411 38.834C118.044 41.2667 117.547 43.6781 116.925 46.0582C116.606 46.6961 116.054 47.1866 115.384 47.4279L115.266 43.1119L118.411 38.834Z" fill="#263238"/>
<path d="M115.125 29.8346C115.568 29.6046 116.066 29.5038 116.564 29.5437C117.061 29.5836 117.537 29.7626 117.938 30.0603C119.061 31.1081 119.155 34.7897 118.293 39.5393L115.421 39.3825L115.125 29.8346Z" fill="#263238"/>
<path d="M106.298 43.5947C110.655 42.7311 113.489 38.4907 112.627 34.1236C111.766 29.7565 107.535 26.9164 103.178 27.78C98.8211 28.6436 95.9876 32.884 96.8492 37.2511C97.7108 41.6182 101.941 44.4583 106.298 43.5947Z" fill="#263238"/>
<path d="M115.362 30.4628L117.851 28.1712C117.709 27.9996 117.534 27.8587 117.336 27.7571C117.139 27.6555 116.922 27.5952 116.701 27.58C116.479 27.5648 116.256 27.5949 116.047 27.6686C115.837 27.7422 115.644 27.8578 115.481 28.0084C115.15 28.3241 114.954 28.755 114.932 29.2118C114.91 29.6687 115.064 30.1166 115.362 30.4628Z" fill="#263238"/>
<path d="M100.477 30.9742C99.9699 31.8521 97.4418 35.523 98.3651 42.4228C99.2339 48.9152 101.318 50.4418 102.427 50.7863C104.192 51.0732 105.999 50.9331 107.699 50.3776L108.054 53.1361C108.054 53.1361 106.917 54.9632 108.446 55.9778C109.953 56.9757 113.355 56.2439 114.135 55.6214C115.971 54.1506 115.692 52.9092 115.692 52.9092L115.281 43.9482C115.752 44.2805 116.323 44.4416 116.898 44.4049C117.473 44.3682 118.019 44.1358 118.444 43.7462C120.124 42.4787 120.199 39.1368 118.782 37.9857C118.455 37.7117 118.063 37.5271 117.644 37.4498C117.225 37.3724 116.793 37.405 116.39 37.5442C115.987 37.6835 115.627 37.9247 115.345 38.2446C115.062 38.5644 114.867 38.952 114.778 39.3697C114.778 39.3697 114.718 32.5067 110.827 30.6784C105.864 28.3452 100.477 30.9742 100.477 30.9742Z" fill="#B16668"/>
<path d="M114.343 40.272C114.561 40.1532 114.935 38.319 116.013 37.6941C117.005 37.1191 115.133 28.903 115.127 28.8745C114.894 28.2089 114.506 27.6089 113.994 27.1246C113.387 26.4781 112.625 25.9969 111.781 25.7263C110.621 25.3731 109.394 25.299 108.2 25.5101C106.346 25.7976 104.563 26.5793 102.688 26.5793C100.916 26.4077 99.1652 26.0607 97.4613 25.5434C97.1286 25.438 96.7686 25.4618 96.4526 25.6099C96.2888 25.7221 96.1609 25.8792 96.084 26.0625C95.8632 26.5916 95.8442 27.1835 96.0307 27.7257C96.2166 28.2611 96.4793 28.7666 96.8105 29.2261C96.5182 29.0463 96.1724 28.9747 95.8329 29.0238C95.4935 29.0728 95.1818 29.2394 94.9521 29.4946C94.8439 29.7407 94.8012 30.0107 94.8282 30.2782C94.8552 30.5458 94.951 30.8018 95.1062 31.0212C95.6629 31.9055 96.4045 32.6582 97.2797 33.2274C98.1549 33.7966 99.1429 34.1686 100.175 34.3178C101.033 34.4611 101.9 34.5405 102.77 34.5554C104.976 34.504 107.142 33.9494 109.103 32.9338C109.661 32.6962 110.748 32.2876 111.355 32.7829C112.11 33.3959 112.075 35.3835 112.303 37.0193C112.663 39.5747 113.512 40.7175 114.343 40.272Z" fill="#263238"/>
<path d="M107.31 45.2012L105.094 46.1955C105.152 46.3452 105.241 46.4816 105.353 46.5963C105.465 46.7111 105.6 46.8019 105.748 46.8634C105.896 46.9248 106.056 46.9556 106.216 46.954C106.376 46.9523 106.535 46.9182 106.682 46.8537C106.98 46.7131 107.211 46.4625 107.328 46.1543C107.446 45.8462 107.439 45.5046 107.31 45.2012Z" fill="#9A4A4D"/>
<path d="M99.3551 39.9002C99.3715 40.0611 99.4347 40.2136 99.5368 40.3387C99.639 40.4639 99.7756 40.5562 99.9297 40.6041C100.084 40.652 100.249 40.6535 100.403 40.6083C100.558 40.5631 100.696 40.4732 100.801 40.3499C100.905 40.2265 100.971 40.0752 100.99 39.9147C101.009 39.7541 100.981 39.5914 100.909 39.4469C100.836 39.3024 100.723 39.1824 100.583 39.1018C100.443 39.0212 100.283 38.9837 100.122 38.9938C100.012 39.0017 99.9044 39.0316 99.8059 39.0817C99.7074 39.1317 99.6199 39.201 99.5485 39.2855C99.477 39.3699 99.4231 39.4677 99.3899 39.5733C99.3567 39.6789 99.3449 39.79 99.3551 39.9002Z" fill="#263238"/>
<path d="M105.754 39.5077C105.77 39.6685 105.833 39.821 105.935 39.9462C106.037 40.0713 106.174 40.1636 106.328 40.2115C106.482 40.2594 106.647 40.2609 106.802 40.2157C106.957 40.1705 107.095 40.0806 107.199 39.9573C107.304 39.834 107.369 39.6826 107.389 39.5221C107.408 39.3615 107.379 39.1989 107.307 39.0543C107.235 38.9098 107.122 38.7898 106.982 38.7092C106.842 38.6287 106.681 38.5911 106.52 38.6012C106.41 38.6091 106.303 38.639 106.204 38.6891C106.106 38.7392 106.018 38.8085 105.947 38.8929C105.875 38.9773 105.822 39.0752 105.788 39.1807C105.755 39.2863 105.743 39.3974 105.754 39.5077Z" fill="#263238"/>
<path d="M103.59 39.6777L103.444 44.6352L100.844 43.8191L103.59 39.6777Z" fill="#9A4A4D"/>
<path d="M107.695 50.3744C109.327 49.999 112.522 48.6221 113.128 47.4258C113.067 48.1547 112.743 48.8363 112.218 49.3444C111.25 50.4991 107.859 51.6598 107.859 51.6598L107.695 50.3744Z" fill="#9A4A4D"/>
<path d="M98.7015 38.1834L100.545 37.3862C100.431 37.1391 100.226 36.9457 99.9729 36.8463C99.72 36.7469 99.4386 36.7493 99.1874 36.8528C99.0665 36.906 98.9575 36.9831 98.8671 37.0796C98.7767 37.176 98.7066 37.2899 98.6612 37.4142C98.6158 37.5385 98.596 37.6707 98.6029 37.8029C98.6098 37.9351 98.6434 38.0645 98.7015 38.1834Z" fill="#263238"/>
<path d="M106.242 36.9888L108.006 37.9499C108.129 37.7075 108.155 37.4267 108.077 37.166C107.999 36.9052 107.824 36.6847 107.587 36.5504C107.471 36.4877 107.343 36.4493 107.211 36.4375C107.08 36.4257 106.947 36.4407 106.821 36.4817C106.696 36.5226 106.58 36.5887 106.48 36.6758C106.38 36.763 106.3 36.8695 106.242 36.9888Z" fill="#263238"/>
<path d="M53.1899 51.6859H39.4647C36.1858 51.686 33.0408 50.382 30.72 48.0603C28.3992 45.7386 27.0922 42.5889 27.086 39.3023V37.1426C27.0797 33.9743 28.3292 30.9332 30.5597 28.6882C32.7902 26.4432 35.819 25.1782 38.9799 25.1712L41.2177 25.1641C44.3792 25.1575 47.4139 26.4098 49.6542 28.6457C51.8945 30.8816 53.1569 33.9179 53.1638 37.0868L53.1899 51.6859Z" fill="#263238"/>
<path d="M41.8359 52.4671C46.7571 52.0941 49.8589 54.3798 49.9655 58.9678C50.0189 61.2808 48.0217 70.4806 48.0217 70.4806L41.8359 52.4671Z" fill="#FFA8A7"/>
<path d="M41.826 52.4648C44.3305 52.7143 47.0945 57.0006 49.4981 62.5164C50.4463 64.6892 52.1697 67.6081 49.9936 71.6722C49.0442 73.2687 47.5967 74.5074 45.8748 75.197C44.8711 78.3474 43.4231 81.3377 41.5748 84.0772C40.4193 87.7648 38.3172 91.0832 35.479 93.6999C34.3637 94.6883 27.5509 100.739 22.0585 96.0759C18.7907 93.3007 17.6505 88.8802 17.9859 84.7247C17.9966 82.2967 18.866 79.9512 20.4394 78.1052C21.429 77.0951 22.3437 76.0139 23.1761 74.8703C24.0461 70.7123 23.0481 67.8814 22.9391 62.9096C23.1381 61.2429 23.6631 59.6318 24.4839 58.1686C25.3047 56.7054 26.4053 55.4187 27.7228 54.3823C29.6947 53.6013 31.7683 53.108 33.8801 52.9175L41.826 52.4648Z" fill="#6646E7"/>
<path opacity="0.1" d="M41.7477 83.8292L41.4122 81.1479C41.4122 81.1479 29.8442 62.9966 29.3701 62.4846C29.0845 62.1781 26.3145 60.3249 24.1455 58.8945C23.5776 60.1747 23.1756 61.5226 22.9496 62.9052C23.0551 67.8769 24.0519 70.7043 23.1867 74.8658C23.1867 74.8658 22.594 75.7081 21.6328 76.8141C23.3455 77.2632 26.1368 75.1022 26.1368 75.1022C26.1368 75.1022 31.7264 83.0036 34.1656 85.8084C36.4555 88.4422 37.8257 88.8306 39.5194 88.7142C40.3889 87.2579 41.0812 85.7024 41.5817 84.0811C41.6398 83.9991 41.6896 83.9112 41.7477 83.8292Z" fill="black"/>
<path opacity="0.05" d="M49.9895 71.6718C50.108 71.4521 50.2111 71.2358 50.3071 71.0232C48.067 72.7458 46.5037 71.534 44.6262 71.1705C42.6824 70.7951 41.2376 73.5762 37.6048 73.2234C32.8247 72.76 31.0859 69.7461 31.0859 69.7461C31.1242 71.3287 31.7318 72.844 32.7969 74.0129C33.8621 75.1818 35.3128 75.9254 36.8818 76.1066C40.8429 76.8729 42.2948 74.7297 43.3912 74.7297C44.2045 74.945 45.0325 75.1006 45.8684 75.1954C47.591 74.5066 49.0393 73.2683 49.9895 71.6718Z" fill="black"/>
<path d="M48.6628 31.623C49.1559 32.4748 51.6093 36.0388 50.7133 42.7367C49.8706 49.039 47.8474 50.0654 46.7712 50.3992C45.058 50.6775 43.3033 50.5415 41.6533 50.0024L41.2277 53.7933C41.2277 53.7933 43.0578 56.4069 42.6963 58.1235C42.3348 59.8402 38.6759 59.6204 36.3789 57.6412C34.9987 56.4259 34.1148 54.7426 33.897 52.9142L34.2964 44.2145C33.8388 44.5372 33.2849 44.6937 32.7265 44.6581C32.1681 44.6224 31.6385 44.3968 31.2254 44.0185C29.5957 42.7878 29.5222 39.5434 30.8983 38.4267C31.2157 38.1611 31.5961 37.9822 32.0028 37.9073C32.4094 37.8324 32.8285 37.8641 33.2193 37.9992C33.6102 38.1344 33.9595 38.3685 34.2336 38.6788C34.5076 38.989 34.6971 39.365 34.7835 39.7703C37.4841 40.3168 40.2858 40.0446 42.8314 38.9886C47.6494 36.7255 48.3582 33.4359 48.6628 31.623Z" fill="#FFA8A7"/>
<path d="M34.8607 42.1803L34.7422 38.2207C35.2769 38.2186 35.7918 38.4235 36.1793 38.7927C36.5669 39.162 36.7973 39.6669 36.8223 40.2023C36.8286 40.4628 36.7822 40.7218 36.686 40.9638C36.5898 41.2059 36.4457 41.4259 36.2625 41.6107C36.0792 41.7955 35.8606 41.9412 35.6197 42.0391C35.3788 42.137 35.1206 42.185 34.8607 42.1803Z" fill="#263238"/>
<path d="M43.5043 45.7656L45.6568 46.7303C45.5998 46.8755 45.5142 47.0077 45.4051 47.119C45.2961 47.2303 45.1657 47.3184 45.0219 47.3781C44.878 47.4377 44.7237 47.4677 44.568 47.4662C44.4124 47.4647 44.2586 47.4318 44.1159 47.3694C43.8269 47.2332 43.6017 46.9901 43.4876 46.6911C43.3736 46.392 43.3796 46.0603 43.5043 45.7656Z" fill="#F28F8F"/>
<path d="M49.7474 40.3623C49.7313 40.5182 49.6698 40.6659 49.5707 40.787C49.4715 40.9082 49.339 40.9975 49.1896 41.0438C49.0402 41.0901 48.8806 41.0914 48.7305 41.0475C48.5804 41.0036 48.4465 40.9165 48.3454 40.7969C48.2443 40.6773 48.1805 40.5306 48.1619 40.375C48.1433 40.2194 48.1708 40.0618 48.2408 39.9217C48.3109 39.7816 48.4205 39.6652 48.556 39.5871C48.6915 39.5089 48.847 39.4723 49.003 39.482C49.1097 39.4904 49.2137 39.5198 49.309 39.5687C49.4043 39.6176 49.489 39.6849 49.5582 39.7667C49.6274 39.8485 49.6797 39.9433 49.7122 40.0455C49.7447 40.1477 49.7566 40.2554 49.7474 40.3623Z" fill="#263238"/>
<path d="M43.9739 40.8174C43.9578 40.9733 43.8964 41.121 43.7972 41.2421C43.6981 41.3633 43.5656 41.4526 43.4162 41.4989C43.2668 41.5452 43.1072 41.5465 42.9571 41.5026C42.807 41.4587 42.6731 41.3716 42.572 41.252C42.4709 41.1324 42.4071 40.9857 42.3885 40.8301C42.3699 40.6745 42.3973 40.5169 42.4674 40.3768C42.5375 40.2367 42.6471 40.1203 42.7826 40.0421C42.9181 39.964 43.0735 39.9274 43.2296 39.9371C43.3363 39.9454 43.4403 39.9749 43.5356 40.0238C43.6308 40.0727 43.7155 40.14 43.7847 40.2218C43.8539 40.3036 43.9063 40.3984 43.9387 40.5006C43.9712 40.6028 43.9832 40.7105 43.9739 40.8174Z" fill="#263238"/>
<path d="M46.2969 40.3105L46.4391 45.1231L48.9637 44.3307L46.2969 40.3105Z" fill="#F28F8F"/>
<path d="M41.665 50.0005C40.0803 49.637 36.9797 48.2993 36.3906 47.1387C36.4508 47.8458 36.7645 48.5071 37.2736 49.0003C38.2135 50.1217 41.5263 51.2313 41.5263 51.2313L41.665 50.0005Z" fill="#F28F8F"/>
<path d="M50.0073 38.2193L48.2188 37.4447C48.3292 37.2048 48.5278 37.0169 48.7733 36.9204C49.0187 36.8239 49.2918 36.8261 49.5356 36.9268C49.6533 36.9781 49.7594 37.0529 49.8474 37.1466C49.9355 37.2403 50.0036 37.3509 50.0477 37.4717C50.0918 37.5926 50.111 37.7212 50.104 37.8497C50.0971 37.9782 50.0642 38.1039 50.0073 38.2193Z" fill="#263238"/>
<path d="M39.2891 87.3016L43.1767 79.8494C44.4662 80.0347 45.7566 80.2164 47.0477 80.3946C49.6173 80.751 59.3221 81.939 59.8733 81.9509C60.9442 81.9357 62.0012 81.7058 62.9822 81.2749C64.2518 80.608 65.5608 80.0193 66.9018 79.512C67.4781 79.398 68.0682 79.3711 68.6524 79.4324C69.3885 79.4858 69.1988 79.8791 69.9254 80.0086C70.1343 80.0267 70.3335 80.1051 70.499 80.2343C70.7787 80.498 70.5761 80.6608 70.4255 80.8746C70.2722 81.1484 70.1731 81.4493 70.134 81.7608C70.0783 82.027 69.8578 82.9393 70.2359 83.0866C72.0719 83.7994 72.2781 84.8555 74.6604 86.9024C75.4616 87.6762 76.304 88.4059 77.1838 89.0884C77.665 89.8166 77.6994 90.2763 75.9986 91.2921C75.0607 91.9545 73.9798 92.3852 72.8442 92.5489C71.7086 92.7126 70.5504 92.6047 69.4643 92.2341C65.8149 91.0877 63.9482 89.0456 63.0071 88.9933C56.3258 88.6191 42.9147 88.0643 39.2891 87.3016Z" fill="#FFA8A7"/>
<path d="M43.1729 79.8517L33.3508 63.7094C33.3508 63.7094 31.7388 54.6937 27.7339 54.3789C27.7339 54.3789 24.0691 55.3293 23.2299 57.5306C22.2213 60.1965 22.271 62.8065 25.2768 68.7263C28.4571 74.2744 32.0988 79.5436 36.1634 84.4778C37.159 85.6337 38.2458 86.9868 39.2805 87.304" fill="#FFA8A7"/>
<path d="M63.1319 89.0053C63.5072 89.0964 63.8579 89.2687 64.1595 89.5102C64.7731 89.4051 65.3466 89.1349 65.8189 88.7285C67.6596 87.3825 73.9829 90.084 72.4254 91.8173C71.9658 92.4182 71.3179 92.8467 70.5859 93.0339C69.8539 93.2212 69.0804 93.1563 68.3897 92.8497C65.7205 92.0383 62.8878 90.8206 63.1319 89.0053Z" fill="#B16668"/>
<path d="M69.2721 79.6554C67.1754 80.0117 65.0052 81.5561 63.8638 82.0135C62.7224 82.4709 61.5573 82.7548 62.6027 83.7563C63.6481 84.7578 66.1905 83.7622 67.9446 83.1314C69.0704 82.8453 70.2592 82.9439 71.3226 83.4118C71.8168 83.6173 71.5525 82.2772 71.5525 82.2772C71.1389 81.6963 76.098 82.2832 75.9297 81.7034C73.3221 81.8151 70.9599 79.2681 69.2721 79.6554Z" fill="#B16668"/>
</svg>
