<svg width="95" height="140" viewBox="0 0 95 140" fill="none" xmlns="http://www.w3.org/2000/svg">
<path d="M0.265625 5.3125H94.1297V137.728H0.265625V5.3125Z" fill="url(#paint0_linear_686_12274)"/>
<ellipse cx="47.1977" cy="5.31164" rx="46.932" ry="5.02843" fill="url(#paint1_linear_686_12274)"/>
<ellipse cx="47.1977" cy="5.31164" rx="46.932" ry="5.02843" fill="#7351FE"/>
<rect x="43.8457" y="10.3398" width="1.67614" height="129.063" fill="url(#paint2_linear_686_12274)"/>
<path d="M32.1133 10.0977H33.7894V139.401H32.1133V10.0977Z" fill="url(#paint3_linear_686_12274)"/>
<path d="M20.3789 9.37109L22.0551 9.50204V139.404H20.3789V9.37109Z" fill="url(#paint4_linear_686_12274)"/>
<path d="M8.64648 8.17969L10.3226 8.4154V137.727H8.64648V8.17969Z" fill="url(#paint5_linear_686_12274)"/>
<path d="M55.5781 10.247L57.2543 10.2012V139.402H55.5781V10.247Z" fill="url(#paint6_linear_686_12274)"/>
<path d="M67.3125 9.77539H68.9886V139.406H67.3125V9.77539Z" fill="url(#paint7_linear_686_12274)"/>
<path d="M79.0449 8.94888L80.7211 8.66406V139.403H79.0449V8.94888Z" fill="url(#paint8_linear_686_12274)"/>
<path d="M90.7773 6.98937L92.4535 6.68164V139.404H90.7773L90.7773 6.98937Z" fill="url(#paint9_linear_686_12274)"/>
<defs>
<linearGradient id="paint0_linear_686_12274" x1="47.1976" y1="-13.1251" x2="59.7687" y2="168.737" gradientUnits="userSpaceOnUse">
<stop stop-color="#6646E7"/>
<stop offset="1" stop-color="#1A0082"/>
</linearGradient>
<linearGradient id="paint1_linear_686_12274" x1="0.265625" y1="5.31164" x2="94.1297" y2="5.31164" gradientUnits="userSpaceOnUse">
<stop stop-color="#F7971E"/>
<stop offset="1" stop-color="#FFD200"/>
</linearGradient>
<linearGradient id="paint2_linear_686_12274" x1="44.6838" y1="10.3398" x2="44.6838" y2="139.403" gradientUnits="userSpaceOnUse">
<stop stop-color="#200396"/>
<stop offset="1" stop-color="white" stop-opacity="0.04"/>
</linearGradient>
<linearGradient id="paint3_linear_686_12274" x1="32.9514" y1="10.3399" x2="32.9514" y2="139.403" gradientUnits="userSpaceOnUse">
<stop stop-color="#220596"/>
<stop offset="1" stop-color="white" stop-opacity="0.04"/>
</linearGradient>
<linearGradient id="paint4_linear_686_12274" x1="21.217" y1="10.3401" x2="21.217" y2="139.403" gradientUnits="userSpaceOnUse">
<stop stop-color="#220598"/>
<stop offset="1" stop-color="white" stop-opacity="0.04"/>
</linearGradient>
<linearGradient id="paint5_linear_686_12274" x1="9.48456" y1="8.6642" x2="-33.8669" y2="245.611" gradientUnits="userSpaceOnUse">
<stop stop-color="#1D0484"/>
<stop offset="1" stop-color="white" stop-opacity="0.04"/>
</linearGradient>
<linearGradient id="paint6_linear_686_12274" x1="56.4162" y1="10.3387" x2="56.4162" y2="139.402" gradientUnits="userSpaceOnUse">
<stop stop-color="#200494"/>
<stop offset="1" stop-color="white" stop-opacity="0.04"/>
</linearGradient>
<linearGradient id="paint7_linear_686_12274" x1="68.1506" y1="10.3417" x2="68.1506" y2="139.405" gradientUnits="userSpaceOnUse">
<stop stop-color="#17016B"/>
<stop offset="1" stop-color="white" stop-opacity="0.04"/>
</linearGradient>
<linearGradient id="paint8_linear_686_12274" x1="79.883" y1="10.3402" x2="79.883" y2="139.403" gradientUnits="userSpaceOnUse">
<stop stop-color="#1E0586"/>
<stop offset="1" stop-color="white" stop-opacity="0.04"/>
</linearGradient>
<linearGradient id="paint9_linear_686_12274" x1="91.6154" y1="10.3417" x2="91.6154" y2="139.405" gradientUnits="userSpaceOnUse">
<stop stop-color="#1F009C"/>
<stop offset="1" stop-color="white" stop-opacity="0.04"/>
</linearGradient>
</defs>
</svg>
