<svg width="188" height="273" viewBox="0 0 188 273" fill="none" xmlns="http://www.w3.org/2000/svg">
<g clip-path="url(#clip0_588_21116)">
<path d="M165.994 19.1328H23.5801V110.996H165.994V19.1328Z" fill="white"/>
<path d="M165.994 110.998C165.994 110.071 165.95 75.2392 165.879 19.1345L165.994 19.2511C127.12 19.2566 77.4857 19.2677 23.5912 19.2788H23.5802L23.723 19.1345C23.7175 51.724 23.7175 82.765 23.712 110.998L23.5802 110.864C107.247 110.942 164.808 110.992 165.994 110.998C164.814 110.998 107.247 111.053 23.5802 111.131H23.4485V110.998C23.443 82.7705 23.443 51.724 23.4375 19.1345V18.9902H23.5802H23.5912C77.4857 19.0013 127.12 19.0124 165.994 19.018H166.109V19.1345C166.038 75.2392 165.994 110.071 165.994 110.998Z" fill="#263238"/>
<path d="M23.5804 21.748L23.498 26.46L165.835 26.7153L165.994 21.748H23.5804Z" fill="#6646E7"/>
<path d="M156.73 40.8789L156.203 70.7211L178.981 71.3927L179.645 41.2064L156.73 40.8789Z" fill="#263238"/>
<path d="M156.827 43.6983L173.462 43.7926L173.324 42.3053L179.599 42.5439L179.643 41.2064L156.729 40.8789L156.827 43.6983Z" fill="#455A64"/>
<path d="M157.706 42.2773L157.684 43.0821L161.85 43.0876L161.68 42.2995L157.706 42.2773Z" fill="#6646E7"/>
<path d="M162.873 42.2891L162.846 43.0938L167.018 43.0993L166.842 42.3168L162.873 42.2891Z" fill="#6646E7"/>
<path d="M168.145 42.3945L168.117 43.1993L172.284 43.2048L172.114 42.4167L168.145 42.3945Z" fill="#6646E7"/>
<path d="M158.092 45.0859L157.922 60.143L172.064 60.6536L171.575 45.5244L158.092 45.0859Z" fill="#455A64"/>
<path d="M171.531 46.456C171.548 46.4727 171.355 46.7002 171.042 47.1498C170.724 47.5993 170.296 48.2653 169.758 49.1145C169.489 49.5362 169.192 50.0024 168.852 50.4964C168.501 50.9737 168.21 51.5287 167.935 52.1447C167.655 52.7608 167.392 53.4268 167.073 54.115C166.749 54.7921 166.382 55.5191 165.767 56.113L165.602 56.2739L165.503 56.063C165.031 55.064 164.586 53.9707 164.24 52.8052C163.966 51.8728 163.774 50.9348 163.708 50.0135L163.993 50.119C162.835 51.3067 162.165 52.783 161.523 54.0539C161.205 54.6977 160.908 55.3082 160.595 55.8632C160.277 56.4071 159.986 56.9122 159.711 57.3728C159.19 58.2497 158.756 58.9712 158.427 59.5262C158.119 60.0257 157.944 60.2921 157.927 60.281C157.911 60.2699 158.048 59.9813 158.322 59.4652C158.63 58.8991 159.031 58.1609 159.514 57.2674C159.772 56.7956 160.057 56.285 160.359 55.7356C160.656 55.1806 160.941 54.5701 161.248 53.9207C161.874 52.6387 162.533 51.1346 163.746 49.8748L164.004 49.6084L164.032 49.9858C164.103 50.8738 164.29 51.7895 164.559 52.7053C164.894 53.8486 165.327 54.9253 165.789 55.9187L165.525 55.8688C166.08 55.3415 166.447 54.6478 166.771 53.9818C167.079 53.2991 167.375 52.6498 167.655 52.0282C167.941 51.4121 168.259 50.8294 168.627 50.3521C168.978 49.8748 169.28 49.4142 169.566 49.0035C170.126 48.171 170.587 47.5161 170.938 47.0887C171.295 46.6447 171.515 46.4394 171.531 46.456Z" fill="#6646E7"/>
<path d="M174.487 46.4037L172.67 46.3887L172.655 48.2257L174.472 48.2408L174.487 46.4037Z" fill="#455A64"/>
<path d="M174.967 46.7168L175.044 47.5438L178.535 47.5327L178.48 46.961L174.967 46.7168Z" fill="#6646E7"/>
<path d="M174.741 49.1401L172.924 49.125L172.909 50.962L174.726 50.9771L174.741 49.1401Z" fill="#455A64"/>
<path d="M175.219 49.4531L175.296 50.2801L178.787 50.269L178.732 49.6973L175.219 49.4531Z" fill="#6646E7"/>
<path d="M174.651 52.2924L172.834 52.2773L172.819 54.1144L174.636 54.1295L174.651 52.2924Z" fill="#455A64"/>
<path d="M175.131 52.6055L175.208 53.4324L178.699 53.4213L178.644 52.8497L175.131 52.6055Z" fill="#6646E7"/>
<path d="M158.293 61.7207L175.284 62.0482L175.224 63.5855L158.205 62.9528L158.293 61.7207Z" fill="#455A64"/>
<path d="M175.285 62.0469L177.305 62.0635L177.25 63.6009L175.225 63.5842L175.285 62.0469Z" fill="#6646E7"/>
<path d="M158.553 64.5488L177.383 64.8541L177.372 66.6079L158.465 65.7809L158.553 64.5488Z" fill="#455A64"/>
<path d="M167.556 64.6777L169.577 64.6888L169.516 66.2262L167.496 66.2151L167.556 64.6777Z" fill="#6646E7"/>
<path d="M158.803 67.2871L175.799 67.6146L175.739 69.1519L158.715 68.5192L158.803 67.2871Z" fill="#455A64"/>
<path d="M175.803 67.6133L177.823 67.6299L177.762 69.1673L175.742 69.1506L175.803 67.6133Z" fill="#6646E7"/>
<path d="M14.6211 20.2377L17.8711 20.0879L18.1621 66.4967L15.1481 66.0583L14.6211 20.2377Z" fill="#263238"/>
<path d="M15.2266 21.9471L15.5505 24.1616L16.7198 24.0506L16.8955 21.6641L15.2266 21.9471Z" fill="#6646E7"/>
<path d="M15.6523 44.8573L15.9763 47.0662L17.1456 46.9607L17.3213 44.5742L15.6523 44.8573Z" fill="#6646E7"/>
<path d="M15.3457 25.5713L17.1903 25.4492L17.4044 27.8468H15.4116L15.3457 25.5713Z" fill="#6646E7"/>
<path d="M15.4922 33.1489L17.1007 33.0879L17.2709 35.7075L15.5471 35.6298L15.4922 33.1489Z" fill="#6646E7"/>
<path d="M15.6094 36.8931L17.2124 36.832L17.3881 39.4516L15.6588 39.3739L15.6094 36.8931Z" fill="#6646E7"/>
<path d="M15.7402 40.7778L17.3433 40.7168L17.519 43.3364L15.7896 43.2587L15.7402 40.7778Z" fill="#6646E7"/>
<path d="M15.8457 49.2153L17.4488 49.1543L17.6244 51.7683L15.8951 51.6962L15.8457 49.2153Z" fill="#6646E7"/>
<path d="M15.4492 29.2734L17.3268 29.4621L17.4091 31.9152L15.6414 31.8986L15.4492 29.2734Z" fill="#6646E7"/>
<path d="M165.994 19.1328H23.5801V21.7468H165.994V19.1328Z" fill="#263238"/>
<path d="M26.2376 20.3266C26.2595 20.6096 26.0509 20.8594 25.7654 20.8816C25.4854 20.9038 25.2384 20.6929 25.2164 20.4043C25.1945 20.1212 25.4031 19.8715 25.6886 19.8493C25.9686 19.8271 26.2156 20.038 26.2376 20.3266Z" fill="#6646E7"/>
<path d="M28.2961 20.3598C28.3181 20.6428 28.1095 20.8926 27.824 20.9148C27.544 20.937 27.297 20.7261 27.275 20.4375C27.2531 20.1544 27.4617 19.9047 27.7472 19.8825C28.0271 19.8603 28.2742 20.0712 28.2961 20.3598Z" fill="#6646E7"/>
<path d="M30.3547 20.3767C30.3767 20.6597 30.1681 20.9095 29.8826 20.9317C29.6026 20.9539 29.3556 20.743 29.3336 20.4544C29.3117 20.1658 29.5203 19.9216 29.8057 19.8994C30.0857 19.8827 30.3328 20.0936 30.3547 20.3767Z" fill="#6646E7"/>
<path d="M32.7754 19.9941L32.8522 20.9765L39.7091 20.9931L39.528 20.0163L32.7754 19.9941Z" fill="#455A64"/>
<path d="M41.1328 20.134L41.2591 21.1164L46.0683 21.0165L45.8596 20.0508L41.1328 20.134Z" fill="#455A64"/>
<path d="M48.4512 20.2656L48.5555 21.248L53.3592 21.2757L53.1835 20.3045L48.4512 20.2656Z" fill="#455A64"/>
<path d="M45.1758 38.0098L48.3984 116.337L143.983 116.914L142.962 40.2187L45.1758 38.0098Z" fill="white"/>
<path d="M45.1758 38.0098C45.1758 38.0098 45.324 38.0098 45.6314 38.0153C45.9389 38.0209 46.3891 38.0264 46.9875 38.0375C48.1897 38.0597 49.963 38.0986 52.2742 38.143C56.9077 38.2373 63.6878 38.3816 72.274 38.5592C89.4794 38.9311 113.942 39.4639 142.979 40.091H143.105V40.2187C143.412 63.0568 143.764 89.1028 144.137 116.625C144.137 116.719 144.137 116.819 144.142 116.914V117.064H143.994C108.623 116.842 75.7436 116.636 48.4093 116.464H48.2941L48.2886 116.348C47.3388 92.7103 46.5538 73.1189 46.0048 59.4271C45.7358 52.5951 45.5271 47.2394 45.3844 43.5875C45.313 41.7671 45.2636 40.3741 45.2252 39.4306C45.1868 38.4871 45.1758 38.0098 45.1758 38.0098C45.1758 38.0098 45.2032 38.5037 45.2472 39.4528C45.2911 40.4018 45.3515 41.8004 45.4338 43.6319C45.593 47.2893 45.8236 52.6561 46.12 59.4993C46.6965 73.1688 47.5255 92.7325 48.5246 116.337L48.4039 116.22C75.7381 116.375 108.623 116.57 143.989 116.769L143.846 116.914C143.846 116.819 143.846 116.725 143.84 116.625C143.478 89.1028 143.138 63.0568 142.836 40.2187L142.962 40.3463C113.964 39.6637 89.5343 39.092 72.3508 38.6869C63.7482 38.476 56.9626 38.315 52.3236 38.1985C50.0014 38.1374 48.2227 38.093 47.0149 38.0653C46.4165 38.0486 45.9553 38.0375 45.6479 38.0264C45.335 38.0209 45.1758 38.0098 45.1758 38.0098Z" fill="#455A64"/>
<path d="M45.1152 37.2207L45.1921 40.2399L142.962 40.2177V37.6148L45.1152 37.2207Z" fill="#263238"/>
<path d="M128.475 47.4434L129.128 52.2552L138.664 52.2885L138.214 47.8596L128.475 47.4434Z" fill="#E0E0E0"/>
<path d="M128.497 48.5978L138.23 49.0196L138.214 47.8596L128.475 47.4434L128.497 48.5978Z" fill="#455A64"/>
<path d="M132.121 49.3975L130.645 49.4219L130.669 50.9147L132.145 50.8903L132.121 49.3975Z" fill="#6646E7"/>
<path d="M131.887 49.6417L130.41 49.666L130.434 51.1588L131.911 51.1345L131.887 49.6417Z" fill="#263238"/>
<path d="M131.42 50.0518L129.943 50.0762L129.967 51.569L131.444 51.5446L131.42 50.0518Z" fill="#6646E7"/>
<path d="M133.585 50.0742L133.52 50.8346L137.752 50.7236L137.703 50.2463L133.585 50.0742Z" fill="#263238"/>
<path d="M128.568 53.0332L129.216 57.845L138.758 57.8783L138.302 53.455L128.568 53.0332Z" fill="#E0E0E0"/>
<path d="M128.585 54.1931L138.318 54.6094L138.302 53.455L128.568 53.0332L128.585 54.1931Z" fill="#455A64"/>
<path d="M132.211 54.9932L130.734 55.0176L130.758 56.5104L132.235 56.486L132.211 54.9932Z" fill="#6646E7"/>
<path d="M131.977 55.2374L130.5 55.2617L130.524 56.7545L132.001 56.7302L131.977 55.2374Z" fill="#263238"/>
<path d="M131.51 55.6358L130.033 55.6602L130.057 57.1529L131.534 57.1286L131.51 55.6358Z" fill="#6646E7"/>
<path d="M133.681 55.6641L133.615 56.4244L137.842 56.319L137.799 55.8361L133.681 55.6641Z" fill="#263238"/>
<path d="M57.3448 61.6308L55.0391 61.6406L55.0488 63.9716L57.3546 63.9617L57.3448 61.6308Z" fill="#455A64"/>
<path d="M136.189 62.2518L133.883 62.2617L133.893 64.5927L136.198 64.5828L136.189 62.2518Z" fill="#455A64"/>
<path d="M135.915 97.2674L133.609 97.2773L133.619 99.6083L135.925 99.5984L135.915 97.2674Z" fill="#455A64"/>
<path d="M58.7706 94.6659L56.4648 94.6758L56.4747 97.0068L58.7804 96.9969L58.7706 94.6659Z" fill="#455A64"/>
<path d="M97.1411 64.1646L97.1348 62.6328L95.6195 62.6394L95.6259 64.1712L97.1411 64.1646Z" fill="#455A64"/>
<path d="M57.27 80.9536L57.2637 79.4219L55.7485 79.4284L55.7548 80.9602L57.27 80.9536Z" fill="#455A64"/>
<path d="M135.725 79.6295L135.719 78.0977L134.204 78.1042L134.21 79.636L135.725 79.6295Z" fill="#455A64"/>
<path d="M96.2817 97.9127L96.2754 96.3809L94.7602 96.3874L94.7665 97.9192L96.2817 97.9127Z" fill="#455A64"/>
<path d="M135.035 63.4237C135.03 63.4292 134.893 63.4348 134.629 63.4403C134.36 63.4403 133.976 63.4459 133.476 63.4459C132.461 63.4403 130.978 63.4403 129.057 63.4348C125.209 63.407 119.62 63.3737 112.587 63.3238C98.5715 63.1906 78.8407 63.0019 55.9368 62.7854L56.2717 62.4413C56.6285 72.8198 57.0183 84.0862 57.4191 95.7634C57.4246 95.8799 57.4246 95.9965 57.4301 96.1075L57.0952 95.7745C87.2183 96.5792 114.542 97.3118 134.519 97.8446L134.267 98.0888C134.481 87.4162 134.657 78.7805 134.777 72.8031C134.849 69.8006 134.904 67.4696 134.942 65.8768C134.964 65.0831 134.986 64.4782 134.997 64.0619C135.008 63.8621 135.014 63.7067 135.019 63.5902C135.025 63.4847 135.03 63.4292 135.035 63.4237C135.046 63.4126 135.052 63.6124 135.052 64.012C135.052 64.4227 135.052 65.011 135.052 65.7824C135.041 67.3642 135.03 69.673 135.008 72.6533C134.948 78.6695 134.865 87.3607 134.761 98.0999V98.3496L134.508 98.3441C114.525 97.8612 87.2074 97.2008 57.0787 96.4738L56.7548 96.4682L56.7438 96.1408C56.7383 96.0298 56.7383 95.9132 56.7328 95.7967C56.3431 84.1195 55.9643 72.8531 55.6184 62.4746L55.6074 62.125L55.9533 62.1306C78.945 62.4746 98.7527 62.7743 112.823 62.9852C119.817 63.1129 125.384 63.2072 129.216 63.2794C131.11 63.3182 132.571 63.3515 133.57 63.3737C134.053 63.3904 134.421 63.4015 134.684 63.407C134.92 63.407 135.041 63.4181 135.035 63.4237Z" fill="#455A64"/>
<path d="M135.949 100.906L137.25 106.817L138.217 104.802L140.544 104.43L135.949 100.906Z" fill="#263238"/>
<path d="M117.444 104.393H114.342V107.528H117.444V104.393Z" fill="#6646E7"/>
<path d="M121.864 104.393H118.762V107.528H121.864V104.393Z" fill="#E0E0E0"/>
<path d="M126.289 104.393H123.188V107.528H126.289V104.393Z" fill="#455A64"/>
<path d="M130.709 104.393H127.607V107.528H130.709V104.393Z" fill="#263238"/>
<path d="M132.477 95.3676L61.1576 93.2641L59.9883 64.7539L132.477 65.7363V95.3676Z" fill="#6646E7"/>
<path d="M78.0765 84.4337L63.0781 84.1229L62.584 71.7188L78.0765 71.9352V84.4337Z" fill="#E0E0E0"/>
<path d="M151.551 102.639L153.544 126.487L172.956 126.814L171.479 103.976L151.551 102.639Z" fill="#455A64"/>
<path d="M151.412 101.619L151.67 104.039L171.527 104.766L171.417 102.407L151.412 101.619Z" fill="#263238"/>
<path d="M156.479 108.434L157.467 121.576L168.705 122.164L168.101 108.517L156.479 108.434Z" fill="#263238"/>
<path d="M167.432 119.124C167.432 119.191 166.521 119.247 165.028 119.285C163.534 119.324 161.459 119.346 159.131 119.341H158.901L158.879 119.108C158.857 118.852 158.829 118.586 158.807 118.309C158.577 115.778 158.396 113.491 158.291 111.826C158.187 110.167 158.154 109.134 158.226 109.129C158.297 109.123 158.451 110.139 158.648 111.793C158.846 113.447 159.082 115.733 159.313 118.259C159.335 118.531 159.362 118.803 159.384 119.058L159.137 118.825C161.465 118.841 163.54 118.88 165.033 118.936C166.521 118.991 167.432 119.058 167.432 119.124Z" fill="#E0E0E0"/>
<path d="M158.551 119.828C158.661 119.917 158.617 120.156 158.453 120.372C158.288 120.583 158.063 120.688 157.953 120.6C157.843 120.511 157.887 120.272 158.052 120.056C158.222 119.845 158.442 119.745 158.551 119.828Z" fill="#6646E7"/>
<path d="M161.337 116.233C161.447 116.322 161.227 116.794 160.843 117.288C160.459 117.787 160.058 118.114 159.948 118.031C159.838 117.942 160.058 117.471 160.442 116.977C160.827 116.477 161.227 116.144 161.337 116.233Z" fill="#6646E7"/>
<path d="M164.116 112.632C164.226 112.721 164.007 113.192 163.622 113.686C163.238 114.186 162.837 114.513 162.727 114.43C162.618 114.341 162.837 113.87 163.222 113.376C163.606 112.882 164.007 112.549 164.116 112.632Z" fill="#6646E7"/>
<path d="M166.104 110.061C166.214 110.15 166.17 110.388 166.005 110.605C165.841 110.816 165.616 110.921 165.506 110.832C165.396 110.744 165.44 110.505 165.605 110.288C165.775 110.078 165.994 109.972 166.104 110.061Z" fill="#6646E7"/>
<path d="M152.924 105.215L153.05 106.264L157.431 106.33L157.601 105.243L152.924 105.215Z" fill="#6646E7"/>
<path d="M150.197 30.2461L150.851 35.0579L160.387 35.0912L159.931 30.6623L150.197 30.2461Z" fill="#E0E0E0"/>
<path d="M150.219 31.406L159.953 31.8223L159.931 30.6623L150.197 30.2461L150.219 31.406Z" fill="#455A64"/>
<path d="M153.836 32.2061L152.359 32.2305L152.383 33.7233L153.86 33.6989L153.836 32.2061Z" fill="#6646E7"/>
<path d="M153.607 32.4503L152.131 32.4746L152.155 33.9674L153.632 33.9431L153.607 32.4503Z" fill="#263238"/>
<path d="M153.135 32.8546L151.658 32.8789L151.682 34.3717L153.159 34.3474L153.135 32.8546Z" fill="#6646E7"/>
<path d="M155.308 32.877L155.242 33.6373L159.469 33.5263L159.425 33.049L155.308 32.877Z" fill="#263238"/>
<path d="M17.182 203.018V198.649C17.182 198.649 17.0074 193.052 24.4467 192.523C31.8861 192.002 57.9064 192.479 57.9064 192.479C57.9064 192.479 65.6252 192.276 65.6252 197.245C65.6252 200.22 65.6252 203.195 65.6252 203.195L17.182 203.018Z" fill="#E8505B"/>
<path opacity="0.2" d="M17.182 203.018V198.649C17.182 198.649 17.0074 193.052 24.4467 192.523C31.8861 192.002 57.9064 192.479 57.9064 192.479C57.9064 192.479 65.6252 192.276 65.6252 197.245C65.6252 200.22 65.6252 203.195 65.6252 203.195L17.182 203.018Z" fill="black"/>
<path d="M17.1816 203.02C17.1816 203.02 39.7792 204.423 40.9579 208.951H45.1491C45.1491 208.951 47.9171 204.255 65.6249 203.196L17.1816 203.02Z" fill="#263238"/>
<path d="M24.9102 322H60.2384L46.7742 313.032L46.5909 261.066H53.1658V259.68H46.5821L46.5297 245.019L45.3073 241.541L45.1327 203.195H41.0201C40.8804 203.972 41.0201 241.435 41.0201 241.435L39.7889 244.754V259.68H29.0839V261.066H39.7889V313.032L24.9102 322Z" fill="#263238"/>
<path d="M37.6338 125.374C34.3943 128.075 29.9936 129.284 25.846 128.622C21.6985 127.96 17.8827 125.427 15.63 121.852C14.2766 119.707 13.4733 117.129 13.8313 114.614C14.1892 112.098 15.8745 109.706 18.2757 108.938C19.2362 108.629 20.249 108.585 21.2182 108.32C22.1874 108.055 23.1654 107.49 23.5321 106.546C23.9949 105.354 23.3488 104.003 23.5671 102.75C23.9338 100.693 26.3001 99.7751 27.5574 98.1244C29.2339 95.9265 28.7187 92.8193 28.125 90.1094L29.9499 88.5293L37.6338 125.374Z" fill="#263238"/>
<path d="M63.8981 129.303C63.8981 129.303 79.2222 150.567 80.0779 151.115C82.7061 152.801 109.442 163.243 109.442 163.243L107.967 172.565C107.967 172.565 73.8697 162.775 71.8876 161.328C69.8968 159.88 55.9785 138.624 55.9785 138.624L63.8981 129.303Z" fill="#FFBE9D"/>
<path d="M12.9142 140.785L14.2152 123.475C16.3719 111.302 31.7833 112.344 31.7833 112.344L45.0292 112.123C45.0292 112.123 54.2411 112.414 59.4976 119.962C63.7848 126.105 68.4213 132.602 68.4213 132.602L58.5109 142.745L55.0619 136.636C55.0619 136.636 56.9567 138.79 56.6336 142.471C56.2319 147.114 52.8528 148.006 52.8528 148.006L54.3546 179.377L12.4863 178.989L19.4193 162.844L18.0571 140.22L12.9142 140.785Z" fill="#6646E8"/>
<g opacity="0.7">
<path d="M29.0764 140.945C29.4518 140.883 29.836 141.395 30.0368 142.057C30.2289 142.719 30.1766 143.354 29.836 143.513C29.4955 143.672 28.9541 143.213 28.7271 142.445C28.5088 141.686 28.7096 141.006 29.0764 140.945Z" fill="#FEBE16"/>
<path d="M30.3525 124.181C30.728 124.234 30.9288 125.453 30.8066 126.909C30.6844 128.365 30.2827 129.539 29.9072 129.522C29.5318 129.513 29.3222 128.286 29.4532 126.794C29.5754 125.302 29.9858 124.128 30.3525 124.181Z" fill="#FEBE16"/>
<path d="M27.9236 136.099C27.5482 136.081 27.2688 135.622 27.4958 135.137C27.7228 134.651 28.2554 134.589 28.5087 134.872C28.7619 135.154 28.823 135.516 28.727 135.737C28.6222 135.949 28.2991 136.116 27.9236 136.099Z" fill="#FEBE16"/>
<path d="M38.6756 125.584C39.0423 125.654 39.217 126.378 39.0598 127.19C38.9026 128.011 38.4748 128.611 38.1081 128.541C37.7413 128.47 37.5667 127.746 37.7239 126.934C37.881 126.113 38.3089 125.513 38.6756 125.584Z" fill="#FEBE16"/>
<path d="M50.3643 126.873C50.4342 127.244 49.8055 127.668 48.9585 127.606C48.1115 127.544 47.5527 127.032 47.675 126.679C47.7972 126.317 48.3997 126.185 49.0546 126.229C49.7182 126.282 50.3032 126.494 50.3643 126.873Z" fill="#FEBE16"/>
<path d="M52.4176 125.073C52.1906 125.373 51.3611 125.126 50.5753 124.517C49.7894 123.907 49.3354 123.166 49.5624 122.866C49.7894 122.566 50.6189 122.813 51.4048 123.422C52.1906 124.031 52.6447 124.772 52.4176 125.073Z" fill="#FEBE16"/>
<path d="M54.3649 123.696C53.9894 123.705 53.6838 122.76 53.9807 121.657C54.2688 120.544 55.0023 119.882 55.3167 120.077C55.6485 120.271 55.5349 121.092 55.2992 122.01C55.0547 122.919 54.7491 123.687 54.3649 123.696Z" fill="#FEBE16"/>
<path d="M58.6432 122.769C58.9226 123.025 58.6519 123.785 58.032 124.455C57.4208 125.126 56.696 125.471 56.4166 125.206C56.1372 124.95 56.4079 124.191 57.0278 123.52C57.6391 122.849 58.3638 122.514 58.6432 122.769Z" fill="#FEBE16"/>
<path d="M56.6345 128.331C56.5647 128.702 55.7439 128.87 54.8009 128.702C53.8579 128.525 53.1419 128.084 53.2117 127.713C53.2816 127.342 54.1024 127.175 55.0454 127.342C55.9884 127.51 56.7044 127.96 56.6345 128.331Z" fill="#FEBE16"/>
<path d="M45.8245 127.447C45.746 127.818 45.0212 127.977 44.2092 127.792C43.3971 127.606 42.8034 127.165 42.882 126.785C42.9606 126.414 43.6853 126.256 44.4973 126.441C45.3094 126.626 45.9031 127.077 45.8245 127.447Z" fill="#FEBE16"/>
<path d="M47.3714 123.916C47.1793 124.243 46.4808 124.19 45.7997 123.793C45.1187 123.395 44.7258 122.804 44.9179 122.477C45.1099 122.151 45.8085 122.204 46.4895 122.601C47.1706 122.998 47.5635 123.59 47.3714 123.916Z" fill="#FEBE16"/>
<path d="M52.3202 121.224C51.9971 121.4 51.3684 120.879 51.1676 119.979C50.9581 119.079 51.2986 118.328 51.6653 118.346C52.0495 118.364 52.3289 118.964 52.4948 119.67C52.652 120.376 52.652 121.047 52.3202 121.224Z" fill="#FEBE16"/>
<path d="M58.2329 119.405C58.5647 119.581 58.652 120.084 58.4162 120.534C58.1805 120.985 57.7264 121.205 57.3946 121.029C57.0628 120.852 56.9755 120.349 57.2112 119.899C57.4383 119.449 57.8923 119.228 58.2329 119.405Z" fill="#FEBE16"/>
<path d="M61.6643 124.665C61.7604 125.036 61.4373 125.442 60.9483 125.574C60.4506 125.707 59.9704 125.521 59.8743 125.151C59.7783 124.78 60.1013 124.374 60.5903 124.242C61.088 124.1 61.5683 124.294 61.6643 124.665Z" fill="#FEBE16"/>
<path d="M45.6384 117.79C45.8392 117.472 46.7822 117.737 47.5418 118.593C48.3015 119.449 48.4674 120.42 48.1356 120.588C47.7951 120.765 47.1664 120.217 46.529 119.511C45.9003 118.796 45.4288 118.108 45.6384 117.79Z" fill="#FEBE16"/>
<path d="M54.2143 115.963C54.5897 115.963 54.8953 116.44 54.8953 117.031C54.8953 117.622 54.5897 118.099 54.2143 118.099C53.8388 118.099 53.5332 117.622 53.5332 117.031C53.5332 116.448 53.8388 115.963 54.2143 115.963Z" fill="#FEBE16"/>
<path d="M39.6434 123.184C39.7657 122.822 40.6301 122.796 41.5644 123.113C42.5074 123.44 43.171 123.987 43.0488 124.349C42.9265 124.711 42.0708 124.738 41.1278 124.42C40.1848 124.093 39.5212 123.537 39.6434 123.184Z" fill="#FEBE16"/>
<path d="M43.5279 120.086C43.2659 120.36 42.7158 120.245 42.3142 119.839C41.9125 119.433 41.799 118.886 42.0609 118.612C42.3229 118.338 42.873 118.453 43.2746 118.859C43.6763 119.265 43.7898 119.821 43.5279 120.086Z" fill="#FEBE16"/>
<path d="M49.6308 114.489C50.0062 114.463 50.3555 115.01 50.4079 115.716C50.4603 116.422 50.1983 117.014 49.8228 117.04C49.4474 117.067 49.0981 116.519 49.0457 115.813C48.9933 115.107 49.2553 114.516 49.6308 114.489Z" fill="#FEBE16"/>
<path d="M33.4674 122.769C33.8166 122.91 33.8428 123.705 33.511 124.561C33.1879 125.417 32.6379 125.991 32.2799 125.859C31.9306 125.717 31.9044 124.923 32.2362 124.067C32.568 123.211 33.1094 122.628 33.4674 122.769Z" fill="#FEBE16"/>
<path d="M35.9482 122.503C36.3149 122.433 36.7515 123.068 36.9087 123.925C37.0658 124.781 36.8999 125.531 36.5332 125.602C36.1665 125.672 35.7299 125.037 35.5727 124.181C35.4068 123.324 35.5815 122.574 35.9482 122.503Z" fill="#FEBE16"/>
<path d="M41.2218 121.233C41.2044 121.612 40.4796 121.886 39.6152 121.833C38.7508 121.789 38.061 121.436 38.0784 121.056C38.0959 120.676 38.8206 120.403 39.6851 120.456C40.5582 120.5 41.2393 120.853 41.2218 121.233Z" fill="#FEBE16"/>
<path d="M31.2958 120.843C31.3744 121.214 30.868 121.647 30.1607 121.797C29.4535 121.956 28.8073 121.779 28.7287 121.408C28.6502 121.038 29.1566 120.605 29.8639 120.455C30.5799 120.296 31.2173 120.473 31.2958 120.843Z" fill="#FEBE16"/>
<path d="M35.9296 119.424C36.0606 119.777 35.6938 120.254 35.1088 120.474C34.5238 120.695 33.9388 120.589 33.8078 120.236C33.6768 119.883 34.0435 119.406 34.6285 119.185C35.2136 118.965 35.7986 119.071 35.9296 119.424Z" fill="#FEBE16"/>
<path d="M31.792 118.169C31.827 118.54 30.7966 118.955 29.4869 118.84C28.1771 118.734 27.2254 118.152 27.3301 117.79C27.4262 117.419 28.4303 117.375 29.6004 117.472C30.7792 117.578 31.7571 117.79 31.792 118.169Z" fill="#FEBE16"/>
<path d="M34.0365 116.388C33.8881 116.741 32.8228 116.608 31.6615 116.096C30.5002 115.584 29.6795 114.887 29.8279 114.534C29.9763 114.181 31.0416 114.313 32.2029 114.825C33.3642 115.337 34.185 116.043 34.0365 116.388Z" fill="#FEBE16"/>
<path d="M46.6012 114.656C46.7583 115.009 46.3654 115.521 45.7804 115.918C45.1954 116.306 44.5667 116.465 44.3135 116.183C44.0603 115.9 44.3484 115.22 45.0295 114.77C45.7193 114.311 46.4527 114.311 46.6012 114.656Z" fill="#FEBE16"/>
<path d="M27.2358 115.425C27.0961 115.778 26.546 115.893 25.9959 115.672C25.4545 115.451 25.1227 114.992 25.2624 114.639C25.4021 114.286 25.9522 114.171 26.5023 114.392C27.0437 114.613 27.3755 115.072 27.2358 115.425Z" fill="#FEBE16"/>
<path d="M46.0349 154.025C46.0436 154.404 45.1443 154.749 44.0266 154.784C42.9002 154.819 41.9834 154.546 41.9747 154.166C41.9659 153.786 42.8653 153.451 43.983 153.407C45.1006 153.363 46.0174 153.645 46.0349 154.025Z" fill="#FEBE16"/>
<path d="M48.0681 151.606C47.7975 151.871 47.1077 151.588 46.5139 150.979C45.9289 150.37 45.6757 149.655 45.9464 149.39C46.217 149.126 46.9068 149.408 47.5006 150.017C48.0856 150.635 48.3388 151.341 48.0681 151.606Z" fill="#FEBE16"/>
<path d="M50.0519 150.398C49.6852 150.468 49.2312 149.709 49.3097 148.694C49.3796 147.679 49.9384 146.99 50.2877 147.114C50.6457 147.238 50.7243 147.97 50.6719 148.791C50.6108 149.612 50.4274 150.327 50.0519 150.398Z" fill="#FEBE16"/>
<path d="M51.692 152.154C51.9365 152.445 51.7444 153.028 51.3078 153.504C50.8625 153.981 50.3037 154.219 50.0068 153.99C49.7099 153.76 49.8147 153.098 50.3124 152.56C50.8014 152.021 51.4475 151.862 51.692 152.154Z" fill="#FEBE16"/>
<path d="M50.8452 158.034C50.4698 158.026 50.1816 157.443 50.3039 156.763C50.4261 156.075 50.8889 155.633 51.2469 155.757C51.6049 155.881 51.7533 156.428 51.6486 157.01C51.5438 157.575 51.2207 158.043 50.8452 158.034Z" fill="#FEBE16"/>
<path d="M47.5347 155.826C47.8141 156.082 47.9189 156.427 47.8228 156.621C47.7181 156.815 47.3863 156.912 47.0108 156.833C46.6441 156.753 46.4258 156.347 46.6091 155.985C46.8012 155.606 47.2553 155.562 47.5347 155.826Z" fill="#FEBE16"/>
<path d="M53.2004 145.657C53.5496 145.789 53.5671 146.645 53.0868 147.501C52.6066 148.366 51.8731 148.799 51.585 148.561C51.2881 148.322 51.4802 147.581 51.8993 146.822C52.3185 146.071 52.8424 145.524 53.2004 145.657Z" fill="#FEBE16"/>
<path d="M50.4088 145.286C50.4262 145.665 49.6928 146.018 48.7585 146.071C47.8242 146.124 47.0558 145.859 47.0296 145.48C47.0121 145.1 47.7456 144.747 48.6799 144.694C49.6142 144.641 50.3826 144.906 50.4088 145.286Z" fill="#FEBE16"/>
<path d="M44.3317 151.413C44.0349 151.652 43.5197 151.493 43.1704 151.051C42.8212 150.619 42.7862 150.072 43.0744 149.833C43.3713 149.595 43.8864 149.754 44.2357 150.195C44.585 150.628 44.6286 151.175 44.3317 151.413Z" fill="#FEBE16"/>
<path d="M38.7965 154.362C38.5345 154.636 37.6788 154.212 37.1112 153.25C36.5437 152.288 36.5873 151.325 36.9453 151.228C37.3121 151.122 37.8185 151.758 38.29 152.544C38.7441 153.338 39.0584 154.088 38.7965 154.362Z" fill="#FEBE16"/>
<path d="M35.9055 154.315C35.8094 154.686 35.2681 154.863 34.7005 154.704C34.1329 154.554 33.7487 154.13 33.8448 153.759C33.9408 153.389 34.4822 153.212 35.0498 153.371C35.6173 153.53 36.0015 153.954 35.9055 154.315Z" fill="#FEBE16"/>
<path d="M16.7571 174.983C16.3817 174.93 16.207 174.029 16.3555 172.979C16.5039 171.929 16.9318 171.125 17.3072 171.178C17.6827 171.231 17.8573 172.132 17.7089 173.182C17.5517 174.232 17.1239 175.036 16.7571 174.983Z" fill="#FEBE16"/>
<path d="M21.8995 174.39C21.5589 174.549 20.8517 173.754 20.3278 172.615C19.7952 171.477 19.6467 170.417 19.9872 170.259C20.3278 170.1 21.035 170.894 21.5589 172.033C22.0828 173.172 22.24 174.222 21.8995 174.39Z" fill="#FEBE16"/>
<path d="M26.4139 171.186C26.1694 171.478 25.2089 171.045 24.196 170.312C23.1919 169.58 22.4759 168.803 22.668 168.468C22.8601 168.141 23.9253 168.415 24.9906 169.183C26.0559 169.959 26.6583 170.895 26.4139 171.186Z" fill="#FEBE16"/>
<path d="M19.4812 165.811C19.8305 165.952 19.8829 166.64 19.6035 167.355C19.324 168.062 18.8089 168.529 18.4596 168.379C18.1103 168.238 18.058 167.55 18.3374 166.835C18.6255 166.128 19.1407 165.669 19.4812 165.811Z" fill="#FEBE16"/>
<path d="M26.5976 175.211C26.3007 175.441 25.6633 175.105 25.1743 174.452C24.6853 173.808 24.5369 173.093 24.8425 172.863C25.1394 172.634 25.7768 172.969 26.2658 173.622C26.746 174.267 26.8944 174.982 26.5976 175.211Z" fill="#FEBE16"/>
<path d="M19.1153 176.623C18.7398 176.676 18.3731 176.235 18.2858 175.643C18.1984 175.043 18.4342 174.522 18.8097 174.469C19.1851 174.416 19.5519 174.858 19.6392 175.449C19.7178 176.04 19.482 176.57 19.1153 176.623Z" fill="#FEBE16"/>
<path d="M33.5649 169.667C33.4689 170.038 32.2639 170.099 30.8756 169.808C29.4872 169.517 28.4045 168.978 28.4569 168.599C28.5093 168.219 29.7143 168.157 31.1463 168.458C32.587 168.758 33.661 169.296 33.5649 169.667Z" fill="#FEBE16"/>
<path d="M32.7272 175.097C32.4915 175.388 31.5048 174.973 30.5356 174.17C29.5664 173.358 28.9726 172.466 29.2171 172.175C29.4529 171.884 30.4396 172.299 31.4088 173.102C32.378 173.905 32.9717 174.797 32.7272 175.097Z" fill="#FEBE16"/>
<path d="M37.6167 173.568C37.5032 173.93 36.6825 174.001 35.7831 173.718C34.8837 173.436 34.2463 172.915 34.3511 172.544C34.4646 172.183 35.2854 172.112 36.1848 172.394C37.0928 172.677 37.7303 173.198 37.6167 173.568Z" fill="#FEBE16"/>
<path d="M41.4932 174.477C41.5106 174.866 40.9693 175.201 40.3493 175.492C39.7206 175.775 39.1094 175.96 38.8387 175.695C38.568 175.439 38.9086 174.645 39.7905 174.239C40.6724 173.833 41.4844 174.098 41.4932 174.477Z" fill="#FEBE16"/>
<path d="M40.2704 171.168C40.087 171.503 39.3711 171.45 38.6638 171.053C37.9565 170.656 37.5374 170.064 37.7208 169.729C37.9041 169.393 38.6201 169.446 39.3274 169.844C40.0347 170.25 40.4538 170.841 40.2704 171.168Z" fill="#FEBE16"/>
<path d="M44.2509 170.77C44.4256 171.114 44.2422 171.564 43.9977 171.944C43.7358 172.315 43.3778 172.65 43.0023 172.606C42.6268 172.571 42.4086 171.847 42.8713 171.158C43.3341 170.487 44.085 170.426 44.2509 170.77Z" fill="#FEBE16"/>
<path d="M48.3195 173.851C48.3282 174.231 47.6122 174.566 46.7129 174.593C45.8135 174.619 45.0713 174.337 45.0626 173.957C45.0538 173.578 45.7698 173.242 46.6692 173.216C47.5686 173.18 48.302 173.472 48.3195 173.851Z" fill="#FEBE16"/>
<path d="M48.9068 171.646C48.7584 171.999 48.0424 172.026 47.3177 171.708C46.5842 171.39 46.1214 170.851 46.2699 170.498C46.4183 170.145 47.1343 170.119 47.859 170.437C48.5838 170.754 49.0553 171.293 48.9068 171.646Z" fill="#FEBE16"/>
<path d="M51.6848 172.713C51.3094 172.66 51.0824 172.086 51.3094 171.46C51.5364 170.842 52.0778 170.55 52.3921 170.754C52.7152 170.957 52.7588 171.469 52.5842 171.936C52.4183 172.413 52.0603 172.766 51.6848 172.713Z" fill="#FEBE16"/>
<path d="M29.6009 136.724C29.9152 136.512 30.605 137.015 31.1464 137.845C31.6877 138.675 31.8711 139.514 31.5568 139.725C31.2424 139.937 30.5526 139.434 30.0113 138.604C29.4699 137.775 29.2865 136.936 29.6009 136.724Z" fill="#FEBE16"/>
<path d="M35.3361 135.48C35.6505 135.683 35.3885 136.68 34.7424 137.704C34.0963 138.728 33.3104 139.39 32.9961 139.187C32.6817 138.984 32.9437 137.987 33.5898 136.963C34.236 135.939 35.0131 135.277 35.3361 135.48Z" fill="#FEBE16"/>
<path d="M38.4981 139.347C38.6291 139.7 37.9917 140.273 37.0749 140.627C36.158 140.98 35.3023 140.971 35.1714 140.609C35.0404 140.256 35.6778 139.682 36.5946 139.329C37.5114 138.985 38.3671 138.994 38.4981 139.347Z" fill="#FEBE16"/>
<path d="M37.6503 145.534C37.4232 145.834 36.6025 145.596 35.8777 144.916C35.153 144.227 34.8649 143.415 35.1443 143.168C35.4324 142.921 36.1397 143.283 36.8033 143.91C37.4756 144.536 37.8773 145.234 37.6503 145.534Z" fill="#FEBE16"/>
<path d="M32.605 147.996C32.247 148.084 31.7144 147.122 31.793 145.833C31.8715 144.544 32.5177 143.653 32.8582 143.794C33.2162 143.926 33.2075 144.853 33.1551 145.921C33.0853 146.981 32.9805 147.907 32.605 147.996Z" fill="#FEBE16"/>
<path d="M34.1859 142.038C34.0812 142.409 33.4874 142.559 32.8587 142.382C32.23 142.206 31.8022 141.764 31.8982 141.393C32.003 141.023 32.5968 140.873 33.2254 141.058C33.8629 141.226 34.2907 141.667 34.1859 142.038Z" fill="#FEBE16"/>
<path d="M39.4426 134.95C39.7482 135.171 39.4426 136.124 38.5781 136.91C37.7224 137.705 36.7532 137.916 36.5698 137.59C36.3778 137.254 36.9278 136.575 37.6613 135.886C38.4035 135.215 39.137 134.73 39.4426 134.95Z" fill="#FEBE16"/>
<path d="M31.8281 132.646C32.1948 132.558 32.6576 133.229 32.7013 134.147C32.7537 135.065 32.3607 135.78 31.994 135.727C31.6185 135.683 31.3828 135.003 31.3391 134.218C31.2955 133.432 31.4526 132.735 31.8281 132.646Z" fill="#FEBE16"/>
<path d="M36.8217 130.202C37.1884 130.29 37.2932 131.164 36.9177 132.099C36.551 133.044 35.8787 133.6 35.5556 133.415C35.2238 133.22 35.3198 132.435 35.6516 131.587C35.9922 130.749 36.4549 130.113 36.8217 130.202Z" fill="#FEBE16"/>
<path d="M43.1341 138.674C43.169 139.054 42.6276 139.416 41.9117 139.486C41.2044 139.557 40.5932 139.301 40.5582 138.921C40.5233 138.542 41.0647 138.18 41.7807 138.109C42.4879 138.039 43.0992 138.295 43.1341 138.674Z" fill="#FEBE16"/>
<path d="M41.2075 143.6C41.0765 143.953 40.3081 144.024 39.4961 143.759C38.6841 143.494 38.1078 142.973 38.2038 142.611C38.2999 142.24 39.0682 142.17 39.9152 142.452C40.7622 142.726 41.3385 143.247 41.2075 143.6Z" fill="#FEBE16"/>
<path d="M35.9321 149.18C35.609 149.365 34.9891 148.871 34.7446 148.015C34.4914 147.159 34.7446 146.408 35.1201 146.382C35.4955 146.355 35.8448 146.929 36.0544 147.618C36.2552 148.324 36.2639 148.995 35.9321 149.18Z" fill="#FEBE16"/>
<path d="M32.4473 152.48C32.0719 152.498 31.7313 151.986 31.6964 151.333C31.6615 150.671 31.9322 150.124 32.3076 150.106C32.6831 150.088 33.0149 150.6 33.0585 151.253C33.0935 151.907 32.8228 152.454 32.4473 152.48Z" fill="#FEBE16"/>
<path d="M41.0824 150.785C40.7332 150.944 40.1394 150.362 39.6242 149.567C39.1091 148.764 38.8297 147.978 39.1178 147.722C39.3972 147.475 40.1918 147.916 40.7681 148.817C41.3357 149.708 41.423 150.626 41.0824 150.785Z" fill="#FEBE16"/>
<path d="M45.0714 147.565C44.8793 147.9 44.0236 147.759 43.0893 147.371C42.1638 146.982 41.4478 146.479 41.5438 146.108C41.6399 145.746 42.5829 145.676 43.6045 146.1C44.6348 146.523 45.2548 147.238 45.0714 147.565Z" fill="#FEBE16"/>
<path d="M45.3521 143.503C45.0465 143.733 44.5749 143.627 44.1558 143.406C43.7454 143.177 43.3874 142.841 43.4049 142.462C43.4136 142.082 44.0947 141.817 44.7932 142.188C45.4918 142.568 45.6489 143.283 45.3521 143.503Z" fill="#FEBE16"/>
<path d="M34.0453 126.9C34.4207 126.962 34.5866 127.836 34.4906 128.851C34.3945 129.866 34.0627 130.687 33.6873 130.678C33.3118 130.669 33.0324 129.786 33.1284 128.718C33.2332 127.641 33.6785 126.838 34.0453 126.9Z" fill="#FEBE16"/>
<path d="M41.8602 129.883C42.1396 130.139 41.8427 130.934 41.1966 131.667C40.5504 132.399 39.7995 132.788 39.5113 132.532C39.2319 132.276 39.5288 131.481 40.1749 130.749C40.8298 130.016 41.5807 129.628 41.8602 129.883Z" fill="#FEBE16"/>
<path d="M43.0481 131.755C43.3537 131.525 43.7554 131.561 43.9562 131.834C44.157 132.108 44.0784 132.514 43.7728 132.744C43.4672 132.973 43.0656 132.938 42.8647 132.664C42.6639 132.382 42.7425 131.976 43.0481 131.755Z" fill="#FEBE16"/>
<path d="M22.1171 129.098C21.9948 129.46 21.0343 129.451 20.0127 128.974C18.9911 128.506 18.3537 127.774 18.5458 127.447C18.7379 127.111 19.6285 127.279 20.5803 127.721C21.532 128.162 22.2393 128.736 22.1171 129.098Z" fill="#FEBE16"/>
<path d="M17.8761 136.584C17.5268 136.725 16.9942 136.195 16.7846 135.366C16.5751 134.545 16.7934 133.821 17.1688 133.768C17.5443 133.724 17.9197 134.289 18.1118 135.021C18.2952 135.763 18.2341 136.443 17.8761 136.584Z" fill="#FEBE16"/>
<path d="M23.2439 133.3C22.9645 133.547 22.2747 133.229 21.7159 132.585C21.157 131.941 20.93 131.208 21.2094 130.961C21.4888 130.714 22.1786 131.031 22.7375 131.676C23.305 132.32 23.532 133.053 23.2439 133.3Z" fill="#FEBE16"/>
<path d="M20.6946 121.922C20.9653 122.187 20.4763 123.131 19.6118 124.023C18.7387 124.915 17.8219 125.418 17.5512 125.153C17.2805 124.888 17.7695 123.944 18.6426 123.052C19.4983 122.16 20.4239 121.657 20.6946 121.922Z" fill="#FEBE16"/>
<path d="M16.6788 120.28C17.0368 120.403 17.0804 121.207 16.7836 122.072C16.4867 122.937 15.954 123.537 15.596 123.405C15.238 123.281 15.1944 122.478 15.4913 121.613C15.7969 120.756 16.3295 120.156 16.6788 120.28Z" fill="#FEBE16"/>
<path d="M16.8356 126.9C17.0451 127.218 16.7308 127.8 16.2418 128.321C15.7441 128.833 15.1766 129.168 14.8535 128.965C14.5391 128.771 14.6527 127.994 15.2639 127.359C15.8664 126.723 16.626 126.582 16.8356 126.9Z" fill="#FEBE16"/>
<path d="M15.3161 125.965C14.9755 126.115 14.5215 125.815 14.4953 125.268C14.4691 124.72 14.8969 124.376 15.2462 124.5C15.6042 124.614 15.84 124.923 15.8574 125.206C15.8662 125.488 15.6653 125.815 15.3161 125.965Z" fill="#FEBE16"/>
<path d="M22.8415 125.08C22.8939 125.459 22.2565 125.857 21.4182 125.98C20.58 126.095 19.8553 125.892 19.8116 125.512C19.7592 125.133 20.3966 124.736 21.2349 124.612C22.0644 124.497 22.7891 124.7 22.8415 125.08Z" fill="#FEBE16"/>
<path d="M20.0134 118.567C20.319 118.788 20.1531 119.565 19.638 120.297C19.1228 121.03 18.4505 121.445 18.1449 121.224C17.8392 121.003 18.0052 120.227 18.5291 119.494C19.0442 118.761 19.7078 118.346 20.0134 118.567Z" fill="#FEBE16"/>
<path d="M22.5026 137.986C22.2406 138.251 21.4111 137.819 20.9222 136.848C20.4332 135.886 20.5642 134.95 20.9309 134.888C21.3063 134.818 21.7429 135.453 22.1358 136.221C22.52 136.989 22.7733 137.722 22.5026 137.986Z" fill="#FEBE16"/>
<path d="M14.7222 139.346C14.3467 139.381 13.9887 138.789 14.0498 138.03C14.1109 137.271 14.565 136.742 14.923 136.847C15.2897 136.945 15.4556 137.518 15.412 138.145C15.3596 138.772 15.0976 139.31 14.7222 139.346Z" fill="#FEBE16"/>
<path d="M19.8027 139.266C19.6892 139.628 18.9994 139.743 18.2572 139.513C17.515 139.284 16.9998 138.798 17.1133 138.436C17.2268 138.074 17.9166 137.959 18.6588 138.189C19.401 138.418 19.9162 138.904 19.8027 139.266Z" fill="#FEBE16"/>
<path d="M26.2403 137.456C25.9609 137.712 25.2536 137.376 24.6773 136.714C24.0923 136.052 23.8478 135.311 24.1272 135.055C24.4066 134.799 25.1139 135.134 25.6902 135.796C26.2752 136.458 26.5197 137.2 26.2403 137.456Z" fill="#FEBE16"/>
<path d="M27.7325 127.041C27.7499 127.42 26.9379 127.782 25.8988 127.835C24.8685 127.897 24.0128 127.632 23.9866 127.253C23.9691 126.873 24.7812 126.52 25.8203 126.458C26.8593 126.396 27.715 126.661 27.7325 127.041Z" fill="#FEBE16"/>
<path d="M25.7168 120.367C25.9002 120.703 25.3763 121.356 24.5381 121.832C23.6998 122.309 22.8703 122.424 22.687 122.097C22.5036 121.762 23.0275 121.109 23.8657 120.632C24.704 120.155 25.5335 120.041 25.7168 120.367Z" fill="#FEBE16"/>
<path d="M18.1799 116.854C18.5117 117.031 18.5903 117.552 18.3458 118.011C18.1013 118.47 17.6386 118.708 17.3068 118.523C16.9749 118.346 16.8964 117.825 17.1408 117.366C17.3766 116.907 17.8481 116.678 18.1799 116.854Z" fill="#FEBE16"/>
<path d="M24.3456 116.713C24.6163 116.977 24.3369 117.719 23.7257 118.372C23.1057 119.025 22.3897 119.334 22.119 119.078C21.8484 118.813 22.1278 118.072 22.739 117.419C23.3589 116.766 24.0749 116.448 24.3456 116.713Z" fill="#FEBE16"/>
<path d="M28.1781 123.589C28.248 123.96 27.6368 124.393 26.8073 124.552C25.9778 124.71 25.253 124.534 25.1832 124.163C25.1133 123.792 25.7245 123.36 26.554 123.201C27.3835 123.042 28.1083 123.219 28.1781 123.589Z" fill="#FEBE16"/>
<path d="M28.7101 132.692C28.4919 133.009 27.6973 132.824 26.8765 132.365C26.0557 131.897 25.4882 131.306 25.6453 130.953C25.7938 130.608 26.6669 130.661 27.5488 131.156C28.422 131.659 28.9197 132.383 28.7101 132.692Z" fill="#FEBE16"/>
<path d="M51.1939 139.195C51.0804 139.557 50.1287 139.584 49.0721 139.248C48.0156 138.913 47.2472 138.348 47.3607 137.977C47.4742 137.615 48.426 137.589 49.4825 137.933C50.5478 138.268 51.3074 138.833 51.1939 139.195Z" fill="#FEBE16"/>
<path d="M51.5087 142.85C51.2555 143.133 50.5919 142.947 50.0156 142.435C49.4393 141.923 49.1773 141.279 49.4306 140.988C49.6838 140.705 50.3474 140.89 50.9237 141.402C51.5 141.914 51.7619 142.568 51.5087 142.85Z" fill="#FEBE16"/>
<path d="M52.0834 134.481C52.2057 134.843 51.4024 135.505 50.2847 135.973C49.1671 136.432 48.1367 136.529 47.9708 136.185C47.8136 135.84 48.617 135.169 49.7695 134.693C50.9221 134.216 51.9612 134.119 52.0834 134.481Z" fill="#FEBE16"/>
<path d="M53.5879 136.936C53.5966 137.316 53.0727 137.642 52.4091 137.66C51.7455 137.678 51.2042 137.386 51.1954 137.007C51.1867 136.627 51.7106 136.301 52.3742 136.283C53.0378 136.256 53.5792 136.557 53.5879 136.936Z" fill="#FEBE16"/>
<path d="M55.3226 141.81C54.9733 141.96 54.4582 141.554 53.8993 141.139C53.358 140.706 52.834 140.309 52.8864 139.93C52.9214 139.744 53.1397 139.603 53.4977 139.594C53.8469 139.585 54.3184 139.727 54.7288 140.044C55.1392 140.362 55.4012 140.786 55.4798 141.13C55.5671 141.474 55.4885 141.73 55.3226 141.81Z" fill="#FEBE16"/>
<path d="M55.367 145.419C55.0701 145.658 54.3803 145.269 53.8302 144.554C53.2801 143.839 53.0706 143.071 53.3675 142.842C53.6643 142.603 54.3541 142.992 54.9042 143.707C55.4543 144.413 55.6639 145.181 55.367 145.419Z" fill="#FEBE16"/>
<path d="M41.5986 134.951C41.782 134.615 42.8298 134.862 43.93 135.498C45.0302 136.133 45.7724 136.91 45.5803 137.237C45.3969 137.563 44.3491 137.325 43.2489 136.69C42.1487 136.063 41.4065 135.286 41.5986 134.951Z" fill="#FEBE16"/>
<path d="M45.9982 129.444C46.3736 129.426 46.7316 130.494 46.8015 131.836C46.8713 133.177 46.6181 134.272 46.2426 134.29C45.8672 134.307 45.5092 133.239 45.4393 131.898C45.3695 130.556 45.6227 129.461 45.9982 129.444Z" fill="#FEBE16"/>
<path d="M51.6048 130.413C51.8319 130.713 51.3516 131.49 50.5221 132.135C49.6926 132.788 48.8369 133.07 48.6012 132.77C48.3741 132.47 48.8544 131.693 49.6839 131.049C50.5134 130.405 51.3691 130.113 51.6048 130.413Z" fill="#FEBE16"/>
<path d="M57.0976 131.587C57.1849 131.958 56.3991 132.47 55.3426 132.735C54.286 133 53.3518 132.911 53.2644 132.541C53.1771 132.17 53.963 131.658 55.0195 131.393C56.076 131.128 57.0103 131.217 57.0976 131.587Z" fill="#FEBE16"/>
<path d="M58.6428 136.097C58.5293 136.459 57.7085 136.53 56.8004 136.256C55.8923 135.974 55.2462 135.453 55.351 135.091C55.4645 134.729 56.2853 134.659 57.1934 134.932C58.1015 135.215 58.7476 135.735 58.6428 136.097Z" fill="#FEBE16"/>
<path d="M62.2135 132.54C62.2658 132.92 61.6896 133.317 60.9212 133.432C60.1528 133.547 59.4804 133.335 59.4193 132.964C59.3669 132.584 59.9432 132.187 60.7116 132.072C61.4887 131.949 62.1611 132.161 62.2135 132.54Z" fill="#FEBE16"/>
<path d="M60.1438 137.678C60.301 138.022 59.8644 138.561 59.1222 138.728C58.3888 138.905 57.7601 138.613 57.7426 138.243C57.7252 137.863 58.2141 137.528 58.8079 137.386C59.4104 137.254 59.9867 137.325 60.1438 137.678Z" fill="#FEBE16"/>
<path d="M61.9849 137.033C61.6269 137.148 61.1728 136.706 61.1379 136.018C61.1117 135.329 61.5308 134.844 61.8975 134.932C62.2643 135.021 62.4826 135.471 62.5 135.956C62.5175 136.442 62.3429 136.909 61.9849 137.033Z" fill="#FEBE16"/>
<path d="M59.5511 127.173C59.9179 127.243 60.075 128.073 59.9004 129.035C59.7258 129.998 59.2804 130.713 58.905 130.642C58.5382 130.571 58.3811 129.742 58.5557 128.779C58.7391 127.817 59.1844 127.102 59.5511 127.173Z" fill="#FEBE16"/>
<path d="M62.8419 129.919C62.4664 129.884 62.2132 129.31 62.2831 128.639C62.3442 127.969 62.7022 127.457 63.0777 127.492C63.4531 127.527 63.7063 128.101 63.6365 128.772C63.5754 129.443 63.2174 129.964 62.8419 129.919Z" fill="#FEBE16"/>
<path d="M65.1556 133.564C64.7801 133.608 64.4047 133.034 64.3086 132.275C64.2126 131.516 64.4483 130.863 64.8151 130.819C65.1905 130.775 65.566 131.348 65.662 132.108C65.7581 132.858 65.5223 133.511 65.1556 133.564Z" fill="#FEBE16"/>
<path d="M15.0285 135.507C14.6531 135.525 14.3038 134.316 14.3475 132.815C14.3911 131.314 14.8102 130.131 15.1857 130.167C15.5612 130.202 15.7533 131.403 15.7096 132.859C15.6659 134.307 15.404 135.498 15.0285 135.507Z" fill="#FEBE16"/>
<path d="M19.3315 133.307C19.0172 133.51 18.2051 132.804 17.5241 131.727C16.843 130.651 16.5548 129.609 16.8692 129.406C17.1835 129.203 17.9956 129.909 18.6766 130.986C19.3577 132.063 19.6546 133.104 19.3315 133.307Z" fill="#FEBE16"/>
<path d="M47.9815 143.547C47.6497 143.732 46.8376 142.893 46.1653 141.675C45.493 140.457 45.2136 139.318 45.5366 139.133C45.8684 138.948 46.6805 139.786 47.3528 141.004C48.0251 142.223 48.3046 143.361 47.9815 143.547Z" fill="#FEBE16"/>
</g>
<path d="M27.9232 124.631C28.0018 124.631 28.0978 127.968 28.1502 132.09C28.2026 136.212 28.1852 139.558 28.1066 139.558C28.028 139.558 27.9319 136.221 27.8796 132.099C27.8272 127.976 27.8446 124.64 27.9232 124.631Z" fill="#263238"/>
<path d="M28.928 127.331C28.9979 127.366 28.7621 127.94 28.5438 128.664C28.3255 129.387 28.212 129.996 28.1334 129.988C28.0636 129.979 28.0548 129.334 28.2819 128.584C28.5089 127.825 28.8669 127.287 28.928 127.331Z" fill="#263238"/>
<path d="M44.7484 112.397C44.7571 112.397 44.7833 112.476 44.8182 112.626C44.8619 112.776 44.9055 113.006 44.9405 113.297C45.0103 113.888 44.9928 114.771 44.696 115.804C44.3904 116.819 43.7704 118.002 42.6877 118.929C41.6224 119.864 40.0595 120.429 38.4354 120.385C36.8113 120.341 35.2832 119.697 34.2616 118.708C33.2313 117.728 32.6725 116.519 32.4105 115.486C32.166 114.444 32.1922 113.562 32.297 112.97C32.3494 112.679 32.4018 112.45 32.4542 112.299C32.4978 112.149 32.5328 112.07 32.5415 112.079C32.6288 112.079 32.0787 113.385 32.6026 115.433C32.8733 116.431 33.4321 117.587 34.4363 118.514C35.4229 119.449 36.8811 120.059 38.4441 120.103C40.0071 120.138 41.5002 119.608 42.5305 118.726C43.5783 117.852 44.1983 116.722 44.5213 115.742C45.1413 113.729 44.661 112.397 44.7484 112.397Z" fill="#263238"/>
<path d="M52.2685 129.989C52.3034 129.971 52.5217 130.386 52.8622 131.057C53.2988 131.94 53.7179 132.778 54.1632 133.679C54.6173 134.579 55.0364 135.418 55.473 136.3C55.8048 136.971 56.0056 137.395 55.9707 137.412C55.9357 137.43 55.6825 137.042 55.3071 136.397C54.9316 135.744 54.4339 134.835 53.9187 133.811C53.4036 132.787 52.9757 131.843 52.6876 131.145C52.3994 130.439 52.2423 130.006 52.2685 129.989Z" fill="#263238"/>
<path d="M64.5285 179.961C64.5285 179.961 112.247 188.038 108.484 202.585C104.764 216.991 76.5433 252.009 76.5433 252.009L58.687 240.586C58.687 240.586 85.0741 207.476 84.0612 206.381C83.0483 205.286 46.9167 197.386 46.9167 197.386L38.8574 176.51L64.5285 179.961Z" fill="#455A64"/>
<path d="M52.3233 194.474C52.2971 194.597 51.9915 194.641 51.6335 194.579C51.2755 194.509 51.0049 194.359 51.031 194.235C51.0572 194.112 51.3629 194.068 51.7209 194.129C52.0701 194.191 52.3408 194.35 52.3233 194.474Z" fill="#263238"/>
<path d="M57.3165 195.48C57.2903 195.604 56.7141 195.586 56.0243 195.445C55.3344 195.304 54.7931 195.083 54.8193 194.96C54.8455 194.836 55.4218 194.854 56.1116 194.995C56.8014 195.145 57.3427 195.357 57.3165 195.48Z" fill="#263238"/>
<path d="M62.3039 196.574C62.2777 196.697 61.6927 196.671 61.0116 196.521C60.3218 196.371 59.7892 196.141 59.8154 196.018C59.8416 195.894 60.4179 195.921 61.1077 196.071C61.7975 196.23 62.3301 196.45 62.3039 196.574Z" fill="#263238"/>
<path d="M67.262 197.756C67.2358 197.88 66.6508 197.844 65.9697 197.677C65.2886 197.509 64.756 197.279 64.7822 197.156C64.8084 197.032 65.3934 197.067 66.0745 197.235C66.7643 197.403 67.2882 197.632 67.262 197.756Z" fill="#263238"/>
<path d="M72.2064 199.029C72.1715 199.153 71.5952 199.108 70.9141 198.932C70.233 198.755 69.7091 198.508 69.7353 198.385C69.7702 198.261 70.3465 198.305 71.0276 198.482C71.7087 198.658 72.2326 198.905 72.2064 199.029Z" fill="#263238"/>
<path d="M77.1215 200.378C77.0866 200.502 76.5103 200.449 75.8292 200.254C75.1481 200.06 74.633 199.813 74.6592 199.69C74.6941 199.566 75.2704 199.619 75.9515 199.813C76.6325 200.007 77.1564 200.263 77.1215 200.378Z" fill="#263238"/>
<path d="M82.0207 201.826C81.9858 201.95 81.4095 201.879 80.7372 201.685C80.0648 201.482 79.5409 201.217 79.5759 201.102C79.6108 200.979 80.1871 201.05 80.8594 201.244C81.5317 201.438 82.0556 201.703 82.0207 201.826Z" fill="#263238"/>
<path d="M86.8831 203.353C86.8482 203.477 86.2719 203.397 85.5996 203.185C84.9272 202.973 84.412 202.7 84.4557 202.576C84.4906 202.453 85.0669 202.532 85.7393 202.744C86.4116 202.956 86.9268 203.229 86.8831 203.353Z" fill="#263238"/>
<path d="M88.1488 207.113C88.0353 207.034 88.3496 206.522 88.6377 205.939C88.9521 205.357 88.7774 204.853 88.9172 204.783C88.9783 204.756 89.0656 204.88 89.1616 205.136C89.249 205.392 89.214 205.78 89.0481 206.133C88.7076 206.822 88.2361 207.175 88.1488 207.113Z" fill="#263238"/>
<path d="M85.1266 211.264C85.0218 211.185 85.2838 210.664 85.7029 210.09C86.122 209.516 86.5411 209.11 86.6372 209.19C86.742 209.269 86.48 209.79 86.0609 210.364C85.6505 210.937 85.2314 211.335 85.1266 211.264Z" fill="#263238"/>
<path d="M82.1071 215.41C82.0023 215.331 82.2643 214.81 82.6834 214.236C83.1025 213.663 83.5216 213.257 83.6177 213.336C83.7224 213.416 83.4605 213.936 83.0414 214.51C82.631 215.084 82.2119 215.49 82.1071 215.41Z" fill="#263238"/>
<path d="M79.0837 219.561C78.9789 219.481 79.2408 218.961 79.6512 218.387C80.0703 217.813 80.4895 217.407 80.5855 217.486C80.6903 217.566 80.4283 218.087 80.0092 218.661C79.6076 219.234 79.1885 219.64 79.0837 219.561Z" fill="#263238"/>
<path d="M76.0641 223.709C75.9594 223.63 76.2213 223.109 76.6317 222.535C77.0508 221.962 77.4699 221.555 77.566 221.635C77.6708 221.714 77.4088 222.235 76.9897 222.809C76.588 223.383 76.1689 223.789 76.0641 223.709Z" fill="#263238"/>
<path d="M73.0446 227.868C72.9398 227.788 73.2018 227.267 73.6122 226.694C74.0313 226.12 74.4504 225.714 74.5465 225.793C74.6512 225.873 74.3893 226.393 73.9789 226.967C73.5685 227.532 73.1494 227.938 73.0446 227.868Z" fill="#263238"/>
<path d="M70.0231 232.016C69.9184 231.937 70.1803 231.416 70.5907 230.842C71.0098 230.268 71.4289 229.862 71.525 229.942C71.6297 230.021 71.3678 230.542 70.9487 231.116C70.547 231.681 70.1279 232.087 70.0231 232.016Z" fill="#263238"/>
<path d="M67.0094 236.164C66.9047 236.085 67.1666 235.564 67.5857 234.99C68.0049 234.417 68.424 234.011 68.52 234.09C68.6248 234.169 68.3629 234.69 67.9437 235.264C67.5246 235.838 67.1055 236.235 67.0094 236.164Z" fill="#263238"/>
<path d="M64.7224 239.307C64.6176 239.228 64.7137 238.937 64.9232 238.636C65.1415 238.345 65.3947 238.16 65.4908 238.239C65.5955 238.319 65.4995 238.61 65.2899 238.91C65.0716 239.201 64.8184 239.378 64.7224 239.307Z" fill="#263238"/>
<path d="M90.1289 204.28C90.1726 204.395 88.8192 204.969 87.1078 205.56C85.3964 206.152 83.9731 206.531 83.9382 206.408C83.9032 206.284 85.2566 205.71 86.9593 205.128C88.662 204.545 90.0853 204.165 90.1289 204.28Z" fill="#263238"/>
<path d="M90.733 205.93C90.7505 206.054 89.1963 206.416 87.2404 206.575C85.2845 206.742 83.6953 206.645 83.6953 206.522C83.6953 206.389 85.267 206.283 87.2054 206.116C89.1439 205.957 90.7156 205.807 90.733 205.93Z" fill="#263238"/>
<path d="M76.8057 253.244L66.057 246.218C66.057 246.218 65.1576 237.249 63.1406 234.945L80.2197 248.839L76.8057 253.244Z" fill="#263238"/>
<path d="M13.961 178.488C13.961 178.488 11.0359 187.933 20.4835 202.189L52.2842 251.93L59.4879 316.528L83.0633 314.409L75.0826 242.83L41.5792 179.371L13.961 178.488Z" fill="#455A64"/>
<path d="M16.4477 180.263C16.3255 180.272 16.2207 179.972 16.2207 179.601C16.2207 179.23 16.3255 178.93 16.4477 178.948C16.57 178.957 16.6748 179.257 16.6748 179.61C16.6748 179.963 16.57 180.254 16.4477 180.263Z" fill="#263238"/>
<path d="M17.2676 185.507C17.1454 185.542 16.9271 184.977 16.7786 184.253C16.6302 183.529 16.604 182.92 16.735 182.903C16.8572 182.885 17.0842 183.441 17.2239 184.156C17.3636 184.871 17.3898 185.471 17.2676 185.507Z" fill="#263238"/>
<path d="M18.9561 190.547C18.8426 190.6 18.537 190.079 18.2751 189.381C18.0131 188.693 17.8996 188.093 18.0218 188.057C18.1441 188.013 18.4497 188.534 18.7029 189.222C18.9561 189.902 19.0696 190.494 18.9561 190.547Z" fill="#263238"/>
<path d="M21.2929 195.304C21.1882 195.366 20.804 194.898 20.446 194.254C20.1054 193.601 19.9308 193.018 20.0443 192.965C20.1578 192.912 20.5158 193.389 20.8476 194.042C21.2056 194.677 21.4064 195.242 21.2929 195.304Z" fill="#263238"/>
<path d="M24.0709 199.824C23.9661 199.894 23.5645 199.444 23.1715 198.826C22.7786 198.208 22.5516 197.643 22.6564 197.582C22.7612 197.511 23.1628 197.961 23.5557 198.579C23.9487 199.197 24.1757 199.753 24.0709 199.824Z" fill="#263238"/>
<path d="M26.9587 204.272C26.8539 204.342 26.4435 203.901 26.0419 203.292C25.6402 202.683 25.4045 202.127 25.5092 202.056C25.614 201.986 26.0244 202.427 26.4261 203.036C26.819 203.654 27.0547 204.201 26.9587 204.272Z" fill="#263238"/>
<path d="M29.8871 208.704C29.7824 208.774 29.372 208.333 28.9616 207.724C28.5599 207.115 28.3154 206.559 28.4115 206.488C28.5163 206.417 28.9267 206.859 29.337 207.468C29.7474 208.077 29.9919 208.633 29.8871 208.704Z" fill="#263238"/>
<path d="M32.8475 213.118C32.7428 213.189 32.3236 212.756 31.922 212.147C31.5116 211.538 31.2671 210.991 31.3719 210.912C31.4767 210.832 31.8871 211.274 32.2975 211.883C32.6991 212.492 32.9523 213.048 32.8475 213.118Z" fill="#263238"/>
<path d="M35.8167 217.514C35.7119 217.585 35.2928 217.152 34.8824 216.543C34.472 215.934 34.2275 215.387 34.3236 215.316C34.4284 215.246 34.8475 215.678 35.2579 216.287C35.6682 216.896 35.9215 217.444 35.8167 217.514Z" fill="#263238"/>
<path d="M38.7844 221.909C38.6796 221.979 38.2605 221.547 37.8501 220.938C37.4397 220.329 37.1865 219.781 37.2913 219.711C37.396 219.64 37.8151 220.073 38.2255 220.682C38.6447 221.291 38.8891 221.838 38.7844 221.909Z" fill="#263238"/>
<path d="M41.7629 226.305C41.6581 226.376 41.239 225.943 40.8286 225.334C40.4182 224.725 40.165 224.178 40.2698 224.107C40.3745 224.037 40.7937 224.469 41.2041 225.078C41.6232 225.678 41.8677 226.235 41.7629 226.305Z" fill="#263238"/>
<path d="M44.7386 230.702C44.6338 230.772 44.2147 230.34 43.8043 229.731C43.3939 229.122 43.1494 228.574 43.2454 228.504C43.3502 228.433 43.7693 228.866 44.1797 229.475C44.5901 230.075 44.8433 230.631 44.7386 230.702Z" fill="#263238"/>
<path d="M47.701 235.098C47.5963 235.169 47.1772 234.736 46.7755 234.127C46.3651 233.518 46.1206 232.971 46.2254 232.9C46.3302 232.83 46.7406 233.262 47.151 233.871C47.5613 234.48 47.8058 235.028 47.701 235.098Z" fill="#263238"/>
<path d="M50.641 239.52C50.5363 239.591 50.1259 239.149 49.7155 238.54C49.3138 237.931 49.0693 237.375 49.1654 237.304C49.2702 237.234 49.6806 237.675 50.0909 238.284C50.5013 238.893 50.7458 239.449 50.641 239.52Z" fill="#263238"/>
<path d="M53.5418 243.967C53.437 244.038 53.0266 243.597 52.6337 242.979C52.232 242.361 51.9962 241.805 52.101 241.734C52.2058 241.663 52.6162 242.105 53.0091 242.723C53.4108 243.341 53.6465 243.897 53.5418 243.967Z" fill="#263238"/>
<path d="M56.1951 248.569C56.0903 248.595 55.7935 248.118 55.4267 247.483C55.0687 246.847 54.8417 246.291 54.9552 246.221C55.06 246.159 55.4617 246.609 55.8284 247.253C56.1864 247.898 56.3348 248.533 56.1951 248.569Z" fill="#263238"/>
<path d="M56.8237 253.846C56.7014 253.863 56.5355 253.281 56.4482 252.548C56.3696 251.816 56.4046 251.215 56.5268 251.198C56.649 251.18 56.8149 251.763 56.9022 252.495C56.9896 253.228 56.9546 253.828 56.8237 253.846Z" fill="#263238"/>
<path d="M57.3926 259.133C57.2703 259.151 57.1044 258.568 57.0258 257.835C56.9472 257.103 56.9909 256.502 57.1131 256.485C57.2354 256.467 57.4013 257.05 57.4799 257.782C57.5585 258.515 57.5148 259.115 57.3926 259.133Z" fill="#263238"/>
<path d="M57.9433 264.422C57.8211 264.439 57.6552 263.857 57.5766 263.124C57.498 262.391 57.5417 261.791 57.6639 261.774C57.7862 261.765 57.9521 262.338 58.0306 263.071C58.1092 263.804 58.0656 264.413 57.9433 264.422Z" fill="#263238"/>
<path d="M58.4815 269.719C58.3592 269.727 58.1933 269.154 58.1235 268.421C58.0449 267.688 58.0885 267.088 58.2108 267.07C58.333 267.062 58.4989 267.635 58.5688 268.368C58.6474 269.101 58.6124 269.701 58.4815 269.719Z" fill="#263238"/>
<path d="M59.0205 275.013C58.8983 275.022 58.7324 274.44 58.6625 273.716C58.5839 272.983 58.6276 272.383 58.7499 272.365C58.8721 272.357 59.038 272.939 59.1079 273.663C59.1864 274.396 59.1515 275.005 59.0205 275.013Z" fill="#263238"/>
<path d="M75.9309 250.448C75.8523 250.456 75.7301 249.159 75.3808 247.093C75.0403 245.037 74.4116 242.203 73.2503 239.237C72.1064 236.271 70.6308 233.782 69.5481 231.99C68.4566 230.207 67.7668 229.112 67.8192 229.077C67.8454 229.059 68.0462 229.307 68.3955 229.783C68.7448 230.251 69.2337 230.94 69.81 231.822C70.9626 233.57 72.4994 236.059 73.6607 239.069C74.8394 242.071 75.4157 244.957 75.6864 247.04C75.8174 248.091 75.896 248.938 75.9134 249.521C75.9658 250.121 75.9658 250.448 75.9309 250.448Z" fill="#263238"/>
<path d="M44.8532 176.625C44.8968 176.625 44.8706 177.234 44.8008 178.293C44.7309 179.353 44.6087 180.862 44.4428 182.672L44.4341 182.592C44.9841 184.305 45.8573 186.264 46.8702 188.312C48.3808 191.34 49.8389 194.059 50.7907 196.062C51.2709 197.069 51.6464 197.89 51.8821 198.463C52.1179 199.037 52.2314 199.364 52.2052 199.381C52.179 199.39 52.0044 199.09 51.725 198.543C51.3932 197.907 50.9828 197.122 50.5113 196.213C49.481 194.244 47.9878 191.561 46.4685 188.515C45.4469 186.458 44.5912 184.464 44.0673 182.707L44.0586 182.663V182.627C44.2594 180.818 44.4341 179.317 44.5738 178.267C44.7135 177.225 44.8095 176.625 44.8532 176.625Z" fill="#263238"/>
<path d="M75.2484 166.755C75.1262 164.849 70.4286 163.268 68.5251 162.704L68.56 162.668L67.9575 162.536C67.8265 162.5 67.7392 162.474 67.7392 162.474L67.7305 162.483L31.6251 154.697L27.5998 140.459H14.5547C14.8778 141.121 17.5496 164.566 24.5612 166.217C31.5727 167.867 61.5572 170.339 61.5572 170.339C61.5572 170.339 62.5177 170.445 63.7925 170.569C63.7925 170.586 63.7838 170.604 63.7838 170.63C63.7838 171.866 65.0848 171.99 66.4819 172.051C69.9483 172.193 70.9525 170.683 70.9525 170.683C72.009 169.915 72.8734 168.309 72.8734 168.309C72.8734 168.309 73.6593 170.71 73.9824 172.14C74.4451 174.179 75.2484 173.932 75.2484 173.932C75.2484 173.932 75.3358 168.106 75.2484 166.755Z" fill="#FFBE9D"/>
<path d="M69.1805 171.079C69.1717 171.203 67.9493 171.203 66.4562 171.079C64.9631 170.955 63.7581 170.744 63.7756 170.62C63.7843 170.496 65.0067 170.496 66.4998 170.62C67.993 170.752 69.1979 170.955 69.1805 171.079Z" fill="#EB996E"/>
<path d="M70.2094 169.458C70.2094 169.422 70.3404 169.378 70.5499 169.413C70.7508 169.449 71.0651 169.599 71.2136 169.925C71.3707 170.252 71.2572 170.623 71.0913 170.773C70.9254 170.941 70.7682 170.932 70.7682 170.896C70.7508 170.861 70.8555 170.799 70.9429 170.649C71.0302 170.508 71.0738 170.27 70.9691 170.04C70.742 169.563 70.1919 169.528 70.2094 169.458Z" fill="#EB996E"/>
<path d="M71.6158 167.761C71.5983 167.682 72.1833 167.708 72.4365 168.308C72.6548 168.917 72.2444 169.341 72.2008 169.27C72.1397 169.235 72.3492 168.847 72.1833 168.405C72.0174 167.964 71.5983 167.832 71.6158 167.761Z" fill="#EB996E"/>
<path d="M69.1816 162.898L72.6918 156.56C73.1982 156.455 73.4689 156.596 73.5999 156.887L70.2294 163.251L69.1816 162.898Z" fill="#455A64"/>
<path d="M65.1812 170.621L63.7754 173.278V174.664L65.1812 173.693L66.7703 170.851L65.1812 170.621Z" fill="#455A64"/>
<path d="M20.9041 87.1172C20.8866 87.1348 20.6596 86.9141 20.4064 86.4198C20.1532 85.9255 19.9 85.1222 19.9349 84.1071C19.9698 83.092 20.3453 81.9091 21.07 80.7969C21.7947 79.6935 22.8775 78.6166 24.3182 78.0428C25.7502 77.4691 27.3481 77.522 28.553 78.1576C29.758 78.7755 30.5264 79.8612 30.7534 80.8587C30.9892 81.865 30.7796 82.7124 30.5438 83.2156C30.3081 83.7275 30.0636 83.9394 30.0461 83.9217C30.0112 83.8952 30.2033 83.6569 30.378 83.1449C30.5526 82.6506 30.6923 81.8473 30.4391 80.9381C30.2033 80.0378 29.4699 79.0756 28.3609 78.5371C27.2695 77.981 25.8026 77.9369 24.4841 78.4665C23.1481 78.9962 22.1178 79.9936 21.4193 81.0352C20.7033 82.0768 20.3278 83.1802 20.2492 84.1336C20.1706 85.0869 20.3627 85.8549 20.5548 86.358C20.7557 86.8435 20.9303 87.0907 20.9041 87.1172Z" fill="#263238"/>
<path d="M44.7586 114.314C44.8284 110.739 44.9507 106.979 44.9507 106.979C44.9507 106.979 49.2205 106.388 50.1897 100.412C51.1152 94.7093 50.4516 81.442 50.4516 81.442C44.3657 78.4849 37.0835 79.9944 32.6303 85.1229L32.543 114.182C32.5343 117.554 35.2061 120.317 38.5416 120.37C41.9208 120.432 44.6975 117.722 44.7586 114.314Z" fill="#FFBE9D"/>
<path d="M49.0211 91.1439C49.0298 91.55 48.7155 91.8854 48.3226 91.8942C47.9296 91.903 47.6066 91.5764 47.5978 91.1704C47.5891 90.7644 47.9034 90.4289 48.2964 90.4201C48.6893 90.4113 49.0124 90.7379 49.0211 91.1439Z" fill="#263238"/>
<path d="M50.19 90.3307C50.1027 90.4278 49.5701 89.9776 48.8017 89.9423C48.0333 89.8982 47.4657 90.3042 47.3872 90.1983C47.3435 90.1542 47.4395 89.9776 47.684 89.7923C47.9285 89.6069 48.3389 89.4392 48.8191 89.4657C49.2994 89.4921 49.6923 89.6952 49.9193 89.8982C50.1551 90.1012 50.2337 90.2866 50.19 90.3307Z" fill="#263238"/>
<path d="M40.6891 91.1439C40.6978 91.55 40.3834 91.8854 39.9905 91.8942C39.5976 91.9031 39.2745 91.5765 39.2658 91.1704C39.2571 90.7644 39.5714 90.4289 39.9643 90.4201C40.3573 90.4113 40.6803 90.7379 40.6891 91.1439Z" fill="#263238"/>
<path d="M41.7017 90.4811C41.6144 90.5782 41.0818 90.128 40.3134 90.0927C39.545 90.0486 38.9775 90.4546 38.8989 90.3487C38.8552 90.3046 38.9513 90.128 39.1958 89.9427C39.4402 89.7573 39.8506 89.5896 40.3309 89.616C40.8111 89.6425 41.204 89.8456 41.4311 90.0486C41.6668 90.2516 41.7454 90.437 41.7017 90.4811Z" fill="#263238"/>
<path d="M44.5749 97.1366C44.5749 97.0925 45.0465 97.0219 45.8236 96.9424C46.0157 96.9248 46.2078 96.8983 46.2427 96.7482C46.2951 96.5982 46.2165 96.3687 46.1205 96.1127C45.9458 95.5919 45.7624 95.0446 45.5704 94.4797C44.802 92.1493 44.2519 90.2426 44.3392 90.2073C44.4265 90.1808 45.1163 92.0434 45.8847 94.3649C46.0681 94.9387 46.2427 95.486 46.4173 96.0068C46.4872 96.2539 46.6094 96.5276 46.5046 96.8453C46.4523 97.0042 46.3038 97.1102 46.1816 97.1455C46.0593 97.1808 45.9458 97.1808 45.8498 97.1808C45.0639 97.1984 44.5837 97.1896 44.5749 97.1366Z" fill="#263238"/>
<path d="M44.9591 106.979C44.9591 106.979 41.222 107.085 37.5547 104.525C37.5547 104.525 39.2923 108.727 44.8631 108.392L44.9591 106.979Z" fill="#EB996E"/>
<path d="M44.3042 99.1765C44.2169 98.691 43.8677 98.2585 43.4136 98.0731C43.0993 97.9407 42.7238 97.9319 42.4269 98.0907C42.1301 98.2496 41.9205 98.6027 41.9729 98.9381C42.034 99.3177 42.392 99.6002 42.7675 99.6796C43.1429 99.7591 43.5271 99.6885 43.9026 99.6002C44.0074 99.5737 44.1121 99.556 44.1995 99.4943C44.2868 99.4325 44.3479 99.3265 44.3217 99.2206" fill="#EB996E"/>
<path d="M42.4021 97.1096C42.5243 97.1096 42.5156 98.01 43.2141 98.672C43.9126 99.3429 44.8033 99.2811 44.812 99.4047C44.8207 99.4577 44.6112 99.5724 44.2357 99.5636C43.869 99.5636 43.3364 99.4135 42.9085 99.0075C42.4807 98.6014 42.2973 98.063 42.2798 97.7011C42.2536 97.3215 42.3497 97.1008 42.4021 97.1096Z" fill="#263238"/>
<path d="M35.9501 80.9807C37.8624 84.4586 43.1188 88.1925 46.9346 89.1723C46.5067 88.4573 44.2015 86.6477 43.7824 85.9327C45.4764 87.5393 47.895 89.6931 50.2089 89.9314C50.4796 89.9579 50.7765 89.9756 51.0122 89.8255C51.3266 89.6225 51.4051 89.1988 51.4488 88.828C51.6496 87.248 51.6496 84.5204 51.4837 82.9403C51.3178 81.3602 50.759 79.7625 49.6239 78.6503C48.1919 77.2468 46.0789 76.8142 44.088 76.6642C42.4116 76.5406 40.6827 76.5759 39.1285 77.2115C37.5742 77.847 36.2208 79.1887 35.9414 80.8571" fill="#263238"/>
<path d="M37.2257 81.7057C37.2257 81.7057 38.9196 88.5202 34.6062 92.9868C34.6062 92.9868 34.0299 99.3865 31.0262 102.397C31.0262 102.397 29.4632 94.5933 29.4108 91.5833C29.3584 88.5732 28.0225 77.4951 37.8456 78.7927L37.2257 81.7057Z" fill="#263238"/>
<path d="M30.4831 86.5531C31.2777 84.7877 30.876 82.5809 29.6274 81.1068C28.3788 79.6326 26.3618 78.9176 24.4495 79.103C22.5373 79.2884 20.756 80.3388 19.5249 81.8218C18.5644 82.9781 17.9095 84.4523 17.9619 85.9617C18.0318 87.992 19.4376 89.8633 21.2799 90.6842C23.1223 91.5052 25.3052 91.3639 27.1389 90.5342C28.9725 89.6956 30.4744 88.2215 31.5746 86.5178" fill="#263238"/>
<path d="M23.6982 81.7319L20.8691 76.1178V75.0762L21.8209 75.5882L24.7111 81.2464L23.6982 81.7319Z" fill="#E8505B"/>
<path d="M25.6991 81.2211C25.6729 81.1417 25.6991 74.539 25.6991 74.539C25.6991 74.539 25.8301 74.0094 26.3278 74.0623C26.8255 74.1153 26.8517 74.5655 26.8517 74.5655V81.3536L25.6991 81.2211Z" fill="#E8505B"/>
<path opacity="0.3" d="M25.6991 81.2211C25.6729 81.1417 25.6991 74.539 25.6991 74.539C25.6991 74.539 25.8301 74.0094 26.3278 74.0623C26.8255 74.1153 26.8517 74.5655 26.8517 74.5655V81.3536L25.6991 81.2211Z" fill="black"/>
<path d="M25.996 81.2567L25.9785 74.5039H26.4064V81.3008L25.996 81.2567Z" fill="#E8505B"/>
<path d="M25.6973 74.5295L26.8498 74.556C26.8498 74.556 26.7975 74.0176 26.3259 74.0176C25.9156 74.0176 25.7759 74.2912 25.6973 74.5295Z" fill="#455A64"/>
<path d="M20.8691 76.1171C20.8691 76.1171 21.0612 76.223 21.2271 76.1524C21.3843 76.0818 21.393 75.8611 21.393 75.8611C21.393 75.8611 21.6899 75.9494 21.8034 75.8611C21.9169 75.7728 21.8296 75.5963 21.8296 75.5963L21.1573 75.2344L20.8691 75.3933V76.1171Z" fill="#455A64"/>
<path d="M29.5668 83.3742C29.5843 83.3653 29.7939 83.7184 29.986 84.4158C30.1606 85.1131 30.3178 86.1989 30.0471 87.4876C29.7939 88.7676 29.0167 90.2594 27.6197 91.3186C26.2575 92.3867 24.2143 92.9605 22.2584 92.4044C21.2892 92.1484 20.3986 91.6541 19.6913 91.0097C18.9841 90.3653 18.4776 89.562 18.172 88.7411C17.5433 87.0904 17.7267 85.3868 18.2943 84.2039C18.8531 83.0034 19.6127 82.2443 20.1366 81.7588C20.678 81.2821 21.0185 81.0791 21.036 81.0968C21.0622 81.1232 20.7479 81.3792 20.2589 81.8912C19.7786 82.4032 19.0801 83.18 18.5911 84.3363C18.0934 85.475 17.9537 87.0551 18.5649 88.591C19.1412 90.127 20.547 91.4952 22.3807 91.963C24.2056 92.475 26.0829 91.963 27.3752 90.9744C28.7024 89.9945 29.4533 88.6263 29.7327 87.4082C30.0296 86.1812 29.9336 85.1396 29.8113 84.4511C29.6716 83.7537 29.5232 83.383 29.5668 83.3742Z" fill="#263238"/>
<path d="M42.7697 86.261C42.8308 86.2699 42.6125 86.826 41.8092 87.0467C41.425 87.1526 40.9186 87.1438 40.4296 86.9496C39.9406 86.7642 39.4691 86.4376 39.0325 86.058C38.1506 85.2812 37.5831 84.3632 37.2862 83.6659C36.9806 82.9685 36.9195 82.4918 36.9719 82.4742C37.0941 82.4124 37.6529 84.2396 39.3294 85.7049C40.1327 86.4552 41.0583 86.8613 41.7394 86.7201C42.4379 86.623 42.7173 86.2169 42.7697 86.261Z" fill="#263238"/>
<path d="M34.7375 92.8993C34.1437 92.7669 33.5238 92.7669 32.9475 92.9611C32.3799 93.1641 31.8648 93.5702 31.6116 94.1263C31.3496 94.6824 31.3583 95.3356 31.5504 95.9182C31.7425 96.5008 32.1005 97.0128 32.5196 97.4541C32.8165 97.7719 33.1658 98.0632 33.5762 98.2044C33.9866 98.3457 34.4755 98.3192 34.8161 98.0455" fill="#FFBE9D"/>
<path d="M34.3106 96.5174C34.3805 96.5438 34.1098 96.8969 33.5684 96.738C33.3065 96.6586 33.062 96.4203 32.9136 96.129C32.7651 95.8288 32.6778 95.5022 32.6429 95.1227C32.6167 94.7519 32.7127 94.3547 32.9223 94.0722C33.1231 93.7897 33.4462 93.6309 33.7169 93.6309C34.2757 93.6309 34.4329 94.0281 34.3718 94.0369C34.3281 94.0811 34.1185 93.878 33.7518 93.9486C33.4026 94.0016 33.0445 94.4783 33.1057 95.0873C33.1581 95.7053 33.3764 96.279 33.6907 96.4291C34.0312 96.6233 34.2757 96.4732 34.3106 96.5174Z" fill="#EB996E"/>
<path d="M32.3786 97.6842C32.4397 97.7283 32.1254 98.0638 32.1079 98.6905C32.0992 98.9995 32.2127 99.3525 32.4834 99.635C32.7453 99.9175 33.1645 100.085 33.5923 99.9704C34.0202 99.8733 34.3083 99.5291 34.3956 99.1495C34.4829 98.7699 34.3956 98.3992 34.2472 98.1256C33.9416 97.5783 33.5399 97.3664 33.5836 97.3046C33.5923 97.2605 34.0726 97.3488 34.5179 97.949C34.7362 98.2491 34.8933 98.717 34.7973 99.229C34.7274 99.7409 34.2908 100.279 33.6971 100.412C33.1121 100.571 32.4921 100.315 32.1691 99.9175C31.8285 99.5291 31.7325 99.0348 31.7849 98.664C31.9071 97.8961 32.3611 97.6401 32.3786 97.6842Z" fill="#E8505B"/>
<path d="M28.8607 88.2644C28.7559 88.3173 28.232 87.0109 28.5725 85.3602C28.8956 83.7095 29.8823 82.7121 29.9609 82.8003C30.0744 82.8798 29.3147 83.9302 29.0266 85.4485C28.7035 86.9668 28.9917 88.229 28.8607 88.2644Z" fill="#263238"/>
<path d="M43.2734 176.5L44.2514 175.494H68.4206L69.1803 176.624L43.2734 176.5Z" fill="#455A64"/>
<path d="M138.49 178.822L169.226 322.087H172.814L141.677 178.822H138.49Z" fill="#263238"/>
<path d="M170.02 178.822L138.49 322.087H141.573L172.814 178.822H170.02Z" fill="#263238"/>
<path d="M140.814 139.276L128.215 176.501H71.1445L71.5724 174.585L94.6414 173.861L105.277 139.25L140.814 139.276Z" fill="#263238"/>
<path d="M115.529 156.763C115.153 158.29 115.799 159.782 116.969 160.099C118.139 160.417 119.397 159.437 119.781 157.91C120.156 156.383 119.51 154.891 118.34 154.573C117.161 154.256 115.904 155.236 115.529 156.763Z" fill="white"/>
<path d="M118.025 164.752L119.204 167.85L130.878 162.183L129.769 159.076L118.025 164.752Z" fill="white"/>
<path d="M118.941 165.033L119.71 166.755L130.022 161.882L129.454 159.764L118.941 165.033Z" fill="#455A64"/>
<path d="M130.18 147.636C130.18 149.711 128.521 151.388 126.469 151.388C124.417 151.388 122.758 149.711 122.758 147.636C122.758 145.562 124.417 143.885 126.469 143.885C128.512 143.885 130.18 145.562 130.18 147.636Z" fill="white"/>
<path d="M125.823 144.626C124.513 144.952 123.544 146.294 123.587 147.653C123.631 149.013 124.635 150.275 125.927 150.655C126.512 150.831 127.176 150.831 127.726 150.558C128.285 150.284 128.687 149.754 128.966 149.189C129.342 148.43 129.534 147.548 129.342 146.727C129.132 145.826 128.468 145.049 127.613 144.723C126.757 144.396 125.744 144.52 125.002 145.049" fill="#E8505B"/>
<path d="M104.962 163.507L108.524 161.918L110.995 163.886L109.196 168.3L104.621 166.437L104.962 163.507Z" fill="white"/>
<path d="M105.276 163.842L108.419 162.359L110.445 164.081L108.952 167.744L105.066 166.252L105.276 163.842Z" fill="#E8505B"/>
<path d="M187.825 176.5H-61.5684V178.936H187.825V176.5Z" fill="#263238"/>
<path d="M156.782 158.978C154.067 156.109 152.416 152.243 152.207 148.279C152.111 146.381 152.39 144.316 153.674 142.921C155.315 141.129 158.45 141.076 160.153 142.798C161.89 144.563 161.908 147.396 161.471 149.842C160.816 153.478 159 156.171 156.948 159.234" fill="#77AF44"/>
<path d="M160.776 158.934C161.439 156.056 163.159 153.435 165.526 151.696C166.661 150.857 168.049 150.204 169.429 150.442C171.201 150.751 172.511 152.711 172.136 154.485C171.751 156.295 170.005 157.46 168.32 158.184C165.805 159.252 163.404 159.199 160.68 159.146" fill="#77AF44"/>
<path d="M156.784 166.965C156.662 166.965 156.636 163.258 156.723 158.685C156.819 154.113 156.994 150.405 157.116 150.414C157.238 150.414 157.265 154.121 157.177 158.694C157.09 163.266 156.907 166.965 156.784 166.965Z" fill="#263238"/>
<path d="M168.765 154.024C168.8 154.077 168.171 154.554 167.124 155.269C166.076 155.984 164.6 156.92 162.932 157.9C161.265 158.879 159.719 159.7 158.584 160.274C157.449 160.839 156.733 161.148 156.698 161.095C156.672 161.033 157.335 160.627 158.427 159.992C159.667 159.268 161.107 158.429 162.697 157.511C164.277 156.575 165.709 155.728 166.949 155.004C168.049 154.351 168.73 153.971 168.765 154.024Z" fill="#263238"/>
<path d="M148.943 165.607L165.499 166.446L163.857 176.615H150.585L148.943 165.607Z" fill="#455A64"/>
<path d="M156.985 163.514C156.95 163.629 155.379 163.294 153.554 162.526C151.729 161.758 150.384 160.866 150.445 160.76C150.506 160.646 151.93 161.352 153.728 162.102C155.527 162.861 157.02 163.391 156.985 163.514Z" fill="#263238"/>
</g>
<defs>
<clipPath id="clip0_588_21116">
<rect width="188" height="273" rx="10" fill="white"/>
</clipPath>
</defs>
</svg>
