<svg width="25" height="25" viewBox="0 0 25 25" fill="none" xmlns="http://www.w3.org/2000/svg">
<path d="M14.2665 21.9637C14.0572 22.7372 13.2667 22.9173 12.4993 22.9173C11.7321 22.9173 10.9415 22.7372 10.7323 21.9637C10.4212 20.8069 9.89518 17.9083 9.89518 16.5595C9.89518 15.129 11.1624 14.7793 12.4993 14.7793C13.8363 14.7793 15.1035 15.129 15.1035 16.5595C15.1035 17.9002 14.5798 20.7985 14.2665 21.9637ZM9.7677 13.8253C9.00708 13.0803 8.54871 12.0279 8.59648 10.8712C8.68005 8.84794 10.3215 7.2109 12.345 7.13257C14.5689 7.04647 16.4056 8.83069 16.4056 11.0358C16.4056 12.1274 15.9554 13.1157 15.231 13.8252C15.1222 13.9318 15.1333 14.1095 15.2566 14.199C15.6355 14.4743 15.9264 14.8233 16.1206 15.231C16.1914 15.3797 16.385 15.4207 16.5051 15.308C17.678 14.2076 18.3993 12.6313 18.3569 10.8905C18.2815 7.78963 15.7692 5.26676 12.6687 5.17883C9.36088 5.085 6.63997 7.74866 6.63997 11.0358C6.63997 12.7188 7.35335 14.2381 8.49341 15.3078C8.61357 15.4206 8.80717 15.3798 8.87805 15.231C9.07231 14.8233 9.3632 14.4743 9.74211 14.199C9.86536 14.1095 9.87655 13.9318 9.7677 13.8253V13.8253ZM12.4993 2.08398C7.46208 2.08398 3.38477 6.16052 3.38477 11.1986C3.38477 14.8604 5.52515 17.9388 8.5011 19.3939C8.67741 19.4801 8.87817 19.3311 8.84839 19.1371C8.75146 18.5059 8.67171 17.8779 8.62842 17.333C8.62248 17.2583 8.58166 17.1911 8.51945 17.1494C6.59074 15.8552 5.32267 13.6494 5.33801 11.1538C5.3621 7.23791 8.56433 4.04736 12.4803 4.03715C16.4379 4.02681 19.6608 7.24337 19.6608 11.1986C19.6608 13.7186 18.3523 15.9386 16.3791 17.2153C16.3385 17.7865 16.2543 18.4599 16.1503 19.1371C16.1205 19.3311 16.3213 19.4801 16.4976 19.3938C19.4666 17.942 21.6139 14.8683 21.6139 11.1986C21.6139 6.16134 17.5374 2.08398 12.4993 2.08398ZM12.4993 8.5944C11.0611 8.5944 9.89518 9.76034 9.89518 11.1986C9.89518 12.6368 11.0611 13.8027 12.4993 13.8027C13.9376 13.8027 15.1035 12.6368 15.1035 11.1986C15.1035 9.76034 13.9376 8.5944 12.4993 8.5944Z" fill="#838383"/>
</svg>
