<svg width="19" height="21" viewBox="0 0 19 21" fill="none" xmlns="http://www.w3.org/2000/svg">
<path d="M11.2665 19.9637C11.0572 20.7372 10.2667 20.9173 9.4993 20.9173C8.7321 20.9173 7.9415 20.7372 7.7323 19.9637C7.4212 18.8069 6.89518 15.9083 6.89518 14.5595C6.89518 13.129 8.1624 12.7793 9.4993 12.7793C10.8363 12.7793 12.1035 13.129 12.1035 14.5595C12.1035 15.9002 11.5798 18.7985 11.2665 19.9637ZM6.7677 11.8253C6.00708 11.0803 5.54871 10.0279 5.59648 8.8712C5.68005 6.84794 7.3215 5.2109 9.345 5.13257C11.5689 5.04647 13.4056 6.83069 13.4056 9.0358C13.4056 10.1274 12.9554 11.1157 12.231 11.8252C12.1222 11.9318 12.1333 12.1095 12.2566 12.199C12.6355 12.4743 12.9264 12.8233 13.1206 13.231C13.1914 13.3797 13.385 13.4207 13.5051 13.308C14.678 12.2076 15.3993 10.6313 15.3569 8.8905C15.2815 5.78963 12.7692 3.26676 9.6687 3.17883C6.36088 3.085 3.63997 5.74866 3.63997 9.0358C3.63997 10.7188 4.35335 12.2381 5.49341 13.3078C5.61357 13.4206 5.80717 13.3798 5.87805 13.231C6.07231 12.8233 6.3632 12.4743 6.74211 12.199C6.86536 12.1095 6.87655 11.9318 6.7677 11.8253ZM9.4993 0.0839844C4.46208 0.0839844 0.384766 4.16052 0.384766 9.1986C0.384766 12.8604 2.52515 15.9388 5.5011 17.3939C5.67741 17.4801 5.87817 17.3311 5.84839 17.1371C5.75146 16.5059 5.67171 15.8779 5.62842 15.333C5.62248 15.2583 5.58166 15.1911 5.51945 15.1494C3.59074 13.8552 2.32267 11.6494 2.33801 9.1538C2.3621 5.23791 5.56433 2.04736 9.4803 2.03715C13.4379 2.02681 16.6608 5.24337 16.6608 9.1986C16.6608 11.7186 15.3523 13.9386 13.3791 15.2153C13.3385 15.7865 13.2543 16.4599 13.1503 17.1371C13.1205 17.3311 13.3213 17.4801 13.4976 17.3938C16.4666 15.942 18.6139 12.8683 18.6139 9.1986C18.6139 4.16134 14.5374 0.0839844 9.4993 0.0839844ZM9.4993 6.5944C8.0611 6.5944 6.89518 7.76034 6.89518 9.1986C6.89518 10.6368 8.0611 11.8027 9.4993 11.8027C10.9376 11.8027 12.1035 10.6368 12.1035 9.1986C12.1035 7.76034 10.9376 6.5944 9.4993 6.5944Z" fill="#6646E7"/>
</svg>
