<svg width="20" height="20" viewBox="0 0 20 20" fill="none" xmlns="http://www.w3.org/2000/svg">
<path d="M9.99995 4.375C10.4326 4.375 10.8555 4.24671 11.2153 4.00634C11.575 3.76598 11.8554 3.42433 12.0209 3.02462C12.1865 2.62491 12.2298 2.18507 12.1454 1.76074C12.061 1.33641 11.8527 0.946632 11.5467 0.640705C11.2408 0.334778 10.851 0.126438 10.4267 0.0420332C10.0024 -0.042372 9.56255 0.000947833 9.16283 0.166515C8.76312 0.332081 8.42148 0.612459 8.18111 0.972191C7.94075 1.33192 7.81245 1.75485 7.81245 2.1875C7.81245 2.76766 8.04292 3.32406 8.45316 3.7343C8.86339 4.14453 9.41979 4.375 9.99995 4.375V4.375ZM16.875 17.5H3.12495C2.95919 17.5 2.80022 17.5658 2.68301 17.6831C2.5658 17.8003 2.49995 17.9592 2.49995 18.125V19.375C2.49995 19.5408 2.5658 19.6997 2.68301 19.8169C2.80022 19.9342 2.95919 20 3.12495 20H16.875C17.0407 20 17.1997 19.9342 17.3169 19.8169C17.4341 19.6997 17.5 19.5408 17.5 19.375V18.125C17.5 17.9592 17.4341 17.8003 17.3169 17.6831C17.1997 17.5658 17.0407 17.5 16.875 17.5ZM19.7214 7.19375L18.6078 6.57188C18.3171 6.37656 17.9472 6.47578 17.7371 6.75469C17.5277 7.03495 17.2435 7.25045 16.9171 7.37642C16.5908 7.50239 16.2355 7.53372 15.8921 7.4668C14.9882 7.29922 14.375 6.44258 14.375 5.52344C14.375 5.38461 14.3198 5.25148 14.2216 5.15331C14.1235 5.05515 13.9903 5 13.8515 5H12.3371C12.1027 5 11.8835 5.15625 11.8347 5.38711C11.7461 5.80807 11.5154 6.18575 11.1813 6.45679C10.8473 6.72784 10.4301 6.87577 9.99995 6.87577C9.56976 6.87577 9.15265 6.72784 8.81859 6.45679C8.48453 6.18575 8.25383 5.80807 8.16519 5.38711C8.11636 5.15586 7.89878 5 7.66284 5H6.14839C6.00956 5 5.87643 5.05515 5.77826 5.15331C5.6801 5.25148 5.62495 5.38461 5.62495 5.52344C5.62495 6.52695 4.88276 7.42774 3.88003 7.4957C3.56846 7.51767 3.25638 7.46063 2.97273 7.32986C2.68907 7.1991 2.44302 6.99884 2.25737 6.74766C2.05112 6.4707 1.68198 6.37852 1.39448 6.57031L0.278467 7.19531C0.151671 7.27979 0.0600991 7.40767 0.020967 7.55492C-0.0181651 7.70217 -0.00216224 7.85864 0.0659672 7.99492L4.07183 16.25H15.9281L19.9339 7.99336C20.0021 7.85708 20.0181 7.70061 19.9789 7.55336C19.9398 7.40611 19.8482 7.27823 19.7214 7.19375V7.19375Z" fill="#6646E7"/>
</svg>
