<svg width="24" height="24" viewBox="0 0 24 24" fill="none" xmlns="http://www.w3.org/2000/svg">
<path d="M12 6.375C12.4326 6.375 12.8555 6.24671 13.2153 6.00634C13.575 5.76598 13.8554 5.42433 14.0209 5.02462C14.1865 4.62491 14.2298 4.18507 14.1454 3.76074C14.061 3.33641 13.8527 2.94663 13.5467 2.6407C13.2408 2.33478 12.851 2.12644 12.4267 2.04203C12.0024 1.95763 11.5625 2.00095 11.1628 2.16651C10.7631 2.33208 10.4215 2.61246 10.1811 2.97219C9.94075 3.33192 9.81245 3.75485 9.81245 4.1875C9.81245 4.76766 10.0429 5.32406 10.4532 5.7343C10.8634 6.14453 11.4198 6.375 12 6.375ZM18.875 19.5H5.12495C4.95919 19.5 4.80022 19.5658 4.68301 19.6831C4.5658 19.8003 4.49995 19.9592 4.49995 20.125V21.375C4.49995 21.5408 4.5658 21.6997 4.68301 21.8169C4.80022 21.9342 4.95919 22 5.12495 22H18.875C19.0407 22 19.1997 21.9342 19.3169 21.8169C19.4341 21.6997 19.5 21.5408 19.5 21.375V20.125C19.5 19.9592 19.4341 19.8003 19.3169 19.6831C19.1997 19.5658 19.0407 19.5 18.875 19.5ZM21.7214 9.19375L20.6078 8.57188C20.3171 8.37656 19.9472 8.47578 19.7371 8.75469C19.5277 9.03495 19.2435 9.25045 18.9171 9.37642C18.5908 9.50239 18.2355 9.53372 17.8921 9.4668C16.9882 9.29922 16.375 8.44258 16.375 7.52344C16.375 7.38461 16.3198 7.25148 16.2216 7.15331C16.1235 7.05515 15.9903 7 15.8515 7H14.3371C14.1027 7 13.8835 7.15625 13.8347 7.38711C13.7461 7.80807 13.5154 8.18575 13.1813 8.45679C12.8473 8.72784 12.4301 8.87577 12 8.87577C11.5698 8.87577 11.1527 8.72784 10.8186 8.45679C10.4845 8.18575 10.2538 7.80807 10.1652 7.38711C10.1164 7.15586 9.89878 7 9.66284 7H8.14839C8.00956 7 7.87643 7.05515 7.77826 7.15331C7.6801 7.25148 7.62495 7.38461 7.62495 7.52344C7.62495 8.52695 6.88276 9.42774 5.88003 9.4957C5.56846 9.51767 5.25638 9.46063 4.97273 9.32986C4.68907 9.1991 4.44302 8.99884 4.25737 8.74766C4.05112 8.4707 3.68198 8.37852 3.39448 8.57031L2.27847 9.19531C2.15167 9.27979 2.0601 9.40767 2.02097 9.55492C1.98183 9.70217 1.99784 9.85864 2.06597 9.99492L6.07183 18.25H17.9281L21.9339 9.99336C22.0021 9.85708 22.0181 9.70061 21.9789 9.55336C21.9398 9.40611 21.8482 9.27823 21.7214 9.19375Z" fill="#838383"/>
</svg>
