<svg width="210" height="204" viewBox="0 0 210 204" fill="none" xmlns="http://www.w3.org/2000/svg">
<path d="M188.919 25.5434L153.053 25.592C142.007 25.607 133.066 34.5734 133.083 45.6191L133.102 58.3166C133.118 69.3623 142.086 78.3045 153.132 78.2895L188.998 78.2409C200.044 78.2259 208.985 69.2595 208.968 58.2138L208.949 45.5163C208.933 34.4706 199.965 25.5284 188.919 25.5434Z" fill="white" stroke="black" stroke-miterlimit="10"/>
<path d="M6.53711 69.3153C7.00895 60.0469 18.1973 36.4257 44.2889 44.8997C80.5764 56.6849 39.9555 149.769 83.906 154.796C126.973 159.722 132.481 123.337 136.236 107.211H145.37C145.584 123.496 138.155 170.208 84.2398 165.919C26.3033 161.309 68.5066 66.0062 40.5899 55.0155C29.3748 50.6005 18.1974 58.0513 16.9933 69.6839" fill="#FEBE16"/>
<path d="M6.53711 69.3153C7.00895 60.0469 18.1973 36.4257 44.2889 44.8997C80.5764 56.6849 39.9555 149.769 83.906 154.796C126.973 159.722 132.481 123.337 136.236 107.211H145.37C145.584 123.496 138.155 170.208 84.2398 165.919C26.3033 161.309 68.5066 66.0062 40.5899 55.0155C29.3748 50.6005 18.1974 58.0513 16.9933 69.6839" stroke="black" stroke-miterlimit="10" stroke-linecap="round" stroke-linejoin="round"/>
<path d="M82.3651 56.3063C83.7985 56.2872 87.4152 57.7765 89.1891 56.4249C90.9629 55.0733 89.7744 53.1667 89.9191 51.3999C90.1817 48.1819 87.502 42.6992 82.8281 42.6992C77.3151 42.6992 76.8231 46.7519 75.1205 46.7519C72.946 46.7519 67.8003 53.8616 71.5283 56.5224C73.8697 58.1939 74.6799 54.6751 76.3981 56.1241C78.232 57.677 80.8717 56.3275 82.3651 56.3063Z" fill="black" stroke="black" stroke-miterlimit="10" stroke-linecap="round" stroke-linejoin="round"/>
<path d="M175.743 63.9143C181.021 63.9143 185.3 59.8416 185.3 54.8175C185.3 49.7935 181.021 45.7207 175.743 45.7207C170.464 45.7207 166.186 49.7935 166.186 54.8175C166.186 59.8416 170.464 63.9143 175.743 63.9143Z" fill="#FEBE16" stroke="black" stroke-miterlimit="10" stroke-linecap="round" stroke-linejoin="round"/>
<path d="M70.0501 93.3065L94.922 94.2598L93.5021 71.1429L98.4253 73.8715L104.212 64.8149C104.212 64.8149 92.249 57.6777 82.692 57.6777C82.692 57.6777 80.9805 58.5124 79.6451 57.6777C73.5111 58.7116 69.3803 61.4105 59.8633 70.5476C65.788 76.6255 68.501 79.2864 68.501 79.2864L71.1296 76.8628L70.0501 93.3065Z" fill="#6646E7" stroke="black" stroke-miterlimit="10" stroke-linecap="round" stroke-linejoin="round"/>
<path d="M59.8655 70.5474L55.0246 75.5915L31.2366 60.8955C31.2366 60.8955 29.0666 56.9233 27.8981 57.1225C26.7296 57.3216 27.8981 60.8171 27.8981 60.8171C27.8981 60.8171 19.3025 57.2814 18.6348 58.83C18.0562 60.1731 24.5596 61.6899 24.5596 61.6899C24.5596 61.6899 16.5049 59.2071 16.0931 61.0247C15.7081 62.728 24.3081 64.0732 24.3081 64.0732C24.3081 64.0732 14.9759 62.4505 14.7311 64.2131C14.4596 66.16 22.8058 65.5032 22.8058 65.5032C22.8058 65.5032 16.4426 66.9142 16.6495 68.5412C16.8142 69.8292 22.8881 67.9649 25.8105 69.5538C28.7328 71.1426 55.7725 90.6857 55.7725 90.6857L68.5011 79.2861L59.8655 70.5474Z" fill="white" stroke="black" stroke-miterlimit="10" stroke-linecap="round" stroke-linejoin="round"/>
<path d="M70.053 93.3086L43.0957 126.993L18.1992 144.885L34.0193 162.469L60.5382 144.47L73.002 127.84L73.5584 137.479L60.6073 173.345L85.3434 176.169L100.6 140.021L94.9249 94.2619L70.053 93.3086Z" fill="#1D1D1D" stroke="black" stroke-miterlimit="10" stroke-linecap="round" stroke-linejoin="round"/>
<path d="M82.9043 115.764L73 127.839" stroke="black" stroke-miterlimit="10" stroke-linecap="round" stroke-linejoin="round"/>
<path d="M20.1741 147.082C18.5954 145.327 15.971 144.99 14.0001 146.288C11.7291 147.785 11.1661 150.874 12.7633 153.076L22.3205 166.25C23.7566 168.229 26.3068 169.055 28.6305 168.292C32.4937 167.024 33.7788 162.204 31.0594 159.181L20.1741 147.082Z" fill="#77AF44" stroke="black" stroke-miterlimit="10" stroke-linecap="round" stroke-linejoin="round"/>
<path d="M14.8113 155.897C12.5949 152.841 8.31806 152.167 5.26933 154.393C2.32214 156.545 1.59079 160.635 3.60976 163.675L10.4484 173.971C13.1227 177.997 19.2587 177.181 20.788 172.596L21.2197 171.301C21.3861 170.802 21.7278 170.381 22.1815 170.115C23.2879 169.466 23.5941 168.005 22.8411 166.967L14.8113 155.897Z" fill="white" stroke="black" stroke-miterlimit="10" stroke-linecap="round" stroke-linejoin="round"/>
<path d="M58.2985 175.846C58.7645 174.298 60.272 173.305 61.8784 173.489L80.457 175.611C83.9513 176.01 86.1023 179.631 84.7814 182.89C83.7258 185.495 80.8248 186.829 78.1603 185.933L60.4346 179.978C58.7239 179.403 57.7783 177.574 58.2985 175.846Z" fill="#77AF44" stroke="black" stroke-miterlimit="10" stroke-linecap="round" stroke-linejoin="round"/>
<path d="M55.992 185.636C57.379 182.098 61.2967 180.27 64.8985 181.48L77.0339 185.557C79.1097 186.254 80.1938 188.533 79.4247 190.584L79.3208 190.861C78.8586 192.093 79.1483 193.481 80.0648 194.425C82.5198 196.955 79.9809 201.089 76.6145 200.044L60.5149 195.046C56.5603 193.818 54.4803 189.491 55.992 185.636Z" fill="white" stroke="black" stroke-miterlimit="10" stroke-linecap="round" stroke-linejoin="round"/>
<path d="M136.238 107.209L141.057 93.5L145.372 107.209H136.238Z" fill="white" stroke="black" stroke-miterlimit="10" stroke-linecap="round" stroke-linejoin="round"/>
<path d="M139.352 98.2708L140.215 98.6564L141.05 97.9149L141.606 98.6564L142.545 98.2306L141.056 93.5L139.352 98.2708Z" fill="black" stroke="black" stroke-miterlimit="10" stroke-linecap="round" stroke-linejoin="round"/>
<path d="M152.131 121.801L162.026 79.1133" stroke="black" stroke-miterlimit="10" stroke-linecap="round" stroke-linejoin="round"/>
<path d="M79.0965 123L81.9833 138.387L71.0137 167.513" stroke="white"/>
<path d="M178.721 77.5762L190.072 121.8" stroke="black" stroke-miterlimit="10" stroke-linecap="round" stroke-linejoin="round"/>
<path d="M174.898 58.1544L190.516 47.3168C194.645 44.4516 200.139 44.529 204.186 47.5094C207.188 49.7208 208.963 53.2259 208.969 56.955L208.974 60.1422C208.988 70.1228 200.909 78.2252 190.928 78.2386L149.914 78.2935C140.646 78.306 133.122 70.8034 133.108 61.5351C133.1 56.185 135.644 51.1515 139.955 47.984L140.59 47.5177C147.437 42.4882 156.841 42.8198 163.316 48.319L185.506 67.1643" fill="#A7A5A5"/>
<path d="M174.898 58.1544L190.516 47.3168C194.645 44.4516 200.139 44.529 204.186 47.5094V47.5094C207.188 49.7208 208.963 53.2259 208.969 56.955L208.974 60.1422C208.988 70.1228 200.909 78.2252 190.928 78.2386L149.914 78.2935C140.646 78.306 133.122 70.8034 133.108 61.5351V61.5351C133.1 56.185 135.644 51.1515 139.955 47.984L140.59 47.5177C147.437 42.4882 156.841 42.8198 163.316 48.319L185.506 67.1643" stroke="black" stroke-miterlimit="10" stroke-linecap="round" stroke-linejoin="round"/>
<path d="M27.7109 147.728L51.9595 131.792L66.9705 110.359" stroke="white"/>
<path d="M165.306 44.2937L162.809 41.207" stroke="black" stroke-miterlimit="10" stroke-linecap="round" stroke-linejoin="round"/>
<path d="M171.757 41.8275L170.727 38.0566" stroke="black" stroke-miterlimit="10" stroke-linecap="round" stroke-linejoin="round"/>
<path d="M178.428 41.899L179.592 38.1641" stroke="black" stroke-miterlimit="10" stroke-linecap="round" stroke-linejoin="round"/>
<path d="M184.729 44.4255L187.522 41.5762" stroke="black" stroke-miterlimit="10" stroke-linecap="round" stroke-linejoin="round"/>
<path d="M14.3254 14.242C16.8145 14.242 18.8323 12.3213 18.8323 9.95206C18.8323 7.58278 16.8145 5.66211 14.3254 5.66211C11.8362 5.66211 9.81836 7.58278 9.81836 9.95206C9.81836 12.3213 11.8362 14.242 14.3254 14.242Z" fill="white" stroke="black" stroke-miterlimit="10" stroke-linecap="round" stroke-linejoin="round"/>
<path d="M49.3231 25.1508C56.3295 25.1508 62.0094 19.7445 62.0094 13.0754C62.0094 6.40634 56.3295 1 49.3231 1C42.3166 1 36.6367 6.40634 36.6367 13.0754C36.6367 19.7445 42.3166 25.1508 49.3231 25.1508Z" fill="#77AF44" stroke="black" stroke-miterlimit="10" stroke-linecap="round" stroke-linejoin="round"/>
<path d="M59.3111 5.45232C63.0169 5.08158 65.6788 5.6218 66.3821 7.15559C67.7465 10.1321 61.2141 15.7164 51.7906 19.6293C42.3671 23.5421 33.6224 24.3027 32.2581 21.3283C31.4858 19.642 33.2462 17.1189 36.6337 14.5364" stroke="black" stroke-miterlimit="10" stroke-linecap="round" stroke-linejoin="round"/>
<path d="M79.6501 54.4576C80.0952 55.1419 79.6501 57.6756 79.6501 57.6756C79.6501 57.6756 80.449 58.0972 81.0477 58.0442C81.6464 57.9913 82.2362 57.6756 82.2362 57.6756V54.3792C82.2362 54.3792 86.5563 52.4133 84.9805 50.5172C83.7274 49.0089 80.4824 51.3604 79.7323 51.5998C78.9823 51.8392 77.7493 51.0214 77.3397 51.8243C76.8545 52.7755 79.176 53.7288 79.6501 54.4576Z" fill="white" stroke="black" stroke-miterlimit="10" stroke-linecap="round" stroke-linejoin="round"/>
<path d="M132.204 152.045C135.769 152.045 138.659 149.294 138.659 145.901C138.659 142.508 135.769 139.758 132.204 139.758C128.64 139.758 125.75 142.508 125.75 145.901C125.75 149.294 128.64 152.045 132.204 152.045Z" fill="white" stroke="black" stroke-miterlimit="10" stroke-linecap="round" stroke-linejoin="round"/>
<path d="M104.214 64.8139L116.413 72.5718C116.413 72.5718 134.691 62.3628 135.61 61.2506C136.529 60.1384 137.78 57.0793 138.824 57.1195C139.868 57.1598 138.824 61.1701 138.824 61.1701C138.824 61.1701 147.419 58.469 148.421 60.2168C146.627 60.7337 142.162 62.0831 142.162 62.0831C142.162 62.0831 149.756 59.8587 150.718 61.1701C151.679 62.4814 142.287 64.2673 142.287 64.2673C142.287 64.2673 151.092 61.7654 151.926 63.5915C152.761 65.4177 143.829 65.8562 143.829 65.8562C143.829 65.8562 151.341 65.4982 151.216 66.532C151.092 67.5658 138.112 67.5256 117.206 84.6049C113.366 82.4207 98.4277 73.8662 98.4277 73.8662L104.214 64.8139Z" fill="white" stroke="black" stroke-miterlimit="10" stroke-linecap="round" stroke-linejoin="round"/>
<path d="M16.9942 69.6811C15.0957 84.5572 31.4945 101.111 68.5075 113.165C117.292 129.054 122.801 164.645 133.985 192.768C134.565 194.227 123.994 196.539 123.635 195.628C107.11 153.681 96.4264 134.736 66.0704 124.05C9.46923 104.126 5.06234 78.3161 6.53573 69.3125" fill="#FEBE16"/>
<path d="M16.9942 69.6811C15.0957 84.5572 31.4945 101.111 68.5074 113.165C117.292 129.054 122.801 164.645 133.985 192.768C134.565 194.227 123.994 196.539 123.635 195.628C107.11 153.681 96.4264 134.736 66.0704 124.05C9.46923 104.126 5.06234 78.3161 6.53573 69.3125" stroke="black" stroke-miterlimit="10" stroke-linecap="round" stroke-linejoin="round"/>
</svg>
