<svg width="81" height="108" viewBox="0 0 81 108" fill="none" xmlns="http://www.w3.org/2000/svg">
<rect x="0.193359" y="4.16797" width="79.9978" height="102.321" fill="url(#paint0_linear_686_12285)"/>
<ellipse cx="40.1922" cy="4.16881" rx="39.9989" ry="3.88561" fill="url(#paint1_linear_686_12285)"/>
<ellipse cx="40.1922" cy="4.16881" rx="39.9989" ry="3.88561" fill="#FBD87C"/>
<rect x="37.3359" y="8.05469" width="1.42853" height="99.7306" fill="url(#paint2_linear_686_12285)"/>
<path d="M27.3359 7.86719H28.7645V107.784H27.3359V7.86719Z" fill="url(#paint3_linear_686_12285)"/>
<path d="M17.3359 7.30664L18.7645 7.40783V107.786H17.3359V7.30664Z" fill="url(#paint4_linear_686_12285)"/>
<path d="M7.33594 6.38477L8.76447 6.5669V106.489H7.33594V6.38477Z" fill="url(#paint5_linear_686_12285)"/>
<path d="M47.3359 7.98268L48.7645 7.94727V107.784H47.3359V7.98268Z" fill="url(#paint6_linear_686_12285)"/>
<path d="M57.3359 7.61719H58.7645V107.786H57.3359V7.61719Z" fill="url(#paint7_linear_686_12285)"/>
<path d="M67.3359 6.97985L68.7645 6.75977V107.785H67.3359V6.97985Z" fill="url(#paint8_linear_686_12285)"/>
<path d="M77.3359 5.46435L78.7645 5.22656V107.785H77.3359L77.3359 5.46435Z" fill="url(#paint9_linear_686_12285)"/>
<defs>
<linearGradient id="paint0_linear_686_12285" x1="40.1922" y1="-10.0793" x2="49.0071" y2="130.569" gradientUnits="userSpaceOnUse">
<stop stop-color="#F7971E"/>
<stop offset="1" stop-color="#FFD200"/>
</linearGradient>
<linearGradient id="paint1_linear_686_12285" x1="0.193359" y1="4.16881" x2="80.1911" y2="4.16881" gradientUnits="userSpaceOnUse">
<stop stop-color="#F7971E"/>
<stop offset="1" stop-color="#FFD200"/>
</linearGradient>
<linearGradient id="paint2_linear_686_12285" x1="38.0502" y1="8.05469" x2="38.0502" y2="107.785" gradientUnits="userSpaceOnUse">
<stop stop-color="#FCC009"/>
<stop offset="1" stop-color="white" stop-opacity="0.04"/>
</linearGradient>
<linearGradient id="paint3_linear_686_12285" x1="28.0502" y1="8.05438" x2="28.0502" y2="107.785" gradientUnits="userSpaceOnUse">
<stop stop-color="#FCC009"/>
<stop offset="1" stop-color="white" stop-opacity="0.04"/>
</linearGradient>
<linearGradient id="paint4_linear_686_12285" x1="18.0502" y1="8.05543" x2="18.0502" y2="107.786" gradientUnits="userSpaceOnUse">
<stop stop-color="#FCC009"/>
<stop offset="1" stop-color="white" stop-opacity="0.04"/>
</linearGradient>
<linearGradient id="paint5_linear_686_12285" x1="8.0502" y1="6.75916" x2="8.0502" y2="106.49" gradientUnits="userSpaceOnUse">
<stop stop-color="#FCC009"/>
<stop offset="1" stop-color="white" stop-opacity="0.04"/>
</linearGradient>
<linearGradient id="paint6_linear_686_12285" x1="48.0502" y1="8.05351" x2="48.0502" y2="107.784" gradientUnits="userSpaceOnUse">
<stop stop-color="#FCC009"/>
<stop offset="1" stop-color="white" stop-opacity="0.04"/>
</linearGradient>
<linearGradient id="paint7_linear_686_12285" x1="58.0502" y1="8.05482" x2="58.0502" y2="107.785" gradientUnits="userSpaceOnUse">
<stop stop-color="#FCC009"/>
<stop offset="1" stop-color="white" stop-opacity="0.04"/>
</linearGradient>
<linearGradient id="paint8_linear_686_12285" x1="68.0502" y1="8.05497" x2="68.0502" y2="107.786" gradientUnits="userSpaceOnUse">
<stop stop-color="#FCC009"/>
<stop offset="1" stop-color="white" stop-opacity="0.04"/>
</linearGradient>
<linearGradient id="paint9_linear_686_12285" x1="78.0502" y1="8.05476" x2="78.0502" y2="107.785" gradientUnits="userSpaceOnUse">
<stop stop-color="#FCC009"/>
<stop offset="1" stop-color="white" stop-opacity="0.04"/>
</linearGradient>
</defs>
</svg>
