<svg width="18" height="18" viewBox="0 0 24 24" fill="none" xmlns="http://www.w3.org/2000/svg">
<path d="M4.74869 5.21972L3.37663 3.84766C1.1992 6.02501 0 8.92008 0 11.9994C0 15.0788 1.1992 17.9738 3.37663 20.1512L4.74877 18.779C2.93776 16.9682 1.94045 14.5605 1.94045 11.9994C1.94045 9.43834 2.93776 7.03065 4.74869 5.21972Z" fill="white"/>
<path d="M6.64147 6.62695C5.20635 8.06192 4.41602 9.97003 4.41602 11.9996C4.41602 14.0291 5.20635 15.9372 6.64147 17.3722L8.01361 16.0001C6.94491 14.9315 6.35647 13.5108 6.35647 11.9996C6.35647 10.4884 6.94491 9.06756 8.01361 7.99902L6.64147 6.62695Z" fill="white"/>
<path d="M20.6241 3.84766L19.252 5.2198C21.063 7.03065 22.0602 9.43843 22.0602 11.9995C22.0602 14.5606 21.0629 16.9683 19.252 18.7791L20.6241 20.1513C22.8015 17.9738 24.0007 15.0788 24.0007 11.9995C24.0007 8.92016 22.8015 6.02501 20.6241 3.84766Z" fill="white"/>
<path d="M17.3585 6.62695L15.9863 7.99902C17.055 9.06756 17.6435 10.4883 17.6435 11.9996C17.6435 13.5109 17.055 14.9316 15.9863 16.0001L17.3585 17.3722C18.7936 15.9372 19.5839 14.0291 19.5839 11.9996C19.5839 9.97003 18.7936 8.06192 17.3585 6.62695Z" fill="white"/>
<path d="M12.0138 9.28125C11.3179 9.28125 10.6222 9.54677 10.0912 10.0777C9.0295 11.1396 9.0295 12.861 10.0912 13.923C10.6222 14.4538 11.318 14.7194 12.0138 14.7194C12.7097 14.7194 13.4055 14.4539 13.9364 13.923C14.9981 12.861 14.9981 11.1396 13.9364 10.0777C13.4055 9.54677 12.7097 9.28125 12.0138 9.28125ZM12.5644 12.5508C12.366 12.7492 12.1343 12.7789 12.0138 12.7789C11.8934 12.7789 11.6616 12.7492 11.4634 12.5511C11.1598 12.2474 11.1598 11.7533 11.4632 11.4499C11.6616 11.2515 11.8934 11.2218 12.0138 11.2218C12.1342 11.2218 12.3659 11.2515 12.5643 11.4498C12.8677 11.7532 12.8677 12.2474 12.5644 12.5508Z" fill="white"/>
</svg>
