<svg width="18" height="18" viewBox="0 0 24 24" fill="none" xmlns="http://www.w3.org/2000/svg">
<path d="M22.5 8.25V6.75H16.5V17.25H18V12.75H21.75V11.25H18V8.25H22.5Z" fill="white"/>
<path d="M6 6.75H1.5V17.25H3V13.5H6C6.39782 13.5 6.77936 13.342 7.06066 13.0607C7.34196 12.7794 7.5 12.3978 7.5 12V8.25C7.5 7.85218 7.34196 7.47064 7.06066 7.18934C6.77936 6.90804 6.39782 6.75 6 6.75ZM6 12H3V8.25H6V12Z" fill="white"/>
<path d="M12 17.25H9V6.75H12C12.7956 6.75 13.5587 7.06607 14.1213 7.62868C14.6839 8.19129 15 8.95435 15 9.75V14.25C15 15.0456 14.6839 15.8087 14.1213 16.3713C13.5587 16.9339 12.7956 17.25 12 17.25ZM10.5 15.75H12C12.3978 15.75 12.7794 15.592 13.0607 15.3107C13.342 15.0294 13.5 14.6478 13.5 14.25V9.75C13.5 9.35218 13.342 8.97064 13.0607 8.68934C12.7794 8.40804 12.3978 8.25 12 8.25H10.5V15.75Z" fill="white"/>
</svg>
