<svg width="122" height="63" viewBox="0 0 122 63" fill="none" xmlns="http://www.w3.org/2000/svg">
<path d="M2.12223 47H3.06223L4.38223 42.65L5.70223 47H6.64223L8.35223 41.52H7.45223L6.21223 46.13L4.88223 41.52H3.95223L2.59223 46.12L1.33223 41.52H0.402227L2.12223 47ZM10.1654 44.02C10.1654 42.75 10.8254 42.36 11.6954 42.36H11.9354V41.42C11.0654 41.42 10.4754 41.8 10.1654 42.41V41.52H9.25535V47H10.1654V44.02ZM12.9858 47H13.8958V41.52H12.9858V47ZM13.4558 40.63C13.7858 40.63 14.0558 40.36 14.0558 40.01C14.0558 39.66 13.7858 39.39 13.4558 39.39C13.1058 39.39 12.8358 39.66 12.8358 40.01C12.8358 40.36 13.1058 40.63 13.4558 40.63ZM15.6468 45.5C15.6468 46.6 16.1968 47 17.1668 47H17.9868V46.23H17.3168C16.7568 46.23 16.5568 46.04 16.5568 45.5V42.27H17.9868V41.52H16.5568V40.14H15.6468V41.52H14.9368V42.27H15.6468V45.5ZM21.4193 42.2C22.3593 42.2 23.1593 42.79 23.1493 43.86H19.6893C19.7893 42.79 20.5293 42.2 21.4193 42.2ZM23.9793 45.31H22.9993C22.7993 45.9 22.2793 46.32 21.4593 46.32C20.5293 46.32 19.7493 45.71 19.6793 44.6H24.0593C24.0793 44.41 24.0893 44.25 24.0893 44.05C24.0893 42.55 23.0493 41.43 21.4593 41.43C19.8593 41.43 18.7493 42.52 18.7493 44.25C18.7493 45.99 19.8993 47.09 21.4593 47.09C22.8193 47.09 23.6993 46.31 23.9793 45.31ZM27.6165 44.24C27.6165 45.94 28.7465 47.09 30.2065 47.09C31.2165 47.09 31.9265 46.57 32.2565 45.98V47H33.1765V41.52H32.2565V42.52C31.9365 41.95 31.2365 41.43 30.2165 41.43C28.7465 41.43 27.6165 42.53 27.6165 44.24ZM32.2565 44.25C32.2565 45.54 31.3965 46.29 30.3965 46.29C29.3965 46.29 28.5465 45.53 28.5465 44.24C28.5465 42.95 29.3965 42.22 30.3965 42.22C31.3965 42.22 32.2565 42.98 32.2565 44.25ZM35.6243 42.54V39.6H34.7143V47H35.6243V45.99C35.9643 46.59 36.6743 47.09 37.6743 47.09C39.1443 47.09 40.2743 45.94 40.2743 44.24C40.2743 42.53 39.1543 41.43 37.6743 41.43C36.7043 41.43 35.9743 41.93 35.6243 42.54ZM39.3443 44.24C39.3443 45.53 38.4943 46.29 37.4843 46.29C36.4943 46.29 35.6243 45.54 35.6243 44.25C35.6243 42.98 36.4943 42.22 37.4843 42.22C38.4943 42.22 39.3443 42.95 39.3443 44.24ZM46.6721 44.25C46.6721 42.52 45.4621 41.43 43.9021 41.43C42.3521 41.43 41.1321 42.52 41.1321 44.25C41.1321 45.99 42.3121 47.09 43.8621 47.09C45.4221 47.09 46.6721 45.99 46.6721 44.25ZM42.0621 44.25C42.0621 42.87 42.9321 42.22 43.8921 42.22C44.8321 42.22 45.7421 42.87 45.7421 44.25C45.7421 45.64 44.8121 46.29 43.8621 46.29C42.9121 46.29 42.0621 45.64 42.0621 44.25ZM52.7286 41.52H51.8186V44.53C51.8186 45.71 51.1886 46.29 50.2486 46.29C49.3286 46.29 48.7186 45.72 48.7186 44.61V41.52H47.8186V44.73C47.8186 46.3 48.8086 47.08 50.0686 47.08C50.7986 47.08 51.4686 46.76 51.8186 46.19V47H52.7286V41.52ZM54.4651 45.5C54.4651 46.6 55.0151 47 55.9851 47H56.8051V46.23H56.1351C55.5751 46.23 55.3751 46.04 55.3751 45.5V42.27H56.8051V41.52H55.3751V40.14H54.4651V41.52H53.7551V42.27H54.4651V45.5ZM62.6537 45.96L60.9337 41.52H59.9237L62.1337 46.94L61.0537 49.58H61.9937L65.2937 41.52H64.3537L62.6537 45.96ZM71.4085 44.25C71.4085 42.52 70.1985 41.43 68.6385 41.43C67.0885 41.43 65.8685 42.52 65.8685 44.25C65.8685 45.99 67.0485 47.09 68.5985 47.09C70.1585 47.09 71.4085 45.99 71.4085 44.25ZM66.7985 44.25C66.7985 42.87 67.6685 42.22 68.6285 42.22C69.5685 42.22 70.4785 42.87 70.4785 44.25C70.4785 45.64 69.5485 46.29 68.5985 46.29C67.6485 46.29 66.7985 45.64 66.7985 44.25ZM77.465 41.52H76.555V44.53C76.555 45.71 75.925 46.29 74.985 46.29C74.065 46.29 73.455 45.72 73.455 44.61V41.52H72.555V44.73C72.555 46.3 73.545 47.08 74.805 47.08C75.535 47.08 76.205 46.76 76.555 46.19V47H77.465V41.52ZM79.9114 44.02C79.9114 42.75 80.5714 42.36 81.4414 42.36H81.6814V41.42C80.8114 41.42 80.2214 41.8 79.9114 42.41V41.52H79.0014V47H79.9114V44.02ZM86.6719 45.51C86.6319 43.55 83.4519 44.26 83.4519 42.96C83.4519 42.52 83.8519 42.2 84.5219 42.2C85.2519 42.2 85.6719 42.6 85.7119 43.15H86.6219C86.5619 42.08 85.7619 41.43 84.5519 41.43C83.3319 41.43 82.5419 42.12 82.5419 42.96C82.5419 45 85.7819 44.29 85.7819 45.51C85.7819 45.96 85.3819 46.32 84.6619 46.32C83.8919 46.32 83.4219 45.92 83.3719 45.39H82.4319C82.4919 46.39 83.3919 47.09 84.6719 47.09C85.8819 47.09 86.6719 46.41 86.6719 45.51ZM90.2865 42.2C91.2265 42.2 92.0265 42.79 92.0165 43.86H88.5565C88.6565 42.79 89.3965 42.2 90.2865 42.2ZM92.8465 45.31H91.8665C91.6665 45.9 91.1465 46.32 90.3265 46.32C89.3965 46.32 88.6165 45.71 88.5465 44.6H92.9265C92.9465 44.41 92.9565 44.25 92.9565 44.05C92.9565 42.55 91.9165 41.43 90.3265 41.43C88.7265 41.43 87.6165 42.52 87.6165 44.25C87.6165 45.99 88.7665 47.09 90.3265 47.09C91.6865 47.09 92.5665 46.31 92.8465 45.31ZM94.1577 47H95.0677V39.6H94.1577V47ZM96.7886 47H97.6986V42.27H98.8486V41.52H97.6986V41.13C97.6986 40.42 97.9686 40.12 98.7886 40.12V39.36C97.3886 39.36 96.7886 39.91 96.7886 41.13V41.52H96.0786V42.27H96.7886V47ZM102.236 44.24C102.236 45.94 103.366 47.09 104.826 47.09C105.836 47.09 106.546 46.57 106.876 45.98V47H107.796V41.52H106.876V42.52C106.556 41.95 105.856 41.43 104.836 41.43C103.366 41.43 102.236 42.53 102.236 44.24ZM106.876 44.25C106.876 45.54 106.016 46.29 105.016 46.29C104.016 46.29 103.166 45.53 103.166 44.24C103.166 42.95 104.016 42.22 105.016 42.22C106.016 42.22 106.876 42.98 106.876 44.25ZM113.343 47H114.243V43.77C114.243 42.2 113.273 41.42 112.003 41.42C111.263 41.42 110.603 41.73 110.243 42.3V41.52H109.333V47H110.243V43.97C110.243 42.79 110.883 42.21 111.813 42.21C112.733 42.21 113.343 42.78 113.343 43.9V47ZM115.39 44.24C115.39 45.94 116.52 47.09 117.99 47.09C118.99 47.09 119.7 46.58 120.03 45.97V47H120.95V39.6H120.03V42.5C119.65 41.87 118.86 41.43 118 41.43C116.52 41.43 115.39 42.53 115.39 44.24ZM120.03 44.25C120.03 45.54 119.17 46.29 118.17 46.29C117.17 46.29 116.32 45.53 116.32 44.24C116.32 42.95 117.17 42.22 118.17 42.22C119.17 42.22 120.03 42.98 120.03 44.25ZM11.1663 55.54V52.6H10.2563V60H11.1663V58.99C11.5063 59.59 12.2163 60.09 13.2163 60.09C14.6863 60.09 15.8163 58.94 15.8163 57.24C15.8163 55.53 14.6963 54.43 13.2163 54.43C12.2463 54.43 11.5163 54.93 11.1663 55.54ZM14.8863 57.24C14.8863 58.53 14.0363 59.29 13.0263 59.29C12.0363 59.29 11.1663 58.54 11.1663 57.25C11.1663 55.98 12.0363 55.22 13.0263 55.22C14.0363 55.22 14.8863 55.95 14.8863 57.24ZM22.2141 57.25C22.2141 55.52 21.0041 54.43 19.4441 54.43C17.8941 54.43 16.6741 55.52 16.6741 57.25C16.6741 58.99 17.8541 60.09 19.4041 60.09C20.9641 60.09 22.2141 58.99 22.2141 57.25ZM17.6041 57.25C17.6041 55.87 18.4741 55.22 19.4341 55.22C20.3741 55.22 21.2841 55.87 21.2841 57.25C21.2841 58.64 20.3541 59.29 19.4041 59.29C18.4541 59.29 17.6041 58.64 17.6041 57.25ZM28.6106 57.25C28.6106 55.52 27.4006 54.43 25.8406 54.43C24.2906 54.43 23.0706 55.52 23.0706 57.25C23.0706 58.99 24.2506 60.09 25.8006 60.09C27.3606 60.09 28.6106 58.99 28.6106 57.25ZM24.0006 57.25C24.0006 55.87 24.8706 55.22 25.8306 55.22C26.7706 55.22 27.6806 55.87 27.6806 57.25C27.6806 58.64 26.7506 59.29 25.8006 59.29C24.8506 59.29 24.0006 58.64 24.0006 57.25ZM33.7471 58.51C33.7071 56.55 30.5271 57.26 30.5271 55.96C30.5271 55.52 30.9271 55.2 31.5971 55.2C32.3271 55.2 32.7471 55.6 32.7871 56.15H33.6971C33.6371 55.08 32.8371 54.43 31.6271 54.43C30.4071 54.43 29.6171 55.12 29.6171 55.96C29.6171 58 32.8571 57.29 32.8571 58.51C32.8571 58.96 32.4571 59.32 31.7371 59.32C30.9671 59.32 30.4971 58.92 30.4471 58.39H29.5071C29.5671 59.39 30.4671 60.09 31.7471 60.09C32.9571 60.09 33.7471 59.41 33.7471 58.51ZM35.2317 58.5C35.2317 59.6 35.7817 60 36.7517 60H37.5717V59.23H36.9017C36.3417 59.23 36.1417 59.04 36.1417 58.5V55.27H37.5717V54.52H36.1417V53.14H35.2317V54.52H34.5217V55.27H35.2317V58.5ZM46.2003 54.52H45.2903V57.53C45.2903 58.71 44.6603 59.29 43.7203 59.29C42.8003 59.29 42.1903 58.72 42.1903 57.61V54.52H41.2903V57.73C41.2903 59.3 42.2803 60.08 43.5403 60.08C44.2703 60.08 44.9403 59.76 45.2903 59.19V60H46.2003V54.52ZM48.6468 55.53V54.52H47.7368V62.6H48.6468V58.99C48.9868 59.55 49.6968 60.09 50.6968 60.09C52.1668 60.09 53.2968 58.94 53.2968 57.24C53.2968 55.53 52.1668 54.43 50.6968 54.43C49.6968 54.43 48.9768 54.95 48.6468 55.53ZM52.3668 57.24C52.3668 58.53 51.5168 59.29 50.5068 59.29C49.5168 59.29 48.6468 58.54 48.6468 57.25C48.6468 55.98 49.5168 55.22 50.5068 55.22C51.5168 55.22 52.3668 55.95 52.3668 57.24ZM59.2406 58.96L57.5206 54.52H56.5106L58.7206 59.94L57.6406 62.58H58.5806L61.8806 54.52H60.9406L59.2406 58.96ZM67.9954 57.25C67.9954 55.52 66.7854 54.43 65.2254 54.43C63.6754 54.43 62.4554 55.52 62.4554 57.25C62.4554 58.99 63.6354 60.09 65.1854 60.09C66.7454 60.09 67.9954 58.99 67.9954 57.25ZM63.3854 57.25C63.3854 55.87 64.2554 55.22 65.2154 55.22C66.1554 55.22 67.0654 55.87 67.0654 57.25C67.0654 58.64 66.1354 59.29 65.1854 59.29C64.2354 59.29 63.3854 58.64 63.3854 57.25ZM74.0519 54.52H73.1419V57.53C73.1419 58.71 72.5119 59.29 71.5719 59.29C70.6519 59.29 70.0419 58.72 70.0419 57.61V54.52H69.1419V57.73C69.1419 59.3 70.1319 60.08 71.3919 60.08C72.1219 60.08 72.7919 59.76 73.1419 59.19V60H74.0519V54.52ZM76.4984 57.02C76.4984 55.75 77.1584 55.36 78.0284 55.36H78.2684V54.42C77.3984 54.42 76.8084 54.8 76.4984 55.41V54.52H75.5884V60H76.4984V57.02ZM82.8948 55.53V54.52H81.9848V62.6H82.8948V58.99C83.2348 59.55 83.9448 60.09 84.9448 60.09C86.4148 60.09 87.5448 58.94 87.5448 57.24C87.5448 55.53 86.4148 54.43 84.9448 54.43C83.9448 54.43 83.2248 54.95 82.8948 55.53ZM86.6148 57.24C86.6148 58.53 85.7648 59.29 84.7548 59.29C83.7648 59.29 82.8948 58.54 82.8948 57.25C82.8948 55.98 83.7648 55.22 84.7548 55.22C85.7648 55.22 86.6148 55.95 86.6148 57.24ZM89.6527 57.02C89.6527 55.75 90.3127 55.36 91.1827 55.36H91.4227V54.42C90.5527 54.42 89.9627 54.8 89.6527 55.41V54.52H88.7427V60H89.6527V57.02ZM97.6731 57.25C97.6731 55.52 96.4631 54.43 94.9031 54.43C93.3531 54.43 92.1331 55.52 92.1331 57.25C92.1331 58.99 93.3131 60.09 94.8631 60.09C96.4231 60.09 97.6731 58.99 97.6731 57.25ZM93.0631 57.25C93.0631 55.87 93.9331 55.22 94.8931 55.22C95.8331 55.22 96.7431 55.87 96.7431 57.25C96.7431 58.64 95.8131 59.29 94.8631 59.29C93.9131 59.29 93.0631 58.64 93.0631 57.25ZM99.0396 60H99.9496V55.27H101.1V54.52H99.9496V54.13C99.9496 53.42 100.22 53.12 101.04 53.12V52.36C99.6396 52.36 99.0396 52.91 99.0396 54.13V54.52H98.3296V55.27H99.0396V60ZM102.161 60H103.071V54.52H102.161V60ZM102.631 53.63C102.961 53.63 103.231 53.36 103.231 53.01C103.231 52.66 102.961 52.39 102.631 52.39C102.281 52.39 102.011 52.66 102.011 53.01C102.011 53.36 102.281 53.63 102.631 53.63ZM104.622 60H105.532V52.6H104.622V60ZM109.413 55.2C110.353 55.2 111.153 55.79 111.143 56.86H107.683C107.782 55.79 108.523 55.2 109.413 55.2ZM111.973 58.31H110.993C110.793 58.9 110.273 59.32 109.453 59.32C108.523 59.32 107.743 58.71 107.673 57.6H112.053C112.073 57.41 112.083 57.25 112.083 57.05C112.083 55.55 111.043 54.43 109.453 54.43C107.853 54.43 106.743 55.52 106.743 57.25C106.743 58.99 107.893 60.09 109.453 60.09C110.813 60.09 111.693 59.31 111.973 58.31Z" fill="#686868"/>
<ellipse cx="61.5019" cy="21.136" rx="17.3337" ry="8.95943" transform="rotate(-29.1983 61.5019 21.136)" fill="#F1EDFF"/>
<path d="M69.357 17.9733C71.5073 19.6602 69.6987 23.3155 65.3174 26.1376C60.9361 28.9596 55.6412 29.8798 53.4909 28.1929C51.3407 26.506 53.1493 22.8507 57.5306 20.0287C61.9119 17.2066 67.2067 16.2864 69.357 17.9733Z" fill="#AFADAD"/>
<path d="M65.4456 21.3116L61.0967 14.7927L53.8037 19.6586L58.1526 26.1775L62.0879 23.5764L65.4456 21.3116Z" fill="white" stroke="#AFADAD" stroke-width="1.5" stroke-miterlimit="10" stroke-linecap="round" stroke-linejoin="round"/>
<path d="M61.0917 14.7918L59.3164 12.1306L52.0234 16.9965L53.7987 19.6576L61.0917 14.7918Z" fill="white" stroke="#AFADAD" stroke-width="1.5" stroke-miterlimit="10" stroke-linecap="round" stroke-linejoin="round"/>
<path d="M59.3225 12.1504L54.9848 5.64752L47.0842 1.70755L47.6894 10.5139L52.0271 17.0168L59.3225 12.1504Z" fill="white" stroke="#AFADAD" stroke-width="1.5" stroke-miterlimit="10" stroke-linecap="round" stroke-linejoin="round"/>
<path d="M51.3372 8.08334L47.0841 1.70819" stroke="#AFADAD" stroke-width="1.5" stroke-miterlimit="10" stroke-linecap="round" stroke-linejoin="round"/>
<path d="M52.4152 11.1736C52.4365 11.7037 52.8835 12.116 53.4136 12.0947C53.9436 12.0733 54.356 11.6263 54.3346 11.0962C54.3132 10.5662 53.8662 10.1538 53.3362 10.1752C52.8062 10.1965 52.3938 10.6435 52.4152 11.1736Z" fill="white" stroke="#AFADAD" stroke-width="1.5" stroke-miterlimit="10" stroke-linecap="round" stroke-linejoin="round"/>
</svg>
