<svg width="25" height="25" viewBox="0 0 25 25" fill="none" xmlns="http://www.w3.org/2000/svg">
<path d="M2.5 3.5H8.5C9.56087 3.5 10.5783 3.92143 11.3284 4.67157C12.0786 5.42172 12.5 6.43913 12.5 7.5V21.5C12.5 20.7044 12.1839 19.9413 11.6213 19.3787C11.0587 18.8161 10.2956 18.5 9.5 18.5H2.5V3.5Z" stroke="currentColor" stroke-width="2" stroke-linecap="round" stroke-linejoin="round"/>
<path d="M22.5 3.5H16.5C15.4391 3.5 14.4217 3.92143 13.6716 4.67157C12.9214 5.42172 12.5 6.43913 12.5 7.5V21.5C12.5 20.7044 12.8161 19.9413 13.3787 19.3787C13.9413 18.8161 14.7044 18.5 15.5 18.5H22.5V3.5Z" stroke="currentColor" stroke-width="2" stroke-linecap="round" stroke-linejoin="round"/>
</svg>
