<svg width="104" height="63" viewBox="0 0 104 63" fill="none" xmlns="http://www.w3.org/2000/svg">
<path d="M5.48711 47H6.44711L3.93711 40.07H2.88711L0.367109 47H1.32711L1.88711 45.45H4.92711L5.48711 47ZM4.66711 44.71H2.14711L3.40711 41.19L4.66711 44.71ZM7.20539 44.24C7.20539 45.94 8.33539 47.09 9.80539 47.09C10.8054 47.09 11.5154 46.58 11.8454 45.97V47H12.7654V39.6H11.8454V42.5C11.4654 41.87 10.6754 41.43 9.81539 41.43C8.33539 41.43 7.20539 42.53 7.20539 44.24ZM11.8454 44.25C11.8454 45.54 10.9854 46.29 9.98539 46.29C8.98539 46.29 8.13539 45.53 8.13539 44.24C8.13539 42.95 8.98539 42.22 9.98539 42.22C10.9854 42.22 11.8454 42.98 11.8454 44.25ZM13.9632 44.24C13.9632 45.94 15.0932 47.09 16.5632 47.09C17.5632 47.09 18.2732 46.58 18.6032 45.97V47H19.5232V39.6H18.6032V42.5C18.2232 41.87 17.4332 41.43 16.5732 41.43C15.0932 41.43 13.9632 42.53 13.9632 44.24ZM18.6032 44.25C18.6032 45.54 17.7432 46.29 16.7432 46.29C15.7432 46.29 14.8932 45.53 14.8932 44.24C14.8932 42.95 15.7432 42.22 16.7432 42.22C17.7432 42.22 18.6032 42.98 18.6032 44.25ZM23.387 44.25C23.387 45.99 24.497 47.09 26.057 47.09C27.417 47.09 28.307 46.33 28.587 45.24H27.607C27.407 45.93 26.867 46.32 26.057 46.32C25.057 46.32 24.317 45.61 24.317 44.25C24.317 42.91 25.057 42.2 26.057 42.2C26.867 42.2 27.417 42.62 27.607 43.28H28.587C28.307 42.13 27.417 41.43 26.057 41.43C24.497 41.43 23.387 42.53 23.387 44.25ZM32.1313 42.2C33.0713 42.2 33.8713 42.79 33.8613 43.86H30.4013C30.5012 42.79 31.2413 42.2 32.1313 42.2ZM34.6913 45.31H33.7113C33.5113 45.9 32.9913 46.32 32.1713 46.32C31.2413 46.32 30.4613 45.71 30.3913 44.6H34.7713C34.7913 44.41 34.8013 44.25 34.8013 44.05C34.8013 42.55 33.7613 41.43 32.1713 41.43C30.5713 41.43 29.4613 42.52 29.4613 44.25C29.4613 45.99 30.6113 47.09 32.1713 47.09C33.5313 47.09 34.4113 46.31 34.6913 45.31ZM36.9124 44.02C36.9124 42.75 37.5724 42.36 38.4424 42.36H38.6824V41.42C37.8124 41.42 37.2224 41.8 36.9124 42.41V41.52H36.0024V47H36.9124V44.02ZM39.9329 45.5C39.9329 46.6 40.4829 47 41.4529 47H42.2729V46.23H41.6029C41.0429 46.23 40.8429 46.04 40.8429 45.5V42.27H42.2729V41.52H40.8429V40.14H39.9329V41.52H39.2229V42.27H39.9329V45.5ZM43.3755 47H44.2855V41.52H43.3755V47ZM43.8455 40.63C44.1755 40.63 44.4455 40.36 44.4455 40.01C44.4455 39.66 44.1755 39.39 43.8455 39.39C43.4955 39.39 43.2255 39.66 43.2255 40.01C43.2255 40.36 43.4955 40.63 43.8455 40.63ZM46.0064 47H46.9164V42.27H48.0664V41.52H46.9164V41.13C46.9164 40.42 47.1864 40.12 48.0064 40.12V39.36C46.6064 39.36 46.0064 39.91 46.0064 41.13V41.52H45.2964V42.27H46.0064V47ZM49.1274 47H50.0374V41.52H49.1274V47ZM49.5974 40.63C49.9274 40.63 50.1974 40.36 50.1974 40.01C50.1974 39.66 49.9274 39.39 49.5974 39.39C49.2474 39.39 48.9774 39.66 48.9774 40.01C48.9774 40.36 49.2474 40.63 49.5974 40.63ZM51.2484 44.25C51.2484 45.99 52.3584 47.09 53.9184 47.09C55.2784 47.09 56.1684 46.33 56.4484 45.24H55.4684C55.2684 45.93 54.7284 46.32 53.9184 46.32C52.9184 46.32 52.1784 45.61 52.1784 44.25C52.1784 42.91 52.9184 42.2 53.9184 42.2C54.7284 42.2 55.2784 42.62 55.4684 43.28H56.4484C56.1684 42.13 55.2784 41.43 53.9184 41.43C52.3584 41.43 51.2484 42.53 51.2484 44.25ZM57.3226 44.24C57.3226 45.94 58.4526 47.09 59.9126 47.09C60.9226 47.09 61.6326 46.57 61.9626 45.98V47H62.8826V41.52H61.9626V42.52C61.6426 41.95 60.9426 41.43 59.9226 41.43C58.4526 41.43 57.3226 42.53 57.3226 44.24ZM61.9626 44.25C61.9626 45.54 61.1026 46.29 60.1026 46.29C59.1026 46.29 58.2526 45.53 58.2526 44.24C58.2526 42.95 59.1026 42.22 60.1026 42.22C61.1026 42.22 61.9626 42.98 61.9626 44.25ZM64.6204 45.5C64.6204 46.6 65.1704 47 66.1404 47H66.9604V46.23H66.2904C65.7304 46.23 65.5304 46.04 65.5304 45.5V42.27H66.9604V41.52H65.5304V40.14H64.6204V41.52H63.9104V42.27H64.6204V45.5ZM70.393 42.2C71.333 42.2 72.133 42.79 72.123 43.86H68.663C68.763 42.79 69.503 42.2 70.393 42.2ZM72.953 45.31H71.973C71.773 45.9 71.253 46.32 70.433 46.32C69.503 46.32 68.723 45.71 68.653 44.6H73.033C73.053 44.41 73.063 44.25 73.063 44.05C73.063 42.55 72.023 41.43 70.433 41.43C68.833 41.43 67.723 42.52 67.723 44.25C67.723 45.99 68.873 47.09 70.433 47.09C71.793 47.09 72.673 46.31 72.953 45.31ZM78.2041 45.51C78.1641 43.55 74.9841 44.26 74.9841 42.96C74.9841 42.52 75.3841 42.2 76.0541 42.2C76.7841 42.2 77.2041 42.6 77.2441 43.15H78.1541C78.0941 42.08 77.2941 41.43 76.0841 41.43C74.8641 41.43 74.0741 42.12 74.0741 42.96C74.0741 45 77.3141 44.29 77.3141 45.51C77.3141 45.96 76.9141 46.32 76.1941 46.32C75.4241 46.32 74.9541 45.92 74.9041 45.39H73.9641C74.0241 46.39 74.9241 47.09 76.2041 47.09C77.4141 47.09 78.2041 46.41 78.2041 45.51ZM81.8148 44.24C81.8148 45.94 82.9448 47.09 84.4048 47.09C85.4148 47.09 86.1248 46.57 86.4548 45.98V47H87.3748V41.52H86.4548V42.52C86.1348 41.95 85.4348 41.43 84.4148 41.43C82.9448 41.43 81.8148 42.53 81.8148 44.24ZM86.4548 44.25C86.4548 45.54 85.5948 46.29 84.5948 46.29C83.5948 46.29 82.7448 45.53 82.7448 44.24C82.7448 42.95 83.5948 42.22 84.5948 42.22C85.5948 42.22 86.4548 42.98 86.4548 44.25ZM92.9226 47H93.8226V43.77C93.8226 42.2 92.8526 41.42 91.5826 41.42C90.8426 41.42 90.1826 41.73 89.8226 42.3V41.52H88.9126V47H89.8226V43.97C89.8226 42.79 90.4626 42.21 91.3926 42.21C92.3126 42.21 92.9226 42.78 92.9226 43.9V47ZM94.9691 44.24C94.9691 45.94 96.0991 47.09 97.5691 47.09C98.5691 47.09 99.2791 46.58 99.6091 45.97V47H100.529V39.6H99.6091V42.5C99.2291 41.87 98.4391 41.43 97.5791 41.43C96.0991 41.43 94.9691 42.53 94.9691 44.24ZM99.6091 44.25C99.6091 45.54 98.7491 46.29 97.7491 46.29C96.7491 46.29 95.8991 45.53 95.8991 44.24C95.8991 42.95 96.7491 42.22 97.7491 42.22C98.7491 42.22 99.6091 42.98 99.6091 44.25ZM2.16633 55.54V52.6H1.25633V60H2.16633V58.99C2.50633 59.59 3.21633 60.09 4.21633 60.09C5.68633 60.09 6.81633 58.94 6.81633 57.24C6.81633 55.53 5.69633 54.43 4.21633 54.43C3.24633 54.43 2.51633 54.93 2.16633 55.54ZM5.88633 57.24C5.88633 58.53 5.03633 59.29 4.02633 59.29C3.03633 59.29 2.16633 58.54 2.16633 57.25C2.16633 55.98 3.03633 55.22 4.02633 55.22C5.03633 55.22 5.88633 55.95 5.88633 57.24ZM13.2141 57.25C13.2141 55.52 12.0041 54.43 10.4441 54.43C8.89414 54.43 7.67414 55.52 7.67414 57.25C7.67414 58.99 8.85414 60.09 10.4041 60.09C11.9641 60.09 13.2141 58.99 13.2141 57.25ZM8.60414 57.25C8.60414 55.87 9.47414 55.22 10.4341 55.22C11.3741 55.22 12.2841 55.87 12.2841 57.25C12.2841 58.64 11.3541 59.29 10.4041 59.29C9.45414 59.29 8.60414 58.64 8.60414 57.25ZM19.6106 57.25C19.6106 55.52 18.4006 54.43 16.8406 54.43C15.2906 54.43 14.0706 55.52 14.0706 57.25C14.0706 58.99 15.2506 60.09 16.8006 60.09C18.3606 60.09 19.6106 58.99 19.6106 57.25ZM15.0006 57.25C15.0006 55.87 15.8706 55.22 16.8306 55.22C17.7706 55.22 18.6806 55.87 18.6806 57.25C18.6806 58.64 17.7506 59.29 16.8006 59.29C15.8506 59.29 15.0006 58.64 15.0006 57.25ZM24.7471 58.51C24.7071 56.55 21.5271 57.26 21.5271 55.96C21.5271 55.52 21.9271 55.2 22.5971 55.2C23.3271 55.2 23.7471 55.6 23.7871 56.15H24.6971C24.6371 55.08 23.8371 54.43 22.6271 54.43C21.4071 54.43 20.6171 55.12 20.6171 55.96C20.6171 58 23.8571 57.29 23.8571 58.51C23.8571 58.96 23.4571 59.32 22.7371 59.32C21.9671 59.32 21.4971 58.92 21.4471 58.39H20.5071C20.5671 59.39 21.4671 60.09 22.7471 60.09C23.9571 60.09 24.7471 59.41 24.7471 58.51ZM26.2317 58.5C26.2317 59.6 26.7817 60 27.7517 60H28.5717V59.23H27.9017C27.3417 59.23 27.1417 59.04 27.1417 58.5V55.27H28.5717V54.52H27.1417V53.14H26.2317V54.52H25.5217V55.27H26.2317V58.5ZM37.2003 54.52H36.2903V57.53C36.2903 58.71 35.6603 59.29 34.7203 59.29C33.8003 59.29 33.1903 58.72 33.1903 57.61V54.52H32.2903V57.73C32.2903 59.3 33.2803 60.08 34.5403 60.08C35.2703 60.08 35.9403 59.76 36.2903 59.19V60H37.2003V54.52ZM39.6468 55.53V54.52H38.7368V62.6H39.6468V58.99C39.9868 59.55 40.6968 60.09 41.6968 60.09C43.1668 60.09 44.2968 58.94 44.2968 57.24C44.2968 55.53 43.1668 54.43 41.6968 54.43C40.6968 54.43 39.9768 54.95 39.6468 55.53ZM43.3668 57.24C43.3668 58.53 42.5168 59.29 41.5068 59.29C40.5168 59.29 39.6468 58.54 39.6468 57.25C39.6468 55.98 40.5168 55.22 41.5068 55.22C42.5168 55.22 43.3668 55.95 43.3668 57.24ZM50.2406 58.96L48.5206 54.52H47.5106L49.7206 59.94L48.6406 62.58H49.5806L52.8806 54.52H51.9406L50.2406 58.96ZM58.9954 57.25C58.9954 55.52 57.7854 54.43 56.2254 54.43C54.6754 54.43 53.4554 55.52 53.4554 57.25C53.4554 58.99 54.6354 60.09 56.1854 60.09C57.7454 60.09 58.9954 58.99 58.9954 57.25ZM54.3854 57.25C54.3854 55.87 55.2554 55.22 56.2154 55.22C57.1554 55.22 58.0654 55.87 58.0654 57.25C58.0654 58.64 57.1354 59.29 56.1854 59.29C55.2354 59.29 54.3854 58.64 54.3854 57.25ZM65.0519 54.52H64.1419V57.53C64.1419 58.71 63.5119 59.29 62.5719 59.29C61.6519 59.29 61.0419 58.72 61.0419 57.61V54.52H60.1419V57.73C60.1419 59.3 61.1319 60.08 62.3919 60.08C63.1219 60.08 63.7919 59.76 64.1419 59.19V60H65.0519V54.52ZM67.4984 57.02C67.4984 55.75 68.1584 55.36 69.0284 55.36H69.2684V54.42C68.3984 54.42 67.8084 54.8 67.4984 55.41V54.52H66.5884V60H67.4984V57.02ZM73.8948 55.53V54.52H72.9848V62.6H73.8948V58.99C74.2348 59.55 74.9448 60.09 75.9448 60.09C77.4148 60.09 78.5448 58.94 78.5448 57.24C78.5448 55.53 77.4148 54.43 75.9448 54.43C74.9448 54.43 74.2248 54.95 73.8948 55.53ZM77.6148 57.24C77.6148 58.53 76.7648 59.29 75.7548 59.29C74.7648 59.29 73.8948 58.54 73.8948 57.25C73.8948 55.98 74.7648 55.22 75.7548 55.22C76.7648 55.22 77.6148 55.95 77.6148 57.24ZM80.6527 57.02C80.6527 55.75 81.3127 55.36 82.1827 55.36H82.4227V54.42C81.5527 54.42 80.9627 54.8 80.6527 55.41V54.52H79.7427V60H80.6527V57.02ZM88.6731 57.25C88.6731 55.52 87.4631 54.43 85.9031 54.43C84.3531 54.43 83.1331 55.52 83.1331 57.25C83.1331 58.99 84.3131 60.09 85.8631 60.09C87.4231 60.09 88.6731 58.99 88.6731 57.25ZM84.0631 57.25C84.0631 55.87 84.9331 55.22 85.8931 55.22C86.8331 55.22 87.7431 55.87 87.7431 57.25C87.7431 58.64 86.8131 59.29 85.8631 59.29C84.9131 59.29 84.0631 58.64 84.0631 57.25ZM90.0396 60H90.9496V55.27H92.0996V54.52H90.9496V54.13C90.9496 53.42 91.2196 53.12 92.0396 53.12V52.36C90.6396 52.36 90.0396 52.91 90.0396 54.13V54.52H89.3296V55.27H90.0396V60ZM93.1606 60H94.0706V54.52H93.1606V60ZM93.6306 53.63C93.9606 53.63 94.2306 53.36 94.2306 53.01C94.2306 52.66 93.9606 52.39 93.6306 52.39C93.2806 52.39 93.0106 52.66 93.0106 53.01C93.0106 53.36 93.2806 53.63 93.6306 53.63ZM95.6216 60H96.5316V52.6H95.6216V60ZM100.413 55.2C101.353 55.2 102.153 55.79 102.143 56.86H98.6825C98.7825 55.79 99.5225 55.2 100.413 55.2ZM102.973 58.31H101.993C101.793 58.9 101.273 59.32 100.453 59.32C99.5225 59.32 98.7425 58.71 98.6725 57.6H103.053C103.073 57.41 103.083 57.25 103.083 57.05C103.083 55.55 102.043 54.43 100.453 54.43C98.8525 54.43 97.7425 55.52 97.7425 57.25C97.7425 58.99 98.8925 60.09 100.453 60.09C101.813 60.09 102.693 59.31 102.973 58.31Z" fill="#686868"/>
<ellipse cx="52.5019" cy="21.136" rx="17.3337" ry="8.95943" transform="rotate(-29.1983 52.5019 21.136)" fill="#F1EDFF"/>
<path d="M60.357 17.9733C62.5073 19.6602 60.6987 23.3155 56.3174 26.1376C51.9361 28.9596 46.6412 29.8798 44.4909 28.1929C42.3407 26.506 44.1493 22.8507 48.5306 20.0287C52.9119 17.2066 58.2067 16.2864 60.357 17.9733Z" fill="#AFADAD"/>
<path d="M56.4456 21.3114L52.0967 14.7925L44.8037 19.6583L49.1526 26.1772L53.0879 23.5761L56.4456 21.3114Z" fill="white" stroke="#AFADAD" stroke-width="1.5" stroke-miterlimit="10" stroke-linecap="round" stroke-linejoin="round"/>
<path d="M52.0917 14.7915L50.3164 12.1304L43.0234 16.9962L44.7987 19.6574L52.0917 14.7915Z" fill="white" stroke="#AFADAD" stroke-width="1.5" stroke-miterlimit="10" stroke-linecap="round" stroke-linejoin="round"/>
<path d="M50.3225 12.1504L45.9848 5.64752L38.0842 1.70755L38.6894 10.5139L43.0271 17.0168L50.3225 12.1504Z" fill="white" stroke="#AFADAD" stroke-width="1.5" stroke-miterlimit="10" stroke-linecap="round" stroke-linejoin="round"/>
<path d="M42.3372 8.08334L38.0841 1.70819" stroke="#AFADAD" stroke-width="1.5" stroke-miterlimit="10" stroke-linecap="round" stroke-linejoin="round"/>
<path d="M43.4152 11.1738C43.4365 11.7039 43.8835 12.1163 44.4136 12.0949C44.9436 12.0735 45.356 11.6265 45.3346 11.0965C45.3132 10.5664 44.8662 10.154 44.3362 10.1754C43.8062 10.1968 43.3938 10.6438 43.4152 11.1738Z" fill="white" stroke="#AFADAD" stroke-width="1.5" stroke-miterlimit="10" stroke-linecap="round" stroke-linejoin="round"/>
</svg>
