<svg width="516" height="553" viewBox="0 0 516 553" fill="none" xmlns="http://www.w3.org/2000/svg">
<path d="M511.91 425.821L434.296 292.965C450.178 264.052 458.452 231.637 458.353 198.716C458.353 146.014 437.231 95.4693 399.634 58.2027C362.037 20.9361 311.044 0 257.874 0C204.703 0 153.71 20.9361 116.113 58.2027C78.5158 95.4693 57.3939 146.014 57.3939 198.716C57.2952 231.637 65.5693 264.052 81.4514 292.965L3.83716 425.821C1.3186 430.145 -0.00496231 435.051 1.39806e-05 440.043C0.00499027 445.036 1.33832 449.939 3.8655 454.258C6.39268 458.577 10.0243 462.159 14.394 464.642C18.7637 467.126 23.7169 468.423 28.7539 468.403H110.951L152.765 538.238C154.175 540.552 155.91 542.655 157.92 544.483C163.229 549.556 170.308 552.403 177.682 552.432H181.691C186.015 551.845 190.146 550.287 193.77 547.876C197.393 545.466 200.413 542.266 202.598 538.522L257.874 444.273L313.149 539.373C315.366 543.065 318.4 546.209 322.022 548.569C325.643 550.93 329.758 552.444 334.056 552.999H338.065C345.538 553.044 352.733 550.192 358.113 545.051C360.04 543.327 361.682 541.316 362.982 539.089L404.796 469.255H486.993C492.04 469.275 497.002 467.972 501.378 465.48C505.753 462.987 509.387 459.393 511.91 455.061C514.586 450.645 516 445.592 516 440.441C516 435.29 514.586 430.236 511.91 425.821V425.821ZM177.395 469.255L151.906 426.957C149.396 422.76 145.837 419.275 141.573 416.839C137.309 414.402 132.483 413.096 127.562 413.046H78.0146L118.97 342.644C147.172 369.581 182.717 387.74 221.214 394.878L177.395 469.255ZM257.874 340.657C229.551 340.657 201.865 332.332 178.316 316.736C154.767 301.139 136.413 278.971 125.574 253.035C114.736 227.098 111.9 198.559 117.425 171.025C122.951 143.492 136.589 118.2 156.616 98.3495C176.643 78.4988 202.159 64.9803 229.937 59.5035C257.715 54.0267 286.507 56.8376 312.674 67.5807C338.84 78.3238 361.205 96.5167 376.94 119.859C392.675 143.201 401.073 170.643 401.073 198.716C401.073 236.361 385.986 272.464 359.131 299.083C332.276 325.702 295.853 340.657 257.874 340.657V340.657ZM388.185 413.046C383.264 413.096 378.438 414.402 374.174 416.839C369.91 419.275 366.351 422.76 363.841 426.957L338.352 469.255L294.819 394.026C333.182 386.742 368.595 368.6 396.777 341.792L437.732 412.195L388.185 413.046Z" fill="white"/>
</svg>
