<svg width="14" height="14" viewBox="0 0 14 14" fill="none" xmlns="http://www.w3.org/2000/svg">
<path d="M9.91797 1.74887C10.0712 1.59567 10.2531 1.47413 10.4532 1.39122C10.6534 1.3083 10.868 1.26563 11.0846 1.26562C11.3013 1.26562 11.5159 1.3083 11.716 1.39122C11.9162 1.47413 12.0981 1.59567 12.2513 1.74887C12.4045 1.90208 12.526 2.08397 12.609 2.28415C12.6919 2.48432 12.7346 2.69887 12.7346 2.91554C12.7346 3.13221 12.6919 3.34676 12.609 3.54694C12.526 3.74711 12.4045 3.929 12.2513 4.08221L4.3763 11.9572L1.16797 12.8322L2.04297 9.62387L9.91797 1.74887Z" stroke="#16141F" stroke-width="1.5" stroke-linecap="round" stroke-linejoin="round"/>
</svg>
