<svg width="125" height="63" viewBox="0 0 125 63" fill="none" xmlns="http://www.w3.org/2000/svg">
<path d="M5.91387 47H6.87387L4.36387 40.07H3.31387L0.793867 47H1.75387L2.31387 45.45H5.35387L5.91387 47ZM5.09387 44.71H2.57387L3.83387 41.19L5.09387 44.71ZM7.63215 44.24C7.63215 45.94 8.76215 47.09 10.2321 47.09C11.2321 47.09 11.9421 46.58 12.2721 45.97V47H13.1921V39.6H12.2721V42.5C11.8921 41.87 11.1021 41.43 10.2421 41.43C8.76215 41.43 7.63215 42.53 7.63215 44.24ZM12.2721 44.25C12.2721 45.54 11.4121 46.29 10.4121 46.29C9.41215 46.29 8.56215 45.53 8.56215 44.24C8.56215 42.95 9.41215 42.22 10.4121 42.22C11.4121 42.22 12.2721 42.98 12.2721 44.25ZM14.39 44.24C14.39 45.94 15.52 47.09 16.99 47.09C17.99 47.09 18.7 46.58 19.03 45.97V47H19.95V39.6H19.03V42.5C18.65 41.87 17.86 41.43 17 41.43C15.52 41.43 14.39 42.53 14.39 44.24ZM19.03 44.25C19.03 45.54 18.17 46.29 17.17 46.29C16.17 46.29 15.32 45.53 15.32 44.24C15.32 42.95 16.17 42.22 17.17 42.22C18.17 42.22 19.03 42.98 19.03 44.25ZM26.2338 45.96L24.5138 41.52H23.5038L25.7138 46.94L24.6338 49.58H25.5738L28.8738 41.52H27.9338L26.2338 45.96ZM34.9886 44.25C34.9886 42.52 33.7786 41.43 32.2186 41.43C30.6686 41.43 29.4486 42.52 29.4486 44.25C29.4486 45.99 30.6286 47.09 32.1786 47.09C33.7386 47.09 34.9886 45.99 34.9886 44.25ZM30.3786 44.25C30.3786 42.87 31.2486 42.22 32.2086 42.22C33.1486 42.22 34.0586 42.87 34.0586 44.25C34.0586 45.64 33.1286 46.29 32.1786 46.29C31.2286 46.29 30.3786 45.64 30.3786 44.25ZM41.045 41.52H40.135V44.53C40.135 45.71 39.505 46.29 38.565 46.29C37.645 46.29 37.035 45.72 37.035 44.61V41.52H36.135V44.73C36.135 46.3 37.125 47.08 38.385 47.08C39.115 47.08 39.785 46.76 40.135 46.19V47H41.045V41.52ZM43.4915 44.02C43.4915 42.75 44.1515 42.36 45.0215 42.36H45.2615V41.42C44.3915 41.42 43.8015 41.8 43.4915 42.41V41.52H42.5815V47H43.4915V44.02ZM51.308 42.2C52.248 42.2 53.048 42.79 53.038 43.86H49.578C49.678 42.79 50.418 42.2 51.308 42.2ZM53.868 45.31H52.888C52.688 45.9 52.168 46.32 51.348 46.32C50.418 46.32 49.638 45.71 49.568 44.6H53.948C53.968 44.41 53.978 44.25 53.978 44.05C53.978 42.55 52.938 41.43 51.348 41.43C49.748 41.43 48.638 42.52 48.638 44.25C48.638 45.99 49.788 47.09 51.348 47.09C52.708 47.09 53.588 46.31 53.868 45.31ZM54.8392 44.24C54.8392 45.94 55.9692 47.09 57.4392 47.09C58.4392 47.09 59.1492 46.58 59.4792 45.97V47H60.3992V39.6H59.4792V42.5C59.0992 41.87 58.3092 41.43 57.4492 41.43C55.9692 41.43 54.8392 42.53 54.8392 44.24ZM59.4792 44.25C59.4792 45.54 58.6192 46.29 57.6192 46.29C56.6192 46.29 55.7692 45.53 55.7692 44.24C55.7692 42.95 56.6192 42.22 57.6192 42.22C58.6192 42.22 59.4792 42.98 59.4792 44.25ZM66.797 41.52H65.887V44.53C65.887 45.71 65.257 46.29 64.317 46.29C63.397 46.29 62.787 45.72 62.787 44.61V41.52H61.887V44.73C61.887 46.3 62.877 47.08 64.137 47.08C64.867 47.08 65.537 46.76 65.887 46.19V47H66.797V41.52ZM67.9935 44.25C67.9935 45.99 69.1035 47.09 70.6635 47.09C72.0235 47.09 72.9135 46.33 73.1935 45.24H72.2135C72.0135 45.93 71.4735 46.32 70.6635 46.32C69.6635 46.32 68.9235 45.61 68.9235 44.25C68.9235 42.91 69.6635 42.2 70.6635 42.2C71.4735 42.2 72.0235 42.62 72.2135 43.28H73.1935C72.9135 42.13 72.0235 41.43 70.6635 41.43C69.1035 41.43 67.9935 42.53 67.9935 44.25ZM74.0677 44.24C74.0677 45.94 75.1977 47.09 76.6577 47.09C77.6677 47.09 78.3777 46.57 78.7077 45.98V47H79.6277V41.52H78.7077V42.52C78.3877 41.95 77.6877 41.43 76.6677 41.43C75.1977 41.43 74.0677 42.53 74.0677 44.24ZM78.7077 44.25C78.7077 45.54 77.8477 46.29 76.8477 46.29C75.8477 46.29 74.9977 45.53 74.9977 44.24C74.9977 42.95 75.8477 42.22 76.8477 42.22C77.8477 42.22 78.7077 42.98 78.7077 44.25ZM81.3655 45.5C81.3655 46.6 81.9155 47 82.8855 47H83.7055V46.23H83.0355C82.4755 46.23 82.2755 46.04 82.2755 45.5V42.27H83.7055V41.52H82.2755V40.14H81.3655V41.52H80.6555V42.27H81.3655V45.5ZM84.8081 47H85.7181V41.52H84.8081V47ZM85.2781 40.63C85.6081 40.63 85.8781 40.36 85.8781 40.01C85.8781 39.66 85.6081 39.39 85.2781 39.39C84.9281 39.39 84.6581 39.66 84.6581 40.01C84.6581 40.36 84.9281 40.63 85.2781 40.63ZM92.469 44.25C92.469 42.52 91.259 41.43 89.699 41.43C88.149 41.43 86.929 42.52 86.929 44.25C86.929 45.99 88.109 47.09 89.659 47.09C91.219 47.09 92.469 45.99 92.469 44.25ZM87.859 44.25C87.859 42.87 88.729 42.22 89.689 42.22C90.629 42.22 91.539 42.87 91.539 44.25C91.539 45.64 90.609 46.29 89.659 46.29C88.709 46.29 87.859 45.64 87.859 44.25ZM97.6755 47H98.5755V43.77C98.5755 42.2 97.6055 41.42 96.3355 41.42C95.5955 41.42 94.9355 41.73 94.5755 42.3V41.52H93.6655V47H94.5755V43.97C94.5755 42.79 95.2155 42.21 96.1455 42.21C97.0655 42.21 97.6755 42.78 97.6755 43.9V47ZM102.388 44.24C102.388 45.94 103.518 47.09 104.978 47.09C105.988 47.09 106.698 46.57 107.028 45.98V47H107.948V41.52H107.028V42.52C106.708 41.95 106.008 41.43 104.988 41.43C103.518 41.43 102.388 42.53 102.388 44.24ZM107.028 44.25C107.028 45.54 106.168 46.29 105.168 46.29C104.168 46.29 103.318 45.53 103.318 44.24C103.318 42.95 104.168 42.22 105.168 42.22C106.168 42.22 107.028 42.98 107.028 44.25ZM113.496 47H114.396V43.77C114.396 42.2 113.426 41.42 112.156 41.42C111.416 41.42 110.756 41.73 110.396 42.3V41.52H109.486V47H110.396V43.97C110.396 42.79 111.036 42.21 111.966 42.21C112.886 42.21 113.496 42.78 113.496 43.9V47ZM115.542 44.24C115.542 45.94 116.672 47.09 118.142 47.09C119.142 47.09 119.852 46.58 120.182 45.97V47H121.102V39.6H120.182V42.5C119.802 41.87 119.012 41.43 118.152 41.43C116.672 41.43 115.542 42.53 115.542 44.24ZM120.182 44.25C120.182 45.54 119.322 46.29 118.322 46.29C117.322 46.29 116.472 45.53 116.472 44.24C116.472 42.95 117.322 42.22 118.322 42.22C119.322 42.22 120.182 42.98 120.182 44.25ZM12.6663 55.54V52.6H11.7563V60H12.6663V58.99C13.0063 59.59 13.7163 60.09 14.7163 60.09C16.1863 60.09 17.3163 58.94 17.3163 57.24C17.3163 55.53 16.1963 54.43 14.7163 54.43C13.7463 54.43 13.0163 54.93 12.6663 55.54ZM16.3863 57.24C16.3863 58.53 15.5363 59.29 14.5263 59.29C13.5363 59.29 12.6663 58.54 12.6663 57.25C12.6663 55.98 13.5363 55.22 14.5263 55.22C15.5363 55.22 16.3863 55.95 16.3863 57.24ZM23.7141 57.25C23.7141 55.52 22.5041 54.43 20.9441 54.43C19.3941 54.43 18.1741 55.52 18.1741 57.25C18.1741 58.99 19.3541 60.09 20.9041 60.09C22.4641 60.09 23.7141 58.99 23.7141 57.25ZM19.1041 57.25C19.1041 55.87 19.9741 55.22 20.9341 55.22C21.8741 55.22 22.7841 55.87 22.7841 57.25C22.7841 58.64 21.8541 59.29 20.9041 59.29C19.9541 59.29 19.1041 58.64 19.1041 57.25ZM30.1106 57.25C30.1106 55.52 28.9006 54.43 27.3406 54.43C25.7906 54.43 24.5706 55.52 24.5706 57.25C24.5706 58.99 25.7506 60.09 27.3006 60.09C28.8606 60.09 30.1106 58.99 30.1106 57.25ZM25.5006 57.25C25.5006 55.87 26.3706 55.22 27.3306 55.22C28.2706 55.22 29.1806 55.87 29.1806 57.25C29.1806 58.64 28.2506 59.29 27.3006 59.29C26.3506 59.29 25.5006 58.64 25.5006 57.25ZM35.2471 58.51C35.2071 56.55 32.0271 57.26 32.0271 55.96C32.0271 55.52 32.4271 55.2 33.0971 55.2C33.8271 55.2 34.2471 55.6 34.2871 56.15H35.1971C35.1371 55.08 34.3371 54.43 33.1271 54.43C31.9071 54.43 31.1171 55.12 31.1171 55.96C31.1171 58 34.3571 57.29 34.3571 58.51C34.3571 58.96 33.9571 59.32 33.2371 59.32C32.4671 59.32 31.9971 58.92 31.9471 58.39H31.0071C31.0671 59.39 31.9671 60.09 33.2471 60.09C34.4571 60.09 35.2471 59.41 35.2471 58.51ZM36.7317 58.5C36.7317 59.6 37.2817 60 38.2517 60H39.0717V59.23H38.4017C37.8417 59.23 37.6417 59.04 37.6417 58.5V55.27H39.0717V54.52H37.6417V53.14H36.7317V54.52H36.0217V55.27H36.7317V58.5ZM47.7003 54.52H46.7903V57.53C46.7903 58.71 46.1603 59.29 45.2203 59.29C44.3003 59.29 43.6903 58.72 43.6903 57.61V54.52H42.7903V57.73C42.7903 59.3 43.7803 60.08 45.0403 60.08C45.7703 60.08 46.4403 59.76 46.7903 59.19V60H47.7003V54.52ZM50.1468 55.53V54.52H49.2368V62.6H50.1468V58.99C50.4868 59.55 51.1968 60.09 52.1968 60.09C53.6668 60.09 54.7968 58.94 54.7968 57.24C54.7968 55.53 53.6668 54.43 52.1968 54.43C51.1968 54.43 50.4768 54.95 50.1468 55.53ZM53.8668 57.24C53.8668 58.53 53.0168 59.29 52.0068 59.29C51.0168 59.29 50.1468 58.54 50.1468 57.25C50.1468 55.98 51.0168 55.22 52.0068 55.22C53.0168 55.22 53.8668 55.95 53.8668 57.24ZM60.7406 58.96L59.0206 54.52H58.0106L60.2206 59.94L59.1406 62.58H60.0806L63.3806 54.52H62.4406L60.7406 58.96ZM69.4954 57.25C69.4954 55.52 68.2854 54.43 66.7254 54.43C65.1754 54.43 63.9554 55.52 63.9554 57.25C63.9554 58.99 65.1354 60.09 66.6854 60.09C68.2454 60.09 69.4954 58.99 69.4954 57.25ZM64.8854 57.25C64.8854 55.87 65.7554 55.22 66.7154 55.22C67.6554 55.22 68.5654 55.87 68.5654 57.25C68.5654 58.64 67.6354 59.29 66.6854 59.29C65.7354 59.29 64.8854 58.64 64.8854 57.25ZM75.5519 54.52H74.6419V57.53C74.6419 58.71 74.0119 59.29 73.0719 59.29C72.1519 59.29 71.5419 58.72 71.5419 57.61V54.52H70.6419V57.73C70.6419 59.3 71.6319 60.08 72.8919 60.08C73.6219 60.08 74.2919 59.76 74.6419 59.19V60H75.5519V54.52ZM77.9984 57.02C77.9984 55.75 78.6584 55.36 79.5284 55.36H79.7684V54.42C78.8984 54.42 78.3084 54.8 77.9984 55.41V54.52H77.0884V60H77.9984V57.02ZM84.3948 55.53V54.52H83.4848V62.6H84.3948V58.99C84.7348 59.55 85.4448 60.09 86.4448 60.09C87.9148 60.09 89.0448 58.94 89.0448 57.24C89.0448 55.53 87.9148 54.43 86.4448 54.43C85.4448 54.43 84.7248 54.95 84.3948 55.53ZM88.1148 57.24C88.1148 58.53 87.2648 59.29 86.2548 59.29C85.2648 59.29 84.3948 58.54 84.3948 57.25C84.3948 55.98 85.2648 55.22 86.2548 55.22C87.2648 55.22 88.1148 55.95 88.1148 57.24ZM91.1527 57.02C91.1527 55.75 91.8127 55.36 92.6827 55.36H92.9227V54.42C92.0527 54.42 91.4627 54.8 91.1527 55.41V54.52H90.2427V60H91.1527V57.02ZM99.1731 57.25C99.1731 55.52 97.9631 54.43 96.4031 54.43C94.8531 54.43 93.6331 55.52 93.6331 57.25C93.6331 58.99 94.8131 60.09 96.3631 60.09C97.9231 60.09 99.1731 58.99 99.1731 57.25ZM94.5631 57.25C94.5631 55.87 95.4331 55.22 96.3931 55.22C97.3331 55.22 98.2431 55.87 98.2431 57.25C98.2431 58.64 97.3131 59.29 96.3631 59.29C95.4131 59.29 94.5631 58.64 94.5631 57.25ZM100.54 60H101.45V55.27H102.6V54.52H101.45V54.13C101.45 53.42 101.72 53.12 102.54 53.12V52.36C101.14 52.36 100.54 52.91 100.54 54.13V54.52H99.8296V55.27H100.54V60ZM103.661 60H104.571V54.52H103.661V60ZM104.131 53.63C104.461 53.63 104.731 53.36 104.731 53.01C104.731 52.66 104.461 52.39 104.131 52.39C103.781 52.39 103.511 52.66 103.511 53.01C103.511 53.36 103.781 53.63 104.131 53.63ZM106.122 60H107.032V52.6H106.122V60ZM110.913 55.2C111.853 55.2 112.653 55.79 112.643 56.86H109.183C109.282 55.79 110.023 55.2 110.913 55.2ZM113.473 58.31H112.493C112.293 58.9 111.773 59.32 110.953 59.32C110.023 59.32 109.243 58.71 109.173 57.6H113.553C113.573 57.41 113.583 57.25 113.583 57.05C113.583 55.55 112.543 54.43 110.953 54.43C109.353 54.43 108.243 55.52 108.243 57.25C108.243 58.99 109.393 60.09 110.953 60.09C112.313 60.09 113.193 59.31 113.473 58.31Z" fill="#686868"/>
<ellipse cx="62.5019" cy="21.136" rx="17.3337" ry="8.95943" transform="rotate(-29.1983 62.5019 21.136)" fill="#F1EDFF"/>
<path d="M70.357 17.9733C72.5073 19.6602 70.6987 23.3155 66.3174 26.1376C61.9361 28.9596 56.6412 29.8798 54.4909 28.1929C52.3407 26.506 54.1493 22.8507 58.5306 20.0287C62.9119 17.2066 68.2067 16.2864 70.357 17.9733Z" fill="#AFADAD"/>
<path d="M66.4456 21.3116L62.0967 14.7927L54.8037 19.6586L59.1526 26.1775L63.0879 23.5764L66.4456 21.3116Z" fill="white" stroke="#AFADAD" stroke-width="1.5" stroke-miterlimit="10" stroke-linecap="round" stroke-linejoin="round"/>
<path d="M62.0917 14.7918L60.3164 12.1306L53.0234 16.9965L54.7987 19.6576L62.0917 14.7918Z" fill="white" stroke="#AFADAD" stroke-width="1.5" stroke-miterlimit="10" stroke-linecap="round" stroke-linejoin="round"/>
<path d="M60.3225 12.1504L55.9848 5.64752L48.0842 1.70755L48.6894 10.5139L53.0271 17.0168L60.3225 12.1504Z" fill="white" stroke="#AFADAD" stroke-width="1.5" stroke-miterlimit="10" stroke-linecap="round" stroke-linejoin="round"/>
<path d="M52.3372 8.08334L48.0841 1.70819" stroke="#AFADAD" stroke-width="1.5" stroke-miterlimit="10" stroke-linecap="round" stroke-linejoin="round"/>
<path d="M53.4152 11.1736C53.4365 11.7037 53.8835 12.116 54.4136 12.0947C54.9436 12.0733 55.356 11.6263 55.3346 11.0962C55.3132 10.5662 54.8662 10.1538 54.3362 10.1752C53.8062 10.1965 53.3938 10.6435 53.4152 11.1736Z" fill="white" stroke="#AFADAD" stroke-width="1.5" stroke-miterlimit="10" stroke-linecap="round" stroke-linejoin="round"/>
</svg>
