<svg width="22" height="19" viewBox="0 0 22 19" fill="none" xmlns="http://www.w3.org/2000/svg">
<path fill-rule="evenodd" clip-rule="evenodd" d="M11.2431 0.715967C11.0877 0.650342 10.9123 0.650342 10.7569 0.715967L1.38189 4.6743C1.15044 4.77203 1 4.99884 1 5.25008C1 5.50132 1.15044 5.72814 1.38189 5.82586L4.54167 7.15999V10.3297C4.13651 10.4347 3.75198 10.6441 3.43567 10.9604C2.95335 11.4427 2.66667 12.1357 2.66667 12.9844V16.7344C2.66667 16.9421 2.77329 17.1401 2.94591 17.255C2.99517 17.2877 3.04374 17.3157 3.12931 17.3585C3.2323 17.41 3.3768 17.4737 3.56274 17.5357C3.93551 17.6599 4.47092 17.7761 5.16667 17.7761C5.86239 17.7761 6.39777 17.66 6.77053 17.5357C6.95647 17.4738 7.10096 17.4101 7.20395 17.3586C7.28464 17.3183 7.33182 17.2906 7.37887 17.2608C7.55511 17.146 7.66667 16.9454 7.66667 16.7345V12.9845C7.66667 12.1358 7.37999 11.4428 6.89768 10.9605C6.58137 10.6442 6.19683 10.4348 5.79167 10.3297V7.68777L10.7569 9.7842C10.9123 9.84982 11.0877 9.84982 11.2431 9.7842L15.5834 7.95165V11.2869C15.5645 11.3081 15.5427 11.3317 15.5177 11.3574C15.3831 11.4958 15.1563 11.6949 14.81 11.8993C14.1215 12.3057 12.9312 12.7501 11 12.7501C10.49 12.7501 10.032 12.7191 9.62169 12.6661C9.27935 12.6219 8.96601 12.8636 8.92183 13.206C8.87764 13.5483 9.11934 13.8616 9.46168 13.9058C9.9277 13.966 10.4392 14.0001 11 14.0001C13.1314 14.0001 14.5452 13.507 15.4453 12.9758C15.8932 12.7115 16.2068 12.4418 16.414 12.2287C16.5335 12.1058 16.6511 11.9737 16.7411 11.8268L16.7417 11.826C16.8016 11.7279 16.8334 11.6151 16.8334 11.5001V7.42387L20.6181 5.82586C20.8496 5.72814 21 5.50132 21 5.25008C21 4.99884 20.8496 4.77203 20.6181 4.6743L11.2431 0.715967ZM5.16661 11.5001C5.1666 11.5001 5.16663 11.5001 5.16661 11.5001C4.85248 11.5001 4.54621 11.6177 4.31954 11.8443C4.09873 12.0651 3.91667 12.4269 3.91667 12.9844V16.3356C4.16575 16.4233 4.58105 16.5261 5.16667 16.5261C5.75226 16.5261 6.16756 16.4234 6.41667 16.3357V12.9845C6.41667 12.4269 6.2346 12.0652 6.01378 11.8444C5.78709 11.6177 5.48076 11.5001 5.16661 11.5001ZM11 8.52999L3.2318 5.25008L11 1.97017L18.7682 5.25008L11 8.52999Z" fill="white"/>
<path d="M5.16661 11.5001C5.16663 11.5001 5.1666 11.5001 5.16661 11.5001ZM5.16661 11.5001C4.85248 11.5001 4.54621 11.6177 4.31954 11.8443C4.09873 12.0651 3.91667 12.4269 3.91667 12.9844V16.3356C4.16575 16.4233 4.58105 16.5261 5.16667 16.5261C5.75226 16.5261 6.16756 16.4234 6.41667 16.3357V12.9845C6.41667 12.4269 6.2346 12.0652 6.01378 11.8444C5.78709 11.6177 5.48076 11.5001 5.16661 11.5001ZM10.7569 0.715967C10.9123 0.650342 11.0877 0.650342 11.2431 0.715967L20.6181 4.6743C20.8496 4.77203 21 4.99884 21 5.25008C21 5.50132 20.8496 5.72814 20.6181 5.82586L16.8334 7.42387V11.5001C16.8334 11.6151 16.8016 11.7279 16.7417 11.826L16.7411 11.8268C16.6511 11.9737 16.5335 12.1058 16.414 12.2287C16.2068 12.4418 15.8932 12.7115 15.4453 12.9758C14.5452 13.507 13.1314 14.0001 11 14.0001C10.4392 14.0001 9.9277 13.966 9.46168 13.9058C9.11934 13.8616 8.87764 13.5483 8.92183 13.206C8.96601 12.8636 9.27935 12.6219 9.62169 12.6661C10.032 12.7191 10.49 12.7501 11 12.7501C12.9312 12.7501 14.1215 12.3057 14.81 11.8993C15.1563 11.6949 15.3831 11.4958 15.5177 11.3574C15.5427 11.3317 15.5645 11.3081 15.5834 11.2869V7.95165L11.2431 9.7842C11.0877 9.84982 10.9123 9.84982 10.7569 9.7842L5.79167 7.68777V10.3297C6.19683 10.4348 6.58137 10.6442 6.89768 10.9605C7.37999 11.4428 7.66667 12.1358 7.66667 12.9845V16.7345C7.66667 16.9454 7.55511 17.146 7.37887 17.2608C7.33182 17.2906 7.28464 17.3183 7.20395 17.3586C7.10096 17.4101 6.95647 17.4738 6.77053 17.5357C6.39777 17.66 5.86239 17.7761 5.16667 17.7761C4.47092 17.7761 3.93551 17.6599 3.56274 17.5357C3.3768 17.4737 3.2323 17.41 3.12931 17.3585C3.04374 17.3157 2.99517 17.2877 2.94591 17.255C2.77329 17.1401 2.66667 16.9421 2.66667 16.7344V12.9844C2.66667 12.1357 2.95335 11.4427 3.43567 10.9604C3.75198 10.6441 4.13651 10.4347 4.54167 10.3297V7.15999L1.38189 5.82586C1.15044 5.72814 1 5.50132 1 5.25008C1 4.99884 1.15044 4.77203 1.38189 4.6743L10.7569 0.715967ZM3.2318 5.25008L11 8.52999L18.7682 5.25008L11 1.97017L3.2318 5.25008Z" stroke="white" stroke-width="0.5" stroke-linecap="round" stroke-linejoin="round"/>
</svg>
