<svg width="553" height="553" viewBox="0 0 553 553" fill="none" xmlns="http://www.w3.org/2000/svg">
<path d="M430.111 0H122.889C55.0235 0 0 55.0235 0 122.889V430.111C0 497.976 55.0235 553 122.889 553H295.579V339.143H223.596V255.425H295.579V193.826C295.579 122.428 339.235 83.503 402.953 83.503C424.427 83.4416 445.872 84.5476 467.224 86.7288V161.384H423.352C388.636 161.384 381.877 177.789 381.877 201.999V255.302H464.827L454.044 339.02H381.386V553H430.111C497.976 553 553 497.976 553 430.111V122.889C553 55.0235 497.976 0 430.111 0Z" fill="#FEBE16"/>
</svg>
