<svg width="167" height="160" viewBox="0 0 167 160" fill="none" xmlns="http://www.w3.org/2000/svg">
<path fill-rule="evenodd" clip-rule="evenodd" d="M129.866 3C129.866 1.89543 130.761 1 131.866 1H147.403C148.508 1 149.403 1.89543 149.403 3V24.8582C149.403 25.9628 148.508 26.8582 147.403 26.8582H142.385C142.087 26.8582 141.794 26.9246 141.525 27.0525L132.726 31.2426C131.398 31.8746 129.866 30.9069 129.866 29.4369V26.8582C129.866 26.8582 129.866 26.8582 129.866 26.8582C129.866 26.8582 129.866 26.8582 129.866 26.8582V3Z" fill="#F1EDFF"/>
<path d="M132.726 31.2426L132.511 30.7912L132.726 31.2426ZM141.525 27.0525L141.31 26.6011L141.525 27.0525ZM147.403 0.5H131.866V1.5H147.403V0.5ZM149.903 24.8582V3H148.903V24.8582H149.903ZM142.385 27.3582H147.403V26.3582H142.385V27.3582ZM141.31 26.6011L132.511 30.7912L132.941 31.6941L141.74 27.5039L141.31 26.6011ZM130.366 29.4369V26.8582H129.366V29.4369H130.366ZM129.366 3V26.8582H130.366V3H129.366ZM129.866 27.3582C130.12 27.3582 130.366 27.1562 130.366 26.8582H129.366C129.366 26.5602 129.612 26.3582 129.866 26.3582V27.3582ZM130.366 26.8582C130.366 27.1385 130.138 27.3582 129.866 27.3582V26.3582C129.594 26.3582 129.366 26.5779 129.366 26.8582H130.366ZM132.511 30.7912C131.515 31.2652 130.366 30.5394 130.366 29.4369H129.366C129.366 31.2744 131.282 32.4841 132.941 31.6941L132.511 30.7912ZM142.385 26.3582C142.013 26.3582 141.646 26.4412 141.31 26.6011L141.74 27.5039C141.941 27.408 142.162 27.3582 142.385 27.3582V26.3582ZM148.903 24.8582C148.903 25.6866 148.232 26.3582 147.403 26.3582V27.3582C148.784 27.3582 149.903 26.2389 149.903 24.8582H148.903ZM131.866 0.5C130.485 0.5 129.366 1.61929 129.366 3H130.366C130.366 2.17157 131.037 1.5 131.866 1.5V0.5ZM147.403 1.5C148.232 1.5 148.903 2.17157 148.903 3H149.903C149.903 1.61929 148.784 0.5 147.403 0.5V1.5Z" fill="black"/>
<path d="M0 80C0 73.3726 5.37258 68 12 68H154.067C160.695 68 166.067 73.3726 166.067 80V147.94C166.067 154.568 160.695 159.94 154.067 159.94H12C5.37257 159.94 0 154.568 0 147.94V80Z" fill="#6646E7"/>
<path d="M47.36 101.274V103.722H42.14V106.512H46.172V108.852H42.14V114H39.062V101.274H47.36ZM58.4809 108.708C58.4809 108.96 58.4509 109.236 58.3909 109.536H51.4249C51.4609 110.292 51.6529 110.838 52.0009 111.174C52.3489 111.498 52.7929 111.66 53.3329 111.66C53.7889 111.66 54.1669 111.546 54.4669 111.318C54.7669 111.09 54.9649 110.796 55.0609 110.436H58.3189C58.1869 111.144 57.8989 111.78 57.4549 112.344C57.0109 112.896 56.4469 113.334 55.7629 113.658C55.0789 113.97 54.3169 114.126 53.4769 114.126C52.4929 114.126 51.6169 113.922 50.8489 113.514C50.0929 113.094 49.4989 112.494 49.0669 111.714C48.6349 110.934 48.4189 110.022 48.4189 108.978C48.4189 107.922 48.6289 107.01 49.0489 106.242C49.4809 105.462 50.0809 104.868 50.8489 104.46C51.6169 104.04 52.4929 103.83 53.4769 103.83C54.4729 103.83 55.3489 104.034 56.1049 104.442C56.8609 104.85 57.4429 105.426 57.8509 106.17C58.2709 106.902 58.4809 107.748 58.4809 108.708ZM55.3669 108.24C55.3789 107.58 55.1989 107.088 54.8269 106.764C54.4669 106.428 54.0169 106.26 53.4769 106.26C52.9129 106.26 52.4449 106.428 52.0729 106.764C51.7009 107.1 51.4909 107.592 51.4429 108.24H55.3669ZM69.6254 108.708C69.6254 108.96 69.5954 109.236 69.5354 109.536H62.5694C62.6054 110.292 62.7974 110.838 63.1454 111.174C63.4934 111.498 63.9374 111.66 64.4774 111.66C64.9334 111.66 65.3114 111.546 65.6114 111.318C65.9114 111.09 66.1094 110.796 66.2054 110.436H69.4634C69.3314 111.144 69.0434 111.78 68.5994 112.344C68.1554 112.896 67.5914 113.334 66.9074 113.658C66.2234 113.97 65.4614 114.126 64.6214 114.126C63.6374 114.126 62.7614 113.922 61.9934 113.514C61.2374 113.094 60.6434 112.494 60.2114 111.714C59.7794 110.934 59.5634 110.022 59.5634 108.978C59.5634 107.922 59.7734 107.01 60.1934 106.242C60.6254 105.462 61.2254 104.868 61.9934 104.46C62.7614 104.04 63.6374 103.83 64.6214 103.83C65.6174 103.83 66.4934 104.034 67.2494 104.442C68.0054 104.85 68.5874 105.426 68.9954 106.17C69.4154 106.902 69.6254 107.748 69.6254 108.708ZM66.5114 108.24C66.5234 107.58 66.3434 107.088 65.9714 106.764C65.6114 106.428 65.1614 106.26 64.6214 106.26C64.0574 106.26 63.5894 106.428 63.2174 106.764C62.8454 107.1 62.6354 107.592 62.5874 108.24H66.5114ZM75.046 103.83C75.814 103.83 76.474 104.004 77.026 104.352C77.578 104.7 77.98 105.174 78.232 105.774V100.68H81.31V114H78.232V112.182C77.98 112.782 77.578 113.256 77.026 113.604C76.474 113.952 75.814 114.126 75.046 114.126C74.218 114.126 73.474 113.922 72.814 113.514C72.166 113.094 71.65 112.494 71.266 111.714C70.894 110.934 70.708 110.022 70.708 108.978C70.708 107.922 70.894 107.01 71.266 106.242C71.65 105.462 72.166 104.868 72.814 104.46C73.474 104.04 74.218 103.83 75.046 103.83ZM76.036 106.53C75.376 106.53 74.842 106.746 74.434 107.178C74.038 107.61 73.84 108.21 73.84 108.978C73.84 109.746 74.038 110.346 74.434 110.778C74.842 111.21 75.376 111.426 76.036 111.426C76.684 111.426 77.212 111.204 77.62 110.76C78.04 110.316 78.25 109.722 78.25 108.978C78.25 108.222 78.04 107.628 77.62 107.196C77.212 106.752 76.684 106.53 76.036 106.53ZM89.6932 103.83C90.5212 103.83 91.2592 104.04 91.9072 104.46C92.5672 104.868 93.0832 105.462 93.4552 106.242C93.8392 107.01 94.0312 107.922 94.0312 108.978C94.0312 110.022 93.8392 110.934 93.4552 111.714C93.0832 112.494 92.5672 113.094 91.9072 113.514C91.2592 113.922 90.5212 114.126 89.6932 114.126C88.9252 114.126 88.2652 113.952 87.7132 113.604C87.1612 113.256 86.7592 112.782 86.5072 112.182V114H83.4292V100.68H86.5072V105.774C86.7592 105.174 87.1612 104.7 87.7132 104.352C88.2652 104.004 88.9252 103.83 89.6932 103.83ZM88.7032 106.53C88.0552 106.53 87.5212 106.752 87.1012 107.196C86.6932 107.628 86.4892 108.222 86.4892 108.978C86.4892 109.722 86.6932 110.316 87.1012 110.76C87.5212 111.204 88.0552 111.426 88.7032 111.426C89.3632 111.426 89.8912 111.21 90.2872 110.778C90.6952 110.346 90.8992 109.746 90.8992 108.978C90.8992 108.21 90.6952 107.61 90.2872 107.178C89.8912 106.746 89.3632 106.53 88.7032 106.53ZM99.4444 103.83C100.212 103.83 100.872 104.004 101.424 104.352C101.976 104.7 102.384 105.174 102.648 105.774V103.956H105.708V114H102.648V112.182C102.384 112.782 101.976 113.256 101.424 113.604C100.872 113.952 100.212 114.126 99.4444 114.126C98.6164 114.126 97.8724 113.922 97.2124 113.514C96.5644 113.094 96.0484 112.494 95.6644 111.714C95.2924 110.934 95.1064 110.022 95.1064 108.978C95.1064 107.922 95.2924 107.01 95.6644 106.242C96.0484 105.462 96.5644 104.868 97.2124 104.46C97.8724 104.04 98.6164 103.83 99.4444 103.83ZM100.434 106.53C99.7744 106.53 99.2404 106.746 98.8324 107.178C98.4364 107.61 98.2384 108.21 98.2384 108.978C98.2384 109.746 98.4364 110.346 98.8324 110.778C99.2404 111.21 99.7744 111.426 100.434 111.426C101.082 111.426 101.61 111.204 102.018 110.76C102.438 110.316 102.648 109.722 102.648 108.978C102.648 108.222 102.438 107.628 102.018 107.196C101.61 106.752 101.082 106.53 100.434 106.53ZM112.364 103.83C113.66 103.83 114.746 104.19 115.622 104.91C116.498 105.618 117.05 106.596 117.278 107.844H114.02C113.924 107.412 113.726 107.076 113.426 106.836C113.126 106.596 112.748 106.476 112.292 106.476C111.752 106.476 111.308 106.692 110.96 107.124C110.612 107.544 110.438 108.162 110.438 108.978C110.438 109.794 110.612 110.418 110.96 110.85C111.308 111.27 111.752 111.48 112.292 111.48C112.748 111.48 113.126 111.36 113.426 111.12C113.726 110.88 113.924 110.544 114.02 110.112H117.278C117.05 111.36 116.498 112.344 115.622 113.064C114.746 113.772 113.66 114.126 112.364 114.126C111.38 114.126 110.504 113.922 109.736 113.514C108.98 113.094 108.386 112.494 107.954 111.714C107.522 110.934 107.306 110.022 107.306 108.978C107.306 107.922 107.516 107.01 107.936 106.242C108.368 105.462 108.968 104.868 109.736 104.46C110.504 104.04 111.38 103.83 112.364 103.83ZM124.968 114L121.962 109.734V114H118.884V100.68H121.962V107.988L124.968 103.956H128.586L124.536 108.978L128.676 114H124.968Z" fill="#F1EDFF"/>
<path d="M34.1933 124.36V130H33.4573V127.392H30.5933V130H29.8653V124.36H30.5933V126.8H33.4573V124.36H34.1933ZM39.3974 127.56C39.3974 127.715 39.3868 127.848 39.3654 127.96H35.8534C35.8694 128.461 36.0108 128.837 36.2774 129.088C36.5494 129.339 36.8801 129.464 37.2694 129.464C37.6214 129.464 37.9148 129.376 38.1494 129.2C38.3894 129.019 38.5361 128.779 38.5894 128.48H39.3654C39.3121 128.784 39.1921 129.056 39.0054 129.296C38.8241 129.536 38.5868 129.723 38.2934 129.856C38.0001 129.989 37.6694 130.056 37.3014 130.056C36.8801 130.056 36.5068 129.965 36.1814 129.784C35.8561 129.603 35.6001 129.344 35.4134 129.008C35.2321 128.667 35.1414 128.267 35.1414 127.808C35.1414 127.349 35.2321 126.949 35.4134 126.608C35.6001 126.267 35.8561 126.005 36.1814 125.824C36.5068 125.643 36.8801 125.552 37.3014 125.552C37.7281 125.552 38.0988 125.643 38.4134 125.824C38.7334 126.005 38.9761 126.248 39.1414 126.552C39.3121 126.856 39.3974 127.192 39.3974 127.56ZM38.6614 127.608C38.6774 127.283 38.6241 127.011 38.5014 126.792C38.3788 126.573 38.2108 126.411 37.9974 126.304C37.7841 126.197 37.5521 126.144 37.3014 126.144C36.9014 126.144 36.5654 126.269 36.2934 126.52C36.0214 126.765 35.8748 127.128 35.8534 127.608H38.6614ZM41.0776 124.08V130H40.3496V124.08H41.0776ZM44.6721 125.552C45.0614 125.552 45.4081 125.643 45.7121 125.824C46.0161 126.005 46.2534 126.267 46.4241 126.608C46.6001 126.949 46.6881 127.349 46.6881 127.808C46.6881 128.267 46.6001 128.667 46.4241 129.008C46.2534 129.344 46.0161 129.603 45.7121 129.784C45.4081 129.965 45.0614 130.056 44.6721 130.056C44.2454 130.056 43.8827 129.949 43.5841 129.736C43.2907 129.517 43.0881 129.232 42.9761 128.88V132.08H42.2481V125.608H42.9761V126.728C43.0881 126.376 43.2907 126.093 43.5841 125.88C43.8827 125.661 44.2454 125.552 44.6721 125.552ZM44.4641 126.2C44.1814 126.2 43.9254 126.267 43.6961 126.4C43.4667 126.528 43.2881 126.715 43.1601 126.96C43.0321 127.205 42.9681 127.488 42.9681 127.808C42.9681 128.128 43.0321 128.411 43.1601 128.656C43.2881 128.896 43.4667 129.083 43.6961 129.216C43.9254 129.349 44.1814 129.416 44.4641 129.416C44.9174 129.416 45.2774 129.275 45.5441 128.992C45.8161 128.704 45.9521 128.309 45.9521 127.808C45.9521 127.307 45.8161 126.915 45.5441 126.632C45.2774 126.344 44.9174 126.2 44.4641 126.2ZM53.5193 125.608V130H52.7913V128.968C52.6793 129.325 52.4793 129.6 52.1913 129.792C51.9086 129.979 51.5779 130.072 51.1993 130.072C50.6926 130.072 50.2819 129.909 49.9673 129.584C49.6526 129.253 49.4953 128.781 49.4953 128.168V125.608H50.2233V128.096C50.2233 128.533 50.3353 128.872 50.5593 129.112C50.7833 129.347 51.0873 129.464 51.4713 129.464C51.8713 129.464 52.1913 129.336 52.4313 129.08C52.6713 128.819 52.7913 128.44 52.7913 127.944V125.608H53.5193ZM56.0616 125.552C56.5576 125.552 56.9549 125.683 57.2536 125.944C57.5576 126.2 57.7416 126.547 57.8056 126.984H57.1096C57.0776 126.723 56.9682 126.509 56.7816 126.344C56.6002 126.173 56.3549 126.088 56.0456 126.088C55.7842 126.088 55.5789 126.152 55.4296 126.28C55.2856 126.403 55.2136 126.571 55.2136 126.784C55.2136 126.944 55.2616 127.075 55.3576 127.176C55.4589 127.272 55.5816 127.347 55.7256 127.4C55.8749 127.448 56.0776 127.501 56.3336 127.56C56.6589 127.635 56.9202 127.712 57.1176 127.792C57.3202 127.867 57.4909 127.989 57.6296 128.16C57.7736 128.331 57.8456 128.56 57.8456 128.848C57.8456 129.205 57.7096 129.496 57.4376 129.72C57.1709 129.944 56.8136 130.056 56.3656 130.056C55.8429 130.056 55.4162 129.931 55.0856 129.68C54.7549 129.429 54.5602 129.08 54.5016 128.632H55.2056C55.2322 128.899 55.3469 129.115 55.5496 129.28C55.7576 129.445 56.0296 129.528 56.3656 129.528C56.6162 129.528 56.8109 129.464 56.9496 129.336C57.0936 129.208 57.1656 129.04 57.1656 128.832C57.1656 128.661 57.1149 128.525 57.0136 128.424C56.9122 128.323 56.7869 128.245 56.6376 128.192C56.4882 128.139 56.2829 128.083 56.0216 128.024C55.6962 127.949 55.4349 127.875 55.2376 127.8C55.0456 127.725 54.8802 127.608 54.7416 127.448C54.6082 127.283 54.5416 127.061 54.5416 126.784C54.5416 126.416 54.6776 126.12 54.9496 125.896C55.2216 125.667 55.5922 125.552 56.0616 125.552ZM66.1949 125.536C66.7069 125.536 67.1176 125.701 67.4269 126.032C67.7416 126.357 67.8989 126.829 67.8989 127.448V130H67.1709V127.512C67.1709 127.08 67.0643 126.749 66.8509 126.52C66.6429 126.291 66.3549 126.176 65.9869 126.176C65.6029 126.176 65.2936 126.304 65.0589 126.56C64.8296 126.811 64.7149 127.181 64.7149 127.672V130H63.9869V127.512C63.9869 127.08 63.8803 126.749 63.6669 126.52C63.4536 126.291 63.1656 126.176 62.8029 126.176C62.4136 126.176 62.1016 126.304 61.8669 126.56C61.6376 126.811 61.5229 127.181 61.5229 127.672V130H60.7949V125.608H61.5229V126.608C61.6296 126.261 61.8189 125.997 62.0909 125.816C62.3683 125.629 62.6856 125.536 63.0429 125.536C63.4163 125.536 63.7389 125.632 64.0109 125.824C64.2883 126.011 64.4856 126.288 64.6029 126.656C64.7256 126.299 64.9309 126.024 65.2189 125.832C65.5069 125.635 65.8323 125.536 66.1949 125.536ZM70.8293 125.552C71.256 125.552 71.616 125.659 71.9093 125.872C72.208 126.085 72.416 126.371 72.5333 126.728V125.608H73.2613V130H72.5333V128.88C72.416 129.237 72.208 129.523 71.9093 129.736C71.616 129.949 71.256 130.056 70.8293 130.056C70.44 130.056 70.0933 129.965 69.7893 129.784C69.4853 129.603 69.2453 129.344 69.0693 129.008C68.8986 128.667 68.8133 128.267 68.8133 127.808C68.8133 127.349 68.8986 126.949 69.0693 126.608C69.2453 126.267 69.4853 126.005 69.7893 125.824C70.0933 125.643 70.44 125.552 70.8293 125.552ZM71.0373 126.2C70.5893 126.2 70.2293 126.344 69.9573 126.632C69.6906 126.915 69.5573 127.307 69.5573 127.808C69.5573 128.309 69.6906 128.704 69.9573 128.992C70.2293 129.275 70.5893 129.416 71.0373 129.416C71.3253 129.416 71.5813 129.349 71.8053 129.216C72.0346 129.083 72.2133 128.896 72.3413 128.656C72.4693 128.411 72.5333 128.128 72.5333 127.808C72.5333 127.488 72.4693 127.205 72.3413 126.96C72.2133 126.715 72.0346 126.528 71.8053 126.4C71.5813 126.267 71.3253 126.2 71.0373 126.2ZM76.8279 130L75.1479 128.024V130H74.4199V124.08H75.1479V127.52L76.8039 125.608H77.6919L75.7239 127.792L77.7399 130H76.8279ZM82.4209 127.56C82.4209 127.715 82.4102 127.848 82.3889 127.96H78.8769C78.8929 128.461 79.0342 128.837 79.3009 129.088C79.5729 129.339 79.9035 129.464 80.2929 129.464C80.6449 129.464 80.9382 129.376 81.1729 129.2C81.4129 129.019 81.5595 128.779 81.6129 128.48H82.3889C82.3355 128.784 82.2155 129.056 82.0289 129.296C81.8475 129.536 81.6102 129.723 81.3169 129.856C81.0235 129.989 80.6929 130.056 80.3249 130.056C79.9035 130.056 79.5302 129.965 79.2049 129.784C78.8795 129.603 78.6235 129.344 78.4369 129.008C78.2555 128.667 78.1649 128.267 78.1649 127.808C78.1649 127.349 78.2555 126.949 78.4369 126.608C78.6235 126.267 78.8795 126.005 79.2049 125.824C79.5302 125.643 79.9035 125.552 80.3249 125.552C80.7515 125.552 81.1222 125.643 81.4369 125.824C81.7569 126.005 81.9995 126.248 82.1649 126.552C82.3355 126.856 82.4209 127.192 82.4209 127.56ZM81.6849 127.608C81.7009 127.283 81.6475 127.011 81.5249 126.792C81.4022 126.573 81.2342 126.411 81.0209 126.304C80.8075 126.197 80.5755 126.144 80.3249 126.144C79.9249 126.144 79.5889 126.269 79.3169 126.52C79.0449 126.765 78.8982 127.128 78.8769 127.608H81.6849ZM87.4456 129.36V130H86.9016C86.4536 130 86.1176 129.893 85.8936 129.68C85.675 129.467 85.5656 129.109 85.5656 128.608V126.24H84.9096V125.608H85.5656V124.512H86.3016V125.608H87.4376V126.24H86.3016V128.624C86.3016 128.907 86.3523 129.101 86.4536 129.208C86.5603 129.309 86.7416 129.36 86.9976 129.36H87.4456ZM90.646 125.536C91.158 125.536 91.5713 125.701 91.886 126.032C92.2007 126.357 92.358 126.829 92.358 127.448V130H91.63V127.512C91.63 127.075 91.518 126.739 91.294 126.504C91.07 126.269 90.766 126.152 90.382 126.152C89.982 126.152 89.662 126.283 89.422 126.544C89.182 126.8 89.062 127.176 89.062 127.672V130H88.334V124.08H89.062V126.648C89.174 126.291 89.3713 126.016 89.654 125.824C89.942 125.632 90.2727 125.536 90.646 125.536ZM93.3466 124.32C93.3466 124.187 93.392 124.08 93.4826 124C93.5733 123.915 93.6933 123.872 93.8426 123.872C93.992 123.872 94.112 123.915 94.2026 124C94.2933 124.08 94.3386 124.187 94.3386 124.32C94.3386 124.453 94.2933 124.563 94.2026 124.648C94.112 124.728 93.992 124.768 93.8426 124.768C93.6933 124.768 93.5733 124.728 93.4826 124.648C93.392 124.563 93.3466 124.453 93.3466 124.32ZM94.2026 125.608V130H93.4746V125.608H94.2026ZM96.7491 125.552C97.2451 125.552 97.6424 125.683 97.9411 125.944C98.2451 126.2 98.4291 126.547 98.4931 126.984H97.7971C97.7651 126.723 97.6557 126.509 97.4691 126.344C97.2877 126.173 97.0424 126.088 96.7331 126.088C96.4717 126.088 96.2664 126.152 96.1171 126.28C95.9731 126.403 95.9011 126.571 95.9011 126.784C95.9011 126.944 95.9491 127.075 96.0451 127.176C96.1464 127.272 96.2691 127.347 96.4131 127.4C96.5624 127.448 96.7651 127.501 97.0211 127.56C97.3464 127.635 97.6077 127.712 97.8051 127.792C98.0077 127.867 98.1784 127.989 98.3171 128.16C98.4611 128.331 98.5331 128.56 98.5331 128.848C98.5331 129.205 98.3971 129.496 98.1251 129.72C97.8584 129.944 97.5011 130.056 97.0531 130.056C96.5304 130.056 96.1037 129.931 95.7731 129.68C95.4424 129.429 95.2477 129.08 95.1891 128.632H95.8931C95.9197 128.899 96.0344 129.115 96.2371 129.28C96.4451 129.445 96.7171 129.528 97.0531 129.528C97.3037 129.528 97.4984 129.464 97.6371 129.336C97.7811 129.208 97.8531 129.04 97.8531 128.832C97.8531 128.661 97.8024 128.525 97.7011 128.424C97.5997 128.323 97.4744 128.245 97.3251 128.192C97.1757 128.139 96.9704 128.083 96.7091 128.024C96.3837 127.949 96.1224 127.875 95.9251 127.8C95.7331 127.725 95.5677 127.608 95.4291 127.448C95.2957 127.283 95.2291 127.061 95.2291 126.784C95.2291 126.416 95.3651 126.12 95.6371 125.896C95.9091 125.667 96.2797 125.552 96.7491 125.552ZM103.906 125.552C104.296 125.552 104.642 125.643 104.946 125.824C105.25 126.005 105.488 126.267 105.658 126.608C105.834 126.949 105.922 127.349 105.922 127.808C105.922 128.267 105.834 128.667 105.658 129.008C105.488 129.344 105.25 129.603 104.946 129.784C104.642 129.965 104.296 130.056 103.906 130.056C103.48 130.056 103.117 129.949 102.818 129.736C102.525 129.517 102.322 129.232 102.21 128.88V132.08H101.482V125.608H102.21V126.728C102.322 126.376 102.525 126.093 102.818 125.88C103.117 125.661 103.48 125.552 103.906 125.552ZM103.698 126.2C103.416 126.2 103.16 126.267 102.93 126.4C102.701 126.528 102.522 126.715 102.394 126.96C102.266 127.205 102.202 127.488 102.202 127.808C102.202 128.128 102.266 128.411 102.394 128.656C102.522 128.896 102.701 129.083 102.93 129.216C103.16 129.349 103.416 129.416 103.698 129.416C104.152 129.416 104.512 129.275 104.778 128.992C105.05 128.704 105.186 128.309 105.186 127.808C105.186 127.307 105.05 126.915 104.778 126.632C104.512 126.344 104.152 126.2 103.698 126.2ZM107.601 124.08V130H106.873V124.08H107.601ZM110.572 125.552C110.998 125.552 111.358 125.659 111.652 125.872C111.95 126.085 112.158 126.371 112.276 126.728V125.608H113.004V130H112.276V128.88C112.158 129.237 111.95 129.523 111.652 129.736C111.358 129.949 110.998 130.056 110.572 130.056C110.182 130.056 109.836 129.965 109.532 129.784C109.228 129.603 108.988 129.344 108.812 129.008C108.641 128.667 108.556 128.267 108.556 127.808C108.556 127.349 108.641 126.949 108.812 126.608C108.988 126.267 109.228 126.005 109.532 125.824C109.836 125.643 110.182 125.552 110.572 125.552ZM110.78 126.2C110.332 126.2 109.972 126.344 109.7 126.632C109.433 126.915 109.3 127.307 109.3 127.808C109.3 128.309 109.433 128.704 109.7 128.992C109.972 129.275 110.332 129.416 110.78 129.416C111.068 129.416 111.324 129.349 111.548 129.216C111.777 129.083 111.956 128.896 112.084 128.656C112.212 128.411 112.276 128.128 112.276 127.808C112.276 127.488 112.212 127.205 112.084 126.96C111.956 126.715 111.777 126.528 111.548 126.4C111.324 126.267 111.068 126.2 110.78 126.2ZM116.258 129.36V130H115.714C115.266 130 114.93 129.893 114.706 129.68C114.487 129.467 114.378 129.109 114.378 128.608V126.24H113.722V125.608H114.378V124.512H115.114V125.608H116.25V126.24H115.114V128.624C115.114 128.907 115.165 129.101 115.266 129.208C115.373 129.309 115.554 129.36 115.81 129.36H116.258ZM119.091 124.568C118.701 124.563 118.429 124.629 118.275 124.768C118.125 124.907 118.051 125.147 118.051 125.488V125.608H119.091V126.248H118.051V130H117.323V126.248H116.691V125.608H117.323V125.432C117.323 124.381 117.912 123.88 119.091 123.928V124.568ZM121.873 125.552C122.294 125.552 122.67 125.643 123.001 125.824C123.337 126.005 123.598 126.267 123.785 126.608C123.977 126.949 124.073 127.349 124.073 127.808C124.073 128.267 123.977 128.667 123.785 129.008C123.598 129.344 123.337 129.603 123.001 129.784C122.67 129.965 122.294 130.056 121.873 130.056C121.452 130.056 121.073 129.965 120.737 129.784C120.406 129.603 120.145 129.344 119.953 129.008C119.761 128.667 119.665 128.267 119.665 127.808C119.665 127.349 119.761 126.949 119.953 126.608C120.145 126.267 120.406 126.005 120.737 125.824C121.073 125.643 121.452 125.552 121.873 125.552ZM121.873 126.192C121.612 126.192 121.369 126.251 121.145 126.368C120.926 126.485 120.748 126.667 120.609 126.912C120.476 127.152 120.409 127.451 120.409 127.808C120.409 128.16 120.476 128.459 120.609 128.704C120.748 128.944 120.926 129.123 121.145 129.24C121.369 129.357 121.612 129.416 121.873 129.416C122.134 129.416 122.374 129.357 122.593 129.24C122.817 129.123 122.996 128.944 123.129 128.704C123.268 128.459 123.337 128.16 123.337 127.808C123.337 127.451 123.268 127.152 123.129 126.912C122.996 126.667 122.817 126.485 122.593 126.368C122.374 126.251 122.134 126.192 121.873 126.192ZM125.75 126.496C125.894 126.192 126.104 125.957 126.382 125.792C126.659 125.621 126.99 125.536 127.374 125.536V126.328H127.15C126.739 126.328 126.403 126.435 126.142 126.648C125.88 126.856 125.75 127.203 125.75 127.688V130H125.022V125.608H125.75V126.496ZM133.492 125.536C134.004 125.536 134.414 125.701 134.724 126.032C135.038 126.357 135.196 126.829 135.196 127.448V130H134.468V127.512C134.468 127.08 134.361 126.749 134.148 126.52C133.94 126.291 133.652 126.176 133.284 126.176C132.9 126.176 132.59 126.304 132.356 126.56C132.126 126.811 132.012 127.181 132.012 127.672V130H131.284V127.512C131.284 127.08 131.177 126.749 130.964 126.52C130.75 126.291 130.462 126.176 130.1 126.176C129.71 126.176 129.398 126.304 129.164 126.56C128.934 126.811 128.82 127.181 128.82 127.672V130H128.092V125.608H128.82V126.608C128.926 126.261 129.116 125.997 129.388 125.816C129.665 125.629 129.982 125.536 130.34 125.536C130.713 125.536 131.036 125.632 131.308 125.824C131.585 126.011 131.782 126.288 131.9 126.656C132.022 126.299 132.228 126.024 132.516 125.832C132.804 125.635 133.129 125.536 133.492 125.536ZM40.6363 136.536C41.1483 136.536 41.559 136.701 41.8683 137.032C42.183 137.357 42.3403 137.829 42.3403 138.448V141H41.6123V138.512C41.6123 138.08 41.5057 137.749 41.2923 137.52C41.0843 137.291 40.7963 137.176 40.4283 137.176C40.0443 137.176 39.735 137.304 39.5003 137.56C39.271 137.811 39.1563 138.181 39.1563 138.672V141H38.4283V138.512C38.4283 138.08 38.3217 137.749 38.1083 137.52C37.895 137.291 37.607 137.176 37.2443 137.176C36.855 137.176 36.543 137.304 36.3083 137.56C36.079 137.811 35.9643 138.181 35.9643 138.672V141H35.2363V136.608H35.9643V137.608C36.071 137.261 36.2603 136.997 36.5323 136.816C36.8097 136.629 37.127 136.536 37.4843 136.536C37.8577 136.536 38.1803 136.632 38.4523 136.824C38.7297 137.011 38.927 137.288 39.0443 137.656C39.167 137.299 39.3723 137.024 39.6603 136.832C39.9483 136.635 40.2737 136.536 40.6363 136.536ZM45.4627 136.552C45.8841 136.552 46.2601 136.643 46.5907 136.824C46.9267 137.005 47.1881 137.267 47.3747 137.608C47.5667 137.949 47.6627 138.349 47.6627 138.808C47.6627 139.267 47.5667 139.667 47.3747 140.008C47.1881 140.344 46.9267 140.603 46.5907 140.784C46.2601 140.965 45.8841 141.056 45.4627 141.056C45.0414 141.056 44.6627 140.965 44.3267 140.784C43.9961 140.603 43.7347 140.344 43.5427 140.008C43.3507 139.667 43.2547 139.267 43.2547 138.808C43.2547 138.349 43.3507 137.949 43.5427 137.608C43.7347 137.267 43.9961 137.005 44.3267 136.824C44.6627 136.643 45.0414 136.552 45.4627 136.552ZM45.4627 137.192C45.2014 137.192 44.9587 137.251 44.7347 137.368C44.5161 137.485 44.3374 137.667 44.1987 137.912C44.0654 138.152 43.9987 138.451 43.9987 138.808C43.9987 139.16 44.0654 139.459 44.1987 139.704C44.3374 139.944 44.5161 140.123 44.7347 140.24C44.9587 140.357 45.2014 140.416 45.4627 140.416C45.7241 140.416 45.9641 140.357 46.1827 140.24C46.4067 140.123 46.5854 139.944 46.7187 139.704C46.8574 139.459 46.9267 139.16 46.9267 138.808C46.9267 138.451 46.8574 138.152 46.7187 137.912C46.5854 137.667 46.4067 137.485 46.1827 137.368C45.9641 137.251 45.7241 137.192 45.4627 137.192ZM49.3393 137.496C49.4833 137.192 49.694 136.957 49.9713 136.792C50.2487 136.621 50.5793 136.536 50.9633 136.536V137.328H50.7393C50.3287 137.328 49.9927 137.435 49.7313 137.648C49.47 137.856 49.3393 138.203 49.3393 138.688V141H48.6113V136.608H49.3393V137.496ZM55.7217 138.56C55.7217 138.715 55.711 138.848 55.6897 138.96H52.1777C52.1937 139.461 52.335 139.837 52.6017 140.088C52.8737 140.339 53.2043 140.464 53.5937 140.464C53.9457 140.464 54.239 140.376 54.4737 140.2C54.7137 140.019 54.8603 139.779 54.9137 139.48H55.6897C55.6363 139.784 55.5163 140.056 55.3297 140.296C55.1483 140.536 54.911 140.723 54.6177 140.856C54.3243 140.989 53.9937 141.056 53.6257 141.056C53.2043 141.056 52.831 140.965 52.5057 140.784C52.1803 140.603 51.9243 140.344 51.7377 140.008C51.5563 139.667 51.4657 139.267 51.4657 138.808C51.4657 138.349 51.5563 137.949 51.7377 137.608C51.9243 137.267 52.1803 137.005 52.5057 136.824C52.831 136.643 53.2043 136.552 53.6257 136.552C54.0523 136.552 54.423 136.643 54.7377 136.824C55.0577 137.005 55.3003 137.248 55.4657 137.552C55.6363 137.856 55.7217 138.192 55.7217 138.56ZM54.9857 138.608C55.0017 138.283 54.9483 138.011 54.8257 137.792C54.703 137.573 54.535 137.411 54.3217 137.304C54.1083 137.197 53.8763 137.144 53.6257 137.144C53.2257 137.144 52.8897 137.269 52.6177 137.52C52.3457 137.765 52.199 138.128 52.1777 138.608H54.9857ZM60.0264 136.552C60.5224 136.552 60.9197 136.683 61.2184 136.944C61.5224 137.2 61.7064 137.547 61.7704 137.984H61.0744C61.0424 137.723 60.9331 137.509 60.7464 137.344C60.5651 137.173 60.3197 137.088 60.0104 137.088C59.7491 137.088 59.5437 137.152 59.3944 137.28C59.2504 137.403 59.1784 137.571 59.1784 137.784C59.1784 137.944 59.2264 138.075 59.3224 138.176C59.4237 138.272 59.5464 138.347 59.6904 138.4C59.8397 138.448 60.0424 138.501 60.2984 138.56C60.6237 138.635 60.8851 138.712 61.0824 138.792C61.2851 138.867 61.4557 138.989 61.5944 139.16C61.7384 139.331 61.8104 139.56 61.8104 139.848C61.8104 140.205 61.6744 140.496 61.4024 140.72C61.1357 140.944 60.7784 141.056 60.3304 141.056C59.8077 141.056 59.3811 140.931 59.0504 140.68C58.7197 140.429 58.5251 140.08 58.4664 139.632H59.1704C59.1971 139.899 59.3117 140.115 59.5144 140.28C59.7224 140.445 59.9944 140.528 60.3304 140.528C60.5811 140.528 60.7757 140.464 60.9144 140.336C61.0584 140.208 61.1304 140.04 61.1304 139.832C61.1304 139.661 61.0797 139.525 60.9784 139.424C60.8771 139.323 60.7517 139.245 60.6024 139.192C60.4531 139.139 60.2477 139.083 59.9864 139.024C59.6611 138.949 59.3997 138.875 59.2024 138.8C59.0104 138.725 58.8451 138.608 58.7064 138.448C58.5731 138.283 58.5064 138.061 58.5064 137.784C58.5064 137.416 58.6424 137.12 58.9144 136.896C59.1864 136.667 59.5571 136.552 60.0264 136.552ZM64.8792 140.36V141H64.3352C63.8872 141 63.5512 140.893 63.3272 140.68C63.1086 140.467 62.9992 140.109 62.9992 139.608V137.24H62.3432V136.608H62.9992V135.512H63.7352V136.608H64.8712V137.24H63.7352V139.624C63.7352 139.907 63.7859 140.101 63.8872 140.208C63.9939 140.309 64.1752 140.36 64.4312 140.36H64.8792ZM67.5676 136.552C67.9943 136.552 68.3543 136.659 68.6476 136.872C68.9463 137.085 69.1543 137.371 69.2716 137.728V136.608H69.9996V141H69.2716V139.88C69.1543 140.237 68.9463 140.523 68.6476 140.736C68.3543 140.949 67.9943 141.056 67.5676 141.056C67.1783 141.056 66.8316 140.965 66.5276 140.784C66.2236 140.603 65.9836 140.344 65.8076 140.008C65.6369 139.667 65.5516 139.267 65.5516 138.808C65.5516 138.349 65.6369 137.949 65.8076 137.608C65.9836 137.267 66.2236 137.005 66.5276 136.824C66.8316 136.643 67.1783 136.552 67.5676 136.552ZM67.7756 137.2C67.3276 137.2 66.9676 137.344 66.6956 137.632C66.4289 137.915 66.2956 138.307 66.2956 138.808C66.2956 139.309 66.4289 139.704 66.6956 139.992C66.9676 140.275 67.3276 140.416 67.7756 140.416C68.0636 140.416 68.3196 140.349 68.5436 140.216C68.7729 140.083 68.9516 139.896 69.0796 139.656C69.2076 139.411 69.2716 139.128 69.2716 138.808C69.2716 138.488 69.2076 138.205 69.0796 137.96C68.9516 137.715 68.7729 137.528 68.5436 137.4C68.3196 137.267 68.0636 137.2 67.7756 137.2ZM73.5822 136.552C73.9716 136.552 74.3182 136.643 74.6222 136.824C74.9262 137.005 75.1636 137.267 75.3342 137.608C75.5102 137.949 75.5982 138.349 75.5982 138.808C75.5982 139.267 75.5102 139.667 75.3342 140.008C75.1636 140.344 74.9262 140.603 74.6222 140.784C74.3182 140.965 73.9716 141.056 73.5822 141.056C73.1556 141.056 72.7929 140.949 72.4942 140.736C72.2009 140.517 71.9982 140.232 71.8862 139.88V141H71.1582V135.08H71.8862V137.728C71.9982 137.376 72.2009 137.093 72.4942 136.88C72.7929 136.661 73.1556 136.552 73.5822 136.552ZM73.3742 137.2C73.0916 137.2 72.8356 137.267 72.6062 137.4C72.3769 137.528 72.1982 137.715 72.0702 137.96C71.9422 138.205 71.8782 138.488 71.8782 138.808C71.8782 139.128 71.9422 139.411 72.0702 139.656C72.1982 139.896 72.3769 140.083 72.6062 140.216C72.8356 140.349 73.0916 140.416 73.3742 140.416C73.8276 140.416 74.1876 140.275 74.4542 139.992C74.7262 139.704 74.8622 139.309 74.8622 138.808C74.8622 138.307 74.7262 137.915 74.4542 137.632C74.1876 137.344 73.8276 137.2 73.3742 137.2ZM77.2768 135.08V141H76.5488V135.08H77.2768ZM82.4873 138.56C82.4873 138.715 82.4766 138.848 82.4553 138.96H78.9433C78.9593 139.461 79.1006 139.837 79.3673 140.088C79.6393 140.339 79.9699 140.464 80.3593 140.464C80.7113 140.464 81.0046 140.376 81.2393 140.2C81.4793 140.019 81.6259 139.779 81.6793 139.48H82.4553C82.4019 139.784 82.2819 140.056 82.0953 140.296C81.9139 140.536 81.6766 140.723 81.3833 140.856C81.0899 140.989 80.7593 141.056 80.3913 141.056C79.9699 141.056 79.5966 140.965 79.2713 140.784C78.9459 140.603 78.6899 140.344 78.5033 140.008C78.3219 139.667 78.2313 139.267 78.2313 138.808C78.2313 138.349 78.3219 137.949 78.5033 137.608C78.6899 137.267 78.9459 137.005 79.2713 136.824C79.5966 136.643 79.9699 136.552 80.3913 136.552C80.8179 136.552 81.1886 136.643 81.5033 136.824C81.8233 137.005 82.0659 137.248 82.2313 137.552C82.4019 137.856 82.4873 138.192 82.4873 138.56ZM81.7513 138.608C81.7673 138.283 81.7139 138.011 81.5913 137.792C81.4686 137.573 81.3006 137.411 81.0873 137.304C80.8739 137.197 80.6419 137.144 80.3913 137.144C79.9913 137.144 79.6553 137.269 79.3833 137.52C79.1113 137.765 78.9646 138.128 78.9433 138.608H81.7513ZM87.216 136.552C87.6427 136.552 88.0027 136.659 88.296 136.872C88.5947 137.085 88.8027 137.371 88.92 137.728V136.608H89.648V141H88.92V139.88C88.8027 140.237 88.5947 140.523 88.296 140.736C88.0027 140.949 87.6427 141.056 87.216 141.056C86.8267 141.056 86.48 140.965 86.176 140.784C85.872 140.603 85.632 140.344 85.456 140.008C85.2854 139.667 85.2 139.267 85.2 138.808C85.2 138.349 85.2854 137.949 85.456 137.608C85.632 137.267 85.872 137.005 86.176 136.824C86.48 136.643 86.8267 136.552 87.216 136.552ZM87.424 137.2C86.976 137.2 86.616 137.344 86.344 137.632C86.0774 137.915 85.944 138.307 85.944 138.808C85.944 139.309 86.0774 139.704 86.344 139.992C86.616 140.275 86.976 140.416 87.424 140.416C87.712 140.416 87.968 140.349 88.192 140.216C88.4214 140.083 88.6 139.896 88.728 139.656C88.856 139.411 88.92 139.128 88.92 138.808C88.92 138.488 88.856 138.205 88.728 137.96C88.6 137.715 88.4214 137.528 88.192 137.4C87.968 137.267 87.712 137.2 87.424 137.2ZM93.1187 136.536C93.6307 136.536 94.044 136.701 94.3587 137.032C94.6733 137.357 94.8307 137.829 94.8307 138.448V141H94.1027V138.512C94.1027 138.075 93.9907 137.739 93.7667 137.504C93.5427 137.269 93.2387 137.152 92.8547 137.152C92.4547 137.152 92.1347 137.283 91.8947 137.544C91.6547 137.8 91.5347 138.176 91.5347 138.672V141H90.8067V136.608H91.5347V137.648C91.6467 137.291 91.844 137.016 92.1267 136.824C92.4147 136.632 92.7453 136.536 93.1187 136.536ZM97.7473 136.552C98.1739 136.552 98.5339 136.659 98.8273 136.872C99.1259 137.085 99.3339 137.371 99.4513 137.728V135.08H100.179V141H99.4513V139.88C99.3339 140.237 99.1259 140.523 98.8273 140.736C98.5339 140.949 98.1739 141.056 97.7473 141.056C97.3579 141.056 97.0113 140.965 96.7073 140.784C96.4033 140.603 96.1633 140.344 95.9873 140.008C95.8166 139.667 95.7313 139.267 95.7313 138.808C95.7313 138.349 95.8166 137.949 95.9873 137.608C96.1633 137.267 96.4033 137.005 96.7073 136.824C97.0113 136.643 97.3579 136.552 97.7473 136.552ZM97.9553 137.2C97.5073 137.2 97.1473 137.344 96.8753 137.632C96.6086 137.915 96.4753 138.307 96.4753 138.808C96.4753 139.309 96.6086 139.704 96.8753 139.992C97.1473 140.275 97.5073 140.416 97.9553 140.416C98.2433 140.416 98.4993 140.349 98.7233 140.216C98.9526 140.083 99.1313 139.896 99.2593 139.656C99.3873 139.411 99.4513 139.128 99.4513 138.808C99.4513 138.488 99.3873 138.205 99.2593 137.96C99.1313 137.715 98.9526 137.528 98.7233 137.4C98.4993 137.267 98.2433 137.2 97.9553 137.2ZM104.69 136.552C105.186 136.552 105.584 136.683 105.882 136.944C106.186 137.2 106.37 137.547 106.434 137.984H105.738C105.706 137.723 105.597 137.509 105.41 137.344C105.229 137.173 104.984 137.088 104.674 137.088C104.413 137.088 104.208 137.152 104.058 137.28C103.914 137.403 103.842 137.571 103.842 137.784C103.842 137.944 103.89 138.075 103.986 138.176C104.088 138.272 104.21 138.347 104.354 138.4C104.504 138.448 104.706 138.501 104.962 138.56C105.288 138.635 105.549 138.712 105.746 138.792C105.949 138.867 106.12 138.989 106.258 139.16C106.402 139.331 106.474 139.56 106.474 139.848C106.474 140.205 106.338 140.496 106.066 140.72C105.8 140.944 105.442 141.056 104.994 141.056C104.472 141.056 104.045 140.931 103.714 140.68C103.384 140.429 103.189 140.08 103.13 139.632H103.834C103.861 139.899 103.976 140.115 104.178 140.28C104.386 140.445 104.658 140.528 104.994 140.528C105.245 140.528 105.44 140.464 105.578 140.336C105.722 140.208 105.794 140.04 105.794 139.832C105.794 139.661 105.744 139.525 105.642 139.424C105.541 139.323 105.416 139.245 105.266 139.192C105.117 139.139 104.912 139.083 104.65 139.024C104.325 138.949 104.064 138.875 103.866 138.8C103.674 138.725 103.509 138.608 103.37 138.448C103.237 138.283 103.17 138.061 103.17 137.784C103.17 137.416 103.306 137.12 103.578 136.896C103.85 136.667 104.221 136.552 104.69 136.552ZM111.487 138.56C111.487 138.715 111.477 138.848 111.455 138.96H107.943C107.959 139.461 108.101 139.837 108.367 140.088C108.639 140.339 108.97 140.464 109.359 140.464C109.711 140.464 110.005 140.376 110.239 140.2C110.479 140.019 110.626 139.779 110.679 139.48H111.455C111.402 139.784 111.282 140.056 111.095 140.296C110.914 140.536 110.677 140.723 110.383 140.856C110.09 140.989 109.759 141.056 109.391 141.056C108.97 141.056 108.597 140.965 108.271 140.784C107.946 140.603 107.69 140.344 107.503 140.008C107.322 139.667 107.231 139.267 107.231 138.808C107.231 138.349 107.322 137.949 107.503 137.608C107.69 137.267 107.946 137.005 108.271 136.824C108.597 136.643 108.97 136.552 109.391 136.552C109.818 136.552 110.189 136.643 110.503 136.824C110.823 137.005 111.066 137.248 111.231 137.552C111.402 137.856 111.487 138.192 111.487 138.56ZM110.751 138.608C110.767 138.283 110.714 138.011 110.591 137.792C110.469 137.573 110.301 137.411 110.087 137.304C109.874 137.197 109.642 137.144 109.391 137.144C108.991 137.144 108.655 137.269 108.383 137.52C108.111 137.765 107.965 138.128 107.943 138.608H110.751ZM114.383 136.552C114.943 136.552 115.407 136.701 115.775 137C116.143 137.299 116.37 137.699 116.455 138.2H115.687C115.634 137.885 115.487 137.64 115.247 137.464C115.013 137.283 114.719 137.192 114.367 137.192C114.111 137.192 113.877 137.251 113.663 137.368C113.455 137.485 113.287 137.667 113.159 137.912C113.031 138.152 112.967 138.451 112.967 138.808C112.967 139.165 113.031 139.467 113.159 139.712C113.287 139.952 113.455 140.131 113.663 140.248C113.877 140.365 114.111 140.424 114.367 140.424C114.719 140.424 115.013 140.333 115.247 140.152C115.487 139.971 115.634 139.723 115.687 139.408H116.455C116.37 139.915 116.143 140.317 115.775 140.616C115.407 140.909 114.943 141.056 114.383 141.056C113.962 141.056 113.589 140.965 113.263 140.784C112.938 140.603 112.682 140.344 112.495 140.008C112.314 139.667 112.223 139.267 112.223 138.808C112.223 138.349 112.314 137.949 112.495 137.608C112.682 137.267 112.938 137.005 113.263 136.824C113.589 136.643 113.962 136.552 114.383 136.552ZM121.312 136.608V141H120.584V139.968C120.472 140.325 120.272 140.6 119.984 140.792C119.702 140.979 119.371 141.072 118.992 141.072C118.486 141.072 118.075 140.909 117.76 140.584C117.446 140.253 117.288 139.781 117.288 139.168V136.608H118.016V139.096C118.016 139.533 118.128 139.872 118.352 140.112C118.576 140.347 118.88 140.464 119.264 140.464C119.664 140.464 119.984 140.336 120.224 140.08C120.464 139.819 120.584 139.44 120.584 138.944V136.608H121.312ZM123.207 137.496C123.351 137.192 123.561 136.957 123.839 136.792C124.116 136.621 124.447 136.536 124.831 136.536V137.328H124.607C124.196 137.328 123.86 137.435 123.599 137.648C123.337 137.856 123.207 138.203 123.207 138.688V141H122.479V136.608H123.207V137.496ZM129.589 138.56C129.589 138.715 129.578 138.848 129.557 138.96H126.045C126.061 139.461 126.202 139.837 126.469 140.088C126.741 140.339 127.072 140.464 127.461 140.464C127.813 140.464 128.106 140.376 128.341 140.2C128.581 140.019 128.728 139.779 128.781 139.48H129.557C129.504 139.784 129.384 140.056 129.197 140.296C129.016 140.536 128.778 140.723 128.485 140.856C128.192 140.989 127.861 141.056 127.493 141.056C127.072 141.056 126.698 140.965 126.373 140.784C126.048 140.603 125.792 140.344 125.605 140.008C125.424 139.667 125.333 139.267 125.333 138.808C125.333 138.349 125.424 137.949 125.605 137.608C125.792 137.267 126.048 137.005 126.373 136.824C126.698 136.643 127.072 136.552 127.493 136.552C127.92 136.552 128.29 136.643 128.605 136.824C128.925 137.005 129.168 137.248 129.333 137.552C129.504 137.856 129.589 138.192 129.589 138.56ZM128.853 138.608C128.869 138.283 128.816 138.011 128.693 137.792C128.57 137.573 128.402 137.411 128.189 137.304C127.976 137.197 127.744 137.144 127.493 137.144C127.093 137.144 126.757 137.269 126.485 137.52C126.213 137.765 126.066 138.128 126.045 138.608H128.853ZM131.581 135.224L131.477 139.344H130.877L130.773 135.224H131.581ZM131.629 140.144V141H130.741V140.144H131.629Z" fill="#F1EDFF"/>
<path d="M146.53 3.87305H132.164V21.1119H146.53V3.87305Z" fill="#6646E7" stroke="#1D1D1D" stroke-miterlimit="10" stroke-linecap="round" stroke-linejoin="round"/>
<path d="M143.657 11.3433H135.612V18.2388H143.657V11.3433Z" fill="white" stroke="#1D1D1D" stroke-miterlimit="10" stroke-linecap="round" stroke-linejoin="round"/>
<path d="M140.503 7.38167C140.534 7.30084 140.65 7.30084 140.681 7.38167L140.879 7.93081C140.893 7.9672 140.928 7.99143 140.968 7.99143H141.455C141.545 7.99143 141.584 8.10348 141.513 8.15836L141.167 8.47028C141.151 8.48222 141.14 8.49877 141.134 8.51756C141.129 8.53635 141.129 8.55641 141.136 8.57486L141.262 9.11146C141.293 9.19765 141.193 9.27168 141.118 9.21863L140.647 8.91982C140.631 8.90849 140.612 8.90241 140.592 8.90241C140.572 8.90241 140.553 8.90849 140.537 8.91982L140.066 9.21863C139.991 9.27168 139.891 9.19756 139.922 9.11146L140.048 8.57486C140.055 8.55641 140.055 8.53635 140.05 8.51756C140.044 8.49877 140.033 8.48222 140.017 8.47028L139.671 8.15836C139.6 8.10348 139.639 7.99143 139.729 7.99143H140.216C140.236 7.9915 140.254 7.98573 140.27 7.97491C140.286 7.96408 140.298 7.94871 140.305 7.93081L140.503 7.38167H140.503Z" fill="#F1EDFF"/>
<path d="M142.802 7.38167C142.833 7.30084 142.949 7.30084 142.98 7.38167L143.178 7.93081C143.192 7.9672 143.227 7.99143 143.266 7.99143H143.754C143.844 7.99143 143.883 8.10348 143.812 8.15836L143.465 8.47028C143.45 8.48222 143.439 8.49877 143.433 8.51756C143.428 8.53635 143.428 8.55641 143.435 8.57486L143.561 9.11146C143.592 9.19765 143.492 9.27168 143.417 9.21863L142.946 8.91982C142.93 8.90849 142.911 8.90241 142.891 8.90241C142.871 8.90241 142.852 8.90849 142.836 8.91982L142.365 9.21863C142.29 9.27168 142.19 9.19756 142.22 9.11146L142.347 8.57486C142.354 8.55641 142.354 8.53635 142.349 8.51756C142.343 8.49877 142.332 8.48222 142.316 8.47028L141.97 8.15836C141.899 8.10348 141.938 7.99143 142.028 7.99143H142.515C142.534 7.9915 142.553 7.98573 142.569 7.97491C142.585 7.96408 142.597 7.94871 142.604 7.93081L142.802 7.38167H142.802Z" fill="#F1EDFF"/>
<path d="M135.906 7.38142C135.937 7.30059 136.053 7.30059 136.084 7.38142L136.282 7.93057C136.296 7.96696 136.331 7.99119 136.37 7.99119H136.858C136.948 7.99119 136.987 8.10324 136.916 8.15812L136.569 8.47004C136.554 8.48198 136.543 8.49853 136.537 8.51731C136.532 8.5361 136.532 8.55616 136.539 8.57462L136.665 9.11122C136.696 9.19741 136.596 9.27144 136.521 9.21838L136.05 8.91958C136.034 8.90825 136.015 8.90216 135.995 8.90216C135.975 8.90216 135.956 8.90825 135.94 8.91958L135.469 9.21838C135.394 9.27144 135.294 9.19731 135.324 9.11122L135.451 8.57462C135.458 8.55616 135.458 8.5361 135.453 8.51731C135.447 8.49853 135.436 8.48198 135.42 8.47004L135.074 8.15812C135.003 8.10324 135.042 7.99119 135.132 7.99119H135.619C135.638 7.99125 135.657 7.98549 135.673 7.97467C135.689 7.96384 135.701 7.94846 135.708 7.93057L135.906 7.38142H135.906Z" fill="#F1EDFF"/>
<path d="M138.205 7.38142C138.236 7.30059 138.352 7.30059 138.382 7.38142L138.581 7.93057C138.595 7.96696 138.63 7.99119 138.669 7.99119H139.156C139.247 7.99119 139.286 8.10324 139.215 8.15812L138.868 8.47004C138.853 8.48198 138.841 8.49853 138.836 8.51731C138.83 8.5361 138.831 8.55616 138.837 8.57462L138.964 9.11122C138.995 9.19741 138.895 9.27144 138.82 9.21838L138.349 8.91958C138.333 8.90825 138.313 8.90216 138.294 8.90216C138.274 8.90216 138.255 8.90825 138.239 8.91958L137.768 9.21838C137.692 9.27144 137.592 9.19731 137.623 9.11122L137.75 8.57462C137.756 8.55616 137.757 8.5361 137.751 8.51731C137.746 8.49853 137.735 8.48198 137.719 8.47004L137.372 8.15812C137.302 8.10324 137.341 7.99119 137.431 7.99119H137.918C137.937 7.99125 137.956 7.98549 137.972 7.97467C137.988 7.96384 138 7.94846 138.007 7.93057L138.205 7.38142H138.205Z" fill="#F1EDFF"/>
<path d="M64.6007 78.8692C63.1251 78.8692 61.8765 77.8042 61.731 76.3358C60.9194 68.1442 59.9671 43.1395 79.2524 47.3125C91.3698 49.934 101.655 56.7163 106.128 60.0186C107.473 61.011 109.392 60.8294 110.46 59.5436L117.941 50.5321C118.869 49.4138 120.466 49.1219 121.73 49.8393L127.685 53.2192C129.265 54.116 129.692 56.2002 128.591 57.6457L113.899 76.9418C113.042 78.0663 111.518 78.4412 110.238 77.8419C107.731 76.6678 103.553 74.7147 100.311 73.2123C98.4496 72.3495 96.5115 74.7918 96.7776 76.8266C96.982 78.3902 95.6463 78.8692 94.0694 78.8692H64.6007Z" fill="#77AF44" stroke="#1D1D1D" stroke-miterlimit="10" stroke-linecap="round" stroke-linejoin="round"/>
<path d="M69.4819 39.4787C69.4819 39.4787 65.2721 44.5403 67.0262 46.1941C68.7802 47.848 69.983 45.0916 71.5366 46.1941C73.0902 47.2967 75.6461 45.9436 75.8465 45.0415C76.047 44.1394 75.7463 38.9274 76.6484 38.777C77.5505 38.6267 78.5027 39.1278 79.9059 38.1756C81.3091 37.2235 83.865 34.9181 84.9676 35.9204C86.0701 36.9228 86.872 40.3807 85.569 42.1348C84.266 43.8888 83.3639 48.4493 86.471 48.0484C89.5782 47.6475 87.9244 46.6452 88.9768 46.4948C90.0292 46.3445 94.8343 49.1008 94.7902 44.8911C94.7541 41.4532 91.6831 44.6907 90.8812 40.0299C90.0794 35.3692 87.4232 29.7061 79.5551 30.3576C71.6869 31.0091 69.4819 39.4787 69.4819 39.4787Z" fill="#1D1D1D" stroke="#1D1D1D" stroke-miterlimit="10" stroke-linecap="round" stroke-linejoin="round"/>
<path d="M26.4326 79.1421H42.2691" stroke="black" stroke-miterlimit="10" stroke-linecap="round" stroke-linejoin="round"/>
<path d="M26.4326 89.7666H127.666" stroke="black" stroke-miterlimit="10" stroke-linecap="round" stroke-linejoin="round"/>
<path d="M99.7275 86.788C100.404 88.1185 99.4372 89.6943 97.9447 89.6943H46.9221C46.1462 89.6943 45.4404 89.2456 45.1111 88.5431L30.0731 56.4599C29.4515 55.1337 30.4193 53.6111 31.884 53.6111H81.6357C82.3885 53.6111 83.0775 54.0338 83.4186 54.7048L99.7275 86.788Z" fill="#F1EDFF" stroke="#1D1D1D" stroke-miterlimit="10" stroke-linecap="round" stroke-linejoin="round"/>
<path d="M63.9191 78.9415C67.019 78.9415 69.532 76.3836 69.532 73.2283C69.532 70.073 67.019 67.5151 63.9191 67.5151C60.8192 67.5151 58.3062 70.073 58.3062 73.2283C58.3062 76.3836 60.8192 78.9415 63.9191 78.9415Z" fill="#FEBE16" stroke="#1D1D1D" stroke-miterlimit="10" stroke-linecap="round" stroke-linejoin="round"/>
<path d="M69.4819 53.6112C69.4819 53.6112 73.5914 40.7536 75.7965 41.0182C78.0016 41.2828 76.5983 44.4902 76.5983 44.4902C76.5983 44.4902 85.5189 41.4191 86.0842 43.4257C86.5092 44.9292 80.1566 46.595 80.1566 46.595C80.1566 46.595 85.7575 45.0595 85.8697 46.132C86 47.3728 81.0205 48.0684 80.2067 48.5495C80.2067 48.5495 84.6849 47.0521 84.9115 47.8599C85.13 48.6458 80.0062 50.2535 80.0062 50.2535C80.0062 50.2535 82.941 49.2151 83.0131 49.9849C83.0893 50.7927 80.5575 51.5063 79.5552 51.6066C78.5529 51.7068 78.8535 53.6112 78.8535 53.6112H69.4819Z" fill="#F1EDFF" stroke="#1D1D1D" stroke-miterlimit="10" stroke-linecap="round" stroke-linejoin="round"/>
<path d="M106.818 64.2077L108.923 61.5015" stroke="#1D1D1D" stroke-miterlimit="10" stroke-linecap="round" stroke-linejoin="round"/>
<path d="M120.459 49.1192C120.459 49.1192 121.85 47.6478 121.5 46.2445C121.149 44.8413 118.944 43.1374 119.244 42.3856C119.545 41.6339 122.606 42.2032 123.107 43.1053C123.608 44.0074 126.186 36.8729 128.137 37.9093C129.129 38.4365 125.96 43.1374 125.96 43.1374C125.96 43.1374 130.871 37.0473 132.475 38.5027C133.327 39.2765 129.217 43.3378 129.217 43.3378C129.217 43.3378 135.372 38.2641 137.144 39.7235C138.489 40.832 131.587 44.1777 132.174 44.7912C132.355 44.9796 139.615 39.7295 140.728 41.684C141.293 42.6743 137.424 44.5627 134.53 47.313C131.374 50.3119 128.957 53.9423 128.957 53.9423L120.459 49.1192Z" fill="#F1EDFF" stroke="#1D1D1D" stroke-miterlimit="10" stroke-linecap="round" stroke-linejoin="round"/>
<path d="M119.344 80.8561L100.604 89.1655L95.9932 78.9419H118.938C120.019 78.9419 120.331 80.4181 119.344 80.8561Z" fill="#F1EDFF" stroke="#1D1D1D"/>
</svg>
