<svg width="30" height="29" viewBox="0 0 41 40" fill="none" xmlns="http://www.w3.org/2000/svg"><path d="M36.444 0H4.556C2.039 0 0 1.989 0 4.444v31.112C0 38.01 2.039 40 4.556 40h31.888C38.961 40 41 38.011 41 35.556V4.444C41 1.99 38.961 0 36.444 0zM10.792 31.111c-1.588 0-2.874-1.255-2.874-2.804v-9.95c.002-1.546 1.289-2.801 2.874-2.801 1.588 0 2.875 1.255 2.875 2.804v9.949c0 1.547-1.287 2.802-2.875 2.802zm-.1-18.407c-1.756 0-2.93-1.142-2.93-2.666 0-1.525 1.171-2.667 3.124-2.667 1.756 0 2.929 1.142 2.929 2.667 0 1.524-1.171 2.666-3.123 2.666zm20.694 18.407c-1.536 0-2.782-1.215-2.782-2.713v-5.79c0-2.35-1.482-2.608-2.038-2.608-.556 0-2.41.078-2.41 2.609v5.789c0 1.498-1.246 2.713-2.781 2.713h-.185c-1.535 0-2.781-1.215-2.781-2.713V18.36c0-1.549 1.287-2.804 2.875-2.804 1.587 0 2.874 1.255 2.874 2.804 0 0 .642-2.804 5.007-2.804 2.776 0 5.002 2.17 5.002 7.053v5.789c0 1.498-1.246 2.713-2.782 2.713z" fill="#fff"/></svg>