<svg width="30" height="29" viewBox="0 0 41 40" fill="none" xmlns="http://www.w3.org/2000/svg"><path d="M11.389 0C5.099 0 0 4.976 0 11.111V28.89C0 35.024 5.1 40 11.389 40H29.61C35.901 40 41 35.024 41 28.889V11.11C41 4.976 35.9 0 29.611 0H11.39zm22.778 4.444c1.257 0 2.277.996 2.277 2.223 0 1.226-1.02 2.222-2.277 2.222-1.258 0-2.278-.996-2.278-2.222 0-1.227 1.02-2.223 2.278-2.223zM20.5 8.89c6.289 0 11.389 4.975 11.389 11.111 0 6.136-5.1 11.111-11.389 11.111S9.111 26.136 9.111 20c0-6.136 5.1-11.111 11.389-11.111zm0 4.444a6.92 6.92 0 00-4.832 1.953A6.585 6.585 0 0013.667 20c0 1.768.72 3.464 2.001 4.714a6.92 6.92 0 004.832 1.953 6.92 6.92 0 004.832-1.953A6.585 6.585 0 0027.333 20c0-1.768-.72-3.464-2.001-4.714a6.92 6.92 0 00-4.832-1.953z" fill="#fff"/></svg>