<svg width="32" height="40" fill="none" xmlns="http://www.w3.org/2000/svg"><path d="M16 0C11.933 0 8.033 1.686 5.158 4.686 2.282 7.686.667 11.756.667 16c0 6.94 4.312 14.82 10.12 21.38l.536.56A6.854 6.854 0 0016 40c1.974-.114 3.826-1.034 5.156-2.56C26.79 31.62 31.333 23.04 31.333 16c0-4.243-1.615-8.313-4.49-11.314C23.966 1.686 20.066 0 16 0zm0 8c1.516 0 2.999.47 4.26 1.348a7.937 7.937 0 012.823 3.59c.58 1.462.732 3.07.436 4.623a8.114 8.114 0 01-2.098 4.096 7.574 7.574 0 01-3.925 2.19 7.37 7.37 0 01-4.43-.456 7.747 7.747 0 01-3.44-2.946A8.25 8.25 0 018.332 16c0-2.122.808-4.157 2.246-5.657S13.967 8 16 8z" fill="#fff"/></svg>