<svg width="30" height="29" viewBox="0 0 41 41" fill="none" xmlns="http://www.w3.org/2000/svg"><path d="M31.889 0H9.11A9.112 9.112 0 000 9.111V31.89A9.112 9.112 0 009.111 41H31.89A9.112 9.112 0 0041 31.889V9.11A9.112 9.112 0 0031.889 0zm.114 14.837v.782c0 7.418-5.663 16.01-16.01 16.01-3.124 0-6.053-.977-8.59-2.537h1.366c2.538 0 5.078-.977 7.03-2.344-2.538 0-4.49-1.756-5.271-3.904.39 0 .781.196.977.196.585 0 .977 0 1.563-.196-2.538-.586-4.49-2.734-4.49-5.467.781.39 1.563.586 2.538.781-1.563-1.366-2.538-2.929-2.538-4.88 0-.978.196-1.953.781-2.734 2.734 3.319 6.834 5.662 11.52 5.856 0-.39-.197-.781-.197-1.367a5.667 5.667 0 015.663-5.662c1.562 0 3.123.585 4.1 1.756 1.366-.196 2.537-.781 3.514-1.367-.39 1.367-1.366 2.344-2.537 3.123 1.17-.196 2.148-.39 3.319-.977-.786 1.175-1.761 2.15-2.738 2.931z" fill="#fff"/></svg>