<svg width="201" height="216" viewBox="0 0 201 216" fill="none" xmlns="http://www.w3.org/2000/svg">
<path d="M76.0085 141.771C72.6088 135.004 70.9089 131.621 70.3485 128.451C69.0588 121.155 71.5278 113.7 76.9176 108.617C79.2595 106.408 82.6429 104.708 89.4097 101.308L128.911 81.4625C135.678 78.0628 139.062 76.363 142.232 75.8026C149.527 74.5128 156.982 76.9819 162.066 82.3716C164.275 84.7136 165.975 88.097 169.374 94.8638L187.469 130.88C190.869 137.647 192.569 141.031 193.129 144.201C194.419 151.497 191.95 158.952 186.56 164.035C184.218 166.244 180.835 167.944 174.068 171.343L134.566 191.189C127.799 194.589 124.416 196.289 121.246 196.849C113.95 198.139 106.495 195.67 101.412 190.28C99.2029 187.938 97.5031 184.555 94.1034 177.788L76.0085 141.771Z" fill="#FEBE16"/>
<path d="M17.358 150.091C20.7499 143.32 22.4458 139.935 24.652 137.59C29.7292 132.195 37.1813 129.717 44.4785 130.998C47.6492 131.555 51.0346 133.251 57.8054 136.643L65.5211 140.508C72.2918 143.9 75.6772 145.596 78.0217 147.802C83.4173 152.879 85.895 160.331 84.6137 167.629C84.0569 170.799 82.361 174.185 78.9692 180.955L75.1108 188.657C71.7189 195.428 70.023 198.814 67.8169 201.158C62.7396 206.554 55.2876 209.031 47.9903 207.75C44.8196 207.193 41.4342 205.497 34.6635 202.105L26.9478 198.24C20.177 194.848 16.7916 193.152 14.4472 190.946C9.05154 185.869 6.57385 178.417 7.85515 171.12C8.41189 167.949 10.1078 164.564 13.4997 157.793L17.358 150.091Z" fill="#77AF44"/>
<path d="M98.7175 70.8413C102.101 64.0868 110.323 61.3556 117.077 64.7393C123.832 68.123 126.567 76.343 123.183 83.0976C119.799 89.8521 111.578 92.5833 104.824 89.1996C98.0691 85.8158 95.3338 77.5958 98.7175 70.8413Z" fill="#FF0000"/>
<path d="M117.957 1.41287C117.805 1.5727 117.687 1.80349 117.453 2.26508L108.909 19.0785L135.958 9.10593L120.25 1.34828C119.782 1.11705 119.547 1.00143 119.328 0.96348C118.824 0.87613 118.308 1.04504 117.957 1.41287Z" fill="#6646E7"/>
<path d="M142.702 12.4367L105.271 26.237L96.9888 42.5358C95.816 44.8437 95.2296 45.9976 95.0371 47.0784C94.5941 49.5658 95.4508 52.1059 97.3164 53.8366C98.127 54.5886 99.2976 55.1666 101.639 56.3228L135.046 72.8212C137.387 73.9773 138.557 74.5554 139.654 74.7452C142.177 75.1819 144.754 74.3374 146.509 72.4982C147.272 71.699 147.858 70.5451 149.031 68.2372L165.761 35.3149C166.934 33.007 167.52 31.853 167.712 30.7722C168.156 28.2849 167.299 25.7447 165.433 24.0141C164.623 23.2621 163.452 22.684 161.111 21.5279L142.702 12.4367Z" fill="#6646E7"/>
</svg>
