<svg xmlns="http://www.w3.org/2000/svg" viewBox="0 0 100 100" width="100px" height="100px"><path fill="#b2b1c2" d="M73,80H27c-6.075,0-11-4.925-11-11V31c0-6.075,4.925-11,11-11h46c6.075,0,11,4.925,11,11v38	C84,75.075,79.075,80,73,80z"/><path fill="#c4e7ed" d="M73,76H27c-3.866,0-7-3.134-7-7V31c0-3.866,3.134-7,7-7h46c3.866,0,7,3.134,7,7v38	C80,72.866,76.866,76,73,76z"/><path fill="#1f212b" d="M73,81H27c-6.617,0-12-5.383-12-12V31c0-6.617,5.383-12,12-12h46c6.617,0,12,5.383,12,12v38	C85,75.617,79.617,81,73,81z M27,21c-5.514,0-10,4.486-10,10v38c0,5.514,4.486,10,10,10h46c5.514,0,10-4.486,10-10V31	c0-5.514-4.486-10-10-10H27z"/><path fill="#52bea0" d="M79.5,69v-4.5L66.206,51.206C65.735,50.735,65.117,50.5,64.5,50.5c-0.617,0-1.235,0.235-1.706,0.706	L38.5,75.5H73C76.59,75.5,79.5,72.59,79.5,69z"/><path fill="#1f212b" d="M73,76H38.5c-0.202,0-0.385-0.122-0.462-0.309c-0.078-0.187-0.035-0.402,0.108-0.545l24.294-24.294	c1.099-1.099,3.02-1.099,4.118,0l13.294,13.294C79.947,64.24,80,64.367,80,64.5V69C80,72.86,76.86,76,73,76z M39.707,75H73	c3.309,0,6-2.691,6-6v-4.293L65.852,51.559c-0.721-0.721-1.983-0.721-2.704,0L39.707,75z"/><path fill="#00a6a6" d="M27,75.5h40.5L36.206,44.206C35.735,43.735,35.117,43.5,34.5,43.5c-0.617,0-1.235,0.235-1.706,0.706	L20.5,56.5V69C20.5,72.59,23.41,75.5,27,75.5z"/><path fill="#1f212b" d="M67.5,76H27c-3.86,0-7-3.14-7-7V56.5c0-0.133,0.053-0.26,0.146-0.354l12.294-12.294	c1.099-1.099,3.02-1.099,4.118,0l31.294,31.294c0.143,0.143,0.186,0.358,0.108,0.545C67.885,75.878,67.702,76,67.5,76z M21,56.707	V69c0,3.309,2.691,6,6,6h39.293L35.852,44.559c-0.721-0.721-1.983-0.721-2.704,0L21,56.707z"/><path fill="#1f212b" d="M73,76H27c-3.86,0-7-3.14-7-7V31c0-3.86,3.14-7,7-7h41.5c0.276,0,0.5,0.224,0.5,0.5	S68.776,25,68.5,25H27c-3.309,0-6,2.691-6,6v38c0,3.309,2.691,6,6,6h46c3.309,0,6-2.691,6-6V53.5c0-0.276,0.224-0.5,0.5-0.5	s0.5,0.224,0.5,0.5V69C80,72.86,76.86,76,73,76z"/><path fill="#1f212b" d="M79.5,44c-0.276,0-0.5-0.224-0.5-0.5v-2c0-0.276,0.224-0.5,0.5-0.5s0.5,0.224,0.5,0.5v2	C80,43.776,79.776,44,79.5,44z"/><path fill="#1f212b" d="M79.5,51c-0.276,0-0.5-0.224-0.5-0.5v-4c0-0.276,0.224-0.5,0.5-0.5s0.5,0.224,0.5,0.5v4	C80,50.776,79.776,51,79.5,51z"/><circle cx="66.5" cy="37.5" r="5" fill="#f9e65c"/><path fill="#1f212b" d="M66.5,43c-3.033,0-5.5-2.467-5.5-5.5s2.467-5.5,5.5-5.5s5.5,2.467,5.5,5.5S69.533,43,66.5,43z M66.5,33c-2.481,0-4.5,2.019-4.5,4.5s2.019,4.5,4.5,4.5s4.5-2.019,4.5-4.5S68.981,33,66.5,33z"/></svg>