<svg width="24" height="24" viewBox="0 0 24 24" fill="transparent" xmlns="http://www.w3.org/2000/svg">
<path d="M10 4H3C2.46957 4 1.96086 4.21071 1.58579 4.58579C1.21071 4.96086 1 5.46957 1 6V20C1 20.5304 1.21071 21.0391 1.58579 21.4142C1.96086 21.7893 2.46957 22 3 22H17C17.5304 22 18.0391 21.7893 18.4142 21.4142C18.7893 21.0391 19 20.5304 19 20V13" stroke="currentColor" stroke-width="2" stroke-linecap="round" stroke-linejoin="round"/>
<path d="M17.5 3.49998C17.8978 3.10216 18.4374 2.87866 19 2.87866C19.5626 2.87866 20.1022 3.10216 20.5 3.49998C20.8978 3.89781 21.1213 4.43737 21.1213 4.99998C21.1213 5.56259 20.8978 6.10216 20.5 6.49998L11 16L7 17L8 13L17.5 3.49998Z" stroke="currentColor" stroke-width="2" stroke-linecap="round" stroke-linejoin="round"/>
</svg>
