<svg width="531" height="531" viewBox="0 0 531 531" fill="none" xmlns="http://www.w3.org/2000/svg">
<path d="M147.5 0C66.0505 0 0 66.0505 0 147.5V383.5C0 464.949 66.0505 531 147.5 531H383.5C464.949 531 531 464.949 531 383.5V147.5C531 66.0505 464.949 0 383.5 0H147.5ZM442.5 59C458.784 59 472 72.216 472 88.5C472 104.784 458.784 118 442.5 118C426.216 118 413 104.784 413 88.5C413 72.216 426.216 59 442.5 59ZM265.5 118C346.949 118 413 184.051 413 265.5C413 346.949 346.949 413 265.5 413C184.051 413 118 346.949 118 265.5C118 184.051 184.051 118 265.5 118ZM265.5 177C242.028 177 219.518 186.324 202.921 202.921C186.324 219.518 177 242.028 177 265.5C177 288.972 186.324 311.482 202.921 328.079C219.518 344.676 242.028 354 265.5 354C288.972 354 311.482 344.676 328.079 328.079C344.676 311.482 354 288.972 354 265.5C354 242.028 344.676 219.518 328.079 202.921C311.482 186.324 288.972 177 265.5 177Z" fill="#FEBE16"/>
</svg>
