<svg width="550" height="550" viewBox="0 0 550 550" fill="none" xmlns="http://www.w3.org/2000/svg">
<path d="M488.889 0H61.1111C27.3472 0 0 27.3472 0 61.1111V488.889C0 522.653 27.3472 550 61.1111 550H488.889C522.653 550 550 522.653 550 488.889V61.1111C550 27.3472 522.653 0 488.889 0ZM144.772 427.778C123.475 427.778 106.211 410.514 106.211 389.217V252.419C106.242 231.153 123.506 213.889 144.772 213.889C166.069 213.889 183.333 231.153 183.333 252.45V389.247C183.333 410.514 166.069 427.778 144.772 427.778ZM143.428 174.686C119.869 174.686 104.133 158.981 104.133 138.019C104.133 117.058 119.839 101.353 146.025 101.353C169.583 101.353 185.319 117.058 185.319 138.019C185.319 158.981 169.614 174.686 143.428 174.686ZM421.025 427.778C400.431 427.778 383.717 411.064 383.717 390.469V310.872C383.717 278.544 363.825 275 356.369 275C348.914 275 324.042 276.069 324.042 310.872V390.469C324.042 411.064 307.328 427.778 286.733 427.778H284.258C263.664 427.778 246.95 411.064 246.95 390.469V252.45C246.95 231.153 264.214 213.889 285.511 213.889C306.808 213.889 324.072 231.153 324.072 252.45C324.072 252.45 332.689 213.889 391.233 213.889C428.481 213.889 458.333 243.742 458.333 310.872V390.469C458.333 411.064 441.619 427.778 421.025 427.778Z" fill="#FEBE16"/>
</svg>
