<svg width="538" height="672" viewBox="0 0 538 672" fill="none" xmlns="http://www.w3.org/2000/svg">
<path d="M235.375 268.8C235.375 262.155 237.347 255.658 241.042 250.133C244.737 244.607 249.988 240.301 256.132 237.758C262.276 235.215 269.037 234.549 275.56 235.846C282.083 237.142 288.074 240.342 292.776 245.041C297.479 249.74 300.681 255.727 301.979 262.245C303.276 268.763 302.61 275.519 300.065 281.658C297.52 287.798 293.211 293.045 287.681 296.737C282.151 300.429 275.65 302.4 269 302.4C260.082 302.4 251.529 298.86 245.224 292.559C238.918 286.258 235.375 277.711 235.375 268.8ZM538 268.8C538 387.072 458.309 531.216 360.46 628.992C336.882 654.873 303.986 670.342 269 672C238.417 671.408 209.158 659.425 186.955 638.4L177.54 628.992C75.6562 517.776 0 385.392 0 268.8C0 197.51 28.341 129.139 78.7883 78.7297C129.236 28.3199 197.657 0 269 0C340.343 0 408.764 28.3199 459.212 78.7297C509.659 129.139 538 197.51 538 268.8ZM67.25 268.8C67.25 363.888 134.5 483.168 225.96 581.616C227.918 583.909 230.054 586.044 232.349 588C242.082 597.915 255.131 603.896 269 604.8C285.813 602.234 301.114 593.633 312.04 580.608C398.456 494.256 470.75 365.904 470.75 268.8C470.75 215.332 449.494 164.055 411.659 126.247C373.823 88.4399 322.507 67.2 269 67.2C215.493 67.2 164.177 88.4399 126.341 126.247C88.5057 164.055 67.25 215.332 67.25 268.8Z" fill="#FF0606"/>
</svg>
