<svg width="696" height="685" viewBox="0 0 696 685" fill="none" xmlns="http://www.w3.org/2000/svg">
<path d="M673.622 62.3801L462.012 62.6818C450.966 62.6976 442.024 71.6646 442.04 82.7103L442.245 226.518C442.26 237.564 451.228 246.506 462.273 246.49L673.884 246.188C684.93 246.172 693.871 237.205 693.855 226.16L693.651 82.3516C693.635 71.3059 684.668 62.3644 673.622 62.3801Z" fill="white" stroke="#231F20" stroke-width="3" stroke-miterlimit="10"/>
<path d="M273.897 169.742C278.651 169.675 290.646 174.87 296.529 170.155C302.412 165.448 298.47 158.791 298.95 152.628C299.821 141.404 290.933 122.28 275.432 122.28C257.149 122.28 255.517 136.416 249.871 136.416C242.659 136.416 225.593 161.214 237.957 170.495C245.722 176.325 248.409 164.052 254.1 169.106C260.197 174.522 268.952 169.815 273.897 169.742Z" fill="#231F20" stroke="#231F20" stroke-width="3" stroke-miterlimit="10" stroke-linecap="round" stroke-linejoin="round"/>
<path d="M583.6 196.284C601.105 196.284 615.295 182.078 615.295 164.554C615.295 147.031 601.105 132.825 583.6 132.825C566.095 132.825 551.904 147.031 551.904 164.554C551.904 182.078 566.095 196.284 583.6 196.284Z" fill="#FEBE16" stroke="#231F20" stroke-width="3" stroke-miterlimit="10" stroke-linecap="round" stroke-linejoin="round"/>
<path d="M233.071 298.803L315.558 302.128L310.856 221.496L327.184 231.006L346.376 199.417C346.376 199.417 306.7 174.522 275.005 174.522C275.005 174.522 269.328 177.434 264.899 174.522C244.556 178.128 230.856 187.542 199.301 219.412C218.95 240.612 227.948 249.893 227.948 249.893L236.666 241.44L233.071 298.803Z" fill="#FEBE16" stroke="#231F20" stroke-width="3" stroke-miterlimit="10" stroke-linecap="round" stroke-linejoin="round"/>
<path d="M199.301 219.412L183.246 237.006L104.353 185.747C104.353 185.747 97.1566 171.892 93.2813 172.586C89.4061 173.281 93.2813 185.473 93.2813 185.473C93.2813 185.473 64.7743 173.141 62.5598 178.55C60.6407 183.234 82.2092 188.525 82.2092 188.525C82.2092 188.525 55.4958 179.865 54.1302 186.205C52.8533 192.146 81.3751 196.838 81.3751 196.838C81.3751 196.838 50.4248 191.178 49.6128 197.326C48.7123 204.116 76.3926 201.826 76.3926 201.826C76.3926 201.826 55.2891 206.747 55.9756 212.422C56.5218 216.915 76.6657 210.412 86.3576 215.954C96.042 221.496 185.726 289.662 185.726 289.662L227.941 249.9L199.301 219.412Z" fill="white" stroke="#231F20" stroke-width="3" stroke-miterlimit="10" stroke-linecap="round" stroke-linejoin="round"/>
<path d="M233.071 298.802L143.659 416.292L61.0908 478.702L113.558 540.04L201.515 477.253L242.851 419.247L244.696 452.869L201.736 577.969L283.781 587.819L334.381 461.736L315.558 302.128L233.071 298.802Z" fill="#1D1D1D" stroke="black" stroke-width="3" stroke-miterlimit="10" stroke-linecap="round" stroke-linejoin="round"/>
<path d="M275.698 377.129L242.851 419.248" stroke="#231F20" stroke-width="3" stroke-miterlimit="10" stroke-linecap="round" stroke-linejoin="round"/>
<path d="M63.2422 481.216C60.574 478.097 55.9782 477.503 52.6049 479.841L39.9174 488.638C36.2927 491.151 35.3857 496.123 37.8899 499.754L79.3121 559.813C81.3516 562.77 85.1122 564.005 88.5079 562.833L111.796 554.795C117.129 552.954 118.933 546.32 115.265 542.032L63.2422 481.216Z" stroke="#231F20" stroke-width="3" stroke-miterlimit="10" stroke-linecap="round" stroke-linejoin="round"/>
<path d="M41.3203 504.725C38.7206 500.956 33.4943 500.134 29.863 502.922L6.52992 520.838C3.25018 523.356 2.43 527.959 4.63803 531.455L48.0199 600.145C51.6531 605.898 60.3529 604.777 62.4096 598.292L71.12 570.825C71.669 569.094 72.8217 567.617 74.368 566.665V566.665C78.0613 564.39 79.0938 559.485 76.6309 555.914L41.3203 504.725Z" fill="white" stroke="#231F20" stroke-width="3" stroke-miterlimit="10" stroke-linecap="round" stroke-linejoin="round"/>
<path d="M194.886 583.925C195.967 580.148 199.63 577.715 203.531 578.183L280.438 587.42C285.617 588.042 288.825 593.373 286.95 598.24L278.495 620.182C276.938 624.223 272.448 626.292 268.365 624.849L198.094 600.021C194.106 598.612 191.904 594.343 193.068 590.277L194.886 583.925Z" stroke="#231F20" stroke-width="3" stroke-miterlimit="10" stroke-linecap="round" stroke-linejoin="round"/>
<path d="M191.91 606.173C193.435 602.084 197.956 599.972 202.071 601.425L261.26 622.336C265.435 623.811 267.618 628.396 266.131 632.567L262.93 641.541C261.931 644.343 262.568 647.468 264.586 649.654L276.288 662.334C281.878 668.392 275.762 677.923 267.926 675.365L185.083 648.316C180.759 646.905 178.481 642.177 180.07 637.916L191.91 606.173Z" fill="white" stroke="#231F20" stroke-width="3" stroke-miterlimit="10" stroke-linecap="round" stroke-linejoin="round"/>
<path d="M505.283 398.188L538.108 249.294" stroke="#231F20" stroke-width="3" stroke-miterlimit="10" stroke-linecap="round" stroke-linejoin="round"/>
<path d="M593.469 243.937L631.114 398.188" stroke="#231F20" stroke-width="3" stroke-miterlimit="10" stroke-linecap="round" stroke-linejoin="round"/>
<path d="M580.795 176.192L637.258 134.982C648.05 127.104 662.752 127.314 673.315 135.497L682.146 142.337C689.469 148.009 693.761 156.746 693.774 166.009L693.893 246.161L442.275 246.516L442.17 173.057C442.157 163.749 446.465 154.962 453.832 149.272L486.018 124.411C497.455 115.577 513.563 116.152 524.341 125.778L615.975 207.619" fill="#C0C1C0"/>
<path d="M580.795 176.192L637.258 134.982C648.05 127.104 662.752 127.314 673.315 135.497L682.146 142.337C689.469 148.009 693.761 156.746 693.774 166.009L693.893 246.161L442.275 246.516L442.17 173.057C442.157 163.749 446.465 154.962 453.832 149.272L486.018 124.411C497.455 115.577 513.563 116.152 524.341 125.778L615.975 207.619" stroke="#231F20" stroke-width="3" stroke-miterlimit="10" stroke-linecap="round" stroke-linejoin="round"/>
<path d="M548.973 127.844L540.691 117.078" stroke="#231F20" stroke-width="3" stroke-miterlimit="10" stroke-linecap="round" stroke-linejoin="round"/>
<path d="M570.38 119.243L566.955 106.09" stroke="#231F20" stroke-width="3" stroke-miterlimit="10" stroke-linecap="round" stroke-linejoin="round"/>
<path d="M592.494 119.487L596.355 106.46" stroke="#231F20" stroke-width="3" stroke-miterlimit="10" stroke-linecap="round" stroke-linejoin="round"/>
<path d="M613.384 128.303L622.648 118.364" stroke="#231F20" stroke-width="3" stroke-miterlimit="10" stroke-linecap="round" stroke-linejoin="round"/>
<path d="M101.128 85.9917C124.365 85.9917 143.202 67.1344 143.202 43.8728C143.202 20.6113 124.365 1.75403 101.128 1.75403C77.8909 1.75403 59.0537 20.6113 59.0537 43.8728C59.0537 67.1344 77.8909 85.9917 101.128 85.9917Z" fill="#77AF44" stroke="#231F20" stroke-width="3" stroke-miterlimit="10" stroke-linecap="round" stroke-linejoin="round"/>
<path d="M134.256 17.2789C146.546 15.9858 155.374 17.87 157.706 23.2199C162.231 33.6018 140.567 53.0799 109.314 66.7279C78.0608 80.3758 49.0592 83.0286 44.5344 72.6467C41.973 66.7648 47.8117 57.9642 59.0462 48.9567" stroke="#231F20" stroke-width="3" stroke-miterlimit="10" stroke-linecap="round" stroke-linejoin="round"/>
<path d="M264.899 163.298C266.376 165.685 264.899 174.522 264.899 174.522C264.899 174.522 267.549 175.993 269.535 175.808C271.521 175.623 273.477 174.522 273.477 174.522V163.025C273.477 163.025 287.804 156.167 282.578 149.554C278.422 144.293 267.66 152.495 265.172 153.33C262.678 154.165 258.596 151.313 257.237 154.113C255.628 157.431 263.327 160.756 264.899 163.298Z" fill="white" stroke="#231F20" stroke-width="3" stroke-miterlimit="10" stroke-linecap="round" stroke-linejoin="round"/>
<path d="M346.375 199.417L386.833 226.476C386.833 226.476 447.449 190.868 450.498 186.988C453.539 183.109 457.694 172.439 461.156 172.579C464.618 172.719 461.156 186.707 461.156 186.707C461.156 186.707 489.663 177.286 492.985 183.382C487.036 185.185 472.228 189.892 472.228 189.892C472.228 189.892 497.414 182.133 500.603 186.707C503.784 191.281 472.649 197.51 472.649 197.51C472.649 197.51 501.85 188.784 504.618 195.153C507.386 201.53 477.772 203.052 477.772 203.052C477.772 203.052 502.684 201.804 502.271 205.41C501.858 209.016 458.816 208.875 389.475 268.447C376.742 260.829 327.198 230.991 327.198 230.991L346.375 199.417Z" fill="white" stroke="#231F20" stroke-width="3" stroke-miterlimit="10" stroke-linecap="round" stroke-linejoin="round"/>
<g filter="url(#filter0_d)">
<path d="M514.488 133.652L372.764 355.33" stroke="black" stroke-width="3"/>
</g>
<defs>
<filter id="filter0_d" x="367.5" y="132.844" width="152.251" height="231.294" filterUnits="userSpaceOnUse" color-interpolation-filters="sRGB">
<feFlood flood-opacity="0" result="BackgroundImageFix"/>
<feColorMatrix in="SourceAlpha" type="matrix" values="0 0 0 0 0 0 0 0 0 0 0 0 0 0 0 0 0 0 127 0"/>
<feOffset dy="4"/>
<feGaussianBlur stdDeviation="2"/>
<feColorMatrix type="matrix" values="0 0 0 0 0 0 0 0 0 0 0 0 0 0 0 0 0 0 0.25 0"/>
<feBlend mode="normal" in2="BackgroundImageFix" result="effect1_dropShadow"/>
<feBlend mode="normal" in="SourceGraphic" in2="effect1_dropShadow" result="shape"/>
</filter>
</defs>
</svg>
