<svg width="363" height="171" viewBox="0 0 363 171" fill="none" xmlns="http://www.w3.org/2000/svg">
<g filter="url(#filter0_d)">
<rect x="30" y="27" width="303" height="104" rx="15" fill="#F1EDFF"/>
</g>
<rect x="30" y="27" width="110" height="104" rx="15" fill="#77AF44"/>
<path d="M160.694 70.448C161.462 70.628 162.068 71 162.512 71.564C162.968 72.128 163.196 72.782 163.196 73.526C163.196 74.618 162.83 75.47 162.098 76.082C161.378 76.694 160.34 77 158.984 77H153.062V64.274H158.84C160.136 64.274 161.138 64.556 161.846 65.12C162.554 65.684 162.908 66.488 162.908 67.532C162.908 68.3 162.704 68.942 162.296 69.458C161.888 69.962 161.354 70.292 160.694 70.448ZM156.14 69.476H158.156C159.224 69.476 159.758 69.02 159.758 68.108C159.758 67.196 159.212 66.74 158.12 66.74H156.14V69.476ZM158.336 74.498C159.476 74.498 160.046 74.03 160.046 73.094C160.046 72.638 159.896 72.284 159.596 72.032C159.296 71.768 158.87 71.636 158.318 71.636H156.14V74.498H158.336ZM174.362 71.708C174.362 71.96 174.332 72.236 174.272 72.536H167.306C167.342 73.292 167.534 73.838 167.882 74.174C168.23 74.498 168.674 74.66 169.214 74.66C169.67 74.66 170.048 74.546 170.348 74.318C170.648 74.09 170.846 73.796 170.942 73.436H174.2C174.068 74.144 173.78 74.78 173.336 75.344C172.892 75.896 172.328 76.334 171.644 76.658C170.96 76.97 170.198 77.126 169.358 77.126C168.374 77.126 167.498 76.922 166.73 76.514C165.974 76.094 165.38 75.494 164.948 74.714C164.516 73.934 164.3 73.022 164.3 71.978C164.3 70.922 164.51 70.01 164.93 69.242C165.362 68.462 165.962 67.868 166.73 67.46C167.498 67.04 168.374 66.83 169.358 66.83C170.354 66.83 171.23 67.034 171.986 67.442C172.742 67.85 173.324 68.426 173.732 69.17C174.152 69.902 174.362 70.748 174.362 71.708ZM171.248 71.24C171.26 70.58 171.08 70.088 170.708 69.764C170.348 69.428 169.898 69.26 169.358 69.26C168.794 69.26 168.326 69.428 167.954 69.764C167.582 70.1 167.372 70.592 167.324 71.24H171.248ZM180.502 66.83C181.798 66.83 182.884 67.19 183.76 67.91C184.636 68.618 185.188 69.596 185.416 70.844H182.158C182.062 70.412 181.864 70.076 181.564 69.836C181.264 69.596 180.886 69.476 180.43 69.476C179.89 69.476 179.446 69.692 179.098 70.124C178.75 70.544 178.576 71.162 178.576 71.978C178.576 72.794 178.75 73.418 179.098 73.85C179.446 74.27 179.89 74.48 180.43 74.48C180.886 74.48 181.264 74.36 181.564 74.12C181.864 73.88 182.062 73.544 182.158 73.112H185.416C185.188 74.36 184.636 75.344 183.76 76.064C182.884 76.772 181.798 77.126 180.502 77.126C179.518 77.126 178.642 76.922 177.874 76.514C177.118 76.094 176.524 75.494 176.092 74.714C175.66 73.934 175.444 73.022 175.444 71.978C175.444 70.922 175.654 70.01 176.074 69.242C176.506 68.462 177.106 67.868 177.874 67.46C178.642 67.04 179.518 66.83 180.502 66.83ZM191.721 66.83C192.717 66.83 193.605 67.04 194.385 67.46C195.177 67.868 195.795 68.462 196.239 69.242C196.695 70.022 196.923 70.934 196.923 71.978C196.923 73.022 196.695 73.934 196.239 74.714C195.795 75.494 195.177 76.094 194.385 76.514C193.605 76.922 192.717 77.126 191.721 77.126C190.725 77.126 189.831 76.922 189.039 76.514C188.247 76.094 187.623 75.494 187.167 74.714C186.723 73.934 186.501 73.022 186.501 71.978C186.501 70.934 186.723 70.022 187.167 69.242C187.623 68.462 188.247 67.868 189.039 67.46C189.831 67.04 190.725 66.83 191.721 66.83ZM191.721 69.494C191.133 69.494 190.635 69.71 190.227 70.142C189.831 70.562 189.633 71.174 189.633 71.978C189.633 72.782 189.831 73.394 190.227 73.814C190.635 74.234 191.133 74.444 191.721 74.444C192.309 74.444 192.801 74.234 193.197 73.814C193.593 73.394 193.791 72.782 193.791 71.978C193.791 71.174 193.593 70.562 193.197 70.142C192.801 69.71 192.309 69.494 191.721 69.494ZM211.533 66.848C212.769 66.848 213.741 67.232 214.449 68C215.157 68.756 215.511 69.812 215.511 71.168V77H212.451V71.528C212.451 70.892 212.277 70.4 211.929 70.052C211.593 69.692 211.131 69.512 210.543 69.512C209.931 69.512 209.445 69.704 209.085 70.088C208.737 70.46 208.563 70.988 208.563 71.672V77H205.485V71.528C205.485 70.892 205.317 70.4 204.981 70.052C204.645 69.692 204.183 69.512 203.595 69.512C202.983 69.512 202.497 69.698 202.137 70.07C201.777 70.442 201.597 70.976 201.597 71.672V77H198.519V66.956H201.597V68.666C201.861 68.102 202.263 67.658 202.803 67.334C203.355 67.01 203.997 66.848 204.729 66.848C205.497 66.848 206.175 67.028 206.763 67.388C207.351 67.736 207.795 68.24 208.095 68.9C208.443 68.276 208.917 67.778 209.517 67.406C210.129 67.034 210.801 66.848 211.533 66.848ZM227.096 71.708C227.096 71.96 227.066 72.236 227.006 72.536H220.04C220.076 73.292 220.268 73.838 220.616 74.174C220.964 74.498 221.408 74.66 221.948 74.66C222.404 74.66 222.782 74.546 223.082 74.318C223.382 74.09 223.58 73.796 223.676 73.436H226.934C226.802 74.144 226.514 74.78 226.07 75.344C225.626 75.896 225.062 76.334 224.378 76.658C223.694 76.97 222.932 77.126 222.092 77.126C221.108 77.126 220.232 76.922 219.464 76.514C218.708 76.094 218.114 75.494 217.682 74.714C217.25 73.934 217.034 73.022 217.034 71.978C217.034 70.922 217.244 70.01 217.664 69.242C218.096 68.462 218.696 67.868 219.464 67.46C220.232 67.04 221.108 66.83 222.092 66.83C223.088 66.83 223.964 67.034 224.72 67.442C225.476 67.85 226.058 68.426 226.466 69.17C226.886 69.902 227.096 70.748 227.096 71.708ZM223.982 71.24C223.994 70.58 223.814 70.088 223.442 69.764C223.082 69.428 222.632 69.26 222.092 69.26C221.528 69.26 221.06 69.428 220.688 69.764C220.316 70.1 220.106 70.592 220.058 71.24H223.982ZM236.12 66.83C236.888 66.83 237.548 67.004 238.1 67.352C238.652 67.7 239.06 68.174 239.324 68.774V66.956H242.384V77H239.324V75.182C239.06 75.782 238.652 76.256 238.1 76.604C237.548 76.952 236.888 77.126 236.12 77.126C235.292 77.126 234.548 76.922 233.888 76.514C233.24 76.094 232.724 75.494 232.34 74.714C231.968 73.934 231.782 73.022 231.782 71.978C231.782 70.922 231.968 70.01 232.34 69.242C232.724 68.462 233.24 67.868 233.888 67.46C234.548 67.04 235.292 66.83 236.12 66.83ZM237.11 69.53C236.45 69.53 235.916 69.746 235.508 70.178C235.112 70.61 234.914 71.21 234.914 71.978C234.914 72.746 235.112 73.346 235.508 73.778C235.916 74.21 236.45 74.426 237.11 74.426C237.758 74.426 238.286 74.204 238.694 73.76C239.114 73.316 239.324 72.722 239.324 71.978C239.324 71.222 239.114 70.628 238.694 70.196C238.286 69.752 237.758 69.53 237.11 69.53ZM254.371 66.83C255.199 66.83 255.937 67.04 256.585 67.46C257.245 67.868 257.761 68.462 258.133 69.242C258.517 70.01 258.709 70.922 258.709 71.978C258.709 73.022 258.517 73.934 258.133 74.714C257.761 75.494 257.245 76.094 256.585 76.514C255.937 76.922 255.199 77.126 254.371 77.126C253.603 77.126 252.943 76.952 252.391 76.604C251.839 76.256 251.437 75.782 251.185 75.182V77H248.107V63.68H251.185V68.774C251.437 68.174 251.839 67.7 252.391 67.352C252.943 67.004 253.603 66.83 254.371 66.83ZM253.381 69.53C252.733 69.53 252.199 69.752 251.779 70.196C251.371 70.628 251.167 71.222 251.167 71.978C251.167 72.722 251.371 73.316 251.779 73.76C252.199 74.204 252.733 74.426 253.381 74.426C254.041 74.426 254.569 74.21 254.965 73.778C255.373 73.346 255.577 72.746 255.577 71.978C255.577 71.21 255.373 70.61 254.965 70.178C254.569 69.746 254.041 69.53 253.381 69.53ZM263.384 63.68V77H260.306V63.68H263.384ZM275.049 71.708C275.049 71.96 275.019 72.236 274.959 72.536H267.993C268.029 73.292 268.221 73.838 268.569 74.174C268.917 74.498 269.361 74.66 269.901 74.66C270.357 74.66 270.735 74.546 271.035 74.318C271.335 74.09 271.533 73.796 271.629 73.436H274.887C274.755 74.144 274.467 74.78 274.023 75.344C273.579 75.896 273.015 76.334 272.331 76.658C271.647 76.97 270.885 77.126 270.045 77.126C269.061 77.126 268.185 76.922 267.417 76.514C266.661 76.094 266.067 75.494 265.635 74.714C265.203 73.934 264.987 73.022 264.987 71.978C264.987 70.922 265.197 70.01 265.617 69.242C266.049 68.462 266.649 67.868 267.417 67.46C268.185 67.04 269.061 66.83 270.045 66.83C271.041 66.83 271.917 67.034 272.673 67.442C273.429 67.85 274.011 68.426 274.419 69.17C274.839 69.902 275.049 70.748 275.049 71.708ZM271.935 71.24C271.947 70.58 271.767 70.088 271.395 69.764C271.035 69.428 270.585 69.26 270.045 69.26C269.481 69.26 269.013 69.428 268.641 69.764C268.269 70.1 268.059 70.592 268.011 71.24H271.935ZM280.308 66.83C281.58 66.83 282.594 67.148 283.35 67.784C284.118 68.42 284.598 69.26 284.79 70.304H281.91C281.826 69.896 281.634 69.578 281.334 69.35C281.046 69.11 280.68 68.99 280.236 68.99C279.888 68.99 279.624 69.068 279.444 69.224C279.264 69.368 279.174 69.578 279.174 69.854C279.174 70.166 279.336 70.4 279.66 70.556C279.996 70.712 280.518 70.868 281.226 71.024C281.994 71.204 282.624 71.39 283.116 71.582C283.608 71.762 284.034 72.062 284.394 72.482C284.754 72.902 284.934 73.466 284.934 74.174C284.934 74.75 284.778 75.26 284.466 75.704C284.154 76.148 283.704 76.496 283.116 76.748C282.528 77 281.832 77.126 281.028 77.126C279.672 77.126 278.586 76.826 277.77 76.226C276.954 75.626 276.456 74.768 276.276 73.652H279.246C279.294 74.084 279.474 74.414 279.786 74.642C280.11 74.87 280.524 74.984 281.028 74.984C281.376 74.984 281.64 74.906 281.82 74.75C282 74.582 282.09 74.366 282.09 74.102C282.09 73.754 281.922 73.508 281.586 73.364C281.262 73.208 280.728 73.046 279.984 72.878C279.24 72.722 278.628 72.554 278.148 72.374C277.668 72.194 277.254 71.906 276.906 71.51C276.558 71.102 276.384 70.55 276.384 69.854C276.384 68.954 276.726 68.228 277.41 67.676C278.094 67.112 279.06 66.83 280.308 66.83ZM290.292 66.83C291.564 66.83 292.578 67.148 293.334 67.784C294.102 68.42 294.582 69.26 294.774 70.304H291.894C291.81 69.896 291.618 69.578 291.318 69.35C291.03 69.11 290.664 68.99 290.22 68.99C289.872 68.99 289.608 69.068 289.428 69.224C289.248 69.368 289.158 69.578 289.158 69.854C289.158 70.166 289.32 70.4 289.644 70.556C289.98 70.712 290.502 70.868 291.21 71.024C291.978 71.204 292.608 71.39 293.1 71.582C293.592 71.762 294.018 72.062 294.378 72.482C294.738 72.902 294.918 73.466 294.918 74.174C294.918 74.75 294.762 75.26 294.45 75.704C294.138 76.148 293.688 76.496 293.1 76.748C292.512 77 291.816 77.126 291.012 77.126C289.656 77.126 288.57 76.826 287.754 76.226C286.938 75.626 286.44 74.768 286.26 73.652H289.23C289.278 74.084 289.458 74.414 289.77 74.642C290.094 74.87 290.508 74.984 291.012 74.984C291.36 74.984 291.624 74.906 291.804 74.75C291.984 74.582 292.074 74.366 292.074 74.102C292.074 73.754 291.906 73.508 291.57 73.364C291.246 73.208 290.712 73.046 289.968 72.878C289.224 72.722 288.612 72.554 288.132 72.374C287.652 72.194 287.238 71.906 286.89 71.51C286.542 71.102 286.368 70.55 286.368 69.854C286.368 68.954 286.71 68.228 287.394 67.676C288.078 67.112 289.044 66.83 290.292 66.83ZM296.335 64.13C296.335 63.662 296.503 63.278 296.839 62.978C297.175 62.666 297.619 62.51 298.171 62.51C298.723 62.51 299.167 62.666 299.503 62.978C299.839 63.278 300.007 63.662 300.007 64.13C300.007 64.586 299.839 64.97 299.503 65.282C299.167 65.582 298.723 65.732 298.171 65.732C297.619 65.732 297.175 65.582 296.839 65.282C296.503 64.97 296.335 64.586 296.335 64.13ZM299.701 66.956V77H296.623V66.956H299.701ZM308.198 66.848C309.35 66.848 310.262 67.232 310.934 68C311.618 68.768 311.96 69.824 311.96 71.168V77H308.882V71.528C308.882 70.856 308.702 70.334 308.342 69.962C307.994 69.578 307.526 69.386 306.938 69.386C306.314 69.386 305.816 69.584 305.444 69.98C305.084 70.376 304.904 70.94 304.904 71.672V77H301.826V66.956H304.904V68.792C305.192 68.192 305.618 67.718 306.182 67.37C306.758 67.022 307.43 66.848 308.198 66.848ZM317.806 66.83C318.574 66.83 319.234 67.004 319.786 67.352C320.338 67.7 320.746 68.174 321.01 68.774V66.956H324.07V76.946C324.07 77.882 323.89 78.722 323.53 79.466C323.17 80.222 322.618 80.822 321.874 81.266C321.13 81.71 320.206 81.932 319.102 81.932C317.59 81.932 316.378 81.572 315.466 80.852C314.566 80.144 314.026 79.178 313.846 77.954H316.888C316.984 78.362 317.2 78.68 317.536 78.908C317.884 79.136 318.334 79.25 318.886 79.25C319.522 79.25 320.032 79.064 320.416 78.692C320.812 78.332 321.01 77.75 321.01 76.946V75.182C320.746 75.782 320.338 76.256 319.786 76.604C319.234 76.952 318.574 77.126 317.806 77.126C316.978 77.126 316.234 76.922 315.574 76.514C314.926 76.094 314.41 75.494 314.026 74.714C313.654 73.934 313.468 73.022 313.468 71.978C313.468 70.922 313.654 70.01 314.026 69.242C314.41 68.462 314.926 67.868 315.574 67.46C316.234 67.04 316.978 66.83 317.806 66.83ZM318.796 69.53C318.136 69.53 317.602 69.746 317.194 70.178C316.798 70.61 316.6 71.21 316.6 71.978C316.6 72.746 316.798 73.346 317.194 73.778C317.602 74.21 318.136 74.426 318.796 74.426C319.444 74.426 319.972 74.204 320.38 73.76C320.8 73.316 321.01 72.722 321.01 71.978C321.01 71.222 320.8 70.628 320.38 70.196C319.972 69.752 319.444 69.53 318.796 69.53ZM158.75 98.354V101H157.364C156.188 101 155.27 100.712 154.61 100.136C153.962 99.548 153.638 98.582 153.638 97.238V93.548H152.288V90.956H153.638V88.49H156.716V90.956H158.732V93.548H156.716V97.292C156.716 97.688 156.794 97.964 156.95 98.12C157.118 98.276 157.394 98.354 157.778 98.354H158.75ZM165.178 90.83C166.174 90.83 167.062 91.04 167.842 91.46C168.634 91.868 169.252 92.462 169.696 93.242C170.152 94.022 170.38 94.934 170.38 95.978C170.38 97.022 170.152 97.934 169.696 98.714C169.252 99.494 168.634 100.094 167.842 100.514C167.062 100.922 166.174 101.126 165.178 101.126C164.182 101.126 163.288 100.922 162.496 100.514C161.704 100.094 161.08 99.494 160.624 98.714C160.18 97.934 159.958 97.022 159.958 95.978C159.958 94.934 160.18 94.022 160.624 93.242C161.08 92.462 161.704 91.868 162.496 91.46C163.288 91.04 164.182 90.83 165.178 90.83ZM165.178 93.494C164.59 93.494 164.092 93.71 163.684 94.142C163.288 94.562 163.09 95.174 163.09 95.978C163.09 96.782 163.288 97.394 163.684 97.814C164.092 98.234 164.59 98.444 165.178 98.444C165.766 98.444 166.258 98.234 166.654 97.814C167.05 97.394 167.248 96.782 167.248 95.978C167.248 95.174 167.05 94.562 166.654 94.142C166.258 93.71 165.766 93.494 165.178 93.494ZM179.396 90.83C180.164 90.83 180.824 91.004 181.376 91.352C181.928 91.7 182.336 92.174 182.6 92.774V90.956H185.66V101H182.6V99.182C182.336 99.782 181.928 100.256 181.376 100.604C180.824 100.952 180.164 101.126 179.396 101.126C178.568 101.126 177.824 100.922 177.164 100.514C176.516 100.094 176 99.494 175.616 98.714C175.244 97.934 175.058 97.022 175.058 95.978C175.058 94.922 175.244 94.01 175.616 93.242C176 92.462 176.516 91.868 177.164 91.46C177.824 91.04 178.568 90.83 179.396 90.83ZM180.386 93.53C179.726 93.53 179.192 93.746 178.784 94.178C178.388 94.61 178.19 95.21 178.19 95.978C178.19 96.746 178.388 97.346 178.784 97.778C179.192 98.21 179.726 98.426 180.386 98.426C181.034 98.426 181.562 98.204 181.97 97.76C182.39 97.316 182.6 96.722 182.6 95.978C182.6 95.222 182.39 94.628 181.97 94.196C181.562 93.752 181.034 93.53 180.386 93.53ZM195.918 90.83C197.214 90.83 198.3 91.19 199.176 91.91C200.052 92.618 200.604 93.596 200.832 94.844H197.574C197.478 94.412 197.28 94.076 196.98 93.836C196.68 93.596 196.302 93.476 195.846 93.476C195.306 93.476 194.862 93.692 194.514 94.124C194.166 94.544 193.992 95.162 193.992 95.978C193.992 96.794 194.166 97.418 194.514 97.85C194.862 98.27 195.306 98.48 195.846 98.48C196.302 98.48 196.68 98.36 196.98 98.12C197.28 97.88 197.478 97.544 197.574 97.112H200.832C200.604 98.36 200.052 99.344 199.176 100.064C198.3 100.772 197.214 101.126 195.918 101.126C194.934 101.126 194.058 100.922 193.29 100.514C192.534 100.094 191.94 99.494 191.508 98.714C191.076 97.934 190.86 97.022 190.86 95.978C190.86 94.922 191.07 94.01 191.49 93.242C191.922 92.462 192.522 91.868 193.29 91.46C194.058 91.04 194.934 90.83 195.918 90.83ZM208.811 90.848C209.963 90.848 210.875 91.232 211.547 92C212.231 92.768 212.573 93.824 212.573 95.168V101H209.495V95.528C209.495 94.856 209.315 94.334 208.955 93.962C208.607 93.578 208.139 93.386 207.551 93.386C206.927 93.386 206.429 93.584 206.057 93.98C205.697 94.376 205.517 94.94 205.517 95.672V101H202.439V87.68H205.517V92.792C205.805 92.192 206.231 91.718 206.795 91.37C207.371 91.022 208.043 90.848 208.811 90.848ZM214.315 88.13C214.315 87.662 214.483 87.278 214.819 86.978C215.155 86.666 215.599 86.51 216.151 86.51C216.703 86.51 217.147 86.666 217.483 86.978C217.819 87.278 217.987 87.662 217.987 88.13C217.987 88.586 217.819 88.97 217.483 89.282C217.147 89.582 216.703 89.732 216.151 89.732C215.599 89.732 215.155 89.582 214.819 89.282C214.483 88.97 214.315 88.586 214.315 88.13ZM217.681 90.956V101H214.603V90.956H217.681ZM222.884 87.68V101H219.806V87.68H222.884ZM228.825 90.83C229.593 90.83 230.253 91.004 230.805 91.352C231.357 91.7 231.759 92.174 232.011 92.774V87.68H235.089V101H232.011V99.182C231.759 99.782 231.357 100.256 230.805 100.604C230.253 100.952 229.593 101.126 228.825 101.126C227.997 101.126 227.253 100.922 226.593 100.514C225.945 100.094 225.429 99.494 225.045 98.714C224.673 97.934 224.487 97.022 224.487 95.978C224.487 94.922 224.673 94.01 225.045 93.242C225.429 92.462 225.945 91.868 226.593 91.46C227.253 91.04 227.997 90.83 228.825 90.83ZM229.815 93.53C229.155 93.53 228.621 93.746 228.213 94.178C227.817 94.61 227.619 95.21 227.619 95.978C227.619 96.746 227.817 97.346 228.213 97.778C228.621 98.21 229.155 98.426 229.815 98.426C230.463 98.426 230.991 98.204 231.399 97.76C231.819 97.316 232.029 96.722 232.029 95.978C232.029 95.222 231.819 94.628 231.399 94.196C230.991 93.752 230.463 93.53 229.815 93.53Z" fill="#686868"/>
<path d="M120.005 57.1854C120.005 37.5786 111.174 2 85.974 2C56.7264 2 49 37.5786 49 57.1854H120.005Z" fill="white" stroke="black" stroke-width="3" stroke-miterlimit="10" stroke-linecap="round" stroke-linejoin="round"/>
<path d="M49 57.1912L84.5023 100.785" stroke="black" stroke-width="3" stroke-miterlimit="10" stroke-linecap="round" stroke-linejoin="round"/>
<path d="M84.502 100.785L120.004 57.1912" stroke="black" stroke-width="3" stroke-miterlimit="10" stroke-linecap="round" stroke-linejoin="round"/>
<path d="M70.521 57.1912L84.5021 100.785" stroke="black" stroke-width="3" stroke-miterlimit="10"/>
<path d="M96.0941 57.1912L84.502 100.785" stroke="black" stroke-width="3" stroke-miterlimit="10"/>
<path d="M62.5201 57.1911C62.5201 57.1911 55.7454 10.286 84.1198 2.05481C84.1198 2.05481 68.2254 26.5915 81.4707 57.1911C66.9352 57.1911 62.5201 57.1911 62.5201 57.1911Z" fill="#FF0000" stroke="black" stroke-width="3" stroke-miterlimit="10" stroke-linecap="round" stroke-linejoin="round"/>
<path d="M120.005 57.1912C120.005 57.1912 118.258 -0.0152102 84.1147 2.05486C84.1147 2.05486 102.163 18.2867 92.4151 57.1912C106.951 57.1912 120.005 57.1912 120.005 57.1912Z" fill="#FF0000" stroke="black" stroke-width="3" stroke-miterlimit="10" stroke-linecap="round" stroke-linejoin="round"/>
<defs>
<filter id="filter0_d" x="0" y="7" width="363" height="164" filterUnits="userSpaceOnUse" color-interpolation-filters="sRGB">
<feFlood flood-opacity="0" result="BackgroundImageFix"/>
<feColorMatrix in="SourceAlpha" type="matrix" values="0 0 0 0 0 0 0 0 0 0 0 0 0 0 0 0 0 0 127 0"/>
<feOffset dy="10"/>
<feGaussianBlur stdDeviation="15"/>
<feColorMatrix type="matrix" values="0 0 0 0 0 0 0 0 0 0 0 0 0 0 0 0 0 0 0.4 0"/>
<feBlend mode="normal" in2="BackgroundImageFix" result="effect1_dropShadow"/>
<feBlend mode="normal" in="SourceGraphic" in2="effect1_dropShadow" result="shape"/>
</filter>
</defs>
</svg>
