<svg width="377" height="192" viewBox="0 0 377 192" fill="none" xmlns="http://www.w3.org/2000/svg">
<g filter="url(#filter0_d)">
<rect x="30.2452" y="48.938" width="316.438" height="102.477" rx="15" fill="#F1EDFF"/>
</g>
<rect x="30" y="49.2849" width="108.426" height="102.512" rx="15" fill="#FEBE16"/>
<path d="M166.176 91.8477H170.568V93.4497H164.124V80.7417H166.176V91.8477ZM181.39 88.0137C181.39 88.3497 181.366 88.6437 181.318 88.8957H173.686C173.722 89.9157 174.004 90.6717 174.532 91.1637C175.06 91.6557 175.714 91.9017 176.494 91.9017C177.178 91.9017 177.754 91.7277 178.222 91.3797C178.702 91.0317 178.996 90.5697 179.104 89.9937H181.3C181.168 90.6897 180.892 91.3077 180.472 91.8477C180.052 92.3877 179.506 92.8137 178.834 93.1257C178.162 93.4257 177.412 93.5757 176.584 93.5757C175.624 93.5757 174.772 93.3717 174.028 92.9637C173.296 92.5557 172.72 91.9677 172.3 91.1997C171.88 90.4317 171.67 89.5257 171.67 88.4817C171.67 87.4497 171.88 86.5497 172.3 85.7817C172.72 85.0137 173.296 84.4257 174.028 84.0177C174.772 83.6097 175.624 83.4057 176.584 83.4057C177.556 83.4057 178.402 83.6097 179.122 84.0177C179.854 84.4137 180.412 84.9657 180.796 85.6737C181.192 86.3697 181.39 87.1497 181.39 88.0137ZM179.32 87.9597C179.344 87.3117 179.23 86.7717 178.978 86.3397C178.738 85.8957 178.402 85.5717 177.97 85.3677C177.55 85.1517 177.088 85.0437 176.584 85.0437C175.78 85.0437 175.108 85.2897 174.568 85.7817C174.028 86.2737 173.734 86.9997 173.686 87.9597H179.32ZM187.35 83.4057C188.25 83.4057 189.018 83.6277 189.654 84.0717C190.29 84.5157 190.74 85.1037 191.004 85.8357V83.5317H193.056V93.4497H191.004V91.1457C190.74 91.8777 190.29 92.4657 189.654 92.9097C189.018 93.3537 188.25 93.5757 187.35 93.5757C186.486 93.5757 185.712 93.3717 185.028 92.9637C184.356 92.5557 183.828 91.9677 183.444 91.1997C183.06 90.4317 182.868 89.5257 182.868 88.4817C182.868 87.4497 183.06 86.5497 183.444 85.7817C183.828 85.0137 184.356 84.4257 185.028 84.0177C185.712 83.6097 186.486 83.4057 187.35 83.4057ZM187.98 85.2057C187.068 85.2057 186.336 85.4997 185.784 86.0877C185.244 86.6637 184.974 87.4617 184.974 88.4817C184.974 89.5017 185.244 90.3057 185.784 90.8937C186.336 91.4697 187.068 91.7577 187.98 91.7577C188.556 91.7577 189.072 91.6257 189.528 91.3617C189.984 91.0857 190.344 90.7017 190.608 90.2097C190.872 89.7177 191.004 89.1417 191.004 88.4817C191.004 87.8337 190.872 87.2637 190.608 86.7717C190.344 86.2677 189.984 85.8837 189.528 85.6197C189.072 85.3437 188.556 85.2057 187.98 85.2057ZM197.57 85.4757C197.906 84.8277 198.386 84.3177 199.01 83.9457C199.634 83.5617 200.354 83.3697 201.17 83.3697V85.6017H200.558C199.658 85.6017 198.932 85.8237 198.38 86.2677C197.84 86.6997 197.57 87.4197 197.57 88.4277V93.4497H195.518V83.5317H197.57V85.4757ZM208.252 83.3697C209.404 83.3697 210.328 83.7417 211.024 84.4857C211.72 85.2297 212.068 86.2917 212.068 87.6717V93.4497H210.016V87.8877C210.016 86.9997 209.788 86.3157 209.332 85.8357C208.876 85.3437 208.252 85.0977 207.46 85.0977C206.644 85.0977 205.99 85.3617 205.498 85.8897C205.006 86.4057 204.76 87.1677 204.76 88.1757V93.4497H202.708V83.5317H204.76V85.7097C205.024 84.9657 205.468 84.3897 206.092 83.9817C206.716 83.5737 207.436 83.3697 208.252 83.3697ZM214.179 80.6517C214.179 80.3037 214.299 80.0157 214.539 79.7877C214.779 79.5597 215.097 79.4457 215.493 79.4457C215.889 79.4457 216.207 79.5597 216.447 79.7877C216.699 80.0157 216.825 80.3037 216.825 80.6517C216.825 80.9997 216.699 81.2817 216.447 81.4977C216.207 81.7137 215.889 81.8217 215.493 81.8217C215.097 81.8217 214.779 81.7137 214.539 81.4977C214.299 81.2817 214.179 80.9997 214.179 80.6517ZM216.519 83.5317V93.4497H214.467V83.5317H216.519ZM224.546 83.3697C225.698 83.3697 226.622 83.7417 227.318 84.4857C228.014 85.2297 228.362 86.2917 228.362 87.6717V93.4497H226.31V87.8877C226.31 86.9997 226.082 86.3157 225.626 85.8357C225.17 85.3437 224.546 85.0977 223.754 85.0977C222.938 85.0977 222.284 85.3617 221.792 85.8897C221.3 86.4057 221.054 87.1677 221.054 88.1757V93.4497H219.002V83.5317H221.054V85.7097C221.318 84.9657 221.762 84.3897 222.386 83.9817C223.01 83.5737 223.73 83.3697 224.546 83.3697ZM234.74 83.4057C235.64 83.4057 236.408 83.6277 237.044 84.0717C237.68 84.5157 238.13 85.1037 238.394 85.8357V83.5317H240.446V93.5577C240.446 94.4817 240.254 95.2977 239.87 96.0057C239.498 96.7257 238.958 97.2897 238.25 97.6977C237.542 98.1057 236.702 98.3097 235.73 98.3097C234.338 98.3097 233.21 97.9797 232.346 97.3197C231.494 96.6597 230.96 95.7657 230.744 94.6377H232.778C232.946 95.2257 233.27 95.6817 233.75 96.0057C234.23 96.3417 234.842 96.5097 235.586 96.5097C236.402 96.5097 237.074 96.2577 237.602 95.7537C238.13 95.2497 238.394 94.5177 238.394 93.5577V91.1457C238.13 91.8777 237.68 92.4657 237.044 92.9097C236.408 93.3537 235.64 93.5757 234.74 93.5757C233.876 93.5757 233.102 93.3717 232.418 92.9637C231.746 92.5557 231.218 91.9677 230.834 91.1997C230.45 90.4317 230.258 89.5257 230.258 88.4817C230.258 87.4497 230.45 86.5497 230.834 85.7817C231.218 85.0137 231.746 84.4257 232.418 84.0177C233.102 83.6097 233.876 83.4057 234.74 83.4057ZM235.37 85.2057C234.458 85.2057 233.726 85.4997 233.174 86.0877C232.634 86.6637 232.364 87.4617 232.364 88.4817C232.364 89.5017 232.634 90.3057 233.174 90.8937C233.726 91.4697 234.458 91.7577 235.37 91.7577C235.946 91.7577 236.462 91.6257 236.918 91.3617C237.374 91.0857 237.734 90.7017 237.998 90.2097C238.262 89.7177 238.394 89.1417 238.394 88.4817C238.394 87.8337 238.262 87.2637 237.998 86.7717C237.734 86.2677 237.374 85.8837 236.918 85.6197C236.462 85.3437 235.946 85.2057 235.37 85.2057ZM259.529 83.3697C260.705 83.3697 261.641 83.7417 262.337 84.4857C263.045 85.2297 263.399 86.2917 263.399 87.6717V93.4497H261.347V87.8877C261.347 87.0237 261.131 86.3577 260.699 85.8897C260.267 85.4097 259.673 85.1697 258.917 85.1697C258.113 85.1697 257.471 85.4277 256.991 85.9437C256.523 86.4477 256.289 87.1917 256.289 88.1757V93.4497H254.237V87.8877C254.237 87.0237 254.021 86.3577 253.589 85.8897C253.157 85.4097 252.563 85.1697 251.807 85.1697C251.003 85.1697 250.361 85.4277 249.881 85.9437C249.413 86.4477 249.179 87.1917 249.179 88.1757V93.4497H247.127V83.5317H249.179V85.6017C249.431 84.8817 249.851 84.3297 250.439 83.9457C251.027 83.5617 251.717 83.3697 252.509 83.3697C253.337 83.3697 254.051 83.5737 254.651 83.9817C255.263 84.3897 255.707 84.9777 255.983 85.7457C256.271 85.0017 256.733 84.4197 257.369 83.9997C258.005 83.5797 258.725 83.3697 259.529 83.3697ZM269.773 83.4057C270.673 83.4057 271.441 83.6277 272.077 84.0717C272.713 84.5157 273.163 85.1037 273.427 85.8357V83.5317H275.479V93.4497H273.427V91.1457C273.163 91.8777 272.713 92.4657 272.077 92.9097C271.441 93.3537 270.673 93.5757 269.773 93.5757C268.909 93.5757 268.135 93.3717 267.451 92.9637C266.779 92.5557 266.251 91.9677 265.867 91.1997C265.483 90.4317 265.291 89.5257 265.291 88.4817C265.291 87.4497 265.483 86.5497 265.867 85.7817C266.251 85.0137 266.779 84.4257 267.451 84.0177C268.135 83.6097 268.909 83.4057 269.773 83.4057ZM270.403 85.2057C269.491 85.2057 268.759 85.4997 268.207 86.0877C267.667 86.6637 267.397 87.4617 267.397 88.4817C267.397 89.5017 267.667 90.3057 268.207 90.8937C268.759 91.4697 269.491 91.7577 270.403 91.7577C270.979 91.7577 271.495 91.6257 271.951 91.3617C272.407 91.0857 272.767 90.7017 273.031 90.2097C273.295 89.7177 273.427 89.1417 273.427 88.4817C273.427 87.8337 273.295 87.2637 273.031 86.7717C272.767 86.2677 272.407 85.8837 271.951 85.6197C271.495 85.3437 270.979 85.2057 270.403 85.2057ZM281.92 83.4057C282.82 83.4057 283.588 83.6277 284.224 84.0717C284.86 84.5157 285.304 85.1037 285.556 85.8357V80.1297H287.626V93.4497H285.556V91.1457C285.304 91.8777 284.86 92.4657 284.224 92.9097C283.588 93.3537 282.82 93.5757 281.92 93.5757C281.056 93.5757 280.282 93.3717 279.598 92.9637C278.926 92.5557 278.398 91.9677 278.014 91.1997C277.63 90.4317 277.438 89.5257 277.438 88.4817C277.438 87.4497 277.63 86.5497 278.014 85.7817C278.398 85.0137 278.926 84.4257 279.598 84.0177C280.282 83.6097 281.056 83.4057 281.92 83.4057ZM282.55 85.2057C281.638 85.2057 280.906 85.4997 280.354 86.0877C279.814 86.6637 279.544 87.4617 279.544 88.4817C279.544 89.5017 279.814 90.3057 280.354 90.8937C280.906 91.4697 281.638 91.7577 282.55 91.7577C283.126 91.7577 283.642 91.6257 284.098 91.3617C284.554 91.0857 284.914 90.7017 285.178 90.2097C285.442 89.7177 285.574 89.1417 285.574 88.4817C285.574 87.8337 285.442 87.2637 285.178 86.7717C284.914 86.2677 284.554 85.8837 284.098 85.6197C283.642 85.3437 283.126 85.2057 282.55 85.2057ZM299.304 88.0137C299.304 88.3497 299.28 88.6437 299.232 88.8957H291.6C291.636 89.9157 291.918 90.6717 292.446 91.1637C292.974 91.6557 293.628 91.9017 294.408 91.9017C295.092 91.9017 295.668 91.7277 296.136 91.3797C296.616 91.0317 296.91 90.5697 297.018 89.9937H299.214C299.082 90.6897 298.806 91.3077 298.386 91.8477C297.966 92.3877 297.42 92.8137 296.748 93.1257C296.076 93.4257 295.326 93.5757 294.498 93.5757C293.538 93.5757 292.686 93.3717 291.942 92.9637C291.21 92.5557 290.634 91.9677 290.214 91.1997C289.794 90.4317 289.584 89.5257 289.584 88.4817C289.584 87.4497 289.794 86.5497 290.214 85.7817C290.634 85.0137 291.21 84.4257 291.942 84.0177C292.686 83.6097 293.538 83.4057 294.498 83.4057C295.47 83.4057 296.316 83.6097 297.036 84.0177C297.768 84.4137 298.326 84.9657 298.71 85.6737C299.106 86.3697 299.304 87.1497 299.304 88.0137ZM297.234 87.9597C297.258 87.3117 297.144 86.7717 296.892 86.3397C296.652 85.8957 296.316 85.5717 295.884 85.3677C295.464 85.1517 295.002 85.0437 294.498 85.0437C293.694 85.0437 293.022 85.2897 292.482 85.7817C291.942 86.2737 291.648 86.9997 291.6 87.9597H297.234ZM167.382 107.406C168.546 107.406 169.476 107.706 170.172 108.306C170.88 108.894 171.312 109.686 171.468 110.682H169.524C169.44 110.142 169.206 109.71 168.822 109.386C168.45 109.05 167.952 108.882 167.328 108.882C166.812 108.882 166.41 109.008 166.122 109.26C165.846 109.5 165.708 109.83 165.708 110.25C165.708 110.562 165.81 110.814 166.014 111.006C166.218 111.198 166.47 111.348 166.77 111.456C167.082 111.564 167.52 111.684 168.084 111.816C168.828 111.984 169.428 112.158 169.884 112.338C170.352 112.518 170.748 112.806 171.072 113.202C171.408 113.586 171.576 114.114 171.576 114.786C171.576 115.614 171.258 116.286 170.622 116.802C169.998 117.318 169.152 117.576 168.084 117.576C166.848 117.576 165.846 117.288 165.078 116.712C164.322 116.136 163.866 115.332 163.71 114.3H165.708C165.768 114.84 166.008 115.278 166.428 115.614C166.848 115.95 167.4 116.118 168.084 116.118C168.576 116.118 168.96 115.992 169.236 115.74C169.524 115.476 169.668 115.146 169.668 114.75C169.668 114.402 169.56 114.126 169.344 113.922C169.128 113.718 168.858 113.562 168.534 113.454C168.21 113.334 167.766 113.214 167.202 113.094C166.482 112.926 165.894 112.758 165.438 112.59C164.994 112.422 164.61 112.152 164.286 111.78C163.974 111.396 163.818 110.88 163.818 110.232C163.818 109.392 164.13 108.714 164.754 108.198C165.39 107.67 166.266 107.406 167.382 107.406ZM177.611 107.406C178.511 107.406 179.279 107.628 179.915 108.072C180.551 108.516 181.001 109.104 181.265 109.836V107.532H183.317V117.45H181.265V115.146C181.001 115.878 180.551 116.466 179.915 116.91C179.279 117.354 178.511 117.576 177.611 117.576C176.747 117.576 175.973 117.372 175.289 116.964C174.617 116.556 174.089 115.968 173.705 115.2C173.321 114.432 173.129 113.526 173.129 112.482C173.129 111.45 173.321 110.55 173.705 109.782C174.089 109.014 174.617 108.426 175.289 108.018C175.973 107.61 176.747 107.406 177.611 107.406ZM178.241 109.206C177.329 109.206 176.597 109.5 176.045 110.088C175.505 110.664 175.235 111.462 175.235 112.482C175.235 113.502 175.505 114.306 176.045 114.894C176.597 115.47 177.329 115.758 178.241 115.758C178.817 115.758 179.333 115.626 179.789 115.362C180.245 115.086 180.605 114.702 180.869 114.21C181.133 113.718 181.265 113.142 181.265 112.482C181.265 111.834 181.133 111.264 180.869 110.772C180.605 110.268 180.245 109.884 179.789 109.62C179.333 109.344 178.817 109.206 178.241 109.206ZM190.406 105.48C189.602 105.444 189.038 105.576 188.714 105.876C188.39 106.164 188.228 106.662 188.228 107.37V107.532H190.406V109.296H188.228V117.45H186.158V109.296H184.808V107.532H186.158V107.208C186.158 105.996 186.512 105.09 187.22 104.49C187.928 103.878 188.99 103.608 190.406 103.68V105.48ZM201.271 112.014C201.271 112.35 201.247 112.644 201.199 112.896H193.567C193.603 113.916 193.885 114.672 194.413 115.164C194.941 115.656 195.595 115.902 196.375 115.902C197.059 115.902 197.635 115.728 198.103 115.38C198.583 115.032 198.877 114.57 198.985 113.994H201.181C201.049 114.69 200.773 115.308 200.353 115.848C199.933 116.388 199.387 116.814 198.715 117.126C198.043 117.426 197.293 117.576 196.465 117.576C195.505 117.576 194.653 117.372 193.909 116.964C193.177 116.556 192.601 115.968 192.181 115.2C191.761 114.432 191.551 113.526 191.551 112.482C191.551 111.45 191.761 110.55 192.181 109.782C192.601 109.014 193.177 108.426 193.909 108.018C194.653 107.61 195.505 107.406 196.465 107.406C197.437 107.406 198.283 107.61 199.003 108.018C199.735 108.414 200.293 108.966 200.677 109.674C201.073 110.37 201.271 111.15 201.271 112.014ZM199.201 111.96C199.225 111.312 199.111 110.772 198.859 110.34C198.619 109.896 198.283 109.572 197.851 109.368C197.431 109.152 196.969 109.044 196.465 109.044C195.661 109.044 194.989 109.29 194.449 109.782C193.909 110.274 193.615 111 193.567 111.96H199.201ZM216.363 117.45L213.987 114.768C213.975 114.888 213.915 115.098 213.807 115.398C213.639 116.046 213.273 116.574 212.709 116.982C212.157 117.378 211.497 117.576 210.729 117.576C209.949 117.576 209.265 117.414 208.677 117.09C208.089 116.766 207.633 116.316 207.309 115.74C206.985 115.164 206.823 114.504 206.823 113.76C206.823 113.004 206.967 112.35 207.255 111.798C207.555 111.246 207.957 110.826 208.461 110.538C208.965 110.25 209.523 110.106 210.135 110.106H210.261L210.027 109.782C209.739 109.422 209.517 109.068 209.361 108.72C209.205 108.36 209.127 107.958 209.127 107.514C209.127 107.01 209.253 106.536 209.505 106.092C209.769 105.648 210.153 105.294 210.657 105.03C211.173 104.754 211.785 104.616 212.493 104.616C213.549 104.616 214.353 104.868 214.905 105.372C215.469 105.876 215.823 106.512 215.967 107.28C216.075 107.676 216.117 108.102 216.093 108.558H214.149V108.36C214.149 108.18 214.143 108.048 214.131 107.964C214.119 107.46 213.969 107.064 213.681 106.776C213.405 106.488 213.021 106.344 212.529 106.344C212.073 106.344 211.713 106.476 211.449 106.74C211.197 107.004 211.071 107.328 211.071 107.712C211.071 108.036 211.131 108.318 211.251 108.558C211.383 108.798 211.581 109.08 211.845 109.404L218.469 117.45H216.363ZM210.747 115.83C211.335 115.83 211.815 115.644 212.187 115.272C212.571 114.9 212.763 114.42 212.763 113.832C212.763 113.424 212.655 113.058 212.439 112.734C212.235 112.398 211.959 112.14 211.611 111.96C211.275 111.768 210.921 111.672 210.549 111.672C209.973 111.672 209.505 111.852 209.145 112.212C208.785 112.56 208.605 113.058 208.605 113.706C208.605 114.366 208.809 114.888 209.217 115.272C209.637 115.644 210.147 115.83 210.747 115.83ZM233.228 112.014C233.228 112.35 233.204 112.644 233.156 112.896H225.524C225.56 113.916 225.842 114.672 226.37 115.164C226.898 115.656 227.552 115.902 228.332 115.902C229.016 115.902 229.592 115.728 230.06 115.38C230.54 115.032 230.834 114.57 230.942 113.994H233.138C233.006 114.69 232.73 115.308 232.31 115.848C231.89 116.388 231.344 116.814 230.672 117.126C230 117.426 229.25 117.576 228.422 117.576C227.462 117.576 226.61 117.372 225.866 116.964C225.134 116.556 224.558 115.968 224.138 115.2C223.718 114.432 223.508 113.526 223.508 112.482C223.508 111.45 223.718 110.55 224.138 109.782C224.558 109.014 225.134 108.426 225.866 108.018C226.61 107.61 227.462 107.406 228.422 107.406C229.394 107.406 230.24 107.61 230.96 108.018C231.692 108.414 232.25 108.966 232.634 109.674C233.03 110.37 233.228 111.15 233.228 112.014ZM231.158 111.96C231.182 111.312 231.068 110.772 230.816 110.34C230.576 109.896 230.24 109.572 229.808 109.368C229.388 109.152 228.926 109.044 228.422 109.044C227.618 109.044 226.946 109.29 226.406 109.782C225.866 110.274 225.572 111 225.524 111.96H231.158ZM240.754 107.37C241.906 107.37 242.83 107.742 243.526 108.486C244.222 109.23 244.57 110.292 244.57 111.672V117.45H242.518V111.888C242.518 111 242.29 110.316 241.834 109.836C241.378 109.344 240.754 109.098 239.962 109.098C239.146 109.098 238.492 109.362 238 109.89C237.508 110.406 237.262 111.168 237.262 112.176V117.45H235.21V107.532H237.262V109.71C237.526 108.966 237.97 108.39 238.594 107.982C239.218 107.574 239.938 107.37 240.754 107.37ZM248.085 105.822C247.689 105.822 247.365 105.714 247.113 105.498C246.873 105.282 246.753 105 246.753 104.652C246.753 104.304 246.873 104.016 247.113 103.788C247.365 103.56 247.689 103.446 248.085 103.446C248.481 103.446 248.799 103.56 249.039 103.788C249.279 104.016 249.399 104.304 249.399 104.652C249.399 105 249.279 105.282 249.039 105.498C248.799 105.714 248.481 105.822 248.085 105.822ZM245.205 120.366H245.907C246.303 120.366 246.591 120.276 246.771 120.096C246.963 119.928 247.059 119.634 247.059 119.214V107.532H249.129V119.232C249.129 121.188 248.145 122.166 246.177 122.166H245.205V120.366ZM256.111 107.406C257.071 107.406 257.935 107.61 258.703 108.018C259.471 108.426 260.071 109.014 260.503 109.782C260.935 110.55 261.151 111.45 261.151 112.482C261.151 113.526 260.935 114.432 260.503 115.2C260.071 115.968 259.471 116.556 258.703 116.964C257.935 117.372 257.071 117.576 256.111 117.576C255.151 117.576 254.287 117.372 253.519 116.964C252.763 116.556 252.163 115.968 251.719 115.2C251.287 114.42 251.071 113.514 251.071 112.482C251.071 111.45 251.287 110.55 251.719 109.782C252.163 109.014 252.763 108.426 253.519 108.018C254.287 107.61 255.151 107.406 256.111 107.406ZM256.111 109.188C255.583 109.188 255.097 109.308 254.653 109.548C254.209 109.788 253.849 110.16 253.573 110.664C253.309 111.156 253.177 111.762 253.177 112.482C253.177 113.214 253.309 113.826 253.573 114.318C253.849 114.81 254.209 115.176 254.653 115.416C255.097 115.656 255.583 115.776 256.111 115.776C256.639 115.776 257.125 115.656 257.569 115.416C258.013 115.176 258.367 114.81 258.631 114.318C258.907 113.826 259.045 113.214 259.045 112.482C259.045 111.762 258.907 111.156 258.631 110.664C258.367 110.16 258.013 109.788 257.569 109.548C257.125 109.308 256.639 109.188 256.111 109.188ZM264.294 107.532L267.264 114.822L270.018 107.532H272.304L266.31 122.166H264.024L266.166 117.216L261.99 107.532H264.294ZM277.631 107.406C278.531 107.406 279.299 107.628 279.935 108.072C280.571 108.516 281.021 109.104 281.285 109.836V107.532H283.337V117.45H281.285V115.146C281.021 115.878 280.571 116.466 279.935 116.91C279.299 117.354 278.531 117.576 277.631 117.576C276.767 117.576 275.993 117.372 275.309 116.964C274.637 116.556 274.109 115.968 273.725 115.2C273.341 114.432 273.149 113.526 273.149 112.482C273.149 111.45 273.341 110.55 273.725 109.782C274.109 109.014 274.637 108.426 275.309 108.018C275.993 107.61 276.767 107.406 277.631 107.406ZM278.261 109.206C277.349 109.206 276.617 109.5 276.065 110.088C275.525 110.664 275.255 111.462 275.255 112.482C275.255 113.502 275.525 114.306 276.065 114.894C276.617 115.47 277.349 115.758 278.261 115.758C278.837 115.758 279.353 115.626 279.809 115.362C280.265 115.086 280.625 114.702 280.889 114.21C281.153 113.718 281.285 113.142 281.285 112.482C281.285 111.834 281.153 111.264 280.889 110.772C280.625 110.268 280.265 109.884 279.809 109.62C279.353 109.344 278.837 109.206 278.261 109.206ZM291.487 107.406C292.351 107.406 293.119 107.61 293.791 108.018C294.475 108.426 295.009 109.014 295.393 109.782C295.777 110.55 295.969 111.45 295.969 112.482C295.969 113.526 295.777 114.432 295.393 115.2C295.009 115.968 294.475 116.556 293.791 116.964C293.119 117.372 292.351 117.576 291.487 117.576C290.587 117.576 289.819 117.354 289.183 116.91C288.547 116.466 288.103 115.878 287.851 115.146V117.45H285.799V104.13H287.851V109.836C288.103 109.104 288.547 108.516 289.183 108.072C289.819 107.628 290.587 107.406 291.487 107.406ZM290.857 109.206C290.281 109.206 289.765 109.344 289.309 109.62C288.853 109.884 288.493 110.268 288.229 110.772C287.965 111.264 287.833 111.834 287.833 112.482C287.833 113.142 287.965 113.718 288.229 114.21C288.493 114.702 288.853 115.086 289.309 115.362C289.765 115.626 290.281 115.758 290.857 115.758C291.769 115.758 292.501 115.47 293.053 114.894C293.605 114.306 293.881 113.502 293.881 112.482C293.881 111.474 293.605 110.676 293.053 110.088C292.501 109.5 291.769 109.206 290.857 109.206ZM299.998 104.13V117.45H297.946V104.13H299.998ZM311.697 112.014C311.697 112.35 311.673 112.644 311.625 112.896H303.993C304.029 113.916 304.311 114.672 304.839 115.164C305.367 115.656 306.021 115.902 306.801 115.902C307.485 115.902 308.061 115.728 308.529 115.38C309.009 115.032 309.303 114.57 309.411 113.994H311.607C311.475 114.69 311.199 115.308 310.779 115.848C310.359 116.388 309.813 116.814 309.141 117.126C308.469 117.426 307.719 117.576 306.891 117.576C305.931 117.576 305.079 117.372 304.335 116.964C303.603 116.556 303.027 115.968 302.607 115.2C302.187 114.432 301.977 113.526 301.977 112.482C301.977 111.45 302.187 110.55 302.607 109.782C303.027 109.014 303.603 108.426 304.335 108.018C305.079 107.61 305.931 107.406 306.891 107.406C307.863 107.406 308.709 107.61 309.429 108.018C310.161 108.414 310.719 108.966 311.103 109.674C311.499 110.37 311.697 111.15 311.697 112.014ZM309.627 111.96C309.651 111.312 309.537 110.772 309.285 110.34C309.045 109.896 308.709 109.572 308.277 109.368C307.857 109.152 307.395 109.044 306.891 109.044C306.087 109.044 305.415 109.29 304.875 109.782C304.335 110.274 304.041 111 303.993 111.96H309.627Z" fill="#686868"/>
<path d="M100.749 9.79421L84.2512 47.1543L114.36 60.4048L130.858 23.0447L100.749 9.79421Z" fill="#77AF44" stroke="black" stroke-width="3" stroke-miterlimit="10" stroke-linecap="round" stroke-linejoin="round"/>
<path d="M84.249 47.1524L79.396 58.1421L109.505 71.3926L114.358 60.4029L84.249 47.1524Z" fill="#6F00FC" stroke="black" stroke-width="3" stroke-miterlimit="10" stroke-linecap="round" stroke-linejoin="round"/>
<path d="M79.3976 58.1407L67.547 84.9796L70.9799 117.925L97.6591 98.232L109.51 71.3931L79.3976 58.1407Z" fill="white" stroke="black" stroke-width="3" stroke-miterlimit="10" stroke-linecap="round" stroke-linejoin="round"/>
<path d="M90.2292 81.9502C91.8654 80.8126 92.2709 78.5659 91.135 76.932C89.999 75.2981 87.7517 74.8958 86.1155 76.0334C84.4792 77.171 84.0737 79.4177 85.2097 81.0516C86.3457 82.6855 88.593 83.0878 90.2292 81.9502Z" fill="white" stroke="black" stroke-width="3" stroke-miterlimit="10" stroke-linecap="round" stroke-linejoin="round"/>
<g filter="url(#filter1_d)">
<path d="M69.4281 103.498L83.2278 109.412" stroke="black" stroke-width="3"/>
</g>
<defs>
<filter id="filter0_d" x="0.245239" y="28.938" width="376.438" height="162.477" filterUnits="userSpaceOnUse" color-interpolation-filters="sRGB">
<feFlood flood-opacity="0" result="BackgroundImageFix"/>
<feColorMatrix in="SourceAlpha" type="matrix" values="0 0 0 0 0 0 0 0 0 0 0 0 0 0 0 0 0 0 127 0"/>
<feOffset dy="10"/>
<feGaussianBlur stdDeviation="15"/>
<feColorMatrix type="matrix" values="0 0 0 0 0 0 0 0 0 0 0 0 0 0 0 0 0 0 0.4 0"/>
<feBlend mode="normal" in2="BackgroundImageFix" result="effect1_dropShadow"/>
<feBlend mode="normal" in="SourceGraphic" in2="effect1_dropShadow" result="shape"/>
</filter>
<filter id="filter1_d" x="64.8373" y="102.119" width="22.9815" height="16.6716" filterUnits="userSpaceOnUse" color-interpolation-filters="sRGB">
<feFlood flood-opacity="0" result="BackgroundImageFix"/>
<feColorMatrix in="SourceAlpha" type="matrix" values="0 0 0 0 0 0 0 0 0 0 0 0 0 0 0 0 0 0 127 0"/>
<feOffset dy="4"/>
<feGaussianBlur stdDeviation="2"/>
<feColorMatrix type="matrix" values="0 0 0 0 0 0 0 0 0 0 0 0 0 0 0 0 0 0 0.25 0"/>
<feBlend mode="normal" in2="BackgroundImageFix" result="effect1_dropShadow"/>
<feBlend mode="normal" in="SourceGraphic" in2="effect1_dropShadow" result="shape"/>
</filter>
</defs>
</svg>
