<svg width="501" height="560" viewBox="0 0 501 560" fill="none" xmlns="http://www.w3.org/2000/svg">
<g clip-path="url(#clip0)">
<path d="M354.242 112.245C353.689 97.9656 365.654 86.1991 379.908 87.206L382.379 87.3805C397.113 88.4213 407.374 102.589 404.014 116.972V116.972C401.303 128.577 390.454 136.577 378.579 135.568L376.199 135.366C364.13 134.341 354.71 124.349 354.242 112.245V112.245Z" fill="#77AF44" stroke="black" stroke-width="3" stroke-miterlimit="10" stroke-linecap="round" stroke-linejoin="round"/>
<path d="M392.628 88.1082C392.628 88.1082 399.881 76.9447 408.28 72.3221" stroke="black" stroke-width="3" stroke-miterlimit="10" stroke-linecap="round" stroke-linejoin="round"/>
<path d="M380.172 87.2227V46.3206" stroke="black" stroke-width="3" stroke-miterlimit="10" stroke-linecap="round" stroke-linejoin="round"/>
<path d="M380.172 74.4413C380.172 74.4413 389.3 58.3546 407.458 57.1989" stroke="black" stroke-width="3" stroke-miterlimit="10" stroke-linecap="round" stroke-linejoin="round"/>
<path d="M407.45 57.1991C404.23 53.1081 413.16 41.2435 431.202 41.3128C430.687 50.4578 412.861 64.0867 407.45 57.1991Z" fill="#FEBE16" stroke="black" stroke-width="3" stroke-miterlimit="10" stroke-linecap="round" stroke-linejoin="round"/>
<path d="M380.171 46.3203C403.027 46.3203 380.976 7.00498 377.167 7.41332C373.557 7.79853 366.204 46.3203 380.171 46.3203Z" fill="#FEBE16" stroke="black" stroke-width="3" stroke-miterlimit="10" stroke-linecap="round" stroke-linejoin="round"/>
<path d="M379.234 63.3623C379.234 63.3623 368.03 50.7428 359.001 47.4762Z" fill="black"/>
<path d="M379.234 63.3623C379.234 63.3623 368.03 50.7428 359.001 47.4762" stroke="black" stroke-width="3" stroke-miterlimit="10" stroke-linecap="round" stroke-linejoin="round"/>
<path d="M359.631 47.661C372.644 32.283 330.685 29.9409 330.685 29.9409C330.685 29.9409 351.175 57.6536 359.631 47.661Z" fill="#FEBE16" stroke="black" stroke-width="3" stroke-miterlimit="10" stroke-linecap="round" stroke-linejoin="round"/>
<path d="M361.183 85.096V75.8816" stroke="black" stroke-width="3" stroke-miterlimit="10" stroke-linecap="round" stroke-linejoin="round"/>
<path d="M362.013 78.4854C362.013 78.4854 379.673 71.0586 373.424 66.7751C367.017 62.376 362.013 78.4854 362.013 78.4854Z" fill="#565656" stroke="black" stroke-width="3" stroke-miterlimit="10" stroke-linecap="round" stroke-linejoin="round"/>
<path d="M360.437 75.8819C360.437 75.8819 337.457 43.2776 330.544 50.2191C320.519 60.2808 360.437 75.8819 360.437 75.8819Z" fill="#FEBE16" stroke="black" stroke-width="3" stroke-miterlimit="10" stroke-linecap="round" stroke-linejoin="round"/>
<path d="M426.853 81.9988C428.023 64.4715 408.28 72.3222 408.28 72.3222C408.28 72.3222 422.181 73.6705 426.853 81.9988Z" fill="#FEBE16" stroke="black" stroke-width="3" stroke-miterlimit="10" stroke-linecap="round" stroke-linejoin="round"/>
<path d="M382.18 481.087C390.162 477.84 392.223 467.49 386.093 461.434L345.665 421.496C341.508 417.39 334.997 416.874 330.245 420.276L328.721 421.368C322.857 425.567 321.995 433.954 326.884 439.258L364.367 479.922C367.758 483.601 373.077 484.79 377.712 482.904L382.18 481.087Z" fill="#77AF44" stroke="black" stroke-width="3" stroke-miterlimit="10" stroke-linecap="round" stroke-linejoin="round"/>
<path d="M354.842 469.594C359.008 474.114 358.161 481.284 353.073 484.733C341.866 492.33 324.425 504.341 320.211 508.327C319.77 508.744 319.436 509.231 319.132 509.757L306.019 532.445C301.339 540.542 289.097 538.357 287.507 529.142L276.584 465.86C275.934 462.094 277.488 458.286 280.587 456.05L310.495 434.47C314.6 431.509 320.27 432.081 323.7 435.803L354.842 469.594Z" fill="white" stroke="black" stroke-width="3" stroke-miterlimit="10"/>
<path d="M93.2223 426.085C91.3259 422.802 87.1614 421.626 83.828 423.431L62.4263 435.02C59.3833 436.668 58.001 440.292 59.1737 443.548L94.8315 542.545C97.0187 548.617 105.56 548.746 107.929 542.742L115.622 523.246C116.174 521.848 117.161 520.664 118.437 519.871L133.996 510.195C137.204 508.2 138.25 504.02 136.36 500.749L93.2223 426.085Z" fill="white" stroke="black" stroke-width="3" stroke-miterlimit="10"/>
<path d="M220.209 243.304C231.695 274.237 264.194 323.476 264.194 323.476C264.194 323.476 282.451 350.441 258.384 365.85C234.317 381.259 165.021 417.47 165.021 417.47" stroke="black" stroke-width="3" stroke-miterlimit="10"/>
<path d="M387.433 318.469L362.777 343.107" stroke="black" stroke-width="3" stroke-miterlimit="10" stroke-linecap="round" stroke-linejoin="round"/>
<path d="M290.335 243.305L375.894 361.175C380.689 367.781 379.743 376.938 373.697 382.424L338.469 414.388L214.563 503.563C207.353 508.753 197.295 507.074 192.16 499.825L134.281 418.108C128.737 410.281 131.278 399.369 139.709 394.796L215.9 353.469C225.258 348.393 227.419 335.488 221.494 326.644C204.79 301.713 182.016 251.868 217.15 197.953C220.226 193.232 225.792 190.902 231.413 191.298C260.988 193.382 288.448 190.618 300.095 189.144C303.903 188.663 307.716 189.4 310.963 191.446C328.463 202.467 388.549 241.064 436.374 280.904C465.656 305.296 469.937 346.575 453.083 380.755C435.079 417.268 423.455 441.297 403.952 459.841C398.225 465.287 389.285 464.617 383.657 459.07C359.224 434.988 338.643 414.234 338.643 414.234" fill="#1D1D1D"/>
<path d="M290.335 243.305L375.894 361.175C380.689 367.781 379.743 376.938 373.697 382.424L338.469 414.388L214.563 503.563C207.353 508.753 197.295 507.074 192.16 499.825L134.281 418.108C128.737 410.281 131.278 399.369 139.709 394.796L215.9 353.469C225.258 348.393 227.419 335.488 221.494 326.644C204.79 301.713 182.016 251.868 217.15 197.953C220.226 193.232 225.792 190.902 231.413 191.298C260.988 193.382 288.448 190.618 300.095 189.144C303.903 188.663 307.716 189.4 310.963 191.446C328.463 202.467 388.549 241.064 436.374 280.904C465.656 305.296 469.937 346.575 453.083 380.755C435.079 417.268 423.455 441.297 403.952 459.841C398.225 465.287 389.285 464.617 383.657 459.07C359.224 434.988 338.643 414.234 338.643 414.234" stroke="black" stroke-width="3" stroke-miterlimit="10" stroke-linecap="round" stroke-linejoin="round"/>
<path d="M103.972 403.17C112.359 398.985 122.544 401.541 127.961 409.189L189.611 496.231C197.961 508.021 190.618 524.449 176.264 526.09L164.949 527.383C157.433 528.242 150.124 524.561 146.34 518.012L95.4559 429.95C89.9776 420.469 93.6259 408.332 103.424 403.443L103.972 403.17Z" fill="#77AF44" stroke="black" stroke-width="3" stroke-miterlimit="10" stroke-linecap="round" stroke-linejoin="round"/>
<path d="M292.924 46.4129C297.447 42.3835 294.899 27.83 289.09 24.4555C283.281 21.0887 290.542 1.04952 262.392 0.856915C234.242 0.664306 235.919 24.9099 234.6 29.3631C233.346 33.5773 227.139 37.237 229.753 44.0939C232.931 52.4608 287.945 50.8506 292.924 46.4129Z" fill="black" stroke="black" stroke-miterlimit="10"/>
<path d="M258.276 41.3125C258.276 41.3125 254.367 58.6087 261.878 58.6087C264.907 58.6087 268.293 58.4546 268.127 41.3125C268.127 41.3125 280.26 36.4973 277.463 26.5819C271.239 21.6665 265.529 23.5925 263.255 25.7189C260.981 27.8453 259.313 31.2044 256.102 30.1489C252.89 29.0934 250.707 26.6819 249.67 27.8376C248.633 28.9932 248.84 30.827 249.67 31.5974C250.5 32.3678 252.633 32.3755 252.89 34.4865C253.297 37.9689 258.276 41.3125 258.276 41.3125Z" fill="white" stroke="black" stroke-width="3" stroke-miterlimit="10" stroke-linecap="round" stroke-linejoin="round"/>
<path d="M404.694 114.041C404.694 114.041 406.52 104.873 410.462 106.414C414.404 107.955 415.026 133.957 410.462 136.461C405.898 138.965 392.462 139.412 390.57 136.592C388.677 133.772 393.814 133.957 393.814 133.957C393.814 133.957 382.246 130.875 381.831 126.831C381.416 122.786 396.852 128.371 397.74 125.097C398.636 121.823 380.387 122.832 381.831 116.815C382.661 113.348 404.694 114.041 404.694 114.041Z" fill="white" stroke="black" stroke-width="3" stroke-miterlimit="10" stroke-linecap="round" stroke-linejoin="round"/>
<path d="M296.974 109.111L321.979 77.1682L353.665 97.2922L355.98 133.95L296.974 109.111Z" fill="white" stroke="black" stroke-width="3" stroke-miterlimit="10" stroke-linecap="round" stroke-linejoin="round"/>
<path d="M321.979 77.1686C321.979 77.1686 291.156 56.4286 278.509 55.4193C265.853 54.41 260.434 63.7862 263.015 72.6C267.164 86.7606 292.36 107.185 296.966 109.103C301.63 103.756 321.979 77.1686 321.979 77.1686Z" fill="#FF0000" stroke="black" stroke-width="3" stroke-miterlimit="10" stroke-linecap="round" stroke-linejoin="round"/>
<path d="M256.409 49.9724C256.409 49.9724 228.093 56.4134 226.217 72.6002C224.35 88.7871 222.35 190.508 222.35 190.508C222.35 190.508 245.097 193.273 269.787 192.118C294.476 190.962 305.962 188.327 305.962 188.327C305.962 188.327 304.643 130.575 302.46 109.103C300.277 87.6313 280.053 49.9647 268.227 49.9647C260.617 54.6952 256.409 49.9724 256.409 49.9724Z" fill="#FF0000" stroke="black" stroke-width="3" stroke-miterlimit="10" stroke-linecap="round" stroke-linejoin="round"/>
<path d="M239.836 56.3669C239.836 56.3669 219.056 66.5521 214.475 82.2304C211.172 93.5172 212.499 103.24 212.499 103.24H258.285V80.2195" fill="#FF0000"/>
<path d="M239.836 56.3669C239.836 56.3669 219.056 66.5521 214.475 82.2304C211.172 93.5172 212.499 103.24 212.499 103.24H258.285V80.2195" stroke="black" stroke-width="3" stroke-miterlimit="10" stroke-linecap="round" stroke-linejoin="round"/>
<path d="M226.848 168.527L212.499 103.232H258.284C258.284 103.232 261.089 124.897 262.392 130.105L342.825 124.327C342.825 124.327 345.522 115.081 351.332 114.118C357.141 113.155 353.614 124.904 359.008 129.142C364.402 133.379 395.1 134.158 391.582 138.526C372.876 161.763 226.848 168.527 226.848 168.527Z" fill="white" stroke="black" stroke-width="3" stroke-miterlimit="10" stroke-linecap="round" stroke-linejoin="round"/>
<path d="M419.288 295.629C411.285 288.874 414.656 276.587 425.156 274.238L453.385 267.923C463.42 265.678 472.364 274.312 469.543 283.521L462.207 307.47C459.475 316.387 447.586 319.513 440.18 313.263L419.288 295.629Z" fill="#F1EDFF" stroke="black" stroke-width="3" stroke-miterlimit="10" stroke-linecap="round" stroke-linejoin="round"/>
<path d="M145.639 23.106H14.7695C7.58983 23.106 1.76953 28.9263 1.76953 36.106V161.578C1.76953 168.758 7.58981 174.578 14.7695 174.578H145.639C152.819 174.578 158.639 168.758 158.639 161.578V36.106C158.639 28.9263 152.819 23.106 145.639 23.106Z" fill="#77AF44" stroke="black" stroke-width="2" stroke-miterlimit="10"/>
<path d="M129.127 43.6446H104.409C97.229 43.6446 91.4087 49.4649 91.4087 56.6446V83.7028C91.4087 90.8825 97.229 96.7028 104.409 96.7028H129.127C136.306 96.7028 142.127 90.8825 142.127 83.7028V56.6446C142.127 49.4649 136.306 43.6446 129.127 43.6446Z" fill="#6646E7" stroke="black" stroke-width="2" stroke-miterlimit="10"/>
<path d="M129.127 105.26H104.409C97.229 105.26 91.4087 111.081 91.4087 118.26V146.174C91.4087 153.354 97.229 159.174 104.409 159.174H129.127C136.306 159.174 142.127 153.354 142.127 146.174V118.26C142.127 111.081 136.306 105.26 129.127 105.26Z" fill="#6646E7" stroke="black" stroke-width="2" stroke-miterlimit="10"/>
<path d="M65.4343 43.6446H33.6392C26.4595 43.6446 20.6392 49.4649 20.6392 56.6446V83.7028C20.6392 90.8825 26.4594 96.7028 33.6391 96.7028H65.4343C72.614 96.7028 78.4343 90.8825 78.4343 83.7028V56.6446C78.4343 49.4649 72.614 43.6446 65.4343 43.6446Z" fill="#6646E7" stroke="black" stroke-width="2" stroke-miterlimit="10"/>
<path d="M65.4343 105.26H33.6392C26.4595 105.26 20.6392 111.081 20.6392 118.26V146.174C20.6392 153.354 26.4594 159.174 33.6391 159.174H65.4343C72.614 159.174 78.4343 153.354 78.4343 146.174V118.26C78.4343 111.081 72.614 105.26 65.4343 105.26Z" fill="#6646E7" stroke="black" stroke-width="2" stroke-miterlimit="10"/>
</g>
<defs>
<clipPath id="clip0">
<rect width="500" height="560" fill="white" transform="matrix(-1 0 0 1 500.845 0)"/>
</clipPath>
</defs>
</svg>
