<svg width="402" height="190" viewBox="0 0 402 190" fill="none" xmlns="http://www.w3.org/2000/svg">
<g filter="url(#filter0_d)">
<rect x="30" y="46" width="342" height="104" rx="15" fill="#F1EDFF"/>
</g>
<rect x="30" y="46" width="124.158" height="104" rx="15" fill="#77AF44"/>
<path d="M174.688 94.126C173.764 94.126 172.936 93.976 172.204 93.676C171.472 93.376 170.884 92.932 170.44 92.344C170.008 91.756 169.78 91.048 169.756 90.22H173.032C173.08 90.688 173.242 91.048 173.518 91.3C173.794 91.54 174.154 91.66 174.598 91.66C175.054 91.66 175.414 91.558 175.678 91.354C175.942 91.138 176.074 90.844 176.074 90.472C176.074 90.16 175.966 89.902 175.75 89.698C175.546 89.494 175.288 89.326 174.976 89.194C174.676 89.062 174.244 88.912 173.68 88.744C172.864 88.492 172.198 88.24 171.682 87.988C171.166 87.736 170.722 87.364 170.35 86.872C169.978 86.38 169.792 85.738 169.792 84.946C169.792 83.77 170.218 82.852 171.07 82.192C171.922 81.52 173.032 81.184 174.4 81.184C175.792 81.184 176.914 81.52 177.766 82.192C178.618 82.852 179.074 83.776 179.134 84.964H175.804C175.78 84.556 175.63 84.238 175.354 84.01C175.078 83.77 174.724 83.65 174.292 83.65C173.92 83.65 173.62 83.752 173.392 83.956C173.164 84.148 173.05 84.43 173.05 84.802C173.05 85.21 173.242 85.528 173.626 85.756C174.01 85.984 174.61 86.23 175.426 86.494C176.242 86.77 176.902 87.034 177.406 87.286C177.922 87.538 178.366 87.904 178.738 88.384C179.11 88.864 179.296 89.482 179.296 90.238C179.296 90.958 179.11 91.612 178.738 92.2C178.378 92.788 177.85 93.256 177.154 93.604C176.458 93.952 175.636 94.126 174.688 94.126ZM190.658 88.816C190.658 89.104 190.64 89.404 190.604 89.716H183.638C183.686 90.34 183.884 90.82 184.232 91.156C184.592 91.48 185.03 91.642 185.546 91.642C186.314 91.642 186.848 91.318 187.148 90.67H190.424C190.256 91.33 189.95 91.924 189.506 92.452C189.074 92.98 188.528 93.394 187.868 93.694C187.208 93.994 186.47 94.144 185.654 94.144C184.67 94.144 183.794 93.934 183.026 93.514C182.258 93.094 181.658 92.494 181.226 91.714C180.794 90.934 180.578 90.022 180.578 88.978C180.578 87.934 180.788 87.022 181.208 86.242C181.64 85.462 182.24 84.862 183.008 84.442C183.776 84.022 184.658 83.812 185.654 83.812C186.626 83.812 187.49 84.016 188.246 84.424C189.002 84.832 189.59 85.414 190.01 86.17C190.442 86.926 190.658 87.808 190.658 88.816ZM187.508 88.006C187.508 87.478 187.328 87.058 186.968 86.746C186.608 86.434 186.158 86.278 185.618 86.278C185.102 86.278 184.664 86.428 184.304 86.728C183.956 87.028 183.74 87.454 183.656 88.006H187.508ZM201.75 88.816C201.75 89.104 201.732 89.404 201.696 89.716H194.73C194.778 90.34 194.976 90.82 195.324 91.156C195.684 91.48 196.122 91.642 196.638 91.642C197.406 91.642 197.94 91.318 198.24 90.67H201.516C201.348 91.33 201.042 91.924 200.598 92.452C200.166 92.98 199.62 93.394 198.96 93.694C198.3 93.994 197.562 94.144 196.746 94.144C195.762 94.144 194.886 93.934 194.118 93.514C193.35 93.094 192.75 92.494 192.318 91.714C191.886 90.934 191.67 90.022 191.67 88.978C191.67 87.934 191.88 87.022 192.3 86.242C192.732 85.462 193.332 84.862 194.1 84.442C194.868 84.022 195.75 83.812 196.746 83.812C197.718 83.812 198.582 84.016 199.338 84.424C200.094 84.832 200.682 85.414 201.102 86.17C201.534 86.926 201.75 87.808 201.75 88.816ZM198.6 88.006C198.6 87.478 198.42 87.058 198.06 86.746C197.7 86.434 197.25 86.278 196.71 86.278C196.194 86.278 195.756 86.428 195.396 86.728C195.048 87.028 194.832 87.454 194.748 88.006H198.6ZM212.786 91.39V94H211.22C210.104 94 209.234 93.73 208.61 93.19C207.986 92.638 207.674 91.744 207.674 90.508V86.512H206.45V83.956H207.674V81.508H210.752V83.956H212.768V86.512H210.752V90.544C210.752 90.844 210.824 91.06 210.968 91.192C211.112 91.324 211.352 91.39 211.688 91.39H212.786ZM220.675 83.848C221.827 83.848 222.751 84.232 223.447 85C224.143 85.756 224.491 86.8 224.491 88.132V94H221.431V88.546C221.431 87.874 221.257 87.352 220.909 86.98C220.561 86.608 220.093 86.422 219.505 86.422C218.917 86.422 218.449 86.608 218.101 86.98C217.753 87.352 217.579 87.874 217.579 88.546V94H214.501V80.68H217.579V85.306C217.891 84.862 218.317 84.508 218.857 84.244C219.397 83.98 220.003 83.848 220.675 83.848ZM236.098 88.816C236.098 89.104 236.08 89.404 236.044 89.716H229.078C229.126 90.34 229.324 90.82 229.672 91.156C230.032 91.48 230.47 91.642 230.986 91.642C231.754 91.642 232.288 91.318 232.588 90.67H235.864C235.696 91.33 235.39 91.924 234.946 92.452C234.514 92.98 233.968 93.394 233.308 93.694C232.648 93.994 231.91 94.144 231.094 94.144C230.11 94.144 229.234 93.934 228.466 93.514C227.698 93.094 227.098 92.494 226.666 91.714C226.234 90.934 226.018 90.022 226.018 88.978C226.018 87.934 226.228 87.022 226.648 86.242C227.08 85.462 227.68 84.862 228.448 84.442C229.216 84.022 230.098 83.812 231.094 83.812C232.066 83.812 232.93 84.016 233.686 84.424C234.442 84.832 235.03 85.414 235.45 86.17C235.882 86.926 236.098 87.808 236.098 88.816ZM232.948 88.006C232.948 87.478 232.768 87.058 232.408 86.746C232.048 86.434 231.598 86.278 231.058 86.278C230.542 86.278 230.104 86.428 229.744 86.728C229.396 87.028 229.18 87.454 229.096 88.006H232.948ZM244.614 85.378C244.914 84.91 245.328 84.532 245.856 84.244C246.384 83.956 247.002 83.812 247.71 83.812C248.538 83.812 249.288 84.022 249.96 84.442C250.632 84.862 251.16 85.462 251.544 86.242C251.94 87.022 252.138 87.928 252.138 88.96C252.138 89.992 251.94 90.904 251.544 91.696C251.16 92.476 250.632 93.082 249.96 93.514C249.288 93.934 248.538 94.144 247.71 94.144C247.014 94.144 246.396 94 245.856 93.712C245.328 93.424 244.914 93.052 244.614 92.596V98.788H241.536V83.956H244.614V85.378ZM249.006 88.96C249.006 88.192 248.79 87.592 248.358 87.16C247.938 86.716 247.416 86.494 246.792 86.494C246.18 86.494 245.658 86.716 245.226 87.16C244.806 87.604 244.596 88.21 244.596 88.978C244.596 89.746 244.806 90.352 245.226 90.796C245.658 91.24 246.18 91.462 246.792 91.462C247.404 91.462 247.926 91.24 248.358 90.796C248.79 90.34 249.006 89.728 249.006 88.96ZM256.831 85.63C257.191 85.078 257.641 84.646 258.181 84.334C258.721 84.01 259.321 83.848 259.981 83.848V87.106H259.135C258.367 87.106 257.791 87.274 257.407 87.61C257.023 87.934 256.831 88.51 256.831 89.338V94H253.753V83.956H256.831V85.63ZM266.024 94.144C265.04 94.144 264.152 93.934 263.36 93.514C262.58 93.094 261.962 92.494 261.506 91.714C261.062 90.934 260.84 90.022 260.84 88.978C260.84 87.946 261.068 87.04 261.524 86.26C261.98 85.468 262.604 84.862 263.396 84.442C264.188 84.022 265.076 83.812 266.06 83.812C267.044 83.812 267.932 84.022 268.724 84.442C269.516 84.862 270.14 85.468 270.596 86.26C271.052 87.04 271.28 87.946 271.28 88.978C271.28 90.01 271.046 90.922 270.578 91.714C270.122 92.494 269.492 93.094 268.688 93.514C267.896 93.934 267.008 94.144 266.024 94.144ZM266.024 91.48C266.612 91.48 267.11 91.264 267.518 90.832C267.938 90.4 268.148 89.782 268.148 88.978C268.148 88.174 267.944 87.556 267.536 87.124C267.14 86.692 266.648 86.476 266.06 86.476C265.46 86.476 264.962 86.692 264.566 87.124C264.17 87.544 263.972 88.162 263.972 88.978C263.972 89.782 264.164 90.4 264.548 90.832C264.944 91.264 265.436 91.48 266.024 91.48ZM276.729 83.812C277.437 83.812 278.055 83.956 278.583 84.244C279.123 84.532 279.537 84.91 279.825 85.378V83.956H282.903V93.982C282.903 94.906 282.717 95.74 282.345 96.484C281.985 97.24 281.427 97.84 280.671 98.284C279.927 98.728 278.997 98.95 277.881 98.95C276.393 98.95 275.187 98.596 274.263 97.888C273.339 97.192 272.811 96.244 272.679 95.044H275.721C275.817 95.428 276.045 95.728 276.405 95.944C276.765 96.172 277.209 96.286 277.737 96.286C278.373 96.286 278.877 96.1 279.249 95.728C279.633 95.368 279.825 94.786 279.825 93.982V92.56C279.525 93.028 279.111 93.412 278.583 93.712C278.055 94 277.437 94.144 276.729 94.144C275.901 94.144 275.151 93.934 274.479 93.514C273.807 93.082 273.273 92.476 272.877 91.696C272.493 90.904 272.301 89.992 272.301 88.96C272.301 87.928 272.493 87.022 272.877 86.242C273.273 85.462 273.807 84.862 274.479 84.442C275.151 84.022 275.901 83.812 276.729 83.812ZM279.825 88.978C279.825 88.21 279.609 87.604 279.177 87.16C278.757 86.716 278.241 86.494 277.629 86.494C277.017 86.494 276.495 86.716 276.063 87.16C275.643 87.592 275.433 88.192 275.433 88.96C275.433 89.728 275.643 90.34 276.063 90.796C276.495 91.24 277.017 91.462 277.629 91.462C278.241 91.462 278.757 91.24 279.177 90.796C279.609 90.352 279.825 89.746 279.825 88.978ZM288.208 85.63C288.568 85.078 289.018 84.646 289.558 84.334C290.098 84.01 290.698 83.848 291.358 83.848V87.106H290.512C289.744 87.106 289.168 87.274 288.784 87.61C288.4 87.934 288.208 88.51 288.208 89.338V94H285.13V83.956H288.208V85.63ZM302.297 88.816C302.297 89.104 302.279 89.404 302.243 89.716H295.277C295.325 90.34 295.523 90.82 295.871 91.156C296.231 91.48 296.669 91.642 297.185 91.642C297.953 91.642 298.487 91.318 298.787 90.67H302.063C301.895 91.33 301.589 91.924 301.145 92.452C300.713 92.98 300.167 93.394 299.507 93.694C298.847 93.994 298.109 94.144 297.293 94.144C296.309 94.144 295.433 93.934 294.665 93.514C293.897 93.094 293.297 92.494 292.865 91.714C292.433 90.934 292.217 90.022 292.217 88.978C292.217 87.934 292.427 87.022 292.847 86.242C293.279 85.462 293.879 84.862 294.647 84.442C295.415 84.022 296.297 83.812 297.293 83.812C298.265 83.812 299.129 84.016 299.885 84.424C300.641 84.832 301.229 85.414 301.649 86.17C302.081 86.926 302.297 87.808 302.297 88.816ZM299.147 88.006C299.147 87.478 298.967 87.058 298.607 86.746C298.247 86.434 297.797 86.278 297.257 86.278C296.741 86.278 296.303 86.428 295.943 86.728C295.595 87.028 295.379 87.454 295.295 88.006H299.147ZM308.007 94.144C307.131 94.144 306.351 93.994 305.667 93.694C304.983 93.394 304.443 92.986 304.047 92.47C303.651 91.942 303.429 91.354 303.381 90.706H306.423C306.459 91.054 306.621 91.336 306.909 91.552C307.197 91.768 307.551 91.876 307.971 91.876C308.355 91.876 308.649 91.804 308.853 91.66C309.069 91.504 309.177 91.306 309.177 91.066C309.177 90.778 309.027 90.568 308.727 90.436C308.427 90.292 307.941 90.136 307.269 89.968C306.549 89.8 305.949 89.626 305.469 89.446C304.989 89.254 304.575 88.96 304.227 88.564C303.879 88.156 303.705 87.61 303.705 86.926C303.705 86.35 303.861 85.828 304.173 85.36C304.497 84.88 304.965 84.502 305.577 84.226C306.201 83.95 306.939 83.812 307.791 83.812C309.051 83.812 310.041 84.124 310.761 84.748C311.493 85.372 311.913 86.2 312.021 87.232H309.177C309.129 86.884 308.973 86.608 308.709 86.404C308.457 86.2 308.121 86.098 307.701 86.098C307.341 86.098 307.065 86.17 306.873 86.314C306.681 86.446 306.585 86.632 306.585 86.872C306.585 87.16 306.735 87.376 307.035 87.52C307.347 87.664 307.827 87.808 308.475 87.952C309.219 88.144 309.825 88.336 310.293 88.528C310.761 88.708 311.169 89.008 311.517 89.428C311.877 89.836 312.063 90.388 312.075 91.084C312.075 91.672 311.907 92.2 311.571 92.668C311.247 93.124 310.773 93.484 310.149 93.748C309.537 94.012 308.823 94.144 308.007 94.144ZM318.044 94.144C317.168 94.144 316.388 93.994 315.704 93.694C315.02 93.394 314.48 92.986 314.084 92.47C313.688 91.942 313.466 91.354 313.418 90.706H316.46C316.496 91.054 316.658 91.336 316.946 91.552C317.234 91.768 317.588 91.876 318.008 91.876C318.392 91.876 318.686 91.804 318.89 91.66C319.106 91.504 319.214 91.306 319.214 91.066C319.214 90.778 319.064 90.568 318.764 90.436C318.464 90.292 317.978 90.136 317.306 89.968C316.586 89.8 315.986 89.626 315.506 89.446C315.026 89.254 314.612 88.96 314.264 88.564C313.916 88.156 313.742 87.61 313.742 86.926C313.742 86.35 313.898 85.828 314.21 85.36C314.534 84.88 315.002 84.502 315.614 84.226C316.238 83.95 316.976 83.812 317.828 83.812C319.088 83.812 320.078 84.124 320.798 84.748C321.53 85.372 321.95 86.2 322.058 87.232H319.214C319.166 86.884 319.01 86.608 318.746 86.404C318.494 86.2 318.158 86.098 317.738 86.098C317.378 86.098 317.102 86.17 316.91 86.314C316.718 86.446 316.622 86.632 316.622 86.872C316.622 87.16 316.772 87.376 317.072 87.52C317.384 87.664 317.864 87.808 318.512 87.952C319.256 88.144 319.862 88.336 320.33 88.528C320.798 88.708 321.206 89.008 321.554 89.428C321.914 89.836 322.1 90.388 322.112 91.084C322.112 91.672 321.944 92.2 321.608 92.668C321.284 93.124 320.81 93.484 320.186 93.748C319.574 94.012 318.86 94.144 318.044 94.144ZM332.381 94.144C331.397 94.144 330.509 93.934 329.717 93.514C328.937 93.094 328.319 92.494 327.863 91.714C327.419 90.934 327.197 90.022 327.197 88.978C327.197 87.946 327.425 87.04 327.881 86.26C328.337 85.468 328.961 84.862 329.753 84.442C330.545 84.022 331.433 83.812 332.417 83.812C333.401 83.812 334.289 84.022 335.081 84.442C335.873 84.862 336.497 85.468 336.953 86.26C337.409 87.04 337.637 87.946 337.637 88.978C337.637 90.01 337.403 90.922 336.935 91.714C336.479 92.494 335.849 93.094 335.045 93.514C334.253 93.934 333.365 94.144 332.381 94.144ZM332.381 91.48C332.969 91.48 333.467 91.264 333.875 90.832C334.295 90.4 334.505 89.782 334.505 88.978C334.505 88.174 334.301 87.556 333.893 87.124C333.497 86.692 333.005 86.476 332.417 86.476C331.817 86.476 331.319 86.692 330.923 87.124C330.527 87.544 330.329 88.162 330.329 88.978C330.329 89.782 330.521 90.4 330.905 90.832C331.301 91.264 331.793 91.48 332.381 91.48ZM344.31 86.512H342.654V94H339.576V86.512H338.46V83.956H339.576V83.668C339.576 82.432 339.93 81.496 340.638 80.86C341.346 80.212 342.384 79.888 343.752 79.888C343.98 79.888 344.148 79.894 344.256 79.906V82.516C343.668 82.48 343.254 82.564 343.014 82.768C342.774 82.972 342.654 83.338 342.654 83.866V83.956H344.31V86.512ZM180.376 107.956L174.076 122.77H170.764L173.068 117.658L168.982 107.956H172.42L174.742 114.238L177.046 107.956H180.376ZM186.061 118.144C185.077 118.144 184.189 117.934 183.397 117.514C182.617 117.094 181.999 116.494 181.543 115.714C181.099 114.934 180.877 114.022 180.877 112.978C180.877 111.946 181.105 111.04 181.561 110.26C182.017 109.468 182.641 108.862 183.433 108.442C184.225 108.022 185.113 107.812 186.097 107.812C187.081 107.812 187.969 108.022 188.761 108.442C189.553 108.862 190.177 109.468 190.633 110.26C191.089 111.04 191.317 111.946 191.317 112.978C191.317 114.01 191.083 114.922 190.615 115.714C190.159 116.494 189.529 117.094 188.725 117.514C187.933 117.934 187.045 118.144 186.061 118.144ZM186.061 115.48C186.649 115.48 187.147 115.264 187.555 114.832C187.975 114.4 188.185 113.782 188.185 112.978C188.185 112.174 187.981 111.556 187.573 111.124C187.177 110.692 186.685 110.476 186.097 110.476C185.497 110.476 184.999 110.692 184.603 111.124C184.207 111.544 184.009 112.162 184.009 112.978C184.009 113.782 184.201 114.4 184.585 114.832C184.981 115.264 185.473 115.48 186.061 115.48ZM202.868 107.956V118H199.79V116.632C199.478 117.076 199.052 117.436 198.512 117.712C197.984 117.976 197.396 118.108 196.748 118.108C195.98 118.108 195.302 117.94 194.714 117.604C194.126 117.256 193.67 116.758 193.346 116.11C193.022 115.462 192.86 114.7 192.86 113.824V107.956H195.92V113.41C195.92 114.082 196.094 114.604 196.442 114.976C196.79 115.348 197.258 115.534 197.846 115.534C198.446 115.534 198.92 115.348 199.268 114.976C199.616 114.604 199.79 114.082 199.79 113.41V107.956H202.868ZM208.157 109.63C208.517 109.078 208.967 108.646 209.507 108.334C210.047 108.01 210.647 107.848 211.307 107.848V111.106H210.461C209.693 111.106 209.117 111.274 208.733 111.61C208.349 111.934 208.157 112.51 208.157 113.338V118H205.079V107.956H208.157V109.63ZM215.981 112.978C215.981 111.934 216.191 111.022 216.611 110.242C217.043 109.462 217.637 108.862 218.393 108.442C219.161 108.022 220.037 107.812 221.021 107.812C222.281 107.812 223.331 108.142 224.171 108.802C225.023 109.462 225.581 110.392 225.845 111.592H222.569C222.293 110.824 221.759 110.44 220.967 110.44C220.403 110.44 219.953 110.662 219.617 111.106C219.281 111.538 219.113 112.162 219.113 112.978C219.113 113.794 219.281 114.424 219.617 114.868C219.953 115.3 220.403 115.516 220.967 115.516C221.759 115.516 222.293 115.132 222.569 114.364H225.845C225.581 115.54 225.023 116.464 224.171 117.136C223.319 117.808 222.269 118.144 221.021 118.144C220.037 118.144 219.161 117.934 218.393 117.514C217.637 117.094 217.043 116.494 216.611 115.714C216.191 114.934 215.981 114.022 215.981 112.978ZM233.665 107.848C234.817 107.848 235.741 108.232 236.437 109C237.133 109.756 237.481 110.8 237.481 112.132V118H234.421V112.546C234.421 111.874 234.247 111.352 233.899 110.98C233.551 110.608 233.083 110.422 232.495 110.422C231.907 110.422 231.439 110.608 231.091 110.98C230.743 111.352 230.569 111.874 230.569 112.546V118H227.491V104.68H230.569V109.306C230.881 108.862 231.307 108.508 231.847 108.244C232.387 107.98 232.993 107.848 233.665 107.848ZM241.168 106.912C240.628 106.912 240.184 106.756 239.836 106.444C239.5 106.12 239.332 105.724 239.332 105.256C239.332 104.776 239.5 104.38 239.836 104.068C240.184 103.744 240.628 103.582 241.168 103.582C241.696 103.582 242.128 103.744 242.464 104.068C242.812 104.38 242.986 104.776 242.986 105.256C242.986 105.724 242.812 106.12 242.464 106.444C242.128 106.756 241.696 106.912 241.168 106.912ZM242.698 107.956V118H239.62V107.956H242.698ZM248.007 104.68V118H244.929V104.68H248.007ZM249.625 112.96C249.625 111.928 249.817 111.022 250.201 110.242C250.597 109.462 251.131 108.862 251.803 108.442C252.475 108.022 253.225 107.812 254.053 107.812C254.713 107.812 255.313 107.95 255.853 108.226C256.405 108.502 256.837 108.874 257.149 109.342V104.68H260.227V118H257.149V116.56C256.861 117.04 256.447 117.424 255.907 117.712C255.379 118 254.761 118.144 254.053 118.144C253.225 118.144 252.475 117.934 251.803 117.514C251.131 117.082 250.597 116.476 250.201 115.696C249.817 114.904 249.625 113.992 249.625 112.96ZM257.149 112.978C257.149 112.21 256.933 111.604 256.501 111.16C256.081 110.716 255.565 110.494 254.953 110.494C254.341 110.494 253.819 110.716 253.387 111.16C252.967 111.592 252.757 112.192 252.757 112.96C252.757 113.728 252.967 114.34 253.387 114.796C253.819 115.24 254.341 115.462 254.953 115.462C255.565 115.462 256.081 115.24 256.501 114.796C256.933 114.352 257.149 113.746 257.149 112.978ZM280.686 107.956L277.968 118H274.566L272.982 111.484L271.344 118H267.96L265.224 107.956H268.302L269.724 115.138L271.416 107.956H274.674L276.384 115.102L277.788 107.956H280.686ZM283.408 106.912C282.868 106.912 282.424 106.756 282.076 106.444C281.74 106.12 281.572 105.724 281.572 105.256C281.572 104.776 281.74 104.38 282.076 104.068C282.424 103.744 282.868 103.582 283.408 103.582C283.936 103.582 284.368 103.744 284.704 104.068C285.052 104.38 285.226 104.776 285.226 105.256C285.226 105.724 285.052 106.12 284.704 106.444C284.368 106.756 283.936 106.912 283.408 106.912ZM284.938 107.956V118H281.86V107.956H284.938ZM292.767 115.39V118H291.201C290.085 118 289.215 117.73 288.591 117.19C287.967 116.638 287.655 115.744 287.655 114.508V110.512H286.431V107.956H287.655V105.508H290.733V107.956H292.749V110.512H290.733V114.544C290.733 114.844 290.805 115.06 290.949 115.192C291.093 115.324 291.333 115.39 291.669 115.39H292.767ZM300.655 107.848C301.807 107.848 302.731 108.232 303.427 109C304.123 109.756 304.471 110.8 304.471 112.132V118H301.411V112.546C301.411 111.874 301.237 111.352 300.889 110.98C300.541 110.608 300.073 110.422 299.485 110.422C298.897 110.422 298.429 110.608 298.081 110.98C297.733 111.352 297.559 111.874 297.559 112.546V118H294.481V104.68H297.559V109.306C297.871 108.862 298.297 108.508 298.837 108.244C299.377 107.98 299.983 107.848 300.655 107.848ZM320.343 107.956V118H317.265V116.632C316.953 117.076 316.527 117.436 315.987 117.712C315.459 117.976 314.871 118.108 314.223 118.108C313.455 118.108 312.777 117.94 312.189 117.604C311.601 117.256 311.145 116.758 310.821 116.11C310.497 115.462 310.335 114.7 310.335 113.824V107.956H313.395V113.41C313.395 114.082 313.569 114.604 313.917 114.976C314.265 115.348 314.733 115.534 315.321 115.534C315.921 115.534 316.395 115.348 316.743 114.976C317.091 114.604 317.265 114.082 317.265 113.41V107.956H320.343ZM326.64 118.144C325.764 118.144 324.984 117.994 324.3 117.694C323.616 117.394 323.076 116.986 322.68 116.47C322.284 115.942 322.062 115.354 322.014 114.706H325.056C325.092 115.054 325.254 115.336 325.542 115.552C325.83 115.768 326.184 115.876 326.604 115.876C326.988 115.876 327.282 115.804 327.486 115.66C327.702 115.504 327.81 115.306 327.81 115.066C327.81 114.778 327.66 114.568 327.36 114.436C327.06 114.292 326.574 114.136 325.902 113.968C325.182 113.8 324.582 113.626 324.102 113.446C323.622 113.254 323.208 112.96 322.86 112.564C322.512 112.156 322.338 111.61 322.338 110.926C322.338 110.35 322.494 109.828 322.806 109.36C323.13 108.88 323.598 108.502 324.21 108.226C324.834 107.95 325.572 107.812 326.424 107.812C327.684 107.812 328.674 108.124 329.394 108.748C330.126 109.372 330.546 110.2 330.654 111.232H327.81C327.762 110.884 327.606 110.608 327.342 110.404C327.09 110.2 326.754 110.098 326.334 110.098C325.974 110.098 325.698 110.17 325.506 110.314C325.314 110.446 325.218 110.632 325.218 110.872C325.218 111.16 325.368 111.376 325.668 111.52C325.98 111.664 326.46 111.808 327.108 111.952C327.852 112.144 328.458 112.336 328.926 112.528C329.394 112.708 329.802 113.008 330.15 113.428C330.51 113.836 330.696 114.388 330.708 115.084C330.708 115.672 330.54 116.2 330.204 116.668C329.88 117.124 329.406 117.484 328.782 117.748C328.17 118.012 327.456 118.144 326.64 118.144Z" fill="#686868"/>
<path d="M102.293 91.6246H75.9111V126H102.293V91.6246Z" fill="white" stroke="black" stroke-width="3" stroke-miterlimit="10" stroke-linecap="round" stroke-linejoin="round"/>
<path d="M85.3816 91.6248C85.3816 91.6248 82.7163 62.9584 75.9111 53.0693Z" fill="white"/>
<path d="M85.3816 91.6248C85.3816 91.6248 82.7163 62.9584 75.9111 53.0693" stroke="black" stroke-width="3" stroke-miterlimit="10" stroke-linecap="round" stroke-linejoin="round"/>
<path d="M63.7354 2C63.7354 2 49.7463 59.1028 75.9116 53.0692C102.293 46.9815 63.7354 2 63.7354 2Z" fill="#FEBE16" stroke="black" stroke-width="3" stroke-miterlimit="10" stroke-linecap="round" stroke-linejoin="round"/>
<path d="M96.2325 91.6244C96.2325 91.6244 89.1567 69.4652 96.963 60.55" stroke="black" stroke-width="3" stroke-miterlimit="10" stroke-linecap="round" stroke-linejoin="round"/>
<path d="M119.448 38.9861C119.448 38.9861 86.3564 50.1875 97.7208 61.3754C109.193 72.658 119.448 38.9861 119.448 38.9861Z" fill="#FEBE16" stroke="black" stroke-width="3" stroke-miterlimit="10" stroke-linecap="round" stroke-linejoin="round"/>
<defs>
<filter id="filter0_d" x="0" y="26" width="402" height="164" filterUnits="userSpaceOnUse" color-interpolation-filters="sRGB">
<feFlood flood-opacity="0" result="BackgroundImageFix"/>
<feColorMatrix in="SourceAlpha" type="matrix" values="0 0 0 0 0 0 0 0 0 0 0 0 0 0 0 0 0 0 127 0"/>
<feOffset dy="10"/>
<feGaussianBlur stdDeviation="15"/>
<feColorMatrix type="matrix" values="0 0 0 0 0 0 0 0 0 0 0 0 0 0 0 0 0 0 0.4 0"/>
<feBlend mode="normal" in2="BackgroundImageFix" result="effect1_dropShadow"/>
<feBlend mode="normal" in="SourceGraphic" in2="effect1_dropShadow" result="shape"/>
</filter>
</defs>
</svg>
