<svg width="605" height="694" viewBox="0 0 605 694" fill="none" xmlns="http://www.w3.org/2000/svg">
<g clip-path="url(#clip0)">
<path d="M255.005 275.522C255.005 275.522 296.49 232.354 297.228 235.295C298.66 241 301.516 250.813 301.516 250.813L347.315 233.882C347.315 233.882 331.392 156.623 323.15 147.574" stroke="#231F20" stroke-width="3" stroke-miterlimit="10" stroke-linecap="round" stroke-linejoin="round"/>
<path d="M475.951 306.822C476.759 297.877 447.12 302.986 447.12 302.986C447.12 302.986 474.756 320.075 475.951 306.822Z" fill="white" stroke="#231F20" stroke-width="3" stroke-miterlimit="10" stroke-linecap="round" stroke-linejoin="round"/>
<path d="M347.315 233.882L355.346 270.896C355.346 270.896 453.746 301.503 462.972 309.736C472.199 317.96 489.123 329.248 484.554 335.234C481.61 339.087 449.466 315.002 449.466 315.002C449.466 315.002 482.849 337.709 478.13 344.292C473.701 350.489 446.496 324.877 446.496 324.877C446.496 324.877 473.262 347.97 468.904 353.35C464.73 358.512 442.542 333.759 442.542 333.759C442.542 333.759 452.753 346.267 450.776 349.559C448.798 352.85 425.732 329.485 419.801 326.518C413.869 323.551 313.616 295.911 313.616 295.911L301.507 250.822L347.315 233.882Z" fill="white" stroke="#231F20" stroke-width="3" stroke-miterlimit="10" stroke-linecap="round" stroke-linejoin="round"/>
<path d="M291.296 210.323L297.219 235.295" stroke="#231F20" stroke-width="3" stroke-miterlimit="10" stroke-linecap="round" stroke-linejoin="round"/>
<path d="M275.591 396.993C279.154 398.243 281.761 401.348 282.316 405.083L297.621 507.991C298.177 511.731 296.577 515.464 293.486 517.64L217.045 571.449C213.456 573.975 208.639 573.866 205.168 571.179L158.46 535.028C153.401 531.112 153.269 523.518 158.19 519.429L191.072 492.105C194.735 489.061 195.77 483.887 193.606 479.644C181.505 455.92 144.504 379.378 146.711 334.549C187.497 364.834 255.418 389.913 275.591 396.993Z" fill="#1D1D1D" stroke="black" stroke-width="3" stroke-miterlimit="10" stroke-linecap="round" stroke-linejoin="round"/>
<path d="M229.127 388.504L251.279 500.687L179.69 550.595" stroke="white" stroke-miterlimit="10"/>
<path d="M129.311 537.19C137.621 529.402 150.357 528.801 159.364 535.771L198.582 566.119C210.8 575.574 208.643 594.617 194.618 601.098C188.342 603.999 181.029 603.556 175.149 599.92L132.972 573.84C119.983 565.809 118.167 547.633 129.311 537.19Z" fill="#FEBE16" stroke="#231F20" stroke-width="3" stroke-miterlimit="10" stroke-linecap="round" stroke-linejoin="round"/>
<path d="M119.692 565.635C116.02 563.364 111.306 563.706 108.001 566.483L92.0368 579.893C87.1562 583.993 87.3053 591.551 92.3439 595.455L149.482 639.726C156.173 644.911 165.878 639.954 165.601 631.493L165.127 617.036C165.035 614.216 166.301 611.523 168.532 609.795C173.384 606.037 172.992 598.59 167.771 595.363L119.692 565.635Z" fill="white" stroke="#231F20" stroke-width="3" stroke-miterlimit="10" stroke-linecap="round" stroke-linejoin="round"/>
<path d="M146.711 334.567C196.51 373.221 304.64 407.62 342.839 418.996C351.228 421.494 357.586 428.406 359.237 437.002L383.095 561.243C385.583 574.199 398.437 582.411 411.239 579.224L449.475 569.705C460.18 567.04 467.485 557.149 466.884 546.134L459.088 403.205C458.831 398.492 457.164 393.948 453.689 390.754C422.408 362.005 292.095 284.09 229.351 266.314C222.145 264.272 214.603 266.743 209.304 272.037L146.711 334.567Z" fill="#1D1D1D" stroke="black" stroke-width="3" stroke-miterlimit="10" stroke-linecap="round" stroke-linejoin="round"/>
<path d="M1.31799 640.195C1.31799 640.195 12.8117 654.072 18.2861 654.019C154.831 652.755 454.097 651 590.826 648.972C595.351 648.902 603.673 636.245 603.673 636.245" stroke="#231F20" stroke-width="3" stroke-miterlimit="10" stroke-linecap="round" stroke-linejoin="round"/>
<path d="M181.685 692.683C192.72 692.683 201.667 683.747 201.667 672.724C201.667 661.7 192.72 652.764 181.685 652.764C170.649 652.764 161.703 661.7 161.703 672.724C161.703 683.747 170.649 692.683 181.685 692.683Z" fill="#FEBE16" stroke="#231F20" stroke-width="3" stroke-miterlimit="10" stroke-linecap="round" stroke-linejoin="round"/>
<path d="M493.965 690.928C505.001 690.928 513.947 681.992 513.947 670.968C513.947 659.945 505.001 651.008 493.965 651.008C482.929 651.008 473.983 659.945 473.983 670.968C473.983 681.992 482.929 690.928 493.965 690.928Z" fill="#FEBE16" stroke="#231F20" stroke-width="3" stroke-miterlimit="10" stroke-linecap="round" stroke-linejoin="round"/>
<path d="M383.02 601.835C380.681 593.918 385.414 585.647 393.425 583.653L458.272 567.513C469.595 564.694 480.404 573.666 479.718 585.315C479.242 593.406 473.212 600.081 465.212 601.375L399.244 612.044C392.037 613.209 385.088 608.836 383.02 601.835Z" fill="#FEBE16" stroke="#231F20" stroke-width="3" stroke-miterlimit="10" stroke-linecap="round" stroke-linejoin="round"/>
<path d="M459.679 602.276C464.544 601.489 468.956 605.245 468.956 610.173V611.548C468.956 614.105 470.179 616.509 472.246 618.014L496.384 635.595C502.623 640.139 499.445 650.011 491.727 650.061L405.667 650.622C401.778 650.648 398.435 647.873 397.743 644.046L393.615 621.215C392.818 616.81 395.791 612.609 400.21 611.894L459.679 602.276Z" fill="white" stroke="#231F20" stroke-width="3" stroke-miterlimit="10" stroke-linecap="round" stroke-linejoin="round"/>
<path d="M339.327 137.26C347.291 137.26 353.747 129.817 353.747 120.636C353.747 111.455 347.291 104.012 339.327 104.012C331.363 104.012 324.907 111.455 324.907 120.636C324.907 129.817 331.363 137.26 339.327 137.26Z" fill="white" stroke="#231F20" stroke-width="3" stroke-miterlimit="10" stroke-linecap="round" stroke-linejoin="round"/>
<path d="M204.892 203.968C204.892 203.968 270.831 163.584 336.77 170.5" stroke="#E5E5E5" stroke-width="3" stroke-miterlimit="10" stroke-linecap="round" stroke-linejoin="round"/>
<path d="M211.825 210.894C211.825 210.894 265.075 169.447 338.088 179.172" stroke="#E5E5E5" stroke-width="3" stroke-miterlimit="10" stroke-linecap="round" stroke-linejoin="round"/>
<path d="M237.035 244.344C237.035 244.344 270.831 247.636 292.395 242.15" stroke="#F1EDFF" stroke-width="3" stroke-miterlimit="10" stroke-linecap="round" stroke-linejoin="round"/>
<path d="M229.127 252.244C229.127 252.244 263.344 256.141 287.781 249.172" stroke="#F5F5F5" stroke-width="3" stroke-miterlimit="10" stroke-linecap="round" stroke-linejoin="round"/>
<path d="M191.61 152.015L165.231 134.041C162.493 132.176 158.758 132.881 156.889 135.618L131.224 173.202C129.355 175.939 130.06 179.669 132.798 181.535L159.177 199.509C161.916 201.375 165.651 200.669 167.519 197.932L193.185 160.348C195.054 157.612 194.349 153.881 191.61 152.015Z" fill="#C0C1C0" stroke="#231F20" stroke-width="3" stroke-miterlimit="10" stroke-linecap="round" stroke-linejoin="round"/>
<path d="M210.448 164.853L196.569 155.396L164.136 202.89L178.015 212.347L210.448 164.853Z" fill="#231F20" stroke="#231F20" stroke-width="3" stroke-miterlimit="10" stroke-linecap="round" stroke-linejoin="round"/>
<path d="M176.905 153.909L154.721 138.794L127.843 178.152L150.027 193.267L176.905 153.909Z" fill="white" stroke="#231F20" stroke-width="3" stroke-miterlimit="10" stroke-linecap="round" stroke-linejoin="round"/>
<path d="M323.15 147.565C327.35 146.38 324.907 143.062 330.725 133.416C336.656 123.577 360.513 115.694 360.487 108.515C360.443 92.7943 324.591 68.1387 289.091 90.0821C284.038 93.2069 268.643 92.4081 267.149 99.1579C264.759 109.937 273.555 106.118 276.376 113.72C280.629 125.183 292.931 130.669 299.635 133.741C307.377 137.287 309.626 151.374 323.15 147.565Z" fill="#231F20" stroke="#231F20" stroke-width="3" stroke-miterlimit="10" stroke-linecap="round" stroke-linejoin="round"/>
<path d="M63.1993 25.3403H7.31799C4.00428 25.3403 1.31799 28.0266 1.31799 31.3403V77.9292C1.31799 81.2429 4.00428 83.9292 7.31799 83.9292H63.1992C66.513 83.9292 69.1992 81.2429 69.1992 77.9292V31.3403C69.1992 28.0266 66.513 25.3403 63.1993 25.3403Z" fill="#77AF44" stroke="#231F20" stroke-width="3" stroke-miterlimit="10" stroke-linecap="round" stroke-linejoin="round"/>
<path d="M35.2542 36.2066H1.31799V56.4472H35.2542V36.2066Z" fill="white" stroke="#231F20" stroke-width="3" stroke-miterlimit="10" stroke-linecap="round" stroke-linejoin="round"/>
<path d="M2.08252 66.4885H24.0506" stroke="#231F20" stroke-width="3" stroke-miterlimit="10" stroke-linecap="round" stroke-linejoin="round"/>
<path d="M2.08252 73.3964H14.0595" stroke="#231F20" stroke-width="3" stroke-miterlimit="10" stroke-linecap="round" stroke-linejoin="round"/>
<path d="M69.1994 25.3403H49.6478V83.0515H69.1994V25.3403Z" fill="#231F20" stroke="#231F20" stroke-width="3" stroke-miterlimit="10" stroke-linecap="round" stroke-linejoin="round"/>
<path d="M538 207.938L477.97 168.749C475.195 166.937 471.475 167.717 469.66 170.49L436.655 220.933C434.841 223.706 435.62 227.422 438.394 229.234L498.424 268.423C501.199 270.235 504.92 269.455 506.734 266.682L539.739 216.239C541.553 213.466 540.775 209.75 538 207.938Z" fill="#FEBE16" stroke="#231F20" stroke-width="3" stroke-miterlimit="10" stroke-linecap="round" stroke-linejoin="round"/>
<path d="M500.655 199.558L465.612 176.68L451.939 197.577L486.982 220.454L500.655 199.558Z" fill="#77AF44" stroke="#231F20" stroke-width="3" stroke-miterlimit="10" stroke-linecap="round" stroke-linejoin="round"/>
<path d="M445.16 207.927L468.64 223.244" stroke="#231F20" stroke-width="3" stroke-miterlimit="10" stroke-linecap="round" stroke-linejoin="round"/>
<path d="M440.494 215.063L453.649 223.647" stroke="#231F20" stroke-width="3" stroke-miterlimit="10" stroke-linecap="round" stroke-linejoin="round"/>
<path d="M522.872 198.026L483.297 258.511L503.481 271.688L543.057 211.203L522.872 198.026Z" fill="#231F20" stroke="#231F20" stroke-width="3" stroke-miterlimit="10" stroke-linecap="round" stroke-linejoin="round"/>
<path d="M236.93 235.958L134.721 133.864C132.376 131.522 128.575 131.522 126.231 133.864L30.0866 229.901C27.7421 232.243 27.7421 236.039 30.0866 238.381L132.295 340.475C134.64 342.817 138.441 342.817 140.785 340.475L236.93 244.439C239.274 242.097 239.274 238.3 236.93 235.958Z" fill="#77AF44" stroke="#231F20" stroke-width="3" stroke-miterlimit="10" stroke-linecap="round" stroke-linejoin="round"/>
<path d="M236.931 235.969L211.682 210.748C209.338 208.406 205.537 208.406 203.192 210.748L107.048 306.785C104.703 309.126 104.703 312.923 107.048 315.265L132.297 340.486C134.641 342.828 138.442 342.828 140.787 340.486L236.931 244.449C239.276 242.107 239.276 238.31 236.931 235.969Z" fill="#F1EDFF" stroke="#231F20" stroke-width="3" stroke-miterlimit="10" stroke-linecap="round" stroke-linejoin="round"/>
<path d="M159.795 213.674C157.916 213.957 156.014 213.333 154.668 211.991L88.3931 145.958C84.917 142.494 86.842 136.55 91.6885 135.781L127.455 130.111C129.351 129.811 131.276 130.436 132.634 131.792L199.021 198.097C202.506 201.578 200.545 207.543 195.674 208.276L159.795 213.674Z" fill="#DADADA" stroke="#231F20" stroke-width="3" stroke-miterlimit="10" stroke-linecap="round" stroke-linejoin="round"/>
<path d="M79.7528 90.5122C79.7528 90.5122 98.1972 102.686 102.477 110.261" stroke="#231F20" stroke-width="3" stroke-miterlimit="10" stroke-linecap="round" stroke-linejoin="round"/>
<path d="M149.602 114.562C149.602 114.562 146.571 125.464 145.973 129.633" stroke="#231F20" stroke-width="3" stroke-miterlimit="10" stroke-linecap="round" stroke-linejoin="round"/>
<path d="M228.353 50.3558C228.353 50.3558 199.9 76.1525 194.742 85.9041" stroke="#231F20" stroke-width="3" stroke-miterlimit="10" stroke-linecap="round" stroke-linejoin="round"/>
<path d="M272.055 133.119L240.912 84.6225C239.122 81.8343 235.409 81.0232 232.619 82.8108L194.188 107.434C191.398 109.221 190.588 112.931 192.379 115.719L223.521 164.216C225.311 167.004 229.025 167.815 231.815 166.027L270.245 141.404C273.035 139.617 273.845 135.907 272.055 133.119Z" fill="#FEBE16" stroke="#231F20" stroke-width="3" stroke-miterlimit="10" stroke-linecap="round" stroke-linejoin="round"/>
<path d="M259.537 132.655L237.22 97.9025L218.5 109.897L240.817 144.649L259.537 132.655Z" fill="white" stroke="#231F20" stroke-width="3" stroke-miterlimit="10" stroke-linecap="round" stroke-linejoin="round"/>
<path d="M210.436 115.062L220.023 129.984" stroke="#231F20" stroke-width="3" stroke-miterlimit="10" stroke-linecap="round" stroke-linejoin="round"/>
<path d="M204.891 118.617L212.519 130.484" stroke="#231F20" stroke-width="3" stroke-miterlimit="10" stroke-linecap="round" stroke-linejoin="round"/>
<path d="M301.156 344.038L411.725 411.106L429.915 542.942" stroke="white" stroke-miterlimit="10"/>
<rect x="440.95" y="28.1774" width="110.76" height="76.1835" rx="15" fill="#967EF9"/>
</g>
<defs>
<clipPath id="clip0">
<rect width="605" height="694" rx="24" fill="white"/>
</clipPath>
</defs>
</svg>
