<svg width="712" height="672" viewBox="0 0 712 672" fill="none" xmlns="http://www.w3.org/2000/svg">
<path d="M71.2535 353.684V530.526C71.2535 549.287 78.7543 567.279 92.1058 580.545C105.457 593.811 123.566 601.263 142.448 601.263H569.612C588.494 601.263 606.602 593.811 619.954 580.545C633.305 567.279 640.806 549.287 640.806 530.526V353.684C640.806 344.304 644.556 335.308 651.232 328.675C657.908 322.042 666.962 318.316 676.403 318.316C685.844 318.316 694.898 322.042 701.574 328.675C708.25 335.308 712 344.304 712 353.684V530.526C712 568.047 696.998 604.032 670.295 630.563C643.593 657.095 607.376 672 569.612 672H142.448C104.684 672 68.4669 657.095 41.764 630.563C15.061 604.032 0.0594672 568.047 0.0594672 530.526V353.684C0.0594672 344.304 3.80986 335.308 10.4856 328.675C17.1613 322.042 26.2156 318.316 35.6565 318.316C45.0974 318.316 54.1517 322.042 60.8274 328.675C67.5031 335.308 71.2535 344.304 71.2535 353.684V353.684ZM569.612 0C607.376 0 643.593 14.9052 670.295 41.4367C696.998 67.9681 712 103.953 712 141.474C712 160.219 700.965 171.891 676.403 198.417C601.423 274.812 517.809 342.342 427.224 399.663C405.808 413.416 381.403 421.903 356.03 424.421C330.61 421.864 306.188 413.25 284.836 399.309C194.33 342.425 110.719 275.373 35.6565 199.478C23.5434 187.485 12.7993 174.2 3.61917 159.865C0.929106 154.119 -0.293535 147.802 0.0594672 141.474C0.0594672 103.953 15.061 67.9681 41.764 41.4367C68.4669 14.9052 104.684 0 142.448 0H569.612ZM71.2535 132.278C77.661 139.352 89.764 151.377 100.799 162.341C126.073 187.099 158.822 217.516 192.283 245.457C269.173 309.827 336.807 353.684 356.03 353.684C375.252 353.684 442.886 309.827 519.42 245.457C552.881 217.516 585.631 187.099 610.904 162.341C621.94 151.377 634.043 140.059 640.094 132.632C637.93 115.564 629.58 99.864 616.606 88.4714C603.633 77.0788 586.926 70.7739 569.612 70.7368H142.448C125.065 70.5904 108.229 76.7678 95.1144 88.1042C81.9998 99.4407 73.5127 115.153 71.2535 132.278Z" fill="#FF0606"/>
</svg>
