<svg width="20" height="20" viewBox="0 0 20 20" fill="none" xmlns="http://www.w3.org/2000/svg">
<path d="M19.8415 15.4004L16.8332 10.5955C17.4488 9.54979 17.7695 8.37748 17.7656 7.18685C17.7656 5.28078 16.947 3.45278 15.4897 2.10498C14.0324 0.757184 12.056 0 9.9951 0C7.93423 0 5.95776 0.757184 4.5005 2.10498C3.04325 3.45278 2.22457 5.28078 2.22457 7.18685C2.22075 8.37748 2.54144 9.54979 3.15703 10.5955L0.148727 15.4004C0.0511085 15.5568 -0.000192338 15.7342 5.41884e-07 15.9148C0.000193421 16.0953 0.051873 16.2727 0.149826 16.4289C0.247778 16.5851 0.388539 16.7146 0.557907 16.8044C0.727276 16.8942 0.91926 16.9412 1.11449 16.9404H4.30041L5.92112 19.4661C5.97576 19.5498 6.04304 19.6259 6.12093 19.692C6.32672 19.8754 6.60108 19.9784 6.88689 19.9794H7.0423C7.20989 19.9582 7.37002 19.9019 7.51046 19.8147C7.6509 19.7275 7.76795 19.6118 7.85265 19.4764L9.9951 16.0677L12.1375 19.5072C12.2235 19.6407 12.3411 19.7544 12.4815 19.8398C12.6218 19.9251 12.7813 19.9799 12.9479 20H13.1033C13.393 20.0016 13.6718 19.8984 13.8804 19.7125C13.955 19.6502 14.0187 19.5774 14.0691 19.4969L15.6898 16.9712H18.8757C19.0713 16.972 19.2636 16.9249 19.4332 16.8347C19.6028 16.7446 19.7437 16.6146 19.8415 16.4579C19.9452 16.2982 20 16.1154 20 15.9291C20 15.7429 19.9452 15.5601 19.8415 15.4004ZM6.87579 16.9712L5.88782 15.4415C5.79054 15.2897 5.6526 15.1637 5.48733 15.0755C5.32205 14.9874 5.13501 14.9402 4.94425 14.9384H3.02382L4.61123 12.3922C5.70435 13.3664 7.08206 14.0231 8.5742 14.2813L6.87579 16.9712ZM9.9951 12.3203C8.89734 12.3203 7.82423 12.0192 6.91147 11.4552C5.99872 10.8911 5.28731 10.0894 4.86722 9.15134C4.44712 8.21333 4.33721 7.18116 4.55137 6.18536C4.76553 5.18957 5.29415 4.27487 6.07039 3.55694C6.84662 2.83902 7.83561 2.3501 8.91227 2.15202C9.98894 1.95395 11.1049 2.05561 12.1191 2.44415C13.1333 2.83269 14.0002 3.49066 14.6101 4.33485C15.22 5.17905 15.5455 6.17155 15.5455 7.18685C15.5455 8.54833 14.9607 9.85405 13.9198 10.8168C12.8789 11.7795 11.4672 12.3203 9.9951 12.3203ZM15.0459 14.9384C14.8552 14.9402 14.6681 14.9874 14.5029 15.0755C14.3376 15.1637 14.1997 15.2897 14.1024 15.4415L13.1144 16.9712L11.4271 14.2505C12.914 13.987 14.2866 13.3309 15.379 12.3614L16.9664 14.9076L15.0459 14.9384Z" fill="white"/>
</svg>
