<svg xmlns="http://www.w3.org/2000/svg" viewBox="0 0 80 80" width="40px" height="40px"><path fill="#8bb7f0" d="M2.5,71.5v-63h75v63H2.5z M68.5,68.5h6v-6h-6V68.5z M59.5,68.5h6v-6h-6V68.5z M50.5,68.5h6v-6h-6 V68.5z M41.5,68.5h6v-6h-6V68.5z M32.5,68.5h6v-6h-6V68.5z M23.5,68.5h6v-6h-6V68.5z M14.5,68.5h6v-6h-6V68.5z M5.5,68.5h6v-6h-6 V68.5z M68.5,17.5h6v-6h-6V17.5z M59.5,17.5h6v-6h-6V17.5z M50.5,17.5h6v-6h-6V17.5z M41.5,17.5h6v-6h-6V17.5z M32.5,17.5h6v-6h-6 V17.5z M23.5,17.5h6v-6h-6V17.5z M14.5,17.5h6v-6h-6V17.5z M5.5,17.5h6v-6h-6V17.5z"/><path fill="#4e7ab5" d="M77,9v62H3V9H77 M68,18h1h5h1v-1v-5v-1h-1h-5h-1v1v5V18 M59,18h1h5h1v-1v-5v-1h-1h-5h-1v1v5V18 M50,18h1h5h1v-1v-5v-1h-1h-5h-1v1v5V18 M41,18h1h5h1v-1v-5v-1h-1h-5h-1v1v5V18 M32,18h1h5h1v-1v-5v-1h-1h-5h-1v1v5V18 M23,18h1h5 h1v-1v-5v-1h-1h-5h-1v1v5V18 M14,18h1h5h1v-1v-5v-1h-1h-5h-1v1v5V18 M5,18h1h5h1v-1v-5v-1h-1H6H5v1v5V18 M68,69h1h5h1v-1v-5v-1h-1 h-5h-1v1v5V69 M59,69h1h5h1v-1v-5v-1h-1h-5h-1v1v5V69 M50,69h1h5h1v-1v-5v-1h-1h-5h-1v1v5V69 M41,69h1h5h1v-1v-5v-1h-1h-5h-1v1v5 V69 M32,69h1h5h1v-1v-5v-1h-1h-5h-1v1v5V69 M23,69h1h5h1v-1v-5v-1h-1h-5h-1v1v5V69 M14,69h1h5h1v-1v-5v-1h-1h-5h-1v1v5V69 M5,69h1 h5h1v-1v-5v-1h-1H6H5v1v5V69 M78,8H2v64h76V8L78,8z M69,17v-5h5v5H69L69,17z M60,17v-5h5v5H60L60,17z M51,17v-5h5v5H51L51,17z M42,17v-5h5v5H42L42,17z M33,17v-5h5v5H33L33,17z M24,17v-5h5v5H24L24,17z M15,17v-5h5v5H15L15,17z M6,17v-5h5v5H6L6,17z M69,68 v-5h5v5H69L69,68z M60,68v-5h5v5H60L60,68z M51,68v-5h5v5H51L51,68z M42,68v-5h5v5H42L42,68z M33,68v-5h5v5H33L33,68z M24,68v-5h5 v5H24L24,68z M15,68v-5h5v5H15L15,68z M6,68v-5h5v5H6L6,68z"/><path fill="#fff" d="M31 46A5 5 0 1 0 31 56 5 5 0 1 0 31 46zM47 42A5 5 0 1 0 47 52 5 5 0 1 0 47 42z"/><path fill="#fff" d="M50 32H52V48H50zM34 28H36V50H34z"/><path fill="#fff" d="M34 36L52 32 52 24 34 28z"/></svg>