<svg width="42" height="41" viewBox="0 0 42 41" fill="none" xmlns="http://www.w3.org/2000/svg">
<path d="M33.5003 12.3362H8.50033V8.25285H33.5003V12.3362ZM33.5003 18.4612H8.50033V14.3778H33.5003V18.4612ZM33.5003 24.5862H8.50033V20.5028H33.5003V24.5862ZM41.8337 4.16951C41.8337 3.08655 41.3947 2.04794 40.6133 1.28216C39.8319 0.516389 38.7721 0.0861816 37.667 0.0861816H4.33366C3.22859 0.0861816 2.16878 0.516389 1.38738 1.28216C0.605979 2.04794 0.166992 3.08655 0.166992 4.16951V28.6695C0.166992 29.7525 0.605979 30.7911 1.38738 31.5569C2.16878 32.3226 3.22859 32.7528 4.33366 32.7528H33.5003L41.8337 40.9195V4.16951Z" fill="#6646e7"/>
</svg>
