<?xml version="1.0" encoding="UTF-8"?>
<svg xmlns="http://www.w3.org/2000/svg" xmlns:xlink="http://www.w3.org/1999/xlink" width="48pt" height="48pt" viewBox="0 0 48 48" version="1.1">
<g id="surface788233">
<path style=" stroke:none;fill-rule:nonzero;fill:#6646e7;fill-opacity:1;" d="M 24 4 C 12.953125 4 4 12.953125 4 24 C 4 35.046875 12.953125 44 24 44 C 35.046875 44 44 35.046875 44 24 C 44 12.953125 35.046875 4 24 4 Z M 24 9.5 C 27.589844 9.5 30.5 12.410156 30.5 16 C 30.5 19.589844 27.589844 22.5 24 22.5 C 20.410156 22.5 17.5 19.589844 17.5 16 C 17.5 12.410156 20.410156 9.5 24 9.5 Z M 24 40 C 18.460938 40 13.578125 37.183594 10.707031 32.90625 C 12.949219 29.644531 20.09375 28 24 28 C 27.90625 28 35.050781 29.644531 37.292969 32.90625 C 34.421875 37.183594 29.539062 40 24 40 Z M 37.996094 25.996094 C 37.996094 25.996094 35.15625 26.152344 33.503906 24.496094 C 31.847656 22.84375 32.003906 20.003906 32.003906 20.003906 C 32.003906 20.003906 34.84375 19.847656 36.5 21.5 C 38.15625 23.152344 37.996094 25.996094 37.996094 25.996094 Z M 37.996094 25.996094 "/>
</g>
</svg>
