<svg id="SvgjsSvg1001" width="288" height="288" xmlns="http://www.w3.org/2000/svg" version="1.1" xmlns:xlink="http://www.w3.org/1999/xlink" xmlns:svgjs="http://svgjs.com/svgjs"><defs id="SvgjsDefs1002"></defs><g id="SvgjsG1008" transform="matrix(0.9167,0,0,0.9167,11.995200000000011,11.995087829208387)"><svg xmlns="http://www.w3.org/2000/svg" width="288" height="288" fill="none" viewBox="0 0 16 16"><path stroke="#6646e7" stroke-linecap="round" stroke-linejoin="round" stroke-width="1.5" d="M12.6667 7.33325H3.33333C2.59695 7.33325 2 7.93021 2 8.66659V13.3333C2 14.0696 2.59695 14.6666 3.33333 14.6666H12.6667C13.403 14.6666 14 14.0696 14 13.3333V8.66659C14 7.93021 13.403 7.33325 12.6667 7.33325zM4.66602 7.33325V4.66659C4.66602 3.78253 5.01721 2.93468 5.64233 2.30956 6.26745 1.68444 7.11529 1.33325 7.99935 1.33325 8.8834 1.33325 9.73125 1.68444 10.3564 2.30956 10.9815 2.93468 11.3327 3.78253 11.3327 4.66659V7.33325" fill="#ffffff" class="color000 svgShape colorStrokecurrentColor svgStroke"></path></svg></g></svg>