<svg width="594" height="594" viewBox="0 0 594 594" fill="none" xmlns="http://www.w3.org/2000/svg">
<path d="M297 510.84C222.75 510.84 157.113 472.824 118.8 415.8C119.691 356.4 237.6 323.73 297 323.73C356.4 323.73 474.309 356.4 475.2 415.8C436.887 472.824 371.25 510.84 297 510.84ZM297 89.1C320.631 89.1 343.294 98.4873 360.003 115.197C376.713 131.906 386.1 154.569 386.1 178.2C386.1 201.831 376.713 224.494 360.003 241.203C343.294 257.913 320.631 267.3 297 267.3C273.369 267.3 250.706 257.913 233.997 241.203C217.287 224.494 207.9 201.831 207.9 178.2C207.9 154.569 217.287 131.906 233.997 115.197C250.706 98.4873 273.369 89.1 297 89.1V89.1ZM297 0C257.997 0 219.377 7.68213 183.343 22.6078C147.309 37.5334 114.568 59.4103 86.9893 86.9893C31.291 142.688 0 218.231 0 297C0 375.769 31.291 451.312 86.9893 507.011C114.568 534.59 147.309 556.467 183.343 571.392C219.377 586.318 257.997 594 297 594C375.769 594 451.312 562.709 507.011 507.011C562.709 451.312 594 375.769 594 297C594 132.759 460.35 0 297 0Z" fill="#1040B0"/>
<path d="M297 510.84C222.75 510.84 157.113 472.824 118.8 415.8C119.691 356.4 237.6 323.73 297 323.73C356.4 323.73 474.309 356.4 475.2 415.8C436.887 472.824 371.25 510.84 297 510.84ZM297 89.1C320.631 89.1 343.294 98.4873 360.003 115.197C376.713 131.906 386.1 154.569 386.1 178.2C386.1 201.831 376.713 224.494 360.003 241.203C343.294 257.913 320.631 267.3 297 267.3C273.369 267.3 250.706 257.913 233.997 241.203C217.287 224.494 207.9 201.831 207.9 178.2C207.9 154.569 217.287 131.906 233.997 115.197C250.706 98.4873 273.369 89.1 297 89.1V89.1ZM297 0C257.997 0 219.377 7.68213 183.343 22.6078C147.309 37.5334 114.568 59.4103 86.9893 86.9893C31.291 142.688 0 218.231 0 297C0 375.769 31.291 451.312 86.9893 507.011C114.568 534.59 147.309 556.467 183.343 571.392C219.377 586.318 257.997 594 297 594C375.769 594 451.312 562.709 507.011 507.011C562.709 451.312 594 375.769 594 297C594 132.759 460.35 0 297 0Z" fill="url(#paint0_linear)"/>
<defs>
<linearGradient id="paint0_linear" x1="109.421" y1="618.75" x2="562.737" y2="53.4079" gradientUnits="userSpaceOnUse">
<stop stop-color="#60B7FF"/>
<stop offset="1" stop-color="#60B7FF" stop-opacity="0"/>
</linearGradient>
</defs>
</svg>
