<svg width="76" height="81" viewBox="0 0 76 81" fill="none" xmlns="http://www.w3.org/2000/svg">
<rect width="76" height="81" rx="23" fill="#FF0606"/>
<path d="M35.09 20C30.2922 20 25.691 21.8641 22.2984 25.1821C18.9059 28.5001 17 33.0004 17 37.6928C17 42.3852 18.9059 46.8854 22.2984 50.2035C25.691 53.5215 30.2922 55.3856 35.09 55.3856C39.11 55.3651 43.0115 54.0517 46.1927 51.648L56.1196 61.3569C56.5433 61.7688 57.1164 62 57.7138 62C58.3112 62 58.8843 61.7688 59.308 61.3569C59.5268 61.1506 59.7009 60.9032 59.8198 60.6296C59.9387 60.356 60 60.0618 60 59.7645C60 59.4672 59.9387 59.173 59.8198 58.8994C59.7009 58.6258 59.5268 58.3785 59.308 58.1722L49.3585 48.5296C51.4294 45.9157 52.7099 42.7864 53.0546 39.4969C53.3994 36.2073 52.7946 32.8891 51.309 29.9186C49.8234 26.9481 47.5163 24.4443 44.6496 22.6911C41.7828 20.938 38.471 20.0057 35.09 20ZM35.09 24.4232C37.7734 24.4232 40.3965 25.2014 42.6277 26.6595C44.8589 28.1176 46.5979 30.19 47.6247 32.6147C48.6516 35.0394 48.9203 37.7075 48.3968 40.2816C47.8733 42.8556 46.5811 45.22 44.6837 47.0758C42.7862 48.9316 40.3687 50.1954 37.7369 50.7074C35.1051 51.2194 32.3771 50.9566 29.8979 49.9523C27.4188 48.9479 25.2999 47.2471 23.809 45.065C22.3182 42.8828 21.5225 40.3173 21.5225 37.6928C21.5225 34.1735 22.9519 30.7983 25.4963 28.3098C28.0407 25.8212 31.4917 24.4232 35.09 24.4232Z" fill="white"/>
</svg>
