<svg width="16" height="16" viewBox="0 0 16 16" fill="transparent" xmlns="http://www.w3.org/2000/svg">
<g clip-path="url(#clip0)">
<path d="M0.667969 2.6665V6.6665H4.66797" stroke="currentColor" stroke-width="1.5" stroke-linecap="round" stroke-linejoin="round"/>
<path d="M15.332 13.3335V9.3335H11.332" stroke="currentColor" stroke-width="1.5" stroke-linecap="round" stroke-linejoin="round"/>
<path d="M13.6613 5.99989C13.3232 5.04441 12.7485 4.19016 11.991 3.51683C11.2334 2.84351 10.3177 2.37306 9.32911 2.14939C8.34056 1.92572 7.31147 1.95612 6.33784 2.23774C5.36422 2.51936 4.4778 3.04303 3.7613 3.75989L1.07055 6.28827L0.667969 6.66655M15.3346 9.33322L12.2413 12.2399C11.5248 12.9567 10.6384 13.4804 9.66476 13.762C8.69114 14.0437 7.66204 14.0741 6.67349 13.8504C5.68495 13.6267 4.76917 13.1563 4.01161 12.4829C3.25406 11.8096 2.67941 10.9554 2.3413 9.99989" stroke="currentColor" stroke-width="1.5" stroke-linecap="round" stroke-linejoin="round"/>
</g>
<defs>
<clipPath id="clip0">
<rect width="16" height="16" fill="white"/>
</clipPath>
</defs>
</svg>
