<svg width="562" height="562" viewBox="0 0 562 562" fill="none" xmlns="http://www.w3.org/2000/svg">
<path d="M437.111 0H124.889C55.919 0 0 55.919 0 124.889V437.111C0 506.081 55.919 562 124.889 562H437.111C506.081 562 562 506.081 562 437.111V124.889C562 55.919 506.081 0 437.111 0ZM438.672 203.382C438.672 206.067 438.672 208.721 438.672 214.091C438.672 315.782 361.054 433.552 219.211 433.552C176.406 433.552 136.254 420.157 101.472 398.77C106.811 398.77 114.867 398.77 120.206 398.77C154.987 398.77 189.8 385.376 216.557 366.643C181.776 366.643 155.018 342.57 144.309 313.128C149.648 313.128 155.018 315.813 157.703 315.813C165.728 315.813 171.098 315.813 179.122 313.128C144.34 305.104 117.583 275.661 117.583 238.194C128.292 243.533 139.001 246.218 152.364 248.904C130.946 230.17 117.583 208.752 117.583 181.994C117.583 168.6 120.268 155.237 128.292 144.528C165.759 190.018 221.959 222.146 286.183 224.8C286.183 219.461 283.498 214.091 283.498 206.067C283.498 163.261 318.279 128.448 361.116 128.448C382.535 128.448 403.922 136.472 417.316 152.521C436.05 149.835 452.098 141.811 465.492 133.787C460.153 152.521 446.759 165.915 430.711 176.593C446.759 173.908 460.153 171.254 476.201 163.199C465.43 179.309 452.067 192.672 438.672 203.382Z" fill="#FEBE16"/>
</svg>
