<svg width="553" height="553" viewBox="0 0 553 553" fill="none" xmlns="http://www.w3.org/2000/svg">
<path d="M397.054 331.8C399.266 313.551 400.925 295.302 400.925 276.5C400.925 257.698 399.266 239.449 397.054 221.2H490.511C494.935 238.896 497.7 257.421 497.7 276.5C497.7 295.578 494.935 314.104 490.511 331.8H397.054ZM348.113 485.534C364.703 454.842 377.423 421.662 386.271 387.1H467.838C441.05 433.228 398.55 468.17 348.113 485.534V485.534ZM341.201 331.8H211.799C209.034 313.551 207.375 295.302 207.375 276.5C207.375 257.698 209.034 239.172 211.799 221.2H341.201C343.689 239.172 345.625 257.698 345.625 276.5C345.625 295.302 343.689 313.551 341.201 331.8ZM276.5 496.594C253.55 463.414 235.025 426.639 223.689 387.1H329.311C317.975 426.639 299.449 463.414 276.5 496.594ZM165.9 165.9H85.162C111.674 119.647 154.143 84.6501 204.61 67.466C188.02 98.1575 175.577 131.337 165.9 165.9ZM85.162 387.1H165.9C175.577 421.662 188.02 454.842 204.61 485.534C154.249 468.161 111.84 433.212 85.162 387.1V387.1ZM62.489 331.8C58.065 314.104 55.3 295.578 55.3 276.5C55.3 257.421 58.065 238.896 62.489 221.2H155.946C153.734 239.449 152.075 257.698 152.075 276.5C152.075 295.302 153.734 313.551 155.946 331.8H62.489ZM276.5 56.1295C299.449 89.3095 317.975 126.36 329.311 165.9H223.689C235.025 126.36 253.55 89.3095 276.5 56.1295V56.1295ZM467.838 165.9H386.271C377.617 131.654 364.802 98.597 348.113 67.466C398.989 84.8855 441.294 120.001 467.838 165.9ZM276.5 0C123.595 0 0 124.425 0 276.5C0 349.832 29.1312 420.161 80.985 472.015C106.66 497.69 137.141 518.057 170.688 531.953C204.235 545.848 240.189 553 276.5 553C349.832 553 420.161 523.869 472.015 472.015C523.869 420.161 553 349.832 553 276.5C553 240.189 545.848 204.235 531.953 170.688C518.057 137.141 497.69 106.66 472.015 80.985C446.34 55.3096 415.858 34.9427 382.312 21.0473C348.765 7.15189 312.81 0 276.5 0V0Z" fill="white"/>
</svg>
