<svg width="485" height="182" viewBox="0 0 485 182" fill="none" xmlns="http://www.w3.org/2000/svg">
<path d="M0 134.296C7.26407 138.228 14.6044 145.225 22.0183 155.413C34.4264 172.463 47.0351 181.272 59.8558 181.272C72.6766 181.272 85.2853 172.463 97.6933 155.413C109.929 138.6 121.963 130.478 133.786 130.478C145.608 130.478 157.643 138.6 169.878 155.413C182.286 172.463 194.895 181.272 207.715 181.272C220.536 181.272 233.145 172.463 245.553 155.413C257.788 138.6 269.823 130.478 281.645 130.478C293.468 130.478 305.502 138.6 317.737 155.413C330.145 172.463 342.754 181.272 355.575 181.272C368.396 181.272 381.004 172.463 393.412 155.413C405.648 138.6 417.682 130.478 429.505 130.478C441.327 130.478 453.362 138.6 465.597 155.413C472.01 164.226 478.478 170.837 485 175.168V20C485 8.95432 476.046 0 465 0H20C8.95431 0 0 8.9543 0 20V134.296Z" fill="#F1EDFF"/>
</svg>
