<svg width="400" height="280" viewBox="0 0 1569 1100" fill="none" xmlns="http://www.w3.org/2000/svg">
<g clip-path="url(#clip0)">
<rect width="1569" height="1100" fill="#972FFE"/>
<path d="M593 127L611.187 158.5H574.813L593 127Z" fill="white"/>
<path opacity="0.877174" d="M331 223L349.187 254.5H312.813L331 223Z" fill="white"/>
<path opacity="0.286851" d="M868 424L886.187 455.5H849.813L868 424Z" fill="white"/>
<path opacity="0.756085" d="M426 690L444.187 721.5H407.813L426 690Z" fill="white"/>
<path opacity="0.867033" d="M229 235L247.187 266.5H210.813L229 235Z" fill="white"/>
<path opacity="0.379109" d="M1439 367L1457.19 398.5H1420.81L1439 367Z" fill="white"/>
<path opacity="0.632115" d="M1116 373L1134.19 404.5H1097.81L1116 373Z" fill="white"/>
<path opacity="0.696496" d="M1432 892L1450.19 923.5H1413.81L1432 892Z" fill="white"/>
<path opacity="0.598074" d="M1269 223L1287.19 254.5H1250.81L1269 223Z" fill="white"/>
<path opacity="0.204032" d="M662 686L680.187 717.5H643.813L662 686Z" fill="white"/>
<path opacity="0.359419" d="M795 458L813.187 489.5H776.813L795 458Z" fill="white"/>
<path opacity="0.253833" d="M579 413L597.187 444.5H560.813L579 413Z" fill="white"/>
<path opacity="0.0559477" d="M560 934L578.187 965.5H541.813L560 934Z" fill="white"/>
<path opacity="0.276566" d="M1144 499L1162.19 530.5H1125.81L1144 499Z" fill="white"/>
<path opacity="0.391779" d="M1261 564L1279.19 595.5H1242.81L1261 564Z" fill="white"/>
<path opacity="0.638811" d="M80 540L98.1865 571.5H61.8135L80 540Z" fill="white"/>
<path opacity="0.976508" d="M1411 1092L1429.19 1123.5H1392.81L1411 1092Z" fill="white"/>
<path opacity="0.575388" d="M1207 503L1225.19 534.5H1188.81L1207 503Z" fill="white"/>
<path opacity="0.550115" d="M468 1039L486.187 1070.5H449.813L468 1039Z" fill="white"/>
<path opacity="0.159415" d="M1226 802L1244.19 833.5H1207.81L1226 802Z" fill="white"/>
<path opacity="0.452914" d="M1099 670L1117.19 701.5H1080.81L1099 670Z" fill="white"/>
<path opacity="0.0626549" d="M126 1059L144.187 1090.5H107.813L126 1059Z" fill="white"/>
<path opacity="0.223816" d="M182 562L200.187 593.5H163.813L182 562Z" fill="white"/>
<path opacity="0.778992" d="M1361 127L1379.19 158.5H1342.81L1361 127Z" fill="white"/>
<path opacity="0.779267" d="M147 892L165.187 923.5H128.813L147 892Z" fill="white"/>
<path opacity="0.443901" d="M1291 711L1309.19 742.5H1272.81L1291 711Z" fill="white"/>
<circle r="12" transform="matrix(1 0 0 -1 340 606)" fill="white"/>
</g>
<defs>
<clipPath id="clip0">
<rect width="1569" height="1100" fill="white"/>
</clipPath>
</defs>
</svg>
