<svg width="328" height="257" viewBox="0 0 328 257" fill="none" xmlns="http://www.w3.org/2000/svg">
<path fill-rule="evenodd" clip-rule="evenodd" d="M52.6166 34.7149V16.2726C52.6166 7.88464 45.8169 1.08484 37.429 1.08484C29.041 1.08484 22.2411 7.88464 22.2411 16.2726V34.7149H52.6166ZM37.429 0C28.4419 0 21.1562 7.2855 21.1562 16.2726V35.7998H53.7015V16.2726C53.7015 7.2855 46.4161 0 37.429 0Z" fill="#101010"/>
<path fill-rule="evenodd" clip-rule="evenodd" d="M85.1635 34.7149V16.2726C85.1635 7.88464 78.3637 1.08484 69.9757 1.08484C61.5878 1.08484 54.788 7.88464 54.788 16.2726V34.7149H85.1635ZM69.9757 0C60.9886 0 53.7031 7.2855 53.7031 16.2726V35.7998H86.2484V16.2726C86.2484 7.2855 78.9629 0 69.9757 0Z" fill="#101010"/>
<path fill-rule="evenodd" clip-rule="evenodd" d="M117.706 34.7149V16.2726C117.706 7.88464 110.907 1.08484 102.519 1.08484C94.1307 1.08484 87.3309 7.88464 87.3309 16.2726V34.7149H117.706ZM102.519 0C93.5316 0 86.2461 7.2855 86.2461 16.2726V35.7998H118.791V16.2726C118.791 7.2855 111.506 0 102.519 0Z" fill="#101010"/>
<path fill-rule="evenodd" clip-rule="evenodd" d="M149.167 34.7149V16.2726C149.167 7.88464 142.368 1.08484 133.98 1.08484C125.592 1.08484 118.792 7.88464 118.792 16.2726V34.7149H149.167ZM133.98 0C124.993 0 117.707 7.2855 117.707 16.2726V35.7998H150.252V16.2726C150.252 7.2855 142.967 0 133.98 0Z" fill="#101010"/>
<path fill-rule="evenodd" clip-rule="evenodd" d="M181.714 34.7149V16.2726C181.714 7.88464 174.915 1.08484 166.527 1.08484C158.139 1.08484 151.339 7.88464 151.339 16.2726V34.7149H181.714ZM166.527 0C157.539 0 150.254 7.2855 150.254 16.2726V35.7998H182.799V16.2726C182.799 7.2855 175.514 0 166.527 0Z" fill="#101010"/>
<path fill-rule="evenodd" clip-rule="evenodd" d="M214.257 34.7149V16.2726C214.257 7.88464 207.457 1.08484 199.069 1.08484C190.682 1.08484 183.882 7.88464 183.882 16.2726V34.7149H214.257ZM199.069 0C190.082 0 182.797 7.2855 182.797 16.2726V35.7998H215.342V16.2726C215.342 7.2855 208.057 0 199.069 0Z" fill="#101010"/>
<path d="M232.459 20.618L3.80139 20.9426C2.00397 20.9452 0.548949 22.4044 0.551517 24.2018L0.786633 188.764C0.789201 190.561 2.24838 192.016 4.0458 192.014L232.703 191.689C234.5 191.686 235.955 190.227 235.953 188.43L235.718 23.8679C235.715 22.0705 234.256 20.6155 232.459 20.618Z" fill="#F3FFE8"/>
<path fill-rule="evenodd" clip-rule="evenodd" d="M0.0092813 24.2032C0.00628524 22.1062 1.70381 20.4038 3.8008 20.4009L232.458 20.0762C234.555 20.0732 236.257 21.7708 236.26 23.8678L236.495 188.43C236.498 190.527 234.801 192.229 232.704 192.232L4.04676 192.557C1.94977 192.56 0.247393 190.862 0.244397 188.765L0.0092813 24.2032ZM3.80235 21.4857C2.3045 21.4878 1.09198 22.7038 1.09412 24.2016L1.32924 188.764C1.33138 190.262 2.54736 191.474 4.04521 191.472L232.702 191.147C234.2 191.145 235.413 189.929 235.411 188.431L235.175 23.8693C235.173 22.3715 233.957 21.1589 232.46 21.1611L3.80235 21.4857Z" fill="#101010"/>
<path d="M232.458 20.6135L3.80139 20.6711C2.00397 20.6715 0.558615 22.1289 0.573106 23.9263L0.765046 47.7338C0.779536 49.5312 2.24838 50.9879 4.0458 50.9874L232.703 50.9299C234.5 50.9295 235.946 49.472 235.931 47.6747L235.739 23.8671C235.725 22.0698 234.256 20.6131 232.458 20.6135Z" fill="#77AF44"/>
<path fill-rule="evenodd" clip-rule="evenodd" d="M0.0306436 23.9257C0.0137378 21.8288 1.69998 20.1285 3.79698 20.128L232.454 20.0704C234.551 20.0699 236.265 21.7694 236.282 23.8663L236.474 47.6738C236.49 49.7708 234.804 51.4711 232.707 51.4716L4.05013 51.5291C1.95314 51.5297 0.23949 49.8302 0.222584 47.7333L0.0306436 23.9257ZM3.80572 21.2128C2.30787 21.2131 1.10341 22.4277 1.11548 23.9255L1.30742 47.733C1.3195 49.2308 2.54353 50.4447 4.04139 50.4443L232.698 50.3868C234.196 50.3864 235.401 49.1719 235.389 47.6741L235.197 23.8666C235.185 22.3688 233.961 21.1549 232.463 21.1552L3.80572 21.2128Z" fill="#101010"/>
<path d="M22.2462 35.2579C22.2462 37.3549 20.5463 39.0548 18.4493 39.0548C16.3523 39.0548 14.6523 37.3549 14.6523 35.2579C14.6523 33.1609 16.3523 31.4609 18.4493 31.4609C20.5463 31.4609 22.2462 33.1609 22.2462 35.2579Z" fill="#DCFEBE"/>
<path d="M47.1994 35.2579C47.1994 37.3549 45.4994 39.0548 43.4024 39.0548C41.3054 39.0548 39.6055 37.3549 39.6055 35.2579C39.6055 33.1609 41.3054 31.4609 43.4024 31.4609C45.4994 31.4609 47.1994 33.1609 47.1994 35.2579Z" fill="#DCFEBE"/>
<path d="M72.1486 35.2579C72.1486 37.3549 70.4486 39.0548 68.3516 39.0548C66.2546 39.0548 64.5547 37.3549 64.5547 35.2579C64.5547 33.1609 66.2546 31.4609 68.3516 31.4609C70.4486 31.4609 72.1486 33.1609 72.1486 35.2579Z" fill="#DCFEBE"/>
<path d="M97.1017 35.2579C97.1017 37.3549 95.4018 39.0548 93.3048 39.0548C91.2078 39.0548 89.5078 37.3549 89.5078 35.2579C89.5078 33.1609 91.2078 31.4609 93.3048 31.4609C95.4018 31.4609 97.1017 33.1609 97.1017 35.2579Z" fill="#DCFEBE"/>
<path d="M122.051 35.2579C122.051 37.3549 120.351 39.0548 118.254 39.0548C116.157 39.0548 114.457 37.3549 114.457 35.2579C114.457 33.1609 116.157 31.4609 118.254 31.4609C120.351 31.4609 122.051 33.1609 122.051 35.2579Z" fill="#DCFEBE"/>
<path d="M147.004 35.2579C147.004 37.3549 145.304 39.0548 143.207 39.0548C141.11 39.0548 139.41 37.3549 139.41 35.2579C139.41 33.1609 141.11 31.4609 143.207 31.4609C145.304 31.4609 147.004 33.1609 147.004 35.2579Z" fill="#DCFEBE"/>
<path d="M171.953 35.2579C171.953 37.3549 170.253 39.0548 168.156 39.0548C166.059 39.0548 164.359 37.3549 164.359 35.2579C164.359 33.1609 166.059 31.4609 168.156 31.4609C170.253 31.4609 171.953 33.1609 171.953 35.2579Z" fill="#DCFEBE"/>
<path d="M196.906 35.2579C196.906 37.3549 195.206 39.0548 193.109 39.0548C191.012 39.0548 189.312 37.3549 189.312 35.2579C189.312 33.1609 191.012 31.4609 193.109 31.4609C195.206 31.4609 196.906 33.1609 196.906 35.2579Z" fill="#DCFEBE"/>
<path d="M221.856 35.2579C221.856 37.3549 220.156 39.0548 218.059 39.0548C215.962 39.0548 214.262 37.3549 214.262 35.2579C214.262 33.1609 215.962 31.4609 218.059 31.4609C220.156 31.4609 221.856 33.1609 221.856 35.2579Z" fill="#DCFEBE"/>
<path fill-rule="evenodd" clip-rule="evenodd" d="M34.1776 61.5664C34.3273 61.5664 34.4487 61.6878 34.4487 61.8376V181.17C34.4487 181.32 34.3273 181.441 34.1776 181.441C34.0278 181.441 33.9062 181.32 33.9062 181.17V61.8376C33.9062 61.6878 34.0278 61.5664 34.1776 61.5664Z" fill="#101010"/>
<path fill-rule="evenodd" clip-rule="evenodd" d="M7.87109 78.1096C7.87109 77.9599 7.99252 77.8384 8.1423 77.8384H228.365C228.515 77.8384 228.636 77.9599 228.636 78.1096C228.636 78.2594 228.515 78.3809 228.365 78.3809H8.1423C7.99252 78.3809 7.87109 78.2594 7.87109 78.1096Z" fill="#101010"/>
<path fill-rule="evenodd" clip-rule="evenodd" d="M7.87109 99.8068C7.87109 99.657 7.99252 99.5356 8.1423 99.5356H228.365C228.515 99.5356 228.636 99.657 228.636 99.8068C228.636 99.9566 228.515 100.078 228.365 100.078H8.1423C7.99252 100.078 7.87109 99.9566 7.87109 99.8068Z" fill="#101010"/>
<path fill-rule="evenodd" clip-rule="evenodd" d="M7.87109 121.502C7.87109 121.352 7.99252 121.231 8.1423 121.231H228.365C228.515 121.231 228.636 121.352 228.636 121.502C228.636 121.652 228.515 121.773 228.365 121.773H8.1423C7.99252 121.773 7.87109 121.652 7.87109 121.502Z" fill="#101010"/>
<path fill-rule="evenodd" clip-rule="evenodd" d="M7.87109 143.199C7.87109 143.05 7.99252 142.928 8.1423 142.928H228.365C228.515 142.928 228.636 143.05 228.636 143.199C228.636 143.349 228.515 143.471 228.365 143.471H8.1423C7.99252 143.471 7.87109 143.349 7.87109 143.199Z" fill="#101010"/>
<path fill-rule="evenodd" clip-rule="evenodd" d="M7.87109 164.897C7.87109 164.747 7.99252 164.626 8.1423 164.626H228.365C228.515 164.626 228.636 164.747 228.636 164.897C228.636 165.047 228.515 165.168 228.365 165.168H8.1423C7.99252 165.168 7.87109 165.047 7.87109 164.897Z" fill="#101010"/>
<path fill-rule="evenodd" clip-rule="evenodd" d="M67.8064 61.5664C67.9562 61.5664 68.0776 61.6878 68.0776 61.8376V181.17C68.0776 181.32 67.9562 181.441 67.8064 181.441C67.6566 181.441 67.5352 181.32 67.5352 181.17V61.8376C67.5352 61.6878 67.6566 61.5664 67.8064 61.5664Z" fill="#101010"/>
<path fill-rule="evenodd" clip-rule="evenodd" d="M101.435 61.5664C101.585 61.5664 101.706 61.6878 101.706 61.8376V181.17C101.706 181.32 101.585 181.441 101.435 181.441C101.285 181.441 101.164 181.32 101.164 181.17V61.8376C101.164 61.6878 101.285 61.5664 101.435 61.5664Z" fill="#101010"/>
<path fill-rule="evenodd" clip-rule="evenodd" d="M135.068 61.5664C135.218 61.5664 135.339 61.6878 135.339 61.8376V181.17C135.339 181.32 135.218 181.441 135.068 181.441C134.918 181.441 134.797 181.32 134.797 181.17V61.8376C134.797 61.6878 134.918 61.5664 135.068 61.5664Z" fill="#101010"/>
<path fill-rule="evenodd" clip-rule="evenodd" d="M168.697 61.5664C168.847 61.5664 168.968 61.6878 168.968 61.8376V181.17C168.968 181.32 168.847 181.441 168.697 181.441C168.547 181.441 168.426 181.32 168.426 181.17V61.8376C168.426 61.6878 168.547 61.5664 168.697 61.5664Z" fill="#101010"/>
<path fill-rule="evenodd" clip-rule="evenodd" d="M202.326 61.5664C202.476 61.5664 202.597 61.6878 202.597 61.8376V181.17C202.597 181.32 202.476 181.441 202.326 181.441C202.176 181.441 202.055 181.32 202.055 181.17V61.8376C202.055 61.6878 202.176 61.5664 202.326 61.5664Z" fill="#101010"/>
<path d="M69.9766 125.842C69.9766 124.643 70.948 123.672 72.1462 123.672H97.0976C98.2959 123.672 99.2673 124.643 99.2673 125.842V138.86C99.2673 140.058 98.2959 141.029 97.0976 141.029H72.1462C70.948 141.029 69.9766 140.058 69.9766 138.86V125.842Z" fill="#77AF44"/>
<path d="M82.7812 134.522H83.3801V129.816H82.1562V130.356H82.7812V134.522Z" fill="white"/>
<path d="M84.3843 131H84.9636C85.0222 130.545 85.3541 130.232 85.9074 130.232C86.4737 130.232 86.7731 130.545 86.7731 130.994C86.7731 131.541 86.35 131.781 85.5624 131.788H85.4062V132.283H85.5559C86.4021 132.283 86.8643 132.537 86.8643 133.2C86.8643 133.682 86.5648 134.053 85.9334 134.053C85.3086 134.053 84.9441 133.669 84.8855 133.168H84.3127C84.3843 134.079 85.0482 134.554 85.9399 134.554C86.9228 134.554 87.4305 133.982 87.4305 133.253C87.4305 132.576 87.0595 132.172 86.5127 132.042V132.009C87.0074 131.899 87.3459 131.476 87.3459 130.935C87.3459 130.258 86.8447 129.725 85.9269 129.725C85.0547 129.725 84.4429 130.193 84.3843 131Z" fill="white"/>
<path d="M182.117 110.423C182.117 111.79 182.456 112.825 183.757 112.825C185.053 112.825 185.391 111.79 185.391 110.423C185.391 109.075 185.053 108.047 183.757 108.047C182.456 108.047 182.117 109.075 182.117 110.423ZM184.805 110.423C184.805 111.438 184.682 112.284 183.757 112.284C182.827 112.284 182.703 111.438 182.703 110.423C182.703 109.446 182.827 108.587 183.757 108.587C184.682 108.587 184.805 109.446 184.805 110.423Z" fill="#101010"/>
<path d="M186.419 111.562C186.484 112.252 186.94 112.831 187.877 112.831C189.114 112.831 189.472 111.952 189.472 110.384C189.472 108.926 189.101 108.027 187.825 108.027C186.81 108.027 186.276 108.678 186.276 109.576C186.276 110.572 186.92 111.113 187.786 111.113C188.294 111.113 188.762 110.885 188.951 110.488C188.971 111.868 188.6 112.336 187.91 112.336C187.363 112.336 187.051 112.05 186.966 111.562H186.419ZM187.884 110.611C187.181 110.611 186.842 110.169 186.842 109.563C186.842 108.939 187.226 108.522 187.838 108.522C188.515 108.522 188.88 108.971 188.88 109.609C188.88 110.24 188.45 110.611 187.884 110.611Z" fill="#101010"/>
<path d="M147.402 110.423C147.402 111.79 147.741 112.825 149.043 112.825C150.338 112.825 150.676 111.79 150.676 110.423C150.676 109.075 150.338 108.047 149.043 108.047C147.741 108.047 147.402 109.075 147.402 110.423ZM150.091 110.423C150.091 111.438 149.967 112.284 149.043 112.284C148.112 112.284 147.988 111.438 147.988 110.423C147.988 109.446 148.112 108.587 149.043 108.587C149.967 108.587 150.091 109.446 150.091 110.423Z" fill="#101010"/>
<path d="M152.349 110.377C151.822 110.533 151.477 110.963 151.477 111.555C151.477 112.408 152.147 112.955 153.136 112.955C154.132 112.955 154.809 112.408 154.809 111.555C154.809 110.969 154.464 110.54 153.93 110.377C154.393 110.195 154.686 109.804 154.686 109.297C154.686 108.613 154.158 108.047 153.136 108.047C152.114 108.047 151.594 108.607 151.594 109.297C151.594 109.824 151.867 110.188 152.349 110.377ZM153.136 110.182C152.564 110.182 152.167 109.863 152.167 109.375C152.167 108.821 152.557 108.542 153.136 108.542C153.729 108.542 154.113 108.828 154.113 109.368C154.113 109.856 153.716 110.182 153.136 110.182ZM153.136 110.637C153.755 110.637 154.223 110.93 154.223 111.536C154.223 112.082 153.807 112.46 153.136 112.46C152.466 112.46 152.043 112.089 152.043 111.536C152.043 110.911 152.531 110.637 153.136 110.637Z" fill="#101010"/>
<path d="M114.859 110.423C114.859 111.79 115.198 112.825 116.5 112.825C117.795 112.825 118.133 111.79 118.133 110.423C118.133 109.075 117.795 108.047 116.5 108.047C115.198 108.047 114.859 109.075 114.859 110.423ZM117.548 110.423C117.548 111.438 117.424 112.284 116.5 112.284C115.569 112.284 115.445 111.438 115.445 110.423C115.445 109.446 115.569 108.587 116.5 108.587C117.424 108.587 117.548 109.446 117.548 110.423Z" fill="#101010"/>
<path d="M118.758 108.131V108.639H121.27L119.435 112.825H120.034L121.843 108.581V108.131H118.758Z" fill="#101010"/>
<path d="M81.2266 110.423C81.2266 111.79 81.565 112.825 82.8668 112.825C84.1621 112.825 84.5006 111.79 84.5006 110.423C84.5006 109.076 84.1621 108.048 82.8668 108.048C81.565 108.048 81.2266 109.076 81.2266 110.423ZM83.9148 110.423C83.9148 111.439 83.7911 112.285 82.8668 112.285C81.936 112.285 81.8124 111.439 81.8124 110.423C81.8124 109.447 81.936 108.588 82.8668 108.588C83.7911 108.588 83.9148 109.447 83.9148 110.423Z" fill="#101010"/>
<path d="M88.4837 109.239C88.4056 108.581 87.95 108.021 87.0517 108.021C85.8605 108.021 85.3854 108.933 85.3854 110.41C85.3854 111.836 85.7173 112.838 87.1103 112.838C88.1387 112.838 88.6464 112.135 88.6464 111.276C88.6464 110.287 88.0541 109.707 87.1754 109.707C86.6156 109.707 86.1014 109.968 85.8996 110.43C85.8931 109.03 86.2967 108.516 87.0452 108.516C87.5789 108.516 87.8458 108.783 87.9369 109.239H88.4837ZM87.0517 110.209C87.7286 110.209 88.0736 110.632 88.0736 111.296C88.0736 111.933 87.6896 112.343 87.0777 112.343C86.3357 112.343 85.9712 111.855 85.9712 111.23C85.9712 110.527 86.5115 110.209 87.0517 110.209Z" fill="#101010"/>
<path d="M47.5977 110.423C47.5977 111.79 47.9361 112.825 49.2379 112.825C50.5332 112.825 50.8717 111.79 50.8717 110.423C50.8717 109.075 50.5332 108.047 49.2379 108.047C47.9361 108.047 47.5977 109.075 47.5977 110.423ZM50.2859 110.423C50.2859 111.438 50.1622 112.284 49.2379 112.284C48.3071 112.284 48.1835 111.438 48.1835 110.423C48.1835 109.446 48.3071 108.587 49.2379 108.587C50.1622 108.587 50.2859 109.446 50.2859 110.423Z" fill="#101010"/>
<path d="M51.8541 108.112V110.768H52.4139C52.5701 110.397 52.9151 110.149 53.3903 110.149C54.0737 110.149 54.4187 110.54 54.4187 111.21C54.4187 111.855 54.0997 112.336 53.3837 112.336C52.8305 112.336 52.4464 112.043 52.3358 111.549H51.7565C51.8736 112.31 52.4399 112.838 53.3772 112.838C54.4773 112.838 54.985 112.109 54.985 111.197C54.985 110.468 54.6205 109.642 53.4749 109.642C53.0127 109.642 52.5961 109.85 52.4009 110.117V108.633H54.6856V108.112H51.8541Z" fill="#101010"/>
<path d="M16.1367 110.423C16.1367 111.79 16.4752 112.825 17.777 112.825C19.0723 112.825 19.4108 111.79 19.4108 110.423C19.4108 109.075 19.0723 108.047 17.777 108.047C16.4752 108.047 16.1367 109.075 16.1367 110.423ZM18.825 110.423C18.825 111.438 18.7013 112.284 17.777 112.284C16.8462 112.284 16.7225 111.438 16.7225 110.423C16.7225 109.446 16.8462 108.587 17.777 108.587C18.7013 108.587 18.825 109.446 18.825 110.423Z" fill="#101010"/>
<path d="M22.4891 112.825H23.0749V111.777H23.7258V111.262H23.0749V108.164H22.3654L20.0807 111.327V111.777H22.4891V112.825ZM20.7642 111.262L22.5151 108.782V111.262H20.7642Z" fill="#101010"/>
<path d="M214.664 88.7254C214.664 90.0923 215.003 91.1272 216.304 91.1272C217.6 91.1272 217.938 90.0923 217.938 88.7254C217.938 87.378 217.6 86.3496 216.304 86.3496C215.003 86.3496 214.664 87.378 214.664 88.7254ZM217.352 88.7254C217.352 89.7408 217.229 90.587 216.304 90.587C215.374 90.587 215.25 89.7408 215.25 88.7254C215.25 87.7491 215.374 86.8899 216.304 86.8899C217.229 86.8899 217.352 87.7491 217.352 88.7254Z" fill="#101010"/>
<path d="M218.738 87.6059H219.318C219.376 87.1502 219.708 86.8378 220.261 86.8378C220.828 86.8378 221.127 87.1502 221.127 87.5993C221.127 88.1461 220.704 88.3869 219.916 88.3934H219.76V88.8881H219.91C220.756 88.8881 221.218 89.142 221.218 89.8059C221.218 90.2876 220.919 90.6586 220.287 90.6586C219.663 90.6586 219.298 90.2746 219.239 89.7734H218.667C218.738 90.6846 219.402 91.1598 220.294 91.1598C221.277 91.1598 221.785 90.587 221.785 89.858C221.785 89.181 221.413 88.7775 220.867 88.6473V88.6148C221.361 88.5041 221.7 88.081 221.7 87.5408C221.7 86.8638 221.199 86.3301 220.281 86.3301C219.409 86.3301 218.797 86.7987 218.738 87.6059Z" fill="#101010"/>
<path d="M215.133 112.825H215.732V108.118H214.508V108.659H215.133V112.825Z" fill="#101010"/>
<path d="M216.749 110.423C216.749 111.79 217.087 112.825 218.389 112.825C219.685 112.825 220.023 111.79 220.023 110.423C220.023 109.075 219.685 108.047 218.389 108.047C217.087 108.047 216.749 109.075 216.749 110.423ZM219.437 110.423C219.437 111.438 219.314 112.284 218.389 112.284C217.458 112.284 217.335 111.438 217.335 110.423C217.335 109.446 217.458 108.587 218.389 108.587C219.314 108.587 219.437 109.446 219.437 110.423Z" fill="#101010"/>
<path d="M18.7733 135.606H19.3721V130.9H18.1484V131.441H18.7733V135.606Z" fill="#101010"/>
<path d="M20.8582 135.606H21.4571V130.9H20.2334V131.441H20.8582V135.606Z" fill="#101010"/>
<path d="M49.1522 134.521H49.751V129.815H48.5273V130.355H49.1522V134.521Z" fill="#101010"/>
<path d="M50.6969 134.469H53.8277V133.974H51.5886C52.4283 133.291 53.6911 132.295 53.6911 131.123C53.6911 130.251 53.1183 129.73 52.233 129.73C51.3869 129.73 50.7555 130.251 50.7164 131.254H51.2892C51.3153 130.661 51.6277 130.238 52.2395 130.238C52.8774 130.238 53.1052 130.629 53.1052 131.149C53.1052 132.113 51.9336 133.05 50.6969 134.046V134.469Z" fill="#101010"/>
<path d="M116.41 134.52H117.009V129.814H115.785V130.355H116.41V134.52Z" fill="#101010"/>
<path d="M120.291 134.52H120.877V133.473H121.528V132.958H120.877V129.86H120.168L117.883 133.023V133.473H120.291V134.52ZM118.567 132.958L120.317 130.478V132.958H118.567Z" fill="#101010"/>
<path d="M148.957 134.521H149.556V129.815H148.332V130.355H148.957V134.521Z" fill="#101010"/>
<path d="M150.742 129.809V132.464H151.302C151.458 132.093 151.803 131.846 152.279 131.846C152.962 131.846 153.307 132.236 153.307 132.907C153.307 133.551 152.988 134.033 152.272 134.033C151.719 134.033 151.335 133.74 151.224 133.245H150.645C150.762 134.007 151.328 134.534 152.266 134.534C153.366 134.534 153.873 133.805 153.873 132.894C153.873 132.165 153.509 131.338 152.363 131.338C151.901 131.338 151.484 131.547 151.289 131.813V130.329H153.574V129.809H150.742Z" fill="#101010"/>
<path d="M183.672 134.52H184.271V129.814H183.047V130.355H183.672V134.52Z" fill="#101010"/>
<path d="M188.458 130.934C188.38 130.277 187.924 129.717 187.026 129.717C185.835 129.717 185.36 130.628 185.36 132.106C185.36 133.531 185.692 134.533 187.085 134.533C188.113 134.533 188.621 133.831 188.621 132.971C188.621 131.982 188.028 131.403 187.15 131.403C186.59 131.403 186.076 131.663 185.874 132.125C185.867 130.726 186.271 130.211 187.019 130.211C187.553 130.211 187.82 130.478 187.911 130.934H188.458ZM187.026 131.904C187.703 131.904 188.048 132.327 188.048 132.991C188.048 133.629 187.664 134.039 187.052 134.039C186.31 134.039 185.945 133.551 185.945 132.926C185.945 132.223 186.486 131.904 187.026 131.904Z" fill="#101010"/>
<path d="M214.047 134.52H214.646V129.814H213.422V130.355H214.047V134.52Z" fill="#101010"/>
<path d="M215.474 129.827V130.335H217.987L216.151 134.52H216.75L218.56 130.277V129.827H215.474Z" fill="#101010"/>
<path d="M17.6913 156.217H18.2901V151.511H17.0664V152.051H17.6913V156.217Z" fill="#101010"/>
<path d="M20.1668 153.77C19.6396 153.926 19.2946 154.356 19.2946 154.948C19.2946 155.801 19.9651 156.347 20.9544 156.347C21.9503 156.347 22.6273 155.801 22.6273 154.948C22.6273 154.362 22.2823 153.932 21.7485 153.77C22.2107 153.587 22.5036 153.197 22.5036 152.689C22.5036 152.006 21.9764 151.439 20.9544 151.439C19.9325 151.439 19.4118 151.999 19.4118 152.689C19.4118 153.216 19.6852 153.581 20.1668 153.77ZM20.9544 153.574C20.3816 153.574 19.9846 153.255 19.9846 152.767C19.9846 152.214 20.3751 151.934 20.9544 151.934C21.5468 151.934 21.9308 152.221 21.9308 152.761C21.9308 153.249 21.5337 153.574 20.9544 153.574ZM20.9544 154.03C21.5728 154.03 22.0415 154.323 22.0415 154.928C22.0415 155.475 21.6249 155.853 20.9544 155.853C20.284 155.853 19.8609 155.482 19.8609 154.928C19.8609 154.303 20.3491 154.03 20.9544 154.03Z" fill="#101010"/>
<path d="M48.0663 156.219H48.6651V151.513H47.4414V152.053H48.0663V156.219Z" fill="#101010"/>
<path d="M49.8974 154.956C49.9624 155.646 50.4181 156.226 51.3554 156.226C52.5921 156.226 52.9501 155.347 52.9501 153.778C52.9501 152.32 52.579 151.422 51.3032 151.422C50.2878 151.422 49.7542 152.073 49.7542 152.971C49.7542 153.967 50.3985 154.507 51.2643 154.507C51.772 154.507 52.2406 154.279 52.4294 153.882C52.4489 155.262 52.0779 155.731 51.3879 155.731C50.8412 155.731 50.5286 155.444 50.444 154.956H49.8974ZM51.3619 154.006C50.6589 154.006 50.3204 153.563 50.3204 152.958C50.3204 152.333 50.7044 151.917 51.3162 151.917C51.9932 151.917 52.3577 152.366 52.3577 153.004C52.3577 153.635 51.9282 154.006 51.3619 154.006Z" fill="#101010"/>
<path d="M80.0703 156.166H83.2012V155.672H80.9621C81.8017 154.988 83.0645 153.992 83.0645 152.821C83.0645 151.948 82.4917 151.428 81.6064 151.428C80.7603 151.428 80.1289 151.948 80.0898 152.951H80.6626C80.6887 152.359 81.0011 151.935 81.613 151.935C82.2508 151.935 82.4787 152.326 82.4787 152.847C82.4787 153.81 81.307 154.747 80.0703 155.743V156.166Z" fill="#101010"/>
<path d="M83.8859 153.817C83.8859 155.183 84.2244 156.218 85.5262 156.218C86.8215 156.218 87.1599 155.183 87.1599 153.817C87.1599 152.469 86.8215 151.441 85.5262 151.441C84.2244 151.441 83.8859 152.469 83.8859 153.817ZM86.5741 153.817C86.5741 154.832 86.4505 155.678 85.5262 155.678C84.5954 155.678 84.4717 154.832 84.4717 153.817C84.4717 152.84 84.5954 151.981 85.5262 151.981C86.4505 151.981 86.5741 152.84 86.5741 153.817Z" fill="#101010"/>
<path d="M115.871 156.166H119.002V155.672H116.763C117.603 154.988 118.865 153.992 118.865 152.821C118.865 151.948 118.292 151.428 117.407 151.428C116.561 151.428 115.93 151.948 115.891 152.951H116.463C116.489 152.359 116.802 151.935 117.414 151.935C118.052 151.935 118.279 152.326 118.279 152.847C118.279 153.81 117.108 154.747 115.871 155.743V156.166Z" fill="#101010"/>
<path d="M120.155 156.218H120.754V151.512H119.53V152.053H120.155V156.218Z" fill="#101010"/>
<path d="M146.246 156.166H149.377V155.672H147.138C147.978 154.988 149.24 153.992 149.24 152.821C149.24 151.948 148.667 151.428 147.782 151.428C146.936 151.428 146.305 151.948 146.266 152.951H146.838C146.864 152.359 147.177 151.935 147.789 151.935C148.427 151.935 148.654 152.326 148.654 152.847C148.654 153.81 147.483 154.747 146.246 155.743V156.166Z" fill="#101010"/>
<path d="M149.99 156.166H153.121V155.672H150.882C151.721 154.988 152.984 153.992 152.984 152.821C152.984 151.948 152.411 151.428 151.526 151.428C150.68 151.428 150.049 151.948 150.01 152.951H150.582C150.608 152.359 150.921 151.935 151.533 151.935C152.171 151.935 152.398 152.326 152.398 152.847C152.398 153.81 151.227 154.747 149.99 155.743V156.166Z" fill="#101010"/>
<path d="M182.047 156.167H185.178V155.672H182.939C183.778 154.989 185.041 153.993 185.041 152.821C185.041 151.949 184.468 151.428 183.583 151.428C182.737 151.428 182.105 151.949 182.066 152.952H182.639C182.665 152.359 182.978 151.936 183.59 151.936C184.227 151.936 184.455 152.327 184.455 152.847C184.455 153.811 183.284 154.748 182.047 155.744V156.167Z" fill="#101010"/>
<path d="M185.849 152.698H186.429C186.487 152.242 186.819 151.93 187.373 151.93C187.939 151.93 188.238 152.242 188.238 152.691C188.238 153.238 187.815 153.479 187.028 153.485H186.871V153.98H187.021C187.867 153.98 188.329 154.234 188.329 154.898C188.329 155.379 188.03 155.75 187.399 155.75C186.774 155.75 186.409 155.366 186.351 154.865H185.778C185.849 155.776 186.513 156.252 187.405 156.252C188.388 156.252 188.896 155.679 188.896 154.95C188.896 154.273 188.525 153.869 187.978 153.739V153.707C188.473 153.596 188.811 153.173 188.811 152.633C188.811 151.956 188.31 151.422 187.392 151.422C186.52 151.422 185.908 151.891 185.849 152.698Z" fill="#101010"/>
<path d="M211.336 156.166H214.467V155.672H212.228C213.067 154.988 214.33 153.992 214.33 152.821C214.33 151.948 213.757 151.428 212.872 151.428C212.026 151.428 211.395 151.948 211.355 152.951H211.928C211.954 152.359 212.267 151.935 212.879 151.935C213.516 151.935 213.744 152.326 213.744 152.847C213.744 153.81 212.573 154.747 211.336 155.743V156.166Z" fill="#101010"/>
<path d="M217.417 156.218H218.002V155.17H218.653V154.656H218.002V151.558H217.293L215.008 154.721V155.17H217.417V156.218ZM215.692 154.656L217.443 152.176V154.656H215.692Z" fill="#101010"/>
<path d="M14.9805 176.778H18.1113V176.283H15.8722C16.7119 175.6 17.9746 174.604 17.9746 173.432C17.9746 172.56 17.4018 172.039 16.5166 172.039C15.6704 172.039 15.0391 172.56 15 173.562H15.5728C15.5988 172.97 15.9113 172.547 16.5231 172.547C17.161 172.547 17.3888 172.937 17.3888 173.458C17.3888 174.421 16.2172 175.359 14.9805 176.355V176.778Z" fill="#101010"/>
<path d="M18.9653 172.117V174.773H19.5251C19.6813 174.402 20.0263 174.155 20.5014 174.155C21.1849 174.155 21.5298 174.545 21.5298 175.215C21.5298 175.86 21.2109 176.342 20.4949 176.342C19.9416 176.342 19.5576 176.049 19.4469 175.554H18.8676C18.9848 176.316 19.5511 176.843 20.4884 176.843C21.5884 176.843 22.0961 176.114 22.0961 175.202C22.0961 174.473 21.7316 173.647 20.586 173.647C20.1239 173.647 19.7073 173.855 19.512 174.122V172.638H21.7967V172.117H18.9653Z" fill="#101010"/>
<path d="M46.4414 176.779H49.5723V176.284H47.3331C48.1728 175.601 49.4356 174.605 49.4356 173.433C49.4356 172.561 48.8628 172.04 47.9775 172.04C47.1314 172.04 46.5 172.561 46.4609 173.563H47.0337C47.0598 172.971 47.3722 172.548 47.9841 172.548C48.6219 172.548 48.8498 172.939 48.8498 173.459C48.8498 174.423 47.6781 175.36 46.4414 176.356V176.779Z" fill="#101010"/>
<path d="M53.4269 173.245C53.3488 172.587 52.8931 172.027 51.9949 172.027C50.8037 172.027 50.3286 172.939 50.3286 174.416C50.3286 175.842 50.6605 176.844 52.0535 176.844C53.0819 176.844 53.5896 176.141 53.5896 175.282C53.5896 174.292 52.9973 173.713 52.1186 173.713C51.5588 173.713 51.0446 173.974 50.8428 174.436C50.8363 173.036 51.2398 172.522 51.9884 172.522C52.5221 172.522 52.789 172.789 52.8801 173.245H53.4269ZM51.9949 174.214C52.6718 174.214 53.0168 174.637 53.0168 175.301C53.0168 175.939 52.6328 176.349 52.0209 176.349C51.2789 176.349 50.9144 175.861 50.9144 175.236C50.9144 174.533 51.4546 174.214 51.9949 174.214Z" fill="#101010"/>
<path d="M80.0703 176.778H83.2012V176.283H80.9621C81.8017 175.6 83.0645 174.604 83.0645 173.432C83.0645 172.56 82.4917 172.039 81.6064 172.039C80.7603 172.039 80.1289 172.56 80.0898 173.562H80.6626C80.6887 172.97 81.0011 172.547 81.613 172.547C82.2508 172.547 82.4787 172.937 82.4787 173.458C82.4787 174.421 81.307 175.359 80.0703 176.355V176.778Z" fill="#101010"/>
<path d="M83.6971 172.137V172.644H86.2096L84.3741 176.83H84.9729L86.7824 172.586V172.137H83.6971Z" fill="#101010"/>
<path d="M114.785 176.778H117.916V176.283H115.677C116.517 175.6 117.779 174.604 117.779 173.432C117.779 172.56 117.207 172.039 116.321 172.039C115.475 172.039 114.844 172.56 114.805 173.562H115.377C115.404 172.97 115.716 172.547 116.328 172.547C116.966 172.547 117.194 172.937 117.194 173.458C117.194 174.421 116.022 175.359 114.785 176.355V176.778Z" fill="#101010"/>
<path d="M119.46 174.382C118.933 174.539 118.588 174.968 118.588 175.56C118.588 176.413 119.258 176.96 120.248 176.96C121.243 176.96 121.92 176.413 121.92 175.56C121.92 174.975 121.575 174.545 121.042 174.382C121.504 174.2 121.797 173.81 121.797 173.302C121.797 172.618 121.269 172.052 120.248 172.052C119.226 172.052 118.705 172.612 118.705 173.302C118.705 173.829 118.978 174.194 119.46 174.382ZM120.248 174.187C119.675 174.187 119.278 173.868 119.278 173.38C119.278 172.827 119.668 172.547 120.248 172.547C120.84 172.547 121.224 172.833 121.224 173.373C121.224 173.862 120.827 174.187 120.248 174.187ZM120.248 174.643C120.866 174.643 121.335 174.936 121.335 175.541C121.335 176.088 120.918 176.465 120.248 176.465C119.577 176.465 119.154 176.094 119.154 175.541C119.154 174.916 119.642 174.643 120.248 174.643Z" fill="#101010"/>
<path d="M148.414 176.778H151.545V176.284H149.306C150.145 175.6 151.408 174.604 151.408 173.433C151.408 172.56 150.835 172.04 149.95 172.04C149.104 172.04 148.473 172.56 148.434 173.563H149.006C149.032 172.971 149.345 172.547 149.957 172.547C150.595 172.547 150.822 172.938 150.822 173.459C150.822 174.422 149.651 175.359 148.414 176.355V176.778Z" fill="#101010"/>
<path d="M152.444 175.568C152.51 176.258 152.965 176.837 153.902 176.837C155.139 176.837 155.497 175.958 155.497 174.389C155.497 172.931 155.126 172.033 153.85 172.033C152.835 172.033 152.301 172.684 152.301 173.582C152.301 174.578 152.946 175.118 153.811 175.118C154.319 175.118 154.788 174.891 154.976 174.494C154.996 175.874 154.625 176.342 153.935 176.342C153.388 176.342 153.076 176.056 152.991 175.568H152.444ZM153.909 174.617C153.206 174.617 152.868 174.175 152.868 173.569C152.868 172.944 153.252 172.528 153.863 172.528C154.54 172.528 154.905 172.977 154.905 173.615C154.905 174.246 154.475 174.617 153.909 174.617Z" fill="#101010"/>
<path d="M182.103 173.309H182.682C182.741 172.853 183.073 172.541 183.626 172.541C184.192 172.541 184.492 172.853 184.492 173.302C184.492 173.849 184.069 174.09 183.281 174.097H183.125V174.591H183.274C184.121 174.591 184.583 174.845 184.583 175.509C184.583 175.991 184.283 176.362 183.652 176.362C183.027 176.362 182.663 175.978 182.604 175.476H182.031C182.103 176.388 182.767 176.863 183.659 176.863C184.641 176.863 185.149 176.29 185.149 175.561C185.149 174.884 184.778 174.481 184.231 174.35V174.318C184.726 174.207 185.064 173.784 185.064 173.244C185.064 172.567 184.563 172.033 183.645 172.033C182.773 172.033 182.161 172.502 182.103 173.309Z" fill="#101010"/>
<path d="M185.949 174.429C185.949 175.795 186.287 176.83 187.589 176.83C188.884 176.83 189.223 175.795 189.223 174.429C189.223 173.081 188.884 172.053 187.589 172.053C186.287 172.053 185.949 173.081 185.949 174.429ZM188.637 174.429C188.637 175.444 188.513 176.29 187.589 176.29C186.658 176.29 186.535 175.444 186.535 174.429C186.535 173.452 186.658 172.593 187.589 172.593C188.513 172.593 188.637 173.452 188.637 174.429Z" fill="#101010"/>
<path d="M182.117 88.7248C182.117 90.0917 182.456 91.1266 183.757 91.1266C185.053 91.1266 185.391 90.0917 185.391 88.7248C185.391 87.3774 185.053 86.349 183.757 86.349C182.456 86.349 182.117 87.3774 182.117 88.7248ZM184.805 88.7248C184.805 89.7402 184.682 90.5863 183.757 90.5863C182.827 90.5863 182.703 89.7402 182.703 88.7248C182.703 87.7484 182.827 86.8892 183.757 86.8892C184.682 86.8892 184.805 87.7484 184.805 88.7248Z" fill="#101010"/>
<path d="M186.133 91.0745H189.264V90.5798H187.025C187.864 89.8964 189.127 88.9005 189.127 87.7289C189.127 86.8567 188.554 86.3359 187.669 86.3359C186.823 86.3359 186.191 86.8567 186.152 87.8591H186.725C186.751 87.2667 187.064 86.8436 187.675 86.8436C188.313 86.8436 188.541 87.2342 188.541 87.7549C188.541 88.7182 187.37 89.6556 186.133 90.6514V91.0745Z" fill="#101010"/>
<path d="M149.574 88.7254C149.574 90.0923 149.913 91.1273 151.214 91.1273C152.51 91.1273 152.848 90.0923 152.848 88.7254C152.848 87.378 152.51 86.3496 151.214 86.3496C149.913 86.3496 149.574 87.378 149.574 88.7254ZM152.262 88.7254C152.262 89.7408 152.139 90.587 151.214 90.587C150.284 90.587 150.16 89.7408 150.16 88.7254C150.16 87.7491 150.284 86.8899 151.214 86.8899C152.139 86.8899 152.262 87.7491 152.262 88.7254Z" fill="#101010"/>
<path d="M154.13 91.1272H154.729V86.4211H153.505V86.9614H154.13V91.1272Z" fill="#101010"/>
<path d="M13.1523 71.6H15.0074V67.0219L16.7215 71.6H18.2186L19.9218 67.0328V71.6H21.7768V63.9844H19.5963L17.4809 69.2567L15.3437 63.9844H13.1523V71.6Z" fill="#101010"/>
<path d="M29.034 68.5733C29.034 66.6531 27.6671 65.4598 25.8879 65.4598C24.1197 65.4598 22.7419 66.6531 22.7419 68.5733C22.7419 70.4934 24.0871 71.6867 25.8662 71.6867C27.6454 71.6867 29.034 70.4934 29.034 68.5733ZM24.6295 68.5733C24.6295 67.5427 25.2153 67.0653 25.8879 67.0653C26.5388 67.0653 27.1464 67.5427 27.1464 68.5733C27.1464 69.593 26.528 70.0812 25.8662 70.0812C25.1936 70.0812 24.6295 69.593 24.6295 68.5733Z" fill="#101010"/>
<path d="M45.2852 65.4706H47.303V71.6H49.158V65.4706H51.1758V63.9844H45.2852V65.4706Z" fill="#101010"/>
<path d="M58.0843 65.5465H56.2293V68.8336C56.2293 69.6581 55.7736 70.1137 55.0576 70.1137C54.3633 70.1137 53.8968 69.6581 53.8968 68.8336V65.5465H52.0526V69.0831C52.0526 70.6995 52.9964 71.6651 54.3959 71.6651C55.2095 71.6651 55.8604 71.2962 56.2293 70.7755V71.6H58.0843V65.5465Z" fill="#101010"/>
<path d="M78.6888 71.6H80.9345L82.1929 66.588L83.4079 71.6H85.6535L87.6388 63.9844H85.6427L84.5361 69.5279L83.2343 63.9844H81.1948L79.8388 69.5279L78.7431 63.9844H76.7578L78.6888 71.6Z" fill="#101010"/>
<path d="M91.2378 66.946C91.8562 66.946 92.3769 67.3257 92.3769 67.9874H90.0553C90.1638 67.3148 90.6303 66.946 91.2378 66.946ZM94.1343 69.593H92.1599C92.0081 69.9185 91.7151 70.1788 91.1944 70.1788C90.5978 70.1788 90.1096 69.81 90.0445 69.018H94.2428C94.2645 68.8336 94.2754 68.6492 94.2754 68.4756C94.2754 66.6314 93.0278 65.4598 91.2595 65.4598C89.4587 65.4598 88.2003 66.6531 88.2003 68.5733C88.2003 70.4934 89.4804 71.6867 91.2595 71.6867C92.7674 71.6867 93.8414 70.7755 94.1343 69.593Z" fill="#101010"/>
<path d="M110.375 65.4707H112.393V71.6001H114.248V65.4707H116.266V63.9845H110.375V65.4707Z" fill="#101010"/>
<path d="M117.197 71.6001H119.052V68.313C119.052 67.4885 119.507 67.0329 120.213 67.0329C120.918 67.0329 121.373 67.4885 121.373 68.313V71.6001H123.218V68.0635C123.218 66.4362 122.295 65.4816 120.918 65.4816C120.082 65.4816 119.421 65.8396 119.052 66.3603V63.5723H117.197V71.6001Z" fill="#101010"/>
<path d="M145.504 71.6H147.359V68.519H149.681V67.0762H147.359V65.4706H150.462V63.9844H145.504V71.6Z" fill="#101010"/>
<path d="M153.292 68.7901C153.292 67.7487 153.802 67.4449 154.68 67.4449H155.19V65.4814C154.377 65.4814 153.715 65.9153 153.292 66.5553V65.5464H151.437V71.5999H153.292V68.7901Z" fill="#101010"/>
<path d="M185.754 69.3337C185.754 66.7843 181.989 67.381 181.989 66.0575C181.989 65.5802 182.325 65.3523 182.77 65.3632C183.269 65.374 183.616 65.6669 183.649 66.1551H185.656C185.58 64.7014 184.463 63.877 182.803 63.877C181.208 63.877 180.026 64.6797 180.026 66.1226C180.004 68.8238 183.812 68.0644 183.812 69.4747C183.812 69.9195 183.465 70.1907 182.922 70.1907C182.401 70.1907 182.033 69.9087 181.978 69.3229H180.004C180.058 70.8633 181.338 71.677 182.976 71.677C184.756 71.677 185.754 70.6138 185.754 69.3337Z" fill="#101010"/>
<path d="M186.526 68.5635C186.526 70.4728 187.709 71.6878 189.184 71.6878C190.085 71.6878 190.725 71.2756 191.061 70.744V71.601H192.916V65.5476H191.061V66.4046C190.736 65.8731 190.095 65.4608 189.195 65.4608C187.709 65.4608 186.526 66.6541 186.526 68.5635ZM191.061 68.5743C191.061 69.5398 190.443 70.0714 189.737 70.0714C189.043 70.0714 188.414 69.529 188.414 68.5635C188.414 67.598 189.043 67.0772 189.737 67.0772C190.443 67.0772 191.061 67.6088 191.061 68.5743Z" fill="#101010"/>
<path d="M218.297 69.3337C218.297 66.7843 214.532 67.381 214.532 66.0575C214.532 65.5802 214.868 65.3523 215.313 65.3632C215.812 65.374 216.159 65.6669 216.192 66.1551H218.199C218.123 64.7014 217.006 63.877 215.346 63.877C213.751 63.877 212.569 64.6797 212.569 66.1226C212.547 68.8238 216.355 68.0644 216.355 69.4747C216.355 69.9195 216.008 70.1907 215.465 70.1907C214.944 70.1907 214.576 69.9087 214.521 69.3229H212.547C212.601 70.8633 213.881 71.677 215.519 71.677C217.298 71.677 218.297 70.6138 218.297 69.3337Z" fill="#101010"/>
<path d="M225.416 65.5476H223.561V68.8347C223.561 69.6592 223.105 70.1148 222.389 70.1148C221.695 70.1148 221.228 69.6592 221.228 68.8347V65.5476H219.384V69.0842C219.384 70.7006 220.328 71.6661 221.727 71.6661C222.541 71.6661 223.192 71.2973 223.561 70.7765V71.601H225.416V65.5476Z" fill="#101010"/>
<g clip-path="url(#clip0)">
<path d="M200.03 234C190.338 234.006 180.861 231.137 172.799 225.757C164.737 220.376 158.452 212.726 154.739 203.772C151.025 194.819 150.051 184.966 151.938 175.459C153.825 165.952 158.49 157.218 165.341 150.363C172.193 143.507 180.924 138.837 190.43 136.944C199.935 135.051 209.789 136.019 218.744 139.727C227.7 143.435 235.354 149.715 240.74 157.774C246.125 165.833 249 175.307 249 185C249.004 197.991 243.847 210.453 234.663 219.642C225.48 228.831 213.022 233.996 200.03 234Z" fill="#5A527A"/>
<path d="M202.03 233.5H202.03C192.436 233.506 183.056 230.666 175.077 225.341C167.097 220.015 160.876 212.443 157.2 203.581C153.525 194.719 152.56 184.966 154.428 175.556C156.296 166.146 160.913 157.502 167.695 150.716C174.476 143.93 183.118 139.308 192.527 137.434C201.936 135.56 211.689 136.519 220.553 140.189C229.417 143.859 236.994 150.075 242.324 158.052C247.655 166.028 250.5 175.406 250.5 185V185C250.504 197.859 245.399 210.193 236.31 219.288C227.22 228.384 214.889 233.496 202.03 233.5Z" fill="#7371FC" stroke="#16141F"/>
<path d="M231.547 191.494C237.606 182.197 239.435 170.911 238.916 159.689C232.405 150.072 222.415 143.359 211.052 140.963C199.688 138.568 187.838 140.679 178 146.85C168.162 153.021 161.103 162.771 158.313 174.045C155.522 185.319 157.218 197.236 163.041 207.284C177.418 214.089 194.649 215.001 209.439 209.032C218.301 205.454 226.343 199.503 231.547 191.494Z" fill="white"/>
<path d="M231.044 190.846C225.864 198.871 217.875 204.821 209.085 208.406C194.395 214.383 177.28 213.468 163 206.656C165.999 211.864 170.006 216.41 174.785 220.023C179.563 223.637 185.014 226.244 190.812 227.689C196.611 229.134 202.639 229.388 208.537 228.435C214.435 227.481 220.082 225.341 225.142 222.141C230.203 218.942 234.572 214.748 237.991 209.81C241.409 204.872 243.807 199.29 245.04 193.398C246.274 187.506 246.319 181.424 245.172 175.515C244.025 169.605 241.709 163.989 238.364 159C238.892 170.236 237.075 181.53 231.044 190.846Z" fill="#EEEEFF"/>
<path d="M181 167L203 184.83L202.025 186L181 167Z" fill="#6646E7"/>
<path d="M213 220L201 185.069L202.766 184L213 220Z" fill="#6646E7"/>
<path d="M202.002 188.5H202.002C201.31 188.5 200.633 188.295 200.057 187.911C199.481 187.527 199.032 186.98 198.767 186.341C198.502 185.701 198.432 184.997 198.567 184.318C198.702 183.639 199.035 183.016 199.524 182.526C200.014 182.036 200.637 181.703 201.316 181.567C201.995 181.432 202.699 181.501 203.339 181.766C203.979 182.031 204.525 182.48 204.91 183.055C205.295 183.631 205.5 184.308 205.5 185V185C205.5 185.46 205.41 185.915 205.234 186.339C205.058 186.764 204.801 187.149 204.476 187.474C204.151 187.799 203.765 188.057 203.341 188.233C202.917 188.409 202.462 188.5 202.002 188.5Z" fill="#FF0000" stroke="#16141F"/>
<path d="M202 140V149" stroke="#B7A6FF" stroke-width="1.5" stroke-linecap="round" stroke-linejoin="round"/>
<path d="M202 220V230" stroke="#B7A6FF" stroke-width="1.5" stroke-linecap="round" stroke-linejoin="round"/>
<path d="M223.816 214.402L228.641 222.571" stroke="#B7A6FF" stroke-width="1.5" stroke-linecap="round" stroke-linejoin="round"/>
<path d="M235.676 197.498L243.62 202.684" stroke="#6646E7" stroke-width="2.504" stroke-linecap="round" stroke-linejoin="round"/>
<path d="M237.078 180.842L246.565 180.885" stroke="#6646E7" stroke-width="2.504" stroke-linecap="round" stroke-linejoin="round"/>
<path d="M157 186L166.487 186.043" stroke="#B7A6FF" stroke-width="1.5" stroke-linecap="round" stroke-linejoin="round"/>
<path d="M164 161L172 166" stroke="#B7A6FF" stroke-width="1.5" stroke-linecap="round" stroke-linejoin="round"/>
<path d="M226 147L221 155" stroke="#B7A6FF" stroke-width="1.5" stroke-linecap="round" stroke-linejoin="round"/>
<path d="M184 215L178 223" stroke="#B7A6FF" stroke-width="1.5" stroke-linecap="round" stroke-linejoin="round"/>
<path d="M240 161L232 166" stroke="#6646E7" stroke-width="2.504" stroke-linecap="round" stroke-linejoin="round"/>
<path d="M172 204L164 209" stroke="#B7A6FF" stroke-width="1.5" stroke-linecap="round" stroke-linejoin="round"/>
<path d="M178 147L184 155" stroke="#B7A6FF" stroke-width="1.5" stroke-linecap="round" stroke-linejoin="round"/>
</g>
<path d="M242.561 94.6346C241.063 94.614 237.284 96.2158 235.43 94.7621C233.577 93.3085 234.819 91.2579 234.667 89.3576C234.393 85.8967 237.193 80 242.077 80C247.838 80 248.352 84.3587 250.131 84.3587C252.404 84.3587 257.781 92.0052 253.885 94.8669C251.438 96.6646 250.592 92.8801 248.796 94.4386C246.88 96.1087 244.122 94.6573 242.561 94.6346Z" fill="#101010" stroke="#101010" stroke-miterlimit="10" stroke-linecap="round" stroke-linejoin="round"/>
<path d="M254.422 134.002C254.491 135.12 253.627 136.077 252.508 136.123L230.889 137.008C229.708 137.056 228.742 136.075 228.81 134.895L229.944 115.173C230.036 113.575 228.307 112.522 226.929 113.337L226.754 113.441C225.806 114.002 224.584 113.692 224.018 112.747L220.021 106.066C219.465 105.137 219.751 103.941 220.691 103.403C224.333 101.319 233.279 96.6707 240.913 96.477C241.235 96.4688 241.55 96.5523 241.854 96.6565C242.319 96.8159 243.08 96.9915 243.836 96.797C244.337 96.668 244.856 96.5185 245.362 96.6254C251.034 97.8228 255.24 100.744 263.814 109.413C264.559 110.166 264.581 111.377 263.865 112.159C260.251 116.107 257.972 118.546 256.895 119.69C256.49 120.12 255.814 120.129 255.393 119.715C254.701 119.034 253.535 119.565 253.594 120.534L254.422 134.002Z" fill="#DDD4FE" stroke="#101010" stroke-miterlimit="10" stroke-linecap="round" stroke-linejoin="round"/>
<path d="M265.352 110.969L270.393 116.414L295.165 100.551C295.165 100.551 297.424 96.2636 298.641 96.4785C299.858 96.6935 298.641 100.466 298.641 100.466C298.641 100.466 307.592 96.65 308.287 98.3216C308.89 99.7713 302.118 101.409 302.118 101.409C302.118 101.409 310.506 98.7286 310.934 100.691C311.335 102.529 302.38 103.981 302.38 103.981C302.38 103.981 312.098 102.23 312.353 104.132C312.635 106.233 303.944 105.525 303.944 105.525C303.944 105.525 310.57 107.048 310.355 108.804C310.183 110.194 303.858 108.182 300.815 109.897C297.772 111.612 269.614 132.706 269.614 132.706L256.359 120.402L265.352 110.969Z" fill="white" stroke="#101010" stroke-miterlimit="10" stroke-linecap="round" stroke-linejoin="round"/>
<path d="M254.129 136.042C254.779 136.016 255.402 136.308 255.797 136.824L283.018 172.384C283.129 172.529 283.259 172.658 283.405 172.767L307.354 190.761C308.279 191.456 308.423 192.788 307.668 193.665L293.807 209.772C293.134 210.554 291.976 210.695 291.134 210.098L265.329 191.788C265.148 191.659 264.99 191.502 264.861 191.322L255.41 178.139C254.31 176.605 251.892 177.309 251.788 179.194L251.544 183.605C251.53 183.864 251.566 184.123 251.651 184.368L264.174 220.626C264.591 221.831 263.787 223.113 262.521 223.265L240.792 225.858C239.896 225.965 239.039 225.458 238.701 224.621L223.607 187.235C223.481 186.923 223.436 186.585 223.476 186.251L229.114 138.73C229.229 137.754 230.037 137.007 231.019 136.968L254.129 136.042Z" fill="#6646E7" stroke="#101010" stroke-miterlimit="10" stroke-linecap="round" stroke-linejoin="round"/>
<path d="M242.083 160.156L251.965 173.333" stroke="#101010" stroke-miterlimit="10" stroke-linecap="round" stroke-linejoin="round"/>
<path d="M309.228 191.594C309.562 191.202 310.139 191.127 310.561 191.421L317.033 195.93C317.484 196.244 317.597 196.863 317.286 197.316L302.527 218.822C302.272 219.194 301.8 219.349 301.375 219.201L290.68 215.491C290.015 215.26 289.79 214.434 290.246 213.898L309.228 191.594Z" fill="#DDD4FE" stroke="#101010" stroke-miterlimit="10" stroke-linecap="round" stroke-linejoin="round"/>
<path d="M315.892 199.44C316.217 198.975 316.863 198.873 317.315 199.216L326.994 206.551C327.41 206.866 327.514 207.447 327.233 207.887L311.141 233.034C310.685 233.747 309.605 233.607 309.346 232.801L305.473 220.748C305.4 220.519 305.246 220.324 305.041 220.2L303.386 219.192C302.893 218.892 302.755 218.238 303.086 217.765L315.892 199.44Z" fill="white" stroke="#101010" stroke-miterlimit="10" stroke-linecap="round" stroke-linejoin="round"/>
<path d="M266.826 223.574C266.693 223.097 266.231 222.789 265.74 222.85L237.853 226.298C237.211 226.377 236.812 227.035 237.039 227.641L241.024 238.287C241.216 238.801 241.787 239.064 242.302 238.876L267.568 229.687C268.059 229.508 268.329 228.982 268.19 228.479L266.826 223.574Z" fill="#DDD4FE" stroke="#101010" stroke-miterlimit="10" stroke-linecap="round" stroke-linejoin="round"/>
<path d="M267.566 230.252C267.375 229.742 266.812 229.478 266.298 229.659L244.407 237.356C243.883 237.54 243.61 238.114 243.797 238.637L245.663 243.842C245.789 244.194 245.709 244.586 245.455 244.86L237.011 253.966C236.31 254.722 237.073 255.915 238.053 255.597L271.834 244.62C272.376 244.444 272.661 243.851 272.461 243.318L267.566 230.252Z" fill="white" stroke="#101010" stroke-miterlimit="10" stroke-linecap="round" stroke-linejoin="round"/>
<path d="M244.982 93.15C244.496 93.9918 244.982 97.1088 244.982 97.1088C244.982 97.1088 244.11 97.6274 243.457 97.5622C242.804 97.4971 242.161 97.1088 242.161 97.1088V93.0536C242.161 93.0536 237.448 90.6351 239.167 88.3026C240.534 86.447 244.074 89.3398 244.892 89.6343C245.71 89.9288 247.055 88.9229 247.502 89.9106C248.031 91.0808 245.499 92.2535 244.982 93.15Z" fill="white" stroke="#101010" stroke-miterlimit="10" stroke-linecap="round" stroke-linejoin="round"/>
<path d="M219.562 104.771L206.806 113.139C206.806 113.139 187.694 102.127 186.733 100.927C185.771 99.7274 184.463 96.4277 183.372 96.4711C182.28 96.5145 183.372 100.84 183.372 100.84C183.372 100.84 174.384 97.9267 173.336 99.8119C175.212 100.37 179.881 101.825 179.881 101.825C179.881 101.825 171.94 99.4257 170.935 100.84C169.929 102.255 179.751 104.181 179.751 104.181C179.751 104.181 170.544 101.482 169.671 103.452C168.798 105.422 178.138 105.895 178.138 105.895C178.138 105.895 170.283 105.509 170.413 106.624C170.544 107.739 184.117 107.695 205.977 126.118C209.992 123.762 225.613 114.535 225.613 114.535L219.562 104.771Z" fill="white" stroke="#101010" stroke-miterlimit="10" stroke-linecap="round" stroke-linejoin="round"/>
<defs>
<clipPath id="clip0">
<rect width="100" height="98" fill="white" transform="translate(151 136)"/>
</clipPath>
</defs>
</svg>
