<svg width="206" height="293" viewBox="0 0 206 293" fill="none" xmlns="http://www.w3.org/2000/svg">
<path d="M137.51 274.7C137.51 274.7 86.8525 235.628 81.7205 233.413C76.5885 231.197 47.8833 217.836 51.2883 210.001C54.5408 202.519 73.2402 216.456 82.1879 218.467C89.322 220.073 94.9151 214.619 106.238 201.82C114.723 192.23 117.277 189.666 119.707 191.534C123.975 194.82 111.725 203.323 115.081 212.543C119.866 225.696 166.176 243.863 166.176 243.863" fill="white"/>
<path d="M137.51 274.7C137.51 274.7 86.8525 235.628 81.7205 233.413C76.5885 231.197 47.8833 217.836 51.2883 210.001C54.5408 202.519 73.2402 216.456 82.1879 218.467C89.322 220.073 94.9151 214.619 106.238 201.82C114.723 192.23 117.277 189.666 119.707 191.534C123.975 194.82 111.725 203.323 115.081 212.543C119.866 225.696 166.176 243.863 166.176 243.863" stroke="#16141F" stroke-width="2" stroke-miterlimit="10" stroke-linecap="round" stroke-linejoin="round"/>
<path d="M90.7659 231.654C90.7659 231.654 73.67 209.24 78.0511 205.125C82.2605 201.171 106.792 221.674 113.178 242.342" fill="white"/>
<path d="M90.7659 231.654C90.7659 231.654 73.67 209.24 78.0511 205.125C82.2605 201.171 106.792 221.674 113.178 242.342" stroke="#16141F" stroke-width="2" stroke-miterlimit="10" stroke-linecap="round" stroke-linejoin="round"/>
<path d="M116.956 258.985C116.956 258.985 131.705 241.019 138.941 231.326L150.775 237.189C150.775 237.189 135.685 259.843 129.688 268.689L116.956 258.985Z" fill="#77AF44" stroke="#16141F" stroke-width="2" stroke-miterlimit="10" stroke-linecap="round" stroke-linejoin="round"/>
<path d="M97.9709 217.748C96.5542 203.765 98.6633 197.04 100.382 189.104C101.36 184.588 98.5993 176.724 94.2341 180.463C85.0458 188.336 85.9934 207.323 85.9934 207.323L97.9709 217.748Z" fill="white" stroke="#16141F" stroke-width="2" stroke-miterlimit="10" stroke-linecap="round" stroke-linejoin="round"/>
<path d="M97.9682 217.749C96.1071 208.536 100.102 182.477 104.162 185.488C108.954 189.044 104.234 212.794 104.234 212.794" fill="white"/>
<path d="M97.9682 217.749C96.1071 208.536 100.102 182.477 104.162 185.488C108.954 189.044 104.234 212.794 104.234 212.794" stroke="#16141F" stroke-width="2" stroke-miterlimit="10" stroke-linecap="round" stroke-linejoin="round"/>
<path d="M116.937 258.87L129.798 268.665L127.842 271.249C126.665 272.805 124.448 273.111 122.891 271.934L115.666 266.404C114.109 265.227 113.803 263.009 114.981 261.453L116.937 258.87Z" fill="#16141F" stroke="#16141F" stroke-width="2" stroke-miterlimit="10" stroke-linecap="round" stroke-linejoin="round"/>
<path d="M101.737 215.373C101.737 215.373 105.822 210.678 110.086 210.714L101.737 215.373Z" fill="white"/>
<path d="M101.737 215.373C101.737 215.373 105.822 210.678 110.086 210.714" stroke="#16141F" stroke-width="2" stroke-miterlimit="10" stroke-linecap="round" stroke-linejoin="round"/>
<path d="M156.319 63.7348L142.148 129.89L21.038 103.948L35.2084 37.7929L156.319 63.7348Z" fill="#77AF44" stroke="black"/>
<path d="M88.3633 84.212L88.5712 84.3921L88.8345 84.313L146.924 66.8707L87.1176 91.1691L42.5347 44.5116L88.3633 84.212Z" fill="#36501F" stroke="black"/>
<path d="M173.795 159.621C167.675 165.178 160.045 168.794 151.869 170.014C143.693 171.233 135.339 170 127.864 166.472C120.389 162.943 114.128 157.276 109.874 150.189C105.62 143.101 103.563 134.911 103.964 126.655C104.365 118.398 107.206 110.446 112.127 103.804C117.048 97.1623 123.828 92.129 131.61 89.341C139.392 86.553 147.826 86.1355 155.845 88.1414C163.864 90.1473 171.108 94.4863 176.661 100.61C184.106 108.815 187.987 119.642 187.449 130.709C186.912 141.776 182.001 152.176 173.795 159.621Z" fill="#5A527A"/>
<path d="M174.725 158.102L174.725 158.102C168.678 163.593 161.139 167.166 153.061 168.371C144.983 169.576 136.729 168.358 129.343 164.871C121.958 161.384 115.772 155.786 111.569 148.783C107.365 141.78 105.333 133.688 105.729 125.531C106.125 117.373 108.932 109.516 113.794 102.953C118.656 96.3909 125.355 91.4179 133.044 88.6633C140.733 85.9086 149.066 85.4961 156.989 87.478C164.912 89.4599 172.07 93.747 177.556 99.7972L177.556 99.7973C184.912 107.905 188.747 118.602 188.216 129.536C187.685 140.47 182.832 150.746 174.725 158.102Z" fill="#7371FC" stroke="#16141F"/>
<path d="M169.359 114.712C167.861 105.366 162.551 97.1886 155.794 90.3963C146.171 88.0506 136.013 89.5324 127.462 94.5295C118.91 99.5266 112.633 107.649 109.953 117.184C107.273 126.719 108.4 136.922 113.095 145.643C117.791 154.364 125.689 160.922 135.125 163.934C148.106 159.996 159.515 150.701 165.439 138.457C168.988 131.119 170.66 122.753 169.359 114.712Z" fill="white"/>
<path d="M168.67 114.59C169.995 122.628 168.357 130.964 164.857 138.264C159.001 150.456 147.663 159.683 134.739 163.56C139.617 165.133 144.754 165.709 149.843 165.254C154.932 164.8 159.869 163.324 164.36 160.915C168.851 158.506 172.805 155.213 175.985 151.232C179.165 147.251 181.507 142.663 182.871 137.743C184.234 132.822 184.592 127.67 183.923 122.591C183.254 117.513 181.571 112.614 178.975 108.184C176.379 103.755 172.922 99.8873 168.812 96.8109C164.702 93.7345 160.021 91.5126 155.05 90.2777C161.821 97.0734 167.143 105.25 168.67 114.59Z" fill="#EEEEFF"/>
<path d="M123.387 128.193L147.5 126.854L147.555 128.152L123.387 128.193Z" fill="#5133CC"/>
<path d="M173.971 143.344L146.378 128.15L146.881 126.463L173.971 143.344Z" fill="#5133CC"/>
<path d="M148.928 129.69L148.928 129.69C148.502 130.077 147.97 130.329 147.4 130.414C146.831 130.499 146.249 130.413 145.728 130.167C145.207 129.921 144.771 129.526 144.475 129.033C144.178 128.539 144.035 127.968 144.063 127.393C144.091 126.818 144.289 126.264 144.632 125.801C144.975 125.338 145.447 124.988 145.989 124.794C146.531 124.599 147.119 124.57 147.677 124.71C148.236 124.85 148.741 125.152 149.128 125.579L149.128 125.579C149.385 125.862 149.583 126.193 149.712 126.552C149.841 126.912 149.898 127.294 149.879 127.676C149.861 128.057 149.767 128.432 149.604 128.777C149.441 129.123 149.211 129.433 148.928 129.69Z" fill="#FF0000" stroke="#16141F"/>
<path d="M121.188 99.1055L126.344 104.791" stroke="#B7A6FF" stroke-width="1.5" stroke-linecap="round" stroke-linejoin="round"/>
<path d="M167.02 149.646L172.748 155.964" stroke="#B7A6FF" stroke-width="1.5" stroke-linecap="round" stroke-linejoin="round"/>
<path d="M177.598 133.609L185.326 136.006" stroke="#B7A6FF" stroke-width="1.5" stroke-linecap="round" stroke-linejoin="round"/>
<path d="M175.406 116.139L183.396 114.863" stroke="#5133CC" stroke-width="2.504" stroke-linecap="round" stroke-linejoin="round"/>
<path d="M166.746 104.811L172.764 99.4026" stroke="#5133CC" stroke-width="2.504" stroke-linecap="round" stroke-linejoin="round"/>
<path d="M119.113 153.947L125.131 148.539" stroke="#B7A6FF" stroke-width="1.5" stroke-linecap="round" stroke-linejoin="round"/>
<path d="M109.215 134.145L117.133 132.72" stroke="#B7A6FF" stroke-width="1.5" stroke-linecap="round" stroke-linejoin="round"/>
<path d="M140.366 89.7781L141.79 97.6967" stroke="#B7A6FF" stroke-width="1.5" stroke-linecap="round" stroke-linejoin="round"/>
<path d="M152.783 156.801L153.575 165.292" stroke="#B7A6FF" stroke-width="1.5" stroke-linecap="round" stroke-linejoin="round"/>
<path d="M157.234 90.6024L155.044 98.3444" stroke="#5133CC" stroke-width="2.504" stroke-linecap="round" stroke-linejoin="round"/>
<path d="M138.902 156.725L136.712 164.467" stroke="#B7A6FF" stroke-width="1.5" stroke-linecap="round" stroke-linejoin="round"/>
<path d="M110.039 117.277L118.413 118.894" stroke="#B7A6FF" stroke-width="1.5" stroke-linecap="round" stroke-linejoin="round"/>
</svg>
